<?xml version="1.0" standalone="no"?>
<!DOCTYPE svg PUBLIC "-//W3C//DTD SVG 1.1//EN" "http://www.w3.org/Graphics/SVG/1.1/DTD/svg11.dtd" >
<!--
Hermetico was designed by Lor&#195;&#169; (lorebbro) in 2020. It is free under the terms of the SIL Open Fonts License OFL. You are entitled to use it as you wish as long as you: 1. retain the ofl notice, even if you distribute it in a modified form; 2. don&#226;&#128;&#153;t sell them on their own; 3. don&#226;&#128;&#153;t claim they were your work. Thanks to Chris and Leigh.
-->
<svg xmlns="http://www.w3.org/2000/svg" xmlns:xlink="http://www.w3.org/1999/xlink" version="1.1">
<metadata>
Created by FontForge 20170730 at Wed Mar 25 16:10:33 2020
 By Lorenzo Fabiani
Designed in 2020 by Lore (lorebbro). SIL Open Font License. Hermetico was designed by Lore (lorebbro) in 2020. It is free under the terms of the SIL Open Fonts License OFL. You are entitled to use it as you wish as long as you retain the ofl notice even if you distribute it in a modified form, do not sell them on their own, do not claim they were your work. Thanks to Chris and Leigh.
</metadata>
<defs>
<font id="Hermetico-Regular" horiz-adv-x="614" >
  <font-face 
    font-family="Hermetico"
    font-weight="400"
    font-stretch="normal"
    units-per-em="1024"
    panose-1="0 0 0 0 0 0 0 0 0 0"
    ascent="819"
    descent="-205"
    x-height="432"
    cap-height="649"
    bbox="-38.2857 -346.167 964 990.2"
    underline-thickness="122"
    underline-position="-363"
    unicode-range="U+000D-25CA"
  />
<missing-glyph 
d="M189 79h237v411h-237v-411zM149 529h316v-489h-316v489z" />
    <glyph glyph-name=".notdef" 
d="M189 79h237v411h-237v-411zM149 529h316v-489h-316v489z" />
    <glyph glyph-name="uni0000" 
 />
    <glyph glyph-name="uni0000" 
 />
    <glyph glyph-name="uni000D" unicode="&#xd;" 
 />
    <glyph glyph-name="space" unicode=" " 
 />
    <glyph glyph-name="exclam" unicode="!" 
d="M387 584l-2 -26q-2 -6 -4 -10q-9 -17 0 -17q9 -1 6 -9q-17 -51 -9 -54q9 -3 3 -14q-4 -7 -5.5 -10t-0.5 -3q-1 -1 -4 -29q-3 -17 1 -18q5 -2 4 -9q0 -9 -9 -29q-6 -13 -9 -25q-3 -17 4 -22q4 -3 6 -11q1 -30 -7 -33t-4 -7q13 -14 12 -15q0 -11 1 -31q-9 -3 -10 -3l-10 -8
q-40 3 -42 3q-1 1 -28 16q-25 5 -19 24q6 18 4 25q-10 44 -7 74q3 33 2 35q-2 3 -9 42q-6 33 -8 64q-5 38 -6 45l-6 34l1 1q1 2 2.5 4.5t3.5 6t5.5 8.5t6.5 10q18 29 20 29q31 3 31 5q0 3 6 3q6 -2 11 0q7 0 69 -46zM336 141q25 -4 38 -26q14 -23 12 -27q-2 -18 3 -24
q2 -3 2 -7q0 -2 -1 -3q-9 -18 -10 -18q0 -11 -2 -30q-21 -3 -26 -2q-6 1 -19 0l-26 -2q-3 0 -44 10q-4 3 -4 4q0 6 -2 16q-38 14 -29 28q8 16 -5 29q16 6 23 25q6 17 15 21q16 8 22 10q1 0 7.5 -0.5t19 -1.5t26.5 -2z" />
    <glyph glyph-name="quotedbl" unicode="&#x22;" 
d="M449 579q16 -22 15 -31q0 -5 -4 -7q-9 -5 -11 -31q-1 -21 2 -30q3 -5 0 -9q-3 -3 -5.5 -6.5t-3.5 -5.5l-2 -2q-2 -2 -3 -22q-3 -29 -5 -32q-4 -5 -2 -12q2 -5 3 -9t1 -6v-1q0 -1 -3 -24q-1 -3 -2.5 -5.5t-2.5 -4.5t-1.5 -3.5t-1 -2.5t-1.5 -2v-1q-1 -1 -22 -19
q-17 2 -17 0l-22 6q-6 18 -6 19l-14 19q-20 3 -8 18q11 14 -10 21q8 14 2 20l-8 6l12 13q11 12 6 15l-8 8q-9 6 -5 23q4 15 -1 29q-5 15 -4 41q0 51 16 54q17 1 24 12q6 11 20 11q12 0 22 -5q30 -14 50 -44zM265 604q23 -29 22 -31t-1 -41q0 -38 -7 -63q-6 -21 -10 -42
q-1 -2 -1 -3l-2 -10q-1 -10 -5 -35.5t-9 -52.5q-2 -1 -5 -3q-1 -1 -2 -1t-25 -6q-14 -2 -21 -2l-17 2q-4 40 -12 50q-6 7 -1 43q3 16 -7 44q-10 24 -10 27q2 11 -1 40v5q0 27 21 91q3 1 13 3t17 4q19 5 63 -19z" />
    <glyph glyph-name="numbersign" unicode="#" 
d="M366 553q-14 -25 -12 -28t-1 -21l-1 -4q-2 -5 -4 -9q-5 -10 1 -30q0 -1 -15 -24q-8 -11 -4.5 -13.5t17.5 4.5q1 0 20 29q3 5 6 9.5l5 7.5t3.5 5.5t2.5 4.5l1 1q-1 7 0 28q2 15 15 46q8 18 10 38q0 17 30 34q28 13 45 -14q16 -27 7 -58q-27 -84 -30 -84q-2 0 -2 -10l2 -6
q1 -3 -11 -43q8 2 10 4q4 4 39 -23q6 -6 15 -20q2 -3 2 -8q1 -13 -26 -30q-4 -2 -8 -5t-5 -3q-4 -1 -27 5q-8 -3 -21 -14q-12 -10 4 -26q24 -24 31 -34q10 -14 -1 -48q-4 -13 -13 -12q-8 1 -45 -5q-3 -1 -11 1q-6 2 -11 -24q-8 -41 -17 -63q-3 -7 -8 -23q-16 -44 -12 -47
q3 -2 -11 -24q-5 -8 -7 -15q-1 -6 -28 -15q-1 0 -5.5 -1.5t-8.5 -3.5q-9 -4 -29 20q-16 22 -9 33q7 10 -11 27q-1 0 -7 -9q-4 -5 -22 -36l-11 -19q-12 -16 -35 -15l-7 -2l-1 -1q-5 0 -22 18q-16 18 -12 25q2 6 4 35q1 14 18 61q16 45 16 48q1 32 -18 35q-20 2 -26 14
q-3 3 -15 19q-3 4 -3 11q0 14 29 32q1 1 14 7q15 8 44 17q2 0 7 5q7 5 14 26q-5 6 -12 -4q-8 -11 -38 23q-1 0 -11 12q-11 12 21 41q11 9 16 4q4 -6 41 17q21 13 26 38l5 25q17 33 15 41q-1 7 8 32l4 25q5 24 26 41q17 11 27 12q18 0 28 -25q18 -41 5 -62zM323 337
q-32 -12 -30 -24q1 -7 1 -12q23 -9 26 -4q2 4 4 12q4 18 7 23q1 2 0.5 3t-3 1.5t-5.5 0.5zM262 190q-21 -32 -17 -41q4 -13 1 -19q23 -15 28 -4q5 13 6 20q5 35 -4 39q-2 1 -14 5z" />
    <glyph glyph-name="dollar" unicode="$" 
d="M365 701q6 -11 5 -15t17 -28q0 -3 -3 -21l-2 -20q18 -3 35 -5q26 -3 38 -18l19 -27q20 -27 9 -35q-2 -1 -21 -18q-14 -12 -23 0q-9 11 -11 11q-10 0 -26 1q4 -10 -8 -27q-11 -18 -6 -35q0 -1 1 -6t3 -16.5t4 -22.5q7 -40 1 -53q65 -7 71 -21q4 -13 8 -15q12 -3 22 -16
q10 -11 13 -81q3 -39 -1 -47t-3 -11q4 -14 9 -16q2 -2 2 -4q0 -6 -10 -33q-1 -2 -2 -6.5t-3 -12t-3 -13.5q-6 -24 -7 -25q-17 -11 -19 -22q-1 -9 -44 -22q-1 0 -3 -0.5t-6 -1t-8 -1.5q-12 -3 -13 -38q0 -4 4 -19q4 -16 -13 -23q-36 -16 -42 -4q-4 10 -6 12q-17 17 -13 23
t-5 29l-16 5q-8 0 -23 -1q-2 -10 -4 -19t-3 -13l-1 -4q-1 -1 4 -13q3 -11 4 -11q1 -1 -2 -6l-21 -9h-32q-14 34 -13 35q0 4 -1 5q-5 10 -10 32q-6 26 -31 28h-19q-15 0 -24 35q-7 2 -9.5 4t-1.5 4q2 4 -11 23q-6 9 -10 24q-5 13 23 24q12 4 27 8q11 4 15 0.5t-1 -12.5
q-1 -1 -4 -8q-4 -6 23 -33q2 -1 17 -4q7 -1 9 2.5t-2 11.5l-3 8q-4 6 13 43l-15 7q-10 4 2 34q2 7 9 15q9 9 -17 23q1 24 9 24t21 8q-9 4 -17 5q-10 3 -1 23l-26 9q-2 1 -5 2l-20 8q6 9 -5 10q-13 2 -22 15q-42 64 -32 71q11 8 5 15q-7 8 -7 14v2q1 4 0 51q0 19 3 38
q3 18 13 24q12 7 38 27q26 22 29 23q16 3 17 4l1 2q2 2 5.5 7t7.5 10q-16 11 -5 36q3 6 6 12.5t4 8.5v2q35 18 39 11t8 -11q10 -23 11 -24q3 -3 -13 -26q14 -9 17 -12q10 0 28 -1q17 23 8 29q-1 1 -4 2l-4 3l4 4q3 2 21 41q6 3 11 2q7 0 10 -1q12 -3 13 -3zM286 549
q-8 -6 -12 -24q-6 -17 -4 -56q0 -10 -3 -34q-4 -21 -4 -30q28 -26 34 -26l7 2q25 49 27 64q2 14 0 26q-3 45 -8 46l-8 2q-1 1 2 20q3 17 -31 10zM203 539q-8 -3 -17 -8l-6 -3l-10 -10q-4 -4 -7 -24q-3 -18 4 -36h-2q-1 0 0.5 -10t6.5 -37q1 -5 2 -13.5t1 -9.5q2 -10 28 -13
q12 18 7 30q-3 11 2 26l-5 14q-7 16 -4 28q3 18 1 20q-1 0 -1 46zM293 296q-12 -17 -17 -31q-4 -11 1 -64q3 -30 -1 -32q-3 -3 -2 -23q3 -44 1 -50q-1 -3 -1 -5q32 2 42 1q11 -1 18 -1q3 39 -4 64l-7 26q-5 11 2 21q9 12 1 33q-11 33 -5 46q3 8 -4 11.5t-24 3.5zM399 285
q-3 -7 -8 -17l-3 -6l-1 -17q-1 -1 -1 -35l1 -33q18 -25 15 -28q-4 -3 -7 -15q-7 -33 15 -30q6 1 15 2q7 0 8 1q-16 25 -3 28q12 3 8 42q-1 4 2 17q3 10 -3 69q-3 21 -20 21q-18 0 -18 1z" />
    <glyph glyph-name="percent" unicode="%" 
d="M501 680q-27 -60 -30 -60l-3 -1q11 -32 -11 -48q-21 -16 -22 -19q0 -1 -1 -5t-3 -13l-4 -18q-7 -31 -14 -45q-6 -11 -13 -30q-2 -6 -8.5 -22.5t-9.5 -24.5q-9 -22 -15 -21q-4 1 -5.5 -1t-1.5 -7q2 -19 1 -20l-2 -3q-2 -4 -6 -11t-9 -15q36 -11 49 1q13 11 15 10
q43 -21 52 -18t34 -8q24 -10 35.5 -18.5t10.5 -17.5q2 -20 3 -22q2 -5 11 -49q5 -23 5 -45q0 -15 -2 -20q-4 -11 -13 -32q-12 -28 -25 -42q-88 -22 -92 -21q-6 1 -14 1q-27 4 -35 1t-11 3q-9 12 -10 12q-1 1 -36 16q12 3 9 15q-3 11 -22 14q16 26 18 28q7 11 4 14l-8 6
q-8 4 9 12q-12 17 -8 21q6 4 8 5q-6 21 -6 23q0 1 3 25q-4 0 -22 -6q-17 -6 -26 -45q0 -1 -1.5 -8t-2.5 -11q-3 -10 -8 -23q-22 -47 -19 -56q5 -11 3 -12q-27 -35 -24 -38t-16 -37q-8 -15 -6 -17v-1q1 -1 1.5 -3t1 -4.5t1.5 -6t2 -7.5q-27 1 -46 -5q-15 -5 -29 -7
q-6 10 -13 40q-9 33 -5 34q15 8 18 11q2 0 22 23l-15 4q-8 2 -9 4q-1 1 1 3q16 16 23 16q4 -1 5.5 0.5t0.5 3.5q-9 20 5 32q13 13 20 30q22 52 20 54q-3 3 7 13q6 6 10 24q5 19 15 30q18 16 16 17q-2 2 24 47q8 13 9 15t2 1q-25 17 -32 0t-30 -31l-10 -5q-8 -6 -32 -4
q-27 3 -30 0q-3 -4 -11 -4q-10 0 -15.5 2.5t-4.5 7.5q1 4 -13.5 6.5t-45.5 4.5q16 25 2 44q-15 16 -15 20q-1 5 -1 15q0 31 7 53q8 32 7 33q-4 20 -5 21l-1 3q24 22 33 34q6 8 50 20q6 2 20 8q9 4 91 -7q-4 12 -1 16t11 0q15 -8 22 -10q21 22 22 21t18 7q16 8 20 19
q3 11 6 12q29 6 32 17q3 10 21 13q-2 25 2 26q1 0 4.5 1t5.5 2q23 16 40 16q11 0 18 -7q18 -17 23 -19zM334 544q-6 -3 -6 -5q0 -1 -1 -2t-5 -3.5t-8 -4.5t-11 -6l-10 -4l-5 -2q-4 0 -8 -6v-35q2 -5 3 -26q4 -2 -3 -11q-8 -9 3 -49l14 3q1 1 28 10q-4 2 -7.5 4t-5.5 3l-2 1
q0 1 -11 4q8 14 25 24q15 9 9 29q-1 5 0.5 7.5t6.5 0.5q4 -1 6.5 3.5t3.5 15.5q3 28 12 35t16 16q-19 2 -29 2zM181 518l-15 -3l-33 -4l-14 -36q-8 -19 -8 -36q0 -45 9 -55q10 -11 17 -26l26 -2q4 0 18 5l17 15q6 6 15 17q0 2 7 27q8 27 15 72q-16 4 -18 18q0 14 -36 8z
M411 237q-4 -2 -7.5 -4.5t-5.5 -3.5l-1 -1l-5 -11l-2 -38v-3q1 -4 1.5 -11.5t0.5 -16.5q4 -16 4 -20l5 -16q25 -9 26 -9q2 -2 32 -11q30 39 31 46q0 1 1.5 9t2.5 13q8 40 -4 62q-12 24 -12 25q-25 5 -36 3q-6 0 -31 -13z" />
    <glyph glyph-name="ampersand" unicode="&#x26;" 
d="M327 535q31 -59 34 -63l4 -7q-3 -4 -10 -20t-11 -43q-4 -23 -9.5 -33.5t-12.5 -8.5q-16 4 -22 -9l-11 -18q-3 -3 -20 -16q12 -29 39 -56q25 -25 35 -37q26 -32 40 -26q16 7 25 15q12 9 15 6q1 0 5 -2t11.5 -5t15.5 -7l-3 -5l-13 -9q1 -4 2 -9t2 -7t1 -3q0 -3 -24 -57
q15 -7 15 -8q1 0 17 -11q41 5 44 19q3 15 11 22q31 -7 33 -7t15 -12q-1 -34 -6 -51q-4 -15 -17 -26q-54 -48 -82 -39q-29 10 -33 14q-3 3 -19 16q-17 14 -54 -8q-44 -25 -53 -25q-2 0 -3 1q-8 6 -31 2q-12 -2 -49 -2q-38 0 -106 21q-15 4 -12 19q1 15 -10 28q-21 24 -21 36
q0 2 4 6q12 8 6 21q-6 19 2 44q9 22 7 30q-3 39 22 42q11 2 15.5 4.5t3.5 6.5q-8 21 14 34q21 14 23 17l2 6t1.5 5t1 3.5t0.5 2.5t1 2v1q0 2 7 17q-19 17 -25 17q-6 1 -8 8q-5 35 -8 37q-5 1 -2 34q3 31 1 47q-1 14 7 21q9 8 9 19q2 12 37 24q23 8 26 11q0 2 5 3q8 2 22 2
q6 0 34 -2q44 -3 60 -32zM183 490q7 -20 4 -50q-3 -28 34 -59q35 13 43 28t20 25q7 7 6 16q0 15 -1 24q-24 37 -48 32q-4 -1 -58 -16zM180 232q-4 -8 -8 -8q-1 0 -2 -1t-3.5 -5t-4.5 -8t-6 -11q-17 -32 -11 -43q6 -12 0 -35q-1 -4 2 -6q2 -2 20 -30q70 3 79 -1q10 -4 11 -3
q17 -6 21 3q4 6 7 12q1 0 7.5 1t10.5 2q11 2 14 3q-1 55 -10 58q-10 3 -19 28q-2 5 -7 9q-7 5 -18 23q-16 26 -38 42q-21 14 -45 -30z" />
    <glyph glyph-name="quotesingle" unicode="'" 
d="M365 556q4 -7 15 -13q8 -5 8 -28q0 -10 -1 -16q-4 -36 -4 -38t-1 -6t-2 -10.5t-2 -13.5q-3 -21 -1 -24q3 -5 -2 -8q-14 -11 -14 -12q-1 0 -8 -17q1 -1 11 -7q8 -4 -13 -62q-21 -54 -39 -54h-4q-20 6 -33 17q-32 27 -22 40q11 14 4 18q-11 7 -13 9l-2 1q-2 1 -5.5 3
t-6.5 4l16 17l6 14q-10 25 -17 39l-4 7q-4 8 -4 16q0 6 4 9q10 5 3 39q-11 48 -1 53q11 5 12 13l2 11q3 8 2 12q31 8 62 12q3 1 10 1q26 0 44 -26z" />
    <glyph glyph-name="parenleft" unicode="(" 
d="M387 661l-30 -50q-19 -33 -18 -34q8 -12 7 -18q-3 -9 -27 -21q0 -18 -4 -54q-3 -29 -7 -38q-13 -24 -14 -52q-1 -27 6 -42q4 -8 2 -10q-1 -2 -22 -20q12 -15 17 -23q7 -10 30 -2q3 -11 -15 -21q-18 -12 -4 -41l14 -14q9 -8 -3 -20q-13 -16 0 -22q13 -7 15 -16
q3 -31 12 -42q8 -10 33 -59q1 -3 24 -38q14 -20 19 -37q-15 -31 -27 -39q-10 -6 -14 -12q0 -2 -9 -12q-3 -4 -8 -4q-9 0 -25 19q-12 13 -15 10q-1 -1 -2.5 0.5l-5 5t-7.5 8t-10 11.5q-26 33 -25 45q1 16 -14 24q-18 10 -15 16q2 6 -3 32q-10 55 -16 59q-3 2 -11 10
q-9 30 -3 41q7 12 -2 25q-16 32 -6 36t-12 49q21 -1 15 36q-6 38 2 44q17 11 1 18q-13 6 4 35q10 19 4 37q-6 17 9 36q23 28 16 36l-10 12q11 -3 14 5q2 8 19 43q15 34 19 48q3 10 8 14q3 2 15 8q6 3 17 29h9q54 0 56 -21q2 -23 -3 -30z" />
    <glyph glyph-name="parenright" unicode=")" 
d="M310 676l15 -30q16 -31 17 -31q5 -5 11 -14q8 -12 7 -37q2 -3 21 -22q18 -18 12 -25q-7 -5 0 -21q7 -15 12 -22q13 -18 3 -24q-11 -5 0 -19q7 -9 1 -41q-1 -6 -2 -11.5t-2 -8.5t-1.5 -5.5t-0.5 -4.5v-1q23 -27 12 -36q-11 -8 5 -14q0 -1 -5 -40q-4 -39 0 -43q1 0 9 -7
q3 -1 3 -5q0 -8 -25 -35q0 -2 10 -15q5 -7 0.5 -10t-19.5 -5q-8 -37 -12 -38q-6 -2 -11 -10q16 -21 7 -34q-8 -17 -11 -31l-11 -30q-10 -28 -34 -34q-4 0 -22 -21q-17 -19 -30 -22h-10q-10 0 -61 19q5 7 7 15t-17 20q8 4 13 4q3 1 18 30q3 5 5 5l24 32q6 9 10 14
q-12 18 -2 24q11 6 13 9q27 59 23 69q-4 9 2 22q8 7 13 15q4 8 -9 29q4 5 12 7q7 1 -4 35q1 5 11 7q12 2 -5 53q-5 8 4 14l11 11q-12 21 -17 39l-6 23v20q2 6 -6 42q-9 43 -18 52q-9 7 -10 28q0 5 -5 25q-6 24 -28 37q-34 20 -20 31q13 10 21 18q-8 1 -14 1q-2 0 -12 9
q1 2 4 5.5t3 4.5q4 5 38 11q4 1 11 1q17 -2 26 -13q10 -15 16 -21z" />
    <glyph glyph-name="asterisk" unicode="*" 
d="M350 645q1 -21 7 -30t17 -7l23 6q29 14 51 -6q24 -18 25 -19q13 -30 -9 -44q-21 -13 -27 -33l-6 -4q-5 -4 25 -40q18 -20 25 -37q2 -2 2 -8q0 -14 -16 -31l-6 -9q-6 -9 -50 -6q-20 2 -29 8q-12 7 -21 -6q-17 -26 -14 -43q1 -10 -7 -16t-26 -11q-10 -2 -30 -8q-1 -1 -2 -1
q-11 0 -35 44q-7 12 -2 24q3 14 -25 30q-42 -26 -70 2q-20 22 -19 43q0 7 4 19q9 23 23 31q13 9 -1 29q-6 9 -15 12q-11 3 -8 36q2 22 9 37q7 19 39 16q27 0 40 -8q13 -9 23 1v1q3 3 17 43q14 38 39 37q8 0 12 -1q34 -10 37 -51z" />
    <glyph glyph-name="plus" unicode="+" 
d="M330 393q2 -28 3 -28q3 0 13 -37q-2 -2 -6 -7.5t-6 -7.5q-8 -9 -5 -12q12 -14 11 -23q-2 -12 49 -13q65 -2 71 -3q32 -3 35 -6q33 -32 33 -39v-1q-1 -2 -3 -18q-11 -6 -51 -17t-50 -8q-12 2 -22 -2q-11 -3 -49 8q-9 -49 -4 -60q6 -11 4 -15q-2 -6 -7 -16q-2 -3 3 -64
l-8 -4q-2 0 -14 -4q-18 -20 -18 -21q-1 -1 -20 -8l-30 25q-16 13 -15 31q1 26 -4 37q-5 9 4 47l3 14l-1 3q-1 3 -2.5 10t-3.5 14q-46 -1 -54 8q-8 10 -19 8q-16 -1 -25 -1q-5 0 -48 4q0 3 -5 7q-3 3 -3 18q0 5 2 27q82 32 83 30t13 -4q24 -3 25 -3t35 3q-19 16 -5 28
q15 14 9 20l-9 9q-3 3 5 11q13 14 4 17q-9 4 -4 12q14 23 11 33t8 22q15 3 26 3q19 0 28 -9q13 -16 13 -18z" />
    <glyph glyph-name="comma" unicode="," 
d="M355 175q15 -6 17 -7q5 -2 2 -12q16 -12 21 -31q8 -21 9 -31q3 -16 0 -16q-3 -1 9 -44q-21 -33 -23 -33t-10 -11q-2 -2 -1 -3q0 -3 -48 -63q-6 -8 -21 -23q-12 -11 -52 -25q-25 3 -26 2q-3 0 -14 8q13 36 12 41q2 11 5 14l14 15q1 1 11 27q-13 27 -27 38l-18 15q3 1 5 5
q3 5 -9 10q-1 7 0 28q0 21 -9 33q4 5 13 17l12 16q17 20 50 33q19 7 22 12q1 2 5 4q15 3 24 3q8 0 11.5 -1.5t2.5 -5.5q-3 -9 13 -15z" />
    <glyph glyph-name="hyphen" unicode="-" 
d="M451 281q25 3 27 3l4 -1q5 -1 15.5 -4t21.5 -6q-4 -7 -1 -30t5 -25q16 -12 16 -18q0 -3 -3 -6q-10 -6 -16 -18q-12 -27 -43 -27q-35 0 -41 -2q-27 -8 -37 -8q-6 0 -6 2q-3 8 -54 4q-61 -5 -79 1t-25 3q-25 -4 -34 0q-7 4 -14 1q-3 0 -15 -5q-16 -6 -27 -1q-1 0 -36 10
q-31 9 -33 27q-1 11 -1 29q0 22 1 31q2 25 6 27q26 4 36 11q10 6 66 2q30 -2 39 5q11 6 59 0q39 -6 41 -4q1 1 38 7q1 1 3 1q6 0 31 -5q30 -7 56 -4z" />
    <glyph glyph-name="period" unicode="." 
d="M351 181q18 -9 18 -11q-1 -1 5 -9q11 -12 15 -11q5 2 8 -1q8 -5 11 -5q1 0 2 -16q7 -3 13 -6q3 -1 4 -23q-6 -25 -19 -25q-15 1 -23 -5q13 1 22 1q2 0 7 -4q-3 -12 -3 -17q0 -4 -26 -6q-14 -11 -15 -11q-2 1 -10 -4q-6 -4 -14 -7q-9 -3 -6 -10q3 -13 -8 -13q-2 0 -10 2
q-21 4 -28 3q-6 0 -33 4q-26 5 -26 10l3 7q4 7 -7 12q-13 6 -12 9q1 2 -2 6l-7 11q-2 2 -23 13q24 9 18 18q-6 11 -7 11q18 22 15 25t1 8q7 11 13 12q8 3 -4 16q33 6 31 12q-1 3 0.5 4t6.5 2q3 1 23 4q12 2 17 4q13 5 18 5q3 0 4 -1q5 -3 28 -14z" />
    <glyph glyph-name="slash" unicode="/" 
d="M537 706l4 -8l1 -2q2 -3 5.5 -8t6.5 -10q-7 -20 -7 -28q0 -9 -5 -12q-11 -11 -6 -15q6 -4 4 -9q-1 -4 -14 -29q-12 -21 -21 -31q-2 -3 -10 -11q-6 -7 -9 -26q-3 -16 -13 -18q-9 -3 -9 -6q3 -25 -8 -30q-12 -5 -22 -15q-7 -18 -3 -22q5 -5 -16 -32l-17 -27
q-2 -4 -4.5 -8.5t-4 -7t-3 -4.5t-1.5 -3v-1q-4 -4 -15 -29q-5 -11 -9 -16t-6 -3q3 -41 8 -48q2 -5 0 -5q-24 0 -32 -5q-9 -5 -6 -9q9 -25 -3 -25q-5 0 -7.5 -1t-1.5 -3q7 -22 -6 -29q-12 -7 2 -12q-22 -17 -18 -21t0 -11l-2 -7q-3 -7 -36 -39q-5 -5 -13 -26q-7 -21 -8 -33
q-2 -14 -16 -32q-19 -24 -19 -25q-1 -3 -2 -6.5t-2 -5.5l-1 -2q0 -1 -2 -4t-5.5 -10t-7.5 -14l-16 -3q-3 -1 -13 -1q-30 0 -75 5q-13 31 -12 40q0 5 2 6q8 3 11 21q8 44 18 48q11 5 14 17q3 13 19 23q14 10 20 31q4 16 11 21q7 7 7 9q6 43 24 50q19 9 10 16q-10 6 -12 8
q-5 5 4 11q26 12 23 16q-3 5 1 11q11 17 15 15q2 -1 3.5 1t3.5 6q22 49 30 53q6 3 3 7q-11 28 12 34q10 3 15 7.5t4 10.5q-3 19 14 42q14 19 17 25q2 13 18 39q15 21 17 30q12 26 8 30q-5 4 -3 7q4 7 8 11l2 3q3 2 7.5 7t9.5 11q-19 5 -1 11q16 6 19 19q1 0 15 12
q17 11 -11 25q12 6 25 12t14 7q10 7 14 13q9 17 18 19q1 1 5 0q10 1 42 -2z" />
    <glyph glyph-name="zero" unicode="0" 
d="M281 621q41 -3 43 0q2 2 7 2q6 0 10 -1q41 -6 48 -3t14 -3q27 -19 31 -15t18 -4q30 -21 32 -22t4 -8q1 -2 4 -9.5t5 -13.5q2 -4 3 -8t2 -6l1 -1q12 -25 17 -27q3 -3 1 -9q-1 -2 -2.5 -7.5t-2.5 -8.5q-3 -10 -2 -27q3 -30 -1 -36q-3 -3 0 -9q6 -25 11 -30q5 -3 5 -7
q0 -2 -1 -3q-10 -22 -11 -25q-5 -10 -3 -15q4 -15 5 -20.5t-1 -6.5q-3 -2 -3 -14q-1 -27 1 -32q2 -2 2 -14q0 -8 1 -21t1 -30q0 -33 -6 -41t-5 -13q1 -3 1 -9t1 -9q1 -9 -2 -19q-11 -24 -15 -30q-6 -8 -11 -12q-23 -20 -27 -26q-2 -3 -8 -6q-32 -14 -33 -10q-3 3 -18 0
q-36 -7 -38 -5q-5 2 -19 1q-42 -1 -43 0t-14 0q-39 -4 -56 -4q-5 0 -5 1l-3 1q-32 14 -34 11q-3 -5 -12 0q-27 12 -34 12t-8 7q-1 5 -1.5 9t-1.5 7t-1.5 5t-1.5 2.5t-2 0.5q-6 0 -12 11l-3 5q-3 5 -5 10q-5 12 -7 29q-2 25 -6 30q-5 5 -5 8q0 1 2 3l7 14q8 13 5 27
q-4 23 -1 33q1 8 0 14l-6 19q-1 1 5 18q9 24 4 26q-5 1 -6 9q-3 35 -2 36v1q3 23 0 25t-2 8q1 23 3 26q2 2 4 14q3 22 5 28q2 3 0 9q-9 21 -3 24q5 3 4 12q-5 17 -3 26q0 8 5 18q16 37 27 40q21 9 41 20q28 17 33 12q2 -4 15 1q14 6 36 6zM340 537q-25 -7 -36 -4
q-14 3 -15 3q-24 4 -47 3q-22 -1 -39 -3q-1 -4 -1 -5l1 -1q1 -2 3 -4t4 -5l-9.5 -9.5t-6.5 -7.5l-2 -2q-2 -2 -3 -22q-2 -15 -2 -32q1 -7 1 -15q0 -15 2 -16t-4 -28q-3 -9 0 -14q2 -3 0 -42q0 -3 -0.5 -8.5t-1.5 -8.5l-4 -32q-1 -6 6 -11q6 -5 2 -32q-2 -9 2 -13q3 -4 0 -30
q-3 -19 -4 -19q-3 -2 6 -25q1 -3 2.5 -7t1.5 -6l1 -2q1 -1 -5 -14q5 -3 9.5 -6l7.5 -5t5 -3.5t4 -2.5l1 -1q2 -2 31 -6q11 -2 12 -1q4 2 45 -1q26 -2 40 1q4 1 9.5 1.5t8.5 1.5t5 1t3.5 0.5t2.5 0.5h2l6 4q5 4 17 12.5t26 18.5q-10 -2 -10 0q-1 0 -17 9q-4 2 9 20
q4 4 7.5 8.5t5.5 6.5l1 2q1 1 -7 8q-9 6 2 26q4 7 0 23q-4 13 -6 17q-1 5 6 17q2 3 13 22q3 5 -4 12t-10 30q-1 7 7 10q9 5 -1 16q-3 29 -2 30q0 1 -6 23q-1 5 4 12q3 4 8 26q3 8 0 11q-2 1 3 29q1 5 -7 8q-10 4 -29 23q-13 13 -21 14q-11 1 -33 -6z" />
    <glyph glyph-name="one" unicode="1" 
d="M357 635q24 -20 34 -27q6 -6 11 -10q-1 -9 -1.5 -18.5t-1 -14t-0.5 -6.5q-2 -7 1 -12l12 -23q-2 -2 1 -17q5 -32 2 -33q-2 -1 1 -16q6 -30 -1 -33q-6 -3 -6 -9q0 -33 8 -38q9 -6 6 -10q-8 -22 -14 -26q-4 -3 -2 -5q3 -5 10 -23q6 -12 0 -19q-13 -21 -7 -23q7 -3 7 -13
q1 -26 0 -27q-2 -2 0 -11q5 -23 10 -27q8 -5 5 -10q-4 -7 -7 -13q-2 -4 2 -22q6 -29 6 -34q-1 -1 -1 -2q-14 -23 -10 -25t2 -17l-1 -24q0 -1 -9 -25q-16 -17 -16 -18l-3 -2q-3 -3 -9 -7.5t-13 -10.5q-16 9 -28 11q-8 2 -11 7q-14 24 -20 28q-8 5 -9 10q-6 22 -8 26
q-4 9 1 11q15 3 15 8q-1 2 -2 8t-2 11q-2 5 -7 22q-3 12 0 15q14 16 10 19t-10 13q-11 20 -7 23q6 2 10 9q11 17 -2 17q-13 2 -8 10q3 3 11 22q3 7 7.5 18.5t6.5 15.5q-9 6 -23 8q-9 0 -9 3q0 1 1 2q7 9 9.5 12t3.5 2q2 1 18 6q-16 31 -19 31t-15 3q18 18 20 22l2 1
q2 1 5.5 3t6.5 4q-15 22 -15 24t-15 5l-22 -22l-2 -1q-3 -1 -8.5 -4t-11.5 -6q-2 5 -4 13q-1 6 -26 13q-21 6 -22 5q-4 4 -12 10q15 28 11 35q-3 8 0 11q19 18 21 23q0 4 6 10q22 17 30 19q6 2 6 8q1 17 9 18q9 2 11 8q0 7 2 16q3 13 19 25q3 2 6 4.5t4.5 4l2.5 2.5l37 29h4
h6z" />
    <glyph glyph-name="two" unicode="2" 
d="M354 622q23 0 31 -1q13 0 21 -6q27 -18 31 -17q5 2 13 -7l26 -26q2 0 7 -9q11 -18 14 -26q5 -9 2 -13q-8 -19 -8 -29t3 -16q9 -26 5 -27q-3 -1 -6 -15q-6 -28 -2 -35q3 -9 -1 -13q-18 -23 -17 -30q2 -9 -5 -12q-28 -17 -34 -19q-3 -1 -9 -7q-16 -19 -17 -19l-18 -13
q-27 -19 -25 -24v-2t-2 -2t-3 -2t-4 -2q-6 -3 -20 -11q-10 -6 -15 -21q0 -1 -1 -3t-2.5 -6t-3.5 -8q-5 -13 -19 -18q-15 -5 -21 -6t-11 -21q-5 -21 -15 -15q-11 6 -13 -2l-5 -15q0 -1 -17 -16q1 -1 18 -7q14 -5 26 -7q26 -3 31 2q4 6 14 4q45 -1 46 -5q0 -4 12 -4
q31 -1 43 2q13 4 16 3q34 -8 35 -7q3 3 18 0l29 -4q2 0 20 -7q-1 -22 -1 -38q0 -6 1 -11q-36 -17 -41 -21q-6 -6 -12 -6q-40 1 -43 0q-2 -2 -16 0q-28 2 -29 1q-8 0 -22 -2q-27 -3 -34 -3h-3q-3 2 -16 1q-28 -1 -29 0q-2 2 -19 3q-35 3 -37 3q-5 -1 -21 -1q-34 2 -40 -2
q-9 -4 -14 0l-18 15q-1 0 -33 16l6 27q2 2 1 10v26q0 14 3 17q23 20 20 28t2 12q17 17 20 23q0 3 7 7q24 18 21 21q-1 1 7 11q11 12 20 24q5 7 13 11q18 12 19 22t6 12q3 1 10 3t12 4q13 5 24 15q16 19 25 22q10 3 12 8q16 26 18 24q3 -1 16 9l19 14q1 1 25 28q3 16 -2 22
q-5 7 -4 13q5 18 5 20q3 6 9 23q-4 9 -8.5 18.5t-6.5 13.5l-2 4q-1 1 -1 2t-0.5 1.5t-0.5 1.5q-54 11 -56 13q-1 3 -12 1q-26 -2 -53.5 -4.5t-28.5 -2.5q-16 -1 -20 -4q-21 -12 -26 -19q-3 -5 -11 -8q-22 -11 -23 -12q-1 0 -25 -9q-10 12 -12 15l-3 3t-6 6.5t-8 9.5
q1 1 2 3.5t2.5 5t3.5 6.5t4 7q8 15 16 21q18 14 24 24q3 8 8 11q19 9 21 10q9 3 29 8q27 8 32 5q4 -4 18 -1q32 6 34 4t11 1q14 2 17 2q5 0 7 -1q4 -3 20 -3z" />
    <glyph glyph-name="three" unicode="3" 
d="M316 623q24 4 28 4q6 0 8 -3q3 -5 15 -5q23 2 24 2q2 0 27 -13l17 -9q1 -1 5 1q15 -35 21 -50q3 -8 3 -17l2 -28q1 -3 3 -17q4 -31 -1 -31q-3 0 -6 -13q-4 -26 -3 -27v-35q-13 -7 -1 -10q11 -3 12 -4q0 -23 3 -23q2 1 4 -5q1 -2 3 -7q3 -7 6 -15l2 -5q0 -2 16 -28
q-8 -14 -17 -18q-8 -3 -5 -9q12 -21 18 -27q3 -3 0 -9q-12 -29 -8 -30q3 -1 5 -16v-20q0 -4 -5 -22q-8 -22 0 -30q4 -6 0 -12q-19 -19 -26 -19q-3 1 -10 -9q-11 -15 -19 -27q-2 -3 -9 -5l-26 -8h-25l-8 -26q-8 6 -15.5 11.5t-11.5 8.5l-3 2q-1 1 -41 4q13 -9 14 -8l9 -10
h-59q-7 -2 -13 3q-34 16 -38 15q-5 0 -10 4q-19 15 -32 15q-10 -1 -15 4l-17 16l-14 21q-2 2 -4 4.5t-3 4t-2 2.5l-2 2v1q0 8 -1 23q12 25 12 27l11 11q8 -1 14 -2t11.5 -2t8.5 -2t5.5 -2t3.5 -1.5t1 -1.5q-1 -3 2 -5.5t10 -5.5q0 -1 17 -8q11 -5 29 -14q29 -11 38 -15
q5 -3 13 -1q16 2 25 2q2 0 57 6l3 4l12 14q12 30 7 31q-6 2 -6 11q-1 26 -1 40l5 7q10 18 7 21l-8 10l9 31l5 6q-30 24 -31 25l-5 1q-4 2 -15.5 5t-22.5 6q-13 -5 -14 -12q-3 -10 -9 -7l-23 11l-4 3q-3 2 -11 6.5t-17 10.5q1 3 2 7q0 2 1 3l1 4q1 4 3 13.5t4 20.5
q7 3 12.5 6.5t8.5 5.5t4 2q2 2 9 4q29 2 30 8q-1 6 7 8t33 7q12 4 12 6q-12 16 -8 19q5 3 9 12q2 5 4 10.5t3 8.5l1 2q0 1 -6 28q-11 9 -18 16q-1 1 -31 22q-4 7 -4 8q-1 1 1 3q-53 -12 -60 -10q-10 2 -14 -1l-22 -11l-26 -10q-16 -6 -34 -12q-8 -4 -35 -12q0 5 -1 6
q0 2 -17 13q7 22 3 30q-3 7 1 9q2 1 8 4.5t9 5.5q12 6 20 19q4 4 9 13q6 11 25 12q38 5 39 9t11 3q17 -2 44 -2q21 0 28 2z" />
    <glyph glyph-name="four" unicode="4" 
d="M381 621q4 -2 19 -11q13 -8 12 -13q0 -16 7 -21q7 -3 4 -9q-12 -26 -7 -31q6 -3 6 -18q0 -27 -7 -34q-6 -8 -3 -11q8 -12 15 -23q4 -7 1 -11q-12 -27 -5 -31q7 -3 4 -16q-9 -36 -8 -38l1 -2q16 -38 15 -39l-3 -3q-11 -14 -6 -17q1 -1 2 -2.5t2.5 -2.5t3.5 -3l4 -4
q-5 -5 -11 -8q-8 -5 8 -19l-11 -31l-5 -8q10 -5 20 -10.5t14 -7.5l4 -2l37 -11q5 2 6 0q1 -1 -1 -3q-2 -4 -2 -5.5t1 -2.5l20 -3l29 -17q-6 -4 -11.5 -9t-8.5 -7t-4 -3q-1 -2 -10 -4q-25 -6 -30 -8q-2 -2 -37 -15l-8 -6q-1 0 -19 -24q1 -1 9 -15q9 -15 6 -18
q-4 -6 -7.5 -11.5t-5.5 -8t-2 -3.5q-8 -8 -19 -23l-16 8l-42 8q-1 2 -2.5 7t-2.5 7q-3 9 -1 16l4 18q0 12 -2 34q-14 -2 -20 -4q-10 -1 -22 0h-20q-19 2 -34 8q-19 7 -28 3q-8 -4 -11 -3q-26 11 -29 8q-2 -4 -25 -1q-25 2 -37 1q-16 -1 -19 5q-7 17 -10 17q-2 0 -5 7l-7 21
q-4 8 -4 17q0 8 4 13q12 22 7 33q-4 11 3 15q2 1 8 4.5t10 6.5q10 7 17 20q12 21 19 28q5 5 7 12q1 8 2 13t2 9t1.5 5.5t1.5 1.5t10 16q9 17 16 31q3 7 7 10q1 1 9 8t13 11q12 9 12 14q5 28 5 37q-2 11 3 17q16 28 16 30t6 10q18 32 18 34q-1 4 7 12q19 19 28 22q7 3 9 9
q0 4 0.5 7.5t1.5 5.5v2q0 3 17 17q4 -1 7.5 -1.5t4.5 -0.5h1zM323 436q-27 -11 -29 -15q0 -2 -5 -12q-1 -3 -2 -4.5l-2 -3t-2 -2t-2 -0.5q-2 1 -7 -8q-2 -4 -8 -15l-1 -1q-7 -13 -11 -17v-3q0 -3 -0.5 -9.5t-0.5 -13.5t-7 -11q-10 -4 -23 -29q-7 -13 -5 -15q1 -3 -15 -34
q-10 -20 -14 -24q-7 -7 -16 -15q30 -8 31 -8q1 -1 27 -4q19 -2 41 -1q20 1 35 1q3 0 6 0.5t5 0.5t3.5 0.5t2.5 0.5h1q5 0 13 2q6 46 5 47l-1 3q-1 2 -4 7.5t-5 10.5q-7 18 -2 23l10 10q3 3 -1 12q-3 6 -13 41q2 6 5 10q8 8 11 13q3 4 -2 7q-5 5 -14 52l-1 -1z" />
    <glyph glyph-name="five" unicode="5" 
d="M386 626q13 1 27 1h5q2 -2 36 -16l6 -12l5 -11q-15 -27 -15 -29q0 -1 1 -5q-51 0 -65 1q-26 0 -34 -1q-41 -3 -45 -4q-7 -2 -18 -1q-18 1 -29 1l-48 -14q1 0 1.5 -1t1.5 -1h1q1 -1 2.5 -1.5t4 -2t4.5 -2.5l-18 -18q-4 -4 2 -21q9 -26 8 -27q-2 -3 1 -18q3 -14 4 -15
q0 -1 15 -16q34 10 35 8q1 -4 16 -5l43 -2q9 -1 15 1q27 11 28 8q2 -4 20 -7q6 -1 13.5 -2.5t12 -2.5t6.5 -1q9 -3 13 -9q19 -20 27 -23q10 -3 11 -7q6 -25 5 -30q-1 -2 3 -8q16 -20 13 -23t-3 -14q0 -36 2 -42q4 -10 3 -13q-5 -27 -6 -28t0 -5q6 -29 8 -33q2 -1 0 -3
q0 -2 -1 -4q-7 -12 -9 -18t0 -7q5 -2 4 -13q0 -12 -1 -22q-1 -16 -10 -29q-19 -25 -19 -28q1 -1 -6 -8q-16 -17 -17 -16t-21 -8l-12 -6q-14 -8 -41 -8h-53q-12 0 -15 1q-41 4 -43 -2q-2 -3 -6 -3q-5 0 -8 1q-35 7 -41 8q-15 2 -57 22q-16 20 -14 22q3 3 -2 8q-4 4 -13 16
q-11 13 -8 26q2 8 4 17l1 5l-6 23h4h7h8q15 1 29 -8q28 -20 31 -20q3 1 12 -6q16 -12 16 -19l1 -4q28 8 36 0q7 -7 11 -4q10 7 21 9q9 2 16 -2q9 -4 19 -8l4 -2l8 -1q35 21 38 24q5 5 30 26l5 5q0 1 3 -2q-13 50 -13 51q-2 4 1 10q2 4 5.5 12t5.5 12q4 12 3 18q-2 9 -6 19
q-3 13 0 22q5 17 4 18l-15 20q-2 15 -3 15q-2 2 -5 4q-65 15 -66 14q-2 0 -3 -1q-28 -15 -33 -14q-8 0 -11 1q-28 7 -30 1q0 -7 -13 -10q-26 -6 -32 -12t-11 -4q-21 7 -26 7q-2 0 -29 -12q-1 18 2 20q1 0 2 1t3.5 2.5t4.5 2.5q-17 30 -11 36q5 6 3 8t-8 11t-3 17q9 22 3 25
q-7 3 -4 16q6 23 10 28t0 9q-15 19 -9 22q3 2 5 12q0 29 -4 34q-5 8 -1 13q15 18 13 21q-1 2 6 11q5 7 13 16q11 12 24 12h43q2 1 19 1h68q65 -1 75 0z" />
    <glyph glyph-name="six" unicode="6" 
d="M477 623l6 -19l5 -14q-9 -18 -19 -22q-3 -1 -27 -10q-31 -12 -33 -14q-1 0 -3 -0.5t-5 -1.5l-6 -2q-9 -3 -17 -6t-12.5 -5t-5.5 -2q-6 -3 -11 -5q-23 -12 -26 -12q-6 -2 -14 -11q-13 -15 -16 -15q-4 -2 -11 -18q-7 -18 -16 -23q-6 -3 -9 -10q-4 -6 -11 -21q-4 -7 -14 -21
q10 -12 9 -13l1 -4q51 -5 54 -3q5 3 9 2q31 -6 34 -2q3 5 17 2q9 -2 17.5 -3t14.5 -2t8 -1q10 0 47 -28q27 -21 29 -22q4 -4 5 -8q4 -21 5 -24q1 -5 2.5 -8.5t1.5 -5.5l1 -2q2 -29 7 -36q3 -5 2 -8q0 -3 -1 -5q-12 -16 -6 -18q6 -3 6 -11q-2 -20 -7 -27q-7 -7 -4 -10
q4 -6 5 -7q3 -3 6 -2l-22 -69v-3q2 -24 -2 -26q-2 -1 -14 -10q-18 -13 -22 -20q-3 -6 -7 -7q-1 0 -3.5 -1t-7.5 -2t-11 -3q-21 -5 -33 -4q-41 2 -42 0q-1 -1 -5 -1h-9q-36 3 -40 5q-2 2 -12 1q-33 -3 -36 -5q-6 -3 -11 0q-28 13 -35 15q-1 1 -3.5 3t-4.5 3q-26 27 -26 28
q-1 1 -5 6q-11 27 -14 31q-5 7 -5 11q2 19 -4 25q-3 3 -3 7v2t1 2q4 9 14 24q6 9 3 12q-5 4 -13 14q-7 7 0 18l1 1q0 1 0.5 2.5t2 4t2.5 4.5q5 10 1 20q-6 17 -3 19q5 5 4 10q0 2 -0.5 4.5t-1 7t-0.5 7.5q-2 15 4 25t7 15t-3 6q-8 3 -6 14q1 23 7 26q8 3 9 8q6 30 8 30
q1 0 6 12q2 7 3.5 13t2.5 9l1 3q1 0 12 14q17 23 16 25q-1 3 3 10q9 14 21 21q6 3 9 10t6.5 13t4.5 8l1 2l4 3q28 17 28 19t10 8q26 16 28 18q1 1 12 7q26 10 26 12q-1 1 1 2t7 2h1q2 1 5 1.5t5 1.5q17 5 34 8q6 0 27 4h11q21 0 37 -8zM238 295l-2 -2q-1 -2 -3 -4
q-1 -2 -18 -22q-5 -6 -2 -15q3 -8 -7 -35q-1 -4 2 -10q4 -9 -2 -31q-1 -5 0 -8q1 -2 7 -54q3 1 4 -1v-3q40 -17 41 -17l3 -1q3 0 10 -1l14 -2q19 -4 22 -4q2 0 23 7q7 2 13.5 3t9.5 2t4 1t17 16l16 16q0 5 2 12q8 31 7 32l-3 20q-3 12 0 15q3 1 0 34q-2 7 -6 8q-8 3 -15 23
q-1 2 -2 5l-3 5q-4 4 -10 8l-40 5q-10 0 -28 -1q-15 -1 -18 2t-36 -3z" />
    <glyph glyph-name="seven" unicode="7" 
d="M302 630q5 -1 19 -3q8 -1 42 -1h31h32h34l32 -3q8 -17 7 -18l3 -21q0 -2 -0.5 -6t-1 -11t-0.5 -12q-2 -20 -11 -27q-22 -18 -21 -22q3 -4 -5 -15q-6 -8 -13 -16t-10 -11l-2 -3q0 -2 -1 -6q-6 -19 -15 -24q-10 -6 -9 -10q6 -15 4 -20q-2 -6 -7 -13q-17 -22 -14 -25t0 -12
q-8 -20 -15 -25q-4 -4 -3 -10v-13q0 -9 -3 -20q-1 -6 -3 -13t-3.5 -11t-1.5 -6q-1 -5 -1 -17q0 -26 4 -31q4 -6 3 -11q-6 -22 -10 -26q-5 -5 -4 -8q8 -21 7 -22q1 -1 -3 -22q-6 -26 -4 -28q1 -1 1 -11q-2 -30 0 -30q3 0 0 -9q-5 -20 -5 -19v-17q-37 -7 -44 -11q-5 -3 -8 -3
q-2 0 -4 2q-25 10 -36 9q-5 -1 -7.5 1t-1.5 6q4 22 -4 24q-8 3 -6 9q5 26 1 27q-4 2 -1 11q11 35 12 35t1 9q-2 22 -7 27q-6 4 -4 11q5 23 10 27q7 5 5 10q0 1 -1 3t-2 5.5t-2 6.5q-4 11 9 29q11 17 5 23q-5 9 -1 17q7 20 16 27q9 6 6 9q-2 4 -4 7.5t-3 5.5l-1 2q0 1 -5 1
q20 39 22 50q1 7 5 13q19 20 16 23t2 10q13 21 13 27q2 11 4 13q14 17 13 21q-1 6 1 8q14 12 12 15q0 1 -0.5 3.5t-1 8t-1.5 11.5l22 6q1 0 5 4q-45 2 -53 -3q-7 -4 -13 -3q-28 6 -29 5q-2 -2 -21 -5q-37 -4 -39 -2q-2 1 -16 1q-11 0 -21 -1q-17 0 -33 4l-20 5q-3 0 -18 -7
q-15 23 -15 24q0 12 1 32q4 6 5 6q0 2 -1 4q40 15 52 19q6 2 12 1l20 -2t15 -2t7 -1q5 -2 12 1q1 0 3 1t7.5 2t10.5 3q16 4 28 4q11 0 18 -1z" />
    <glyph glyph-name="eight" unicode="8" 
d="M391 623q26 -5 28 -6q13 -3 19 -15q15 -26 21 -29q5 -3 9 -9q12 -25 22 -30q9 -5 8 -10l-9 -39l1 -6q0 -3 4 -16q3 -15 -2 -25q-11 -21 -6 -23t3 -11q-1 -6 -1.5 -10t-1.5 -7t-2 -4t-2 -1q-2 1 -14 -12q-6 -8 -8 -10q-4 -5 0 -8q1 -2 11.5 -13t15.5 -17q14 -17 7 -24
q-11 -17 -3 -21q8 -3 10 -10q5 -16 5 -28q0 -6 -2 -7q-6 -5 -5 -11l3 -21q2 -17 -2 -26l-6 -21q-6 -19 -3 -34q8 -32 0 -32q-7 0 -10 -13q-1 -5 -2.5 -9t-2.5 -6v-2l-8 -15q-4 -3 -11.5 -9t-9.5 -8q-6 -5 -27 -12q-44 -14 -45 -14h-1q-1 1 -2 1q-45 3 -46 4t-12 -1
q-40 -5 -42 0q-1 3 -15 5q-32 1 -34 3q0 1 -19 6l-27 6l-24 15q-7 3 -16 10q-10 6 -12 20q-4 24 -7 25l-2 11q-4 36 -7 41q-1 2 -1 4q0 4 1 6q9 18 7 20q-2 1 -5 17q-3 27 1 28q4 2 3 12q-1 5 -1.5 15.5t-0.5 15.5q-1 17 4 22q17 18 12 26q-5 6 -1 8q16 16 15 22q-2 7 -3 9
q-10 21 -4 24t4 7q-9 17 -6 23q2 3 -1 8q-16 20 -14 23q1 1 3 20q0 5 0.5 10.5t0.5 8v3.5v39q11 12 -1 15q-10 2 -10 5l2 2l11 7q12 9 12 16q2 13 5 19.5t7 5.5q10 -2 14 4q25 23 27 26q4 7 10 7q4 1 14.5 1.5t15.5 0.5q18 3 28 2q40 -3 41 -2q4 2 18 2q24 0 33 1q3 1 8 1
q12 0 33 -6zM257 540q-7 0 -11 -3q-11 -4 -39 -17l2 -32l-2 -52l3 -1l13 -19q22 -15 23 -14h2q3 -1 10 -1.5t14 -1.5q16 -1 16 -5q1 -4 37 0q14 2 27 7q16 6 42 15l2 9v2q-1 2 -2.5 6t-2.5 7q12 27 11 28v34q0 2 -0.5 6t-1.5 6q-2 6 2 14q-8 2 -15.5 4.5l-12 4t-8.5 2.5
t-6 2l-2 1q-2 2 -31 -3h-22q-14 1 -48 1zM283 299q-11 -5 -25 0q-3 1 -12.5 5t-15.5 6l-7 -9v-21q-5 -5 -11 -10l-5 -5q-3 -3 4 -9l-7 -36l4 -21q2 -15 4 -17q4 -4 -15 -15q-7 -3 1 -8q5 -3 22 -32q8 -15 18 -20q13 -5 15 -7q11 -7 13 -5q2 1 41 -10q7 -2 16 2q14 6 26 12
q2 0 6 -0.5t6 -1.5q4 0 12 22q2 7 1 11t11 6q5 0 15 1q4 1 0 9q-5 9 0 29q2 15 5 22q3 12 4 13q3 10 -2 13q-4 3 6 25q2 4 -7 8q-8 5 -5 24q1 4 -15 12q-5 2 -9.5 5t-9.5 6t-7 4q-13 9 -31 6q-15 -2 -46 -14z" />
    <glyph glyph-name="nine" unicode="9" 
d="M402 614q6 -1 12 -2.5t9 -1.5l3 -1q1 0 3 -1t7.5 -2t10.5 -3q19 -33 18 -35t5 -11l6 -9l6 -9q8 -12 7 -16l-4 -12q-3 -13 1 -23q9 -27 2 -30q-9 -4 -6 -9l7 -11q5 -11 2 -26q-7 -32 -8 -34q-3 -4 1 -9q9 -16 10 -23q0 -3 -2 -4q-8 -5 -6 -11q0 -1 0.5 -3t1 -6t1.5 -8
q3 -14 -4 -26q-11 -22 -10 -27q1 -7 -1 -11q-5 -9 -8.5 -15.5t-4 -10t0.5 -4.5q4 -1 0 -11t-6.5 -16t-5 -9t-3.5 -3q-4 1 -10 -9q-13 -18 -16 -31q-1 -7 -5 -11q-16 -21 -21 -23q-2 -1 -11 -10q-17 -19 -20 -23q-6 -6 -11 -9q-1 -1 -5.5 -3.5t-7.5 -4.5t-25 -18
q-20 -17 -29 -19q-8 -2 -11 -5q-19 -19 -24 -15q-3 4 -18 1q-24 -6 -26 -6l-51 3q-2 3 -5 6q-6 6 -16 15l8 25l6 11l26 17q12 8 24 12q20 8 23 8l22 11q9 4 15.5 7.5t10 5.5t2.5 3q-2 3 9 11q25 18 29 19q3 0 9 6q16 17 18 24q-1 4 5 10q16 21 19 22q2 0 8 8q4 6 10 13
q5 6 4 7l8 15q-4 2 -12 4.5t-11 3.5q-12 4 -30 3q-3 -1 -12.5 -1.5t-13.5 -0.5q-10 -1 -32 1q-31 3 -32 0l-14 -2q-1 -1 -16 -1t-24 9l-17 15l-35 26q0 8 4 13t1 10l-8 11q-3 3 -19 23q13 19 14 25q1 5 -2 10l-8 18q-2 4 1 21q6 28 0 31q-5 3 -4 8q1 6 2 11.5t1.5 9t1 6.5
t0.5 4l1 2q1 2 3 12q0 30 5 37l6 6q23 15 24 21q3 9 7 11q7 4 12 7l7.5 4.5t2.5 0.5q4 0 25 4q33 6 35 3q1 -2 14 -1q11 1 22.5 1.5t16 1t5.5 0.5h3t5.5 0.5t7.5 0.5q36 1 36 3h1q1 0 3.5 0.5t4.5 0.5q3 1 7 1q10 0 11 -5q2 -8 11 -9zM255 550q-9 -4 -9 -5q0 -3 -30 -15
q-5 -3 -4 -8q0 -8 -16 -27q-4 -4 3 -7q10 -4 15 -10l-2 -39l-4 -22q-1 -2 0.5 -3t5.5 -2q6 -2 2 -22q-1 -5 2 -12t2 -21l40 -8l3 1q3 0 9 1.5t12 2.5q4 1 7 1q1 0 43 -9q14 -3 30 8l16 11q16 11 19 13q5 5 10 8t-3 12q-7 11 -3 35l2 4q1 1 -8 40q-1 5 2 13q3 6 7 20
q-7 8 -13 15.5t-9 10.5l-3 4l-2 1q-2 1 -7.5 4t-10.5 6q-5 4 -16 2q-7 -1 -43 2q-17 1 -31 -2q-4 -1 -9.5 -2t-6.5 -1z" />
    <glyph glyph-name="colon" unicode=":" 
d="M370 394q11 -25 13 -34q1 -7 3 -47q1 -24 -15 -31q-17 -6 -29 -15q-32 -22 -65 -13q-32 10 -40 27q0 1 -3 21q-5 21 -17 33q11 9 5 26t10 29l32 19q13 8 29 7q27 0 77 -22zM349 161q14 4 20.5 2t5.5 -10q-3 -16 1 -18q17 -13 17 -24q0 -6 11 -66q-25 0 -28 -21
q-3 -20 -53 -22h-7q-11 0 -12 1l-49 8q-27 41 -34 46q-9 8 -4 13q13 11 2 25q-9 12 -9 15q0 1 1 1l13 11q10 10 18 26q12 22 24 20q11 -2 28 4q4 2 29 -4q25 -8 26 -7z" />
    <glyph glyph-name="semicolon" unicode=";" 
d="M338 409q35 -11 53 -43t12 -35q-17 -8 -12 -15q3 -5 5 -20q-2 -1 -32 -23q-27 -18 -44 -20q-22 -2 -34 -4q-16 -3 -24 9q-7 13 -28 16q-20 1 -20 39q-1 40 -7 43q-3 3 -3 5q0 1 1 2q33 25 33 33q-2 8 29 13l22 3q5 1 14 1q17 2 35 -4zM371 150q30 -24 31 -39q2 -18 4 -23
q4 -5 4 -27v-16q-3 -35 -4 -36q-33 -21 -26 -30q6 -8 2 -13q-33 -38 -33 -46q-1 -7 -3 -8q-38 -19 -52 -33q-9 -9 -17 -9h-5q-41 9 -41 13q0 2 -5 5q15 35 32 50l14 13q0 7 2 14q3 10 -2 23q-3 10 0 14q3 5 -13 15l-2 1l-4 2q-6 4 -15 24q-18 38 -15 50q4 11 4 13
q8 13 24 23q17 14 24 31q18 5 55 -1q39 -8 41 -10z" />
    <glyph glyph-name="less" unicode="&#x3c;" 
d="M520 25q-3 -4 -6 -8.5t-4 -6.5l-1 -2l-8 -20q-23 -2 -39 -3h-7q-10 0 -13 3q-16 16 -16 18q-2 2 -18 0q-21 -2 -21 3q1 5 -8 8q-19 10 -26 7q-7 -4 -11 0q-3 4 -15 16q-10 10 -19 9q-12 -1 -18 2t-4 8q3 13 -8 10q-2 0 -11.5 -1.5t-15.5 -2.5q-17 -3 -20 2q-4 7 -6.5 12
t-4.5 8.5t-3 4.5t-2 1q-2 0 -19 6q-19 6 -26 6t-10 4q-21 21 -25 17q-3 -4 -12 2l-20 12l-6 6l-2 24t-2 22t-1 13v9q0 17 2 25q6 32 5 33q1 0 14 29l11 5.5t11 4.5t11 4t11 4l17 7q15 6 32 10q6 1 11 2t9 2t6.5 1.5t4.5 1.5t2.5 1.5t0.5 1.5q-1 5 10 11l34 17l6 2q15 2 24 2
h1q1 1 3 1.5t4.5 1.5t6 2.5t7.5 2.5q7 3 23 8q6 2 11 3.5t7.5 2.5t3.5 1l22 12l32 24q6 -2 13 -4t10 -3l3 -1q1 -1 5 0q24 3 26 3h1q1 0 3 0.5t4.5 1.5t6.5 1.5t8 1.5q4 -33 4 -38l-8 -46q-2 -7 -22 -20q-21 -15 -26 -15q-21 -2 -21 -8l-2 -9q-16 2 -21 2t-7 -1q0 -3 -10 -6
q-23 -6 -28 -11q-5 -6 -10 -5l-18 1l-2 -1q-2 -1 -7.5 -2t-10.5 -3q-21 -7 -26 -7q-4 0 -5 -4q-14 -26 -20 -29q-5 -1 -9 0q-8 2 -11 4q-6 3 -7 -4q-24 -24 -19 -30l3 -4q6 10 11 8q6 -2 12 -8q16 -18 22 -12q5 5 6 5q1 -2 14 -19q8 -13 18 -17q18 -7 19 -7q3 -1 8 -1
q1 0 3.5 0.5t5.5 1t6 0.5q10 3 22 -7q19 -16 23 -13q4 4 12 -2q14 -10 16 -19q1 -7 7 -7q23 -2 27 1q6 3 10 0q10 -6 11 -6q0 -1 38 -19l-2 -15q0 -15 -1 -40z" />
    <glyph glyph-name="equal" unicode="=" 
d="M492 336q5 -4 9.5 -7.5t6.5 -5.5l3 -2q2 -2 22 -15q-4 -24 -29 -36q-24 -12 -26 -12q-74 11 -80 3q-6 -9 -11 -8q-30 2 -60 10q-33 8 -30 0q1 -3 2 -7l1 -3l3 -3q-84 9 -85 4q-1 -6 -35 0q-30 6 -33 3q-2 -2 -16 1l-23 5l-31 20q-1 4 -1 7q0 10 1 28q9 17 70 19
q55 0 63 2q28 5 34 1q8 -4 11 -3q20 4 51 5q9 0 19.5 0.5t16.5 1t9 0.5q113 0 120 -1q11 -2 18 -7zM526 190q-3 -10 6 -20q3 -4 3 -8q0 -7 -12 -13q17 -24 -15 -27q-35 -2 -41 -4q-1 0 -24 -5t-56 0q-29 3 -30 0q-1 -4 -11 -3q-87 5 -91 1q-3 -3 -4 -2q-29 3 -64 0
q-7 0 -14.5 -0.5t-11.5 -1t-7 -0.5h-4q-22 6 -23 6l-3 1q-3 2 -8.5 5.5t-10.5 6.5q-12 12 -12 15q0 10 -3 27l1 2q1 1 2 4t2 5q5 8 65 20q36 8 61 5q23 -4 34 -4q16 0 41 1q44 2 63 4q1 0 47 -3q42 -3 120 -12z" />
    <glyph glyph-name="greater" unicode="&#x3e;" 
d="M95 401l11 17q1 1 7 20q7 0 20.5 0.5t19.5 1.5q2 1 6 1q11 0 14 -4l8 -8t6 -7l2 -2q1 -1 17 0q20 1 22 -4q-1 -5 8 -8q19 -9 25 -7q7 4 11 0q9 -9 16 -15q11 -11 19 -10q12 1 17.5 -1.5t4.5 -8.5q-1 -4 -0.5 -6.5t2.5 -3.5t6 0q2 0 10.5 1.5t15.5 2.5q16 3 20 -3
q12 -27 16 -27q3 2 19 -4q23 -7 26 -7q8 -2 11 -4q12 -11 17.5 -15t6.5 -2q4 4 13 -2l19 -12q0 -2 6 -6q0 -3 5 -59q1 -3 1 -8q0 -14 -3 -26q-2 -9 -3.5 -17.5t-2.5 -11.5v-4q-2 -2 -14 -30q-4 -2 -11.5 -4t-10.5 -4l-21 -9l-19 -7q-21 -9 -31 -10q-6 -1 -11 -2t-9 -2
t-7 -1.5t-5 -1.5t-2.5 -1.5t-0.5 -1.5q1 -5 -9 -11q-32 -15 -33 -16q-4 -2 -7 -2q-23 -3 -24 -2q-1 -1 -23 -8q-1 -1 -22 -7q-16 -5 -22 -8q-22 -12 -23 -12l-3 -2q-4 -2 -12.5 -8.5t-16.5 -12.5q-24 6 -26 8t-5 0q-24 -3 -25 -3h-1q-1 0 -3 -0.5t-4.5 -1.5t-6.5 -1.5
t-8 -1.5q-4 33 -4 38q0 1 9 46q0 6 22 19q21 15 25 15q20 0 22 8q0 2 0.5 5t0.5 4q27 -3 29 0q0 2 9 5q22 6 28 12q4 5 10 4q12 -1 19 -1l2 1q2 1 7.5 2t10.5 3q22 6 25 6q4 2 6 4q14 27 19 29q6 1 10 0q6 -1 11 -4q4 -2 6 4q24 24 21 30q-3 5 -4 5q-6 -11 -11 -9t-11 9
q-16 18 -23 11q-6 -6 -6 -4q-8 13 -13 19q-8 12 -19 17q-11 4 -20 7q-4 1 -7 0l-14 -2q-11 -2 -22 8q-20 17 -25 13q-4 -3 -11 3q-14 12 -16 18q-1 6 -8 8q-22 1 -26 -1q-7 -3 -10 -1q-1 1 -3 2l-6 5q-1 1 -39 19q1 9 1 16l1 4q0 5 0.5 14.5t0.5 20.5z" />
    <glyph glyph-name="question" unicode="?" 
d="M395 619q52 -12 56 -26q5 -17 7 -18q6 -6 12 -11l9 -7.5t4 -3.5q3 -1 1 -6l-6 -15v-3q1 -3 2.5 -9t2.5 -12q-3 -17 1 -18q6 -2 6 -9q0 -15 -5 -22q-5 -9 -4 -12q1 -2 1.5 -6t0.5 -6q2 -8 -10 -21q-13 -15 -19 -28q-5 -13 -24 -30q-25 -22 -36 -35q-8 -12 -7 -17
q3 -16 -4 -18q-6 0 -8 -5l-1 -13l-1 -4q-1 -4 -3 -12.5t-4 -18.5q-7 -4 3 -8q9 -3 5 -7q-13 -14 -10 -24q3 -12 -40 -26q-26 6 -27 7l-1 1q-1 0 -3 0.5t-4.5 1.5t-6.5 2.5t-8 2.5q-8 40 -1 49q7 12 3 22q-6 15 5 32q4 6 4.5 9t-2 3.5t-8.5 -1.5q67 78 70 87q3 8 19 29
q12 16 20 24q7 5 8 9q2 5 4 11q1 1 10 34q15 3 3 13q-13 10 -9 34q-79 13 -98 6q-21 -8 -48 -11q-1 0 -16 -3q-16 -3 -19 -16q-5 -20 -20 -32q-20 -16 -21 -17q-29 10 -31 12l-22 17q3 16 4 17l14 23q-18 11 1 30q17 20 21 22q57 38 58 39q1 2 20 2q25 1 39 1q1 -1 12 1
q32 3 35 4h1q6 0 65 -14zM379 112q8 -11 14 -17l11 -28v-5q0 -4 -36 -50q-16 -21 -30 -23q-6 0 -10 3q-15 12 -34 14q-4 0 -18 3q-8 1 -12 3.5t-3 6.5q-1 12 -4 12q-4 0 -7 46q0 3 -1 9q-1 10 14 25q11 11 8 15q-2 3 0 4q22 11 29 10t12 2q6 6 17 11q12 8 50 -41z" />
    <glyph glyph-name="at" unicode="@" 
d="M444 464q1 -1 11 -4.5t16 -5.5q14 -5 32 -34l3 -6q4 -9 13 -37q3 -11 7 -23t4 -13q3 -10 -2 -42q-3 -18 2 -38q6 -18 0 -38q-7 -23 1 -45q3 -9 3 -20t-5 -26q0 -4 -2 -11q-1 -11 -30 -33q-1 -1 -18 -13q-3 -2 -8 -6l-8 -6q3 -5 21 -6q19 -2 27 -17l8 -9q9 -9 -13 -30
q-44 -44 -45 -44t-23 -6q-25 -8 -29 -5q-6 3 -28 3q-72 -2 -74 -2t-5.5 -0.5t-5.5 -1.5q-18 -2 -22 -4q-2 -1 -13 -1q-20 0 -34 1q-51 3 -59 8q-4 2 -15 6q-19 8 -27 16q-6 5 -19 28q-6 12 -14 32q-10 22 -7 49v23q0 5 -1.5 24t-2.5 34q-2 9 0 14q2 6 2 39q0 40 -3 45
q-1 1 -1 3q0 7 8 33q7 22 1 31q-5 11 -1 29q12 54 15 57q4 3 22 25q15 18 23 21q3 1 5 2t3 2h2q26 14 46 14h9q9 -2 19 -4l4 -1q2 0 100 2q82 0 108 -9zM321 427q-24 -4 -35 -3q-9 2 -74 -4q-34 -3 -39 -9q-3 -7 -3 -8q-12 -26 -11 -32q0 -11 4 -36l-3 -9q-1 -5 -1 -80
q0 -29 14 -1q15 27 15 28q10 35 20 45q2 3 4.5 6t4 4.5l2.5 2.5q18 25 20 25q1 -1 21 8q26 16 41 14l16 -2q25 -7 36 -4q12 3 13 3q27 6 36 0t33 -15q1 -1 6 -3.5t8 -4.5q8 -7 11 7q7 37 -2 46q-10 9 -20 13q-10 5 -53 10q-37 4 -64 -1zM302 307q-38 -17 -41 -38
q-3 -12 -5 -34q-2 -28 1 -32t-6 -22q-1 -1 -9 -24q-3 -8 2.5 -13.5t19.5 -6.5q36 -6 37 -5t2 1q7 -1 24 8q15 8 17 53q3 25 0 28q-2 2 10 22q14 21 17 26q6 7 -7 26q-16 22 -35 18q-22 -5 -27 -7zM452 296q-21 -41 -17 -46q3 -2 5 -3.5t2 -0.5q9 -30 -1 -34q-11 -5 -18 -20
q-13 -23 -13 -25v-6q0 -16 10 -19q9 -4 21 1q10 5 14.5 8t3.5 5q-2 4 1 27q3 25 2 65q-2 44 -10 48zM364 63q-40 -7 -42 -4t-27 -1q-8 -1 -15 -2t-13 -2t-8 -1q-5 0 -45 5q-4 1 -16 -5q-13 -6 3 -15q16 -10 37 -7q20 3 37 -1q14 -3 16 -9q3 -6 30 -1q26 4 29 5q11 3 17 1
q31 -9 35 -5q5 6 32 15q17 7 23 13l6 6q-1 1 -5 1q-1 0 -5.5 0.5t-12.5 1t-16 1.5q-1 0 -7 1.5t-11 3.5q-10 4 -42 -1z" />
    <glyph glyph-name="A" unicode="A" horiz-adv-x="613" 
d="M295 623q12 1 20 1q1 1 18 11q10 -30 12 -32q3 -3 5 -6q33 -27 24 -45q-9 -17 3 -29q6 -8 10 -12q7 -7 6 -23q0 -20 1 -21q1 0 11 -16q12 -20 8 -26t-1 -15q1 -1 4 -13q1 -4 15 -28q12 -21 11 -22q-2 -1 0 -21v-13q1 -6 8 -18q12 -17 9 -26t0 -14l8 -8q7 -8 10 -23
q6 -29 7 -30q3 -3 0 -6q-12 -12 -5 -15l9 -5q4 -7 8 -17q3 -5 3 -6v-27q6 -3 9.5 -5.5t2.5 -4.5q-1 -1 -3 -10q-3 -16 0 -16q2 -1 10 -15q10 -15 11 -16v-7v-24q-17 -11 -17 -13q-2 -4 -74 -17q-4 13 4 17q7 4 0 7q-28 12 -30 23q-1 7 -13 45q-9 26 -11 29q-4 7 -3 11
q1 21 0 22q-1 0 -18 51q-26 5 -30 7q-6 4 -10 3q-37 -4 -40 -3q-1 1 -17 -1q-18 -2 -27 -2q-3 0 -14 -4q-5 -9 -10 -19t-7 -14.5t-3 -5.5q-4 -6 -3 -8q2 -6 3 -18q2 -14 -5 -23q-16 -26 -13 -29t-2 -17q-2 -5 -4 -11.5t-3 -8.5v-2l-3 -29q-4 -2 -7 -4t-5 -3t-3.5 -2t-2.5 -1
l-1 -1l-4 -6q-10 3 -22.5 6t-15.5 4q-5 1 -33 7q5 21 1 22q-2 2 -1 5q0 3 1 6q5 28 1 34q-3 7 -1 12l2 7q1 8 3 15q2 13 8 26q11 28 16 30q6 3 4 9q0 7 -1 18q-3 16 5 26q17 22 14 27q-3 3 0 15q9 34 9 37q-1 1 4 10q11 23 10 23q0 1 4 16q4 16 15 51q12 35 11 36
q-2 6 -3 18q-1 13 7 26q13 23 11 27q-2 1 2 16q6 25 11 28t8 11q8 23 11 26q4 4 3 10l-2 12q-2 3 28 30q0 -1 12 -8q13 -8 17 -8zM290 521q-3 -5 -6 -11.5t-4 -8.5v-2q0 -4 -5 -20q-3 -10 -6 -12q-5 -3 -9 -33q-3 -13 1 -17q2 -2 -4 -35q-10 -55 -10 -64q-1 -11 -1 -19
q78 -1 85 7l6 7q1 37 3 43v6t1 6q0 6 -4 13q-5 9 -8 32q-1 7 4 11q5 3 -8 28q-9 20 -15 40q-6 21 -20 29z" />
    <glyph glyph-name="B" unicode="B" 
d="M219 639q24 -4 25 -1q1 4 9 3q21 -6 23 -4h2q2 0 6 0.5t9 0.5q27 2 49 -1q28 -3 30 -3q28 2 30 3q1 2 10 -1q19 -7 20 -6l17 -1q6 0 11 -0.5t8 -0.5l2 -1q0 -1 9 -5q13 -21 12 -25q-3 -5 0 -6q11 -8 11 -9q3 -3 15 -26q4 -4 1 -5q-2 -1 -4 -6q-6 -16 1 -16q7 -2 9 -5
l2.5 -7.5t1.5 -5.5q2 -3 -12 -12q9 -17 3 -21q-6 -3 -4 -6l3 -7q0 -2 12 -11q1 -18 0 -19q-1 0 -6 -11q-7 -11 -5 -15q1 -4 0 -5q-10 -16 -6 -19q5 -3 -18 -29q5 -12 6 -13q3 -7 27 -29q0 -3 -0.5 -6.5t-0.5 -5.5t-0.5 -4t-0.5 -3v-2v-1q0 -2 -11 -19q21 -10 23 -11
q2 -2 7 -27q-10 -11 -15 -16q-3 0 -19 -4q17 -9 17 -10q-2 -4 2 -9q6 -6 11 -13q8 -8 8 -12v-1q-6 -14 -4 -21q3 -5 -2 -8q-12 -9 -10 -13q2 -2 5 -10q6 -15 2 -19q-3 -5 -8 -7q-18 -6 -21 -10q-1 -4 0 -5q8 -9 8 -12q1 -1 0 -7q-33 -20 -33 -26q2 -8 4 -9q-49 -6 -50 -7
q-2 -2 -10 -3q-2 0 -6.5 -0.5t-14.5 -1t-19 -1.5t-18.5 -1.5t-13.5 -0.5l-4 -1q-1 -1 -9.5 -3.5t-15.5 -5.5q-9 -4 -27 -4q-16 0 -24 1q-27 5 -29 3t-13 -1q-28 1 -30 3l-11 2q-23 1 -26 -4q-1 -4 -5 -3q-17 6 -22 11q-4 4 -38 -8q-14 8 -19 12q-8 6 -7 8q9 12 4 15l-11 8
q16 12 8 18q-2 2 -6.5 5.5t-6.5 5.5q17 17 24 17l4 1q-8 9 -3 12q1 1 3 2.5t4.5 3t4.5 2.5q-7 7 -1 7h2q3 0 5 -0.5t3 -0.5l2 -1q8 -11 13 -9q9 3 34 18q-8 4 -18 10l-4 2h-1q0 1 -1 3l-2 4q23 19 29 22q2 2 -1 3q-18 6 -15 11q2 4 -1 6l-10 5q-1 0 -14 2q15 11 17 13
q2 1 27 15q-3 9 -9 14q-8 4 -21 21q0 10 1 13q0 5 12 11q1 1 8 4q6 5 -4 19q-5 8 -6.5 12t2.5 5l1 1q5 2 5 3l-13 7l-8 9q20 8 24 8l8 6q-2 8 -3.5 13t-2.5 8.5t-2 5t-2 1.5q-1 -1 -3.5 1t-4.5 7q-11 18 -1 24q7 5 17 5q-6 6 -14.5 16t-11.5 13q-11 9 4 34q7 12 14 22
q8 11 -21 23l8 21q0 1 14 18q-4 1 -9 2q-4 0 -5 1q0 2 -22 15q0 -1 -6 -5q-7 -5 -41 13l4 23l5 11q27 12 31 9q5 -3 9 0q19 9 20 8q2 -2 18 1l19 2h3q5 1 35 -4zM368 570q-8 -3 -10 -1q-2 1 -24 -7q-10 -4 -22 -1q-3 1 -5.5 1.5t-4.5 1t-3.5 1t-2.5 0.5l-14 5q-1 1 -38 -7
q-7 -13 -8 -23q-2 -13 -8 -22q-2 -4 5 -5q6 -1 -3 -18q-2 -4 -1 -8q0 -3 11 -14q3 -3 -1 -8q-3 -5 -2 -23q2 -14 -2 -19q-5 -9 -6 -11q-3 -3 1 -7q3 -5 3 -21q12 0 23 -0.5t18 -0.5t12.5 -0.5t7.5 -0.5h3h3q3 1 8.5 2t12.5 2q9 2 9 -1q2 -3 27 0q9 2 10 3q1 3 24 0
q9 -1 17 4l10.5 7t12.5 8q4 1 7 1q1 -1 2.5 1t4.5 9l2 4q0 4 0.5 7.5t0.5 5.5l1 2q-1 0 -5 10q-4 11 -6 13q-2 0 -1 17q1 7 7 7q7 2 -4 22l7 7t2 1l2 9q-17 16 -19 16l-9 10q-3 3 -7 3l-25 7q-2 1 -1 9q0 9 -22 2zM279 304q-8 -1 -18 -1h-22l5 -11q2 -2 -6 -14
q-16 -26 -5 -31q11 -3 16 -6q-11 -25 -11 -27q0 -1 5 -13q1 -3 1 -6l3 -35q1 -18 0 -22l-9 -27h7h22l12 -12q0 -1 21 -5q3 -1 6 2q1 3 22 4q8 0 8 -3q1 -3 28 -4q13 0 25 3t13 4q3 16 3 18l3 7q1 3 6 1t41 12q-1 1 -3 2l-1 1l-11 3q4 16 1 18q-4 4 -8 9q-2 2 7 3q6 1 11 1
q-7 17 -8 18l-5 13q6 11 7 11l12 7q-5 16 -9 15q-2 -1 -4.5 -1h-3.5q-3 -2 0 3q2 3 -4 20l12 11l4 5q-26 9 -28 7q-5 0 -11 -3q-5 -1 -6 3q-1 5 -14 19h-27q-7 0 -20 -1l-16 -2q-9 0 -24 1q-8 0 -10 3t-17 0z" />
    <glyph glyph-name="C" unicode="C" 
d="M254 635q6 1 13.5 2t10.5 1t7 0.5t4.5 0.5h1.5t2 -1q18 -3 24 -1q3 1 56 1h16q13 -2 20 -7q11 -11 12 -10t18 -2q6 -1 10 -2t6.5 -2t3.5 -1.5t1 -1.5q-1 -3 7 -11q16 -17 19 -16q4 2 7 -6q1 -2 2.5 -6t2.5 -6q4 -11 5 -13q8 -11 9 -11l-3 -32v-2v-3l-38 -2q-5 0 -37 4
l-4 3q-3 3 -3 10v8q0 1 -11 18q-15 -1 -18 -7q-2 -5 -5 -2l-9 11q-8 11 -56 10h-18q-12 0 -28 2h-1q-1 0 -2.5 0.5t-4 1t-5.5 0.5q-11 1 -28 -4l-2 -1q-2 0 -5.5 -1t-6.5 -2q-13 -3 -19 -9q-19 -15 -23 -16q-4 -2 -3 -5q0 -1 1.5 -6.5t2.5 -8.5q3 -8 -4 -18q-3 -6 -6 -11.5
t-4 -8.5l-2 -3q-1 -1 1 -4q11 -29 3 -41q-8 -13 -3 -16q13 -14 4 -18q-6 -3 -4 -6l10 -9l2 -14q-1 -1 -3 -5t-4.5 -7.5t-4.5 -7.5q-9 -14 11 -24q-8 -35 -5 -36q1 -1 -3 -6q-6 -12 -4 -14q1 0 6 -11q8 -19 8 -22q0 -6 -2 -8t-4 -5l-5 -5l-9 -18h11q11 -2 11 -4q4 -32 2 -36
q-3 -5 -2 -12q2 0 18 -15q17 -16 6 -25q14 0 34 1q31 0 9 -20q12 4 22.5 8t15.5 5l5 2q1 1 6 -1l12 -5q8 -3 21 5q16 9 25 6q9 -1 14 2q1 1 19 12q12 7 36 4q6 18 6 19v20q4 1 18 3q11 2 11 -2q-2 -13 6 -10q3 1 6.5 2t4.5 1l14 -6l25 -18q1 -5 -3 -7q-3 -2 -6 -7
q-6 -11 1 -11q6 -2 9 -7t6 -16v-3q0 -5 -4 -6q-10 -3 -14.5 -6t-3.5 -7q1 -8 -3 -9q-20 -8 -26 -6q-6 1 -6 -3q0 -5 -1 -11q-2 -8 -15 -11q-24 -4 -24 -7q1 -1 -0.5 -2t-7.5 -4q-18 -9 -19 -8t-17 0l-20 -2l-2 1q-2 0 -6 0.5t-9 0.5q-12 1 -30 0q-17 -1 -50 5q-51 10 -58 5
q-6 -4 -22 0q-3 0 -15 4q-18 6 -20 7q-14 9 -14 10l-28 15l10 18l-1 1q-3 5 -15 16q-13 12 -12 37q0 29 -1 30t-1 8q0 19 4 22q4 1 3 6q-3 17 -4 17q-3 1 -4 7q-3 26 -3 34v4q3 1 3 6v12q0 9 4 20q7 22 2 25q-5 2 -2 8q6 18 3 23q-3 3 -2 7q2 4 3.5 8t1.5 5q1 3 -2 18
q-7 34 -4 37q3 2 -3 26q-6 19 -1 21q5 3 5 6q-3 21 -5 23q-2 4 0 10q9 18 6 19q-2 2 -2 11v12q-1 11 10 18q12 9 7 12t-2 6q1 1 7 9q7 7 16 12q12 6 16 9t3 5q-3 4 5 9q18 12 20 10q1 -3 16 0q20 3 25 6q3 2 7 4q5 1 13 1t9 -3q0 -4 7 -3z" />
    <glyph glyph-name="D" unicode="D" 
d="M184 627q8 0 18 2q18 3 28 2q22 -2 29 1q6 2 8 2q5 0 7 -1q27 -11 28 -9q2 2 21 2q28 -2 33 1t83 -11q7 -9 8 -15q2 -8 6 -11q11 -6 16 -9q10 -6 15 -22q1 -4 2.5 -12.5t2.5 -10.5q5 -14 11 -22q16 -19 8 -24t-4 -8q9 -8 12 -12t1 -5q-5 -5 -2 -11q10 -33 9 -34t-1 -3
q-5 -29 -8 -32q-4 -6 0 -10q1 -1 9 -15q7 -10 7 -19q0 -6 -1 -8q-2 -9 -3 -15t-1 -9v-3q0 -9 1 -25q3 -28 -2 -36q-5 -9 -3 -15q6 -24 3 -25t-3 -13q0 -22 -1 -23t-13 -32q-1 -2 -6 -4q-3 0 -4 -0.5t0 -2.5l10 -18v-2q1 -2 1.5 -6t0.5 -8q-2 -2 -9 -6.5t-12 -8.5
q-14 -11 -19 -19q-14 -20 -15 -21q-9 -9 -22 -24q-12 -4 -13 0q-3 4 -11 1q-23 -7 -25 -5l-27 -2q-38 -2 -38 0q-2 2 -15 2h-36q-3 1 -13 0q-31 -3 -34 -6t-10 -3q-43 2 -46 4q-3 3 -10 1q-13 -3 -16 -3l-31 -7q-14 16 -14 17l-11 39q8 18 8 19q2 5 7 7q2 1 8 3.5t9 3.5
q10 6 19 18q6 8 16 24q6 10 8 60q1 29 -1 34q-1 3 0 15q1 38 3 40q1 0 1 1t-0.5 3t-1.5 5q-9 32 -3 33q5 1 5 13q1 18 -3 22q-5 3 -3 14q2 16 2 24q0 11 -2 23q-6 27 1 31t4 13q-5 28 -9 34q-5 6 -1 11q14 18 13 19q1 1 5 9q-17 26 -19 33q-1 6 -7 7l-26 4q-3 0 -26 8v18
q0 9 1 23q35 6 36 4q1 -3 12 -1q24 6 30 0q5 -4 15 -3zM234 578l-1 -8l-3 -22q0 -10 4 -11q5 -2 -6 -22q-3 -4 2 -12q5 -9 1 -25q-1 -8 3 -9q1 -1 1 -4t-3 -8.5t-7 -12.5q-3 -5 2 -9q4 -6 9 -32v-1v-3.5v-4.5v-6.5v-7.5q-2 -20 0 -28q0 -13 4 -14q5 -3 -11 -20q-3 -5 -2 -6
q2 -2 13 -31q2 -5 1 -9t-3 -42q-15 -3 -3 -10q10 -7 -3 -46q-3 -10 1 -19q4 -13 5 -14q-3 -25 -4 -26q-1 -2 13 -22q22 5 23 6q11 0 31 -1l26 -1q1 -1 30 2q6 2 5 7q-2 7 29 16q6 1 7 5q0 6 15 35q18 35 23 37t-1 52v2t0.5 3.5l1 5t1.5 6.5l2 8q4 19 4 23q6 33 1 53
q-4 18 -1 40q1 10 6 13q4 3 -9 20q-3 4 -1 9q3 4 7 26q2 8 -2 8q-3 1 0 29q0 4 -1 6q-3 6 -8 25q-2 10 -4 12q-3 5 -1 7q-32 19 -33 20l-22 4q-13 3 -15 1q-4 -1 -33 5q-25 6 -30 5q-5 -2 -64 -4z" />
    <glyph glyph-name="E" unicode="E" 
d="M197 626q37 6 40 1t12 0q28 10 29 7q1 -2 18 -4q4 -1 12.5 -1.5t12.5 -0.5q17 0 30 3q33 6 36 3q4 -4 16 -2q25 3 27 3q3 0 43 -13l4 -3q4 0 11 -1q-5 -9 -9.5 -18l-6.5 -13l-2 -4l-3 -2q-3 -2 -10 -6.5t-15 -9.5q-14 8 -25 11q-13 3 -17 2q-38 -6 -41 -2q-3 3 -16 0
q-39 -7 -40 -5q-1 5 -15 0q-27 -9 -32 -4q-3 3 -6 2q-22 -9 -24 -9l-4 -1q-4 -1 -13.5 -3.5t-19.5 -4.5l-3 -3l-4 -1q2 -23 2 -30t-1 -10q-2 -1 -5 -18q-4 -31 5 -37q7 -6 6 -10l-5 -25q0 -1 -10 -11q28 -17 29 -17l20 -3q28 6 35 11q6 5 11 0q16 -10 18 -11q11 -6 35 -5
q7 0 13 0.5t9 0.5h3q11 0 32 -1q0 -3 0.5 -6t0.5 -5v-3.5v-1.5q0 -4 -1 -11l-23 -26q0 -1 -39 -23l-7 8q-7 9 -11 7q-1 0 -3 -1t-6.5 -2.5t-8.5 -3.5q-16 -7 -20 -2q-5 4 -11 8q-3 3 -19 -9q-28 6 -30 4q-1 0 -1 1v2q-6 -38 -16 -43q-9 -4 -6 -9l9 -9l8 -11q-11 -33 -14 -35
q-4 -4 -2 -8q10 -12 15 -19q8 -11 5 -15q-4 -12 -6 -20q-5 -12 2 -22q11 -17 8 -22l-4 -4q39 5 41 0t11 -2q25 6 26 2q0 -3 10 -4q26 -5 27 -1q2 4 11 2q35 -5 36 -3q3 3 13 2q44 -2 48 1t12 1q25 -6 26 -10q1 -2 12 -7l26 -10l16 -17l-9 -22q-8 -17 -11 -18q-29 0 -35 -8
q-6 -7 -13 -7q-29 2 -33 4q-7 3 -17 2q-44 -6 -55 -4q-9 1 -46 3q-11 0 -19 1q-12 2 -29 -3q-2 0 -10 -1.5t-13 -2.5q-18 -3 -35 1q-8 2 -14.5 3.5t-9.5 2.5l-3 1l-4 -1q-4 -1 -13.5 -2.5t-19.5 -3.5l-6 -3l-2 -5q-12 32 -15 41q-1 3 8 29q-10 10 -10 13q0 2 3 4q7 3 7 8
q4 21 -1 21q-3 0 -5 1t-1 3q7 23 3 29q-5 7 -3 9q14 26 8 30q-5 3 -4 12q1 22 8 27q6 4 5 6l-8 6q-7 5 6 11l-1 3q-1 2 -3 7t-5 10q-11 18 -2 27q13 13 8 17q-2 1 -6 11q-9 24 -3 29q5 4 4 10l2 17q0 2 4 10q-12 20 -6 23q7 1 5 6q-5 15 -7 27q-2 5 -2 17q0 24 4 27q5 3 4 8
q-3 23 -8 27q-7 4 -4 11q2 3 4 9t2 7q3 8 -2 73q20 -2 23 -6q5 -7 8 -2q15 19 15 21q0 1 12 10q16 -6 21 -11q6 -5 12 -3z" />
    <glyph glyph-name="F" unicode="F" 
d="M290 632q9 4 17 4q7 0 7 -4q1 -9 8 -7l15 2q10 3 30 2q32 -1 34 2t11 0q30 -8 33 -5q1 3 12 0q19 -4 21 -6q2 0 17 -8q1 -17 1 -26l6 -32q-4 0 -13 -0.5t-12 -1.5q-8 -2 -17 0q-29 3 -31 2q-3 -2 -15 0q-32 2 -32 -1t-70 0q-30 1 -39 5q-7 3 -63 -20q2 -22 3 -28
q3 -6 0 -10q-9 -18 -5 -20q2 -2 3 -17q3 -23 3 -24q0 -4 -4 -23q25 -15 28 -17q5 -4 10 -4q31 0 34 -1h7.5t10.5 -1q6 0 11.5 -0.5t8.5 -0.5l3 -1l21 -8q22 -8 23 -7l17 -3q-7 -25 -7 -28q1 -1 4 -12q-47 -24 -50 -22q-5 3 -48 -1q-8 -1 -15.5 -1.5t-11.5 -0.5l-3 -1l-4 -1
q-4 -1 -13.5 -4t-19.5 -6v-5v-2q1 -2 2 -5.5t2 -7.5q-9 -26 -12 -29q-4 -5 -1 -8q2 -2 9 -14q7 -10 1 -24q-7 -18 -5 -20q1 -1 4 -12q6 -28 3 -29q-5 -2 -2 -12q6 -22 3 -25t-1 -14q3 -26 2 -27q0 -15 -1 -45l-4 -4q-2 -2 -13 -17h-21q-20 0 -30 7q-6 4 -8 6q-1 0 -5 3
t-11.5 7.5t-15.5 10.5q0 1 2 13q1 8 3 23q3 29 -2 32q-5 2 -3 6v2q6 26 7 27q3 2 2 9q-3 61 3 65q6 5 2 10q-1 2 -3.5 6t-3.5 7q-3 7 3 26q9 25 3 26q-5 1 -7 10q-3 25 0 25q2 1 2 10q-1 23 6 29q6 5 1 8q-10 7 -12 13q-1 4 0 5t7 18q4 12 0 24l-5 15q-2 5 3 14q1 3 2 5.5
t1.5 4.5t1.5 3.5t1 2.5q1 3 -4 22q-6 26 -4 27q3 2 6 18q3 20 3 30q3 16 9 49q7 2 25 10q22 9 33 8t22 -1.5t16 -1.5h4q1 -1 8 1q24 8 32 3q6 -4 14 -2z" />
    <glyph glyph-name="G" unicode="G" 
d="M273 629q3 0 18 -4q17 -5 26 0q3 2 9 4.5t8 3.5q9 5 29 0q29 -5 36 -2t13 0q11 -6 34 -20q26 -15 34 -21l9 -30q0 -2 -6 -23q-29 -3 -34 2t-14 5q-34 3 -35 5q-2 3 -12 2q-27 -5 -31 -2q-5 3 -13 2q-20 -4 -27 -5q-10 -2 -22 1q-22 7 -22 -1q-1 -7 -3 -7q-12 4 -17 5.5
t-5 0.5l-25 3q2 -27 -1 -32q-4 -6 -10 -7l-12 -4l-10 -3q-10 -52 -11 -53q0 -1 3 -5q4 -8 8 -14q5 -8 -4 -23q-11 -18 -5 -21q8 -3 8 -8q-2 -22 1 -27q3 -6 0 -10q-14 -18 -8 -22q4 -3 7 -14q7 -28 0 -30q-7 -3 -4 -11q5 -22 8 -25q5 -3 3 -8q-8 -18 -7 -18q-1 -1 -7 -24
q12 -18 17 -21t2 -8l-11 -15v-1q-1 -1 -1.5 -2.5t-2 -4t-2.5 -5.5q11 -6 20.5 -11.5t13.5 -8t5 -2.5q4 -2 8 -2q28 2 34 5q7 4 11 -1l11 -13v-7q5 1 19.5 2.5t21.5 2.5q25 3 27 4q30 10 36 9q7 -1 9 5q8 26 14 32q5 5 5 11q3 34 4 36q2 2 1 13q-1 15 -1 24l1 17
q-11 -1 -23 -2t-17.5 -2t-6.5 -1q-5 -1 -13 1q-29 8 -30 5q-2 -2 -21 -2h-16q-3 3 -14 18q-5 -1 -6.5 0t-0.5 4q1 6 -26 33q29 14 36 19t10 5q37 3 40 0q2 -3 15 -2q39 3 40 5q3 3 13 0q4 -1 10 -2l9 -1.5t5 -0.5q4 -1 26 2t24 3l5 2q21 -43 25 -46q7 -4 7 -9q0 -25 -4 -32
q-5 -8 -2 -13q8 -27 3 -30q-6 -3 -5 -12q0 -2 3 -15q3 -15 3 -26q-3 -34 0 -34q3 -1 4 -12q2 -18 3 -29q1 -6 1 -16v-7q-1 -7 -2 -13.5t-1 -9.5l-1 -3l-1 -1q-1 -1 -2 -3t-3 -4.5t-4.5 -6.5t-5.5 -8q-22 -4 -26 -2q-1 1 -18 3q-22 2 -27 -2q-5 -3 -6 -3q-2 0 -4 2
q-20 15 -23 8q-4 -7 -12 -6h-25q-16 2 -28 0q-14 -2 -21 0q-5 1 -76 4q-32 3 -38 6q-6 5 -11 3q-20 -6 -21 -6l-13 2q-10 37 -15 36h-2t-2 2t-2 3t-2 4q-11 25 -13 25q-1 -1 -2 0.5t-3 6.5l-3.5 14t-3 10t-3.5 5.5t-3 1.5q-6 0 -3 10q7 27 3 28q-6 1 -3 12q6 19 6 20l3 18
q4 22 -3 25t-7 8q2 28 6 33q6 8 5 11q-8 31 -10 34q-2 5 1 10q16 22 16 31l-2 9q-12 18 -8 20q4 4 8 15q11 29 3 32q-7 3 -7 9q3 27 0 51q-3 21 2 39q7 25 10 25l2 1q1 2 3.5 6t5.5 8t13 14q9 10 18 15q25 12 30 17q4 5 10 4q20 -6 23 -4q1 1 13 8q15 7 20 7v-1q0 -1 17 -5z
" />
    <glyph glyph-name="H" unicode="H" 
d="M189 617q6 -8 4 -9q-3 -1 -4 -8l-4 -17q-3 -17 0 -24q0 -2 4 -17q6 -16 6 -31q0 -23 -1 -40q-1 -19 3 -51l1 -11l10 -17q46 0 48 -2q3 -3 15 0q26 7 28 4q1 -2 14 -2h15q11 0 29 5l20 6l5 1q5 0 16 1.5t25 2.5q-4 17 -6 18t2 61q3 37 0 51q-1 10 4 39q3 18 3 20
q0 10 2 26q18 9 19 9q8 0 22 1q12 -16 17.5 -23t6.5 -6q1 0 5 -9q10 -24 9 -25l-2 -21q-2 -22 2 -27q4 -6 2 -12q-12 -28 -10 -32l2 -2q2 -3 4.5 -9t3.5 -8q4 -10 0 -17q-12 -26 -12 -32t3 -10q17 -20 10 -23q-6 -3 -5 -10l2 -22q1 -1 3 -12q3 -26 -1 -27q-5 -2 -6 -12
q-3 -19 3 -29q5 -6 3 -13q0 -2 -1 -8.5t-2 -11.5q-3 -12 1 -24q3 -10 6 -24q3 -13 0 -16q-12 -19 -5 -22q8 -3 6 -9q-2 -25 -5 -30q-4 -6 0 -10q11 -14 10 -16q0 -1 -0.5 -3t-1 -7t-1.5 -10l-6 -21l-18 -29l-11 -4q-1 0 -30 -3q-14 8 -14 9t-6 18q-5 3 -9.5 5t-7 3t-3.5 1
q-3 2 -6 15q1 23 6 39q3 12 5 65q0 42 1 43q3 2 2 15q0 5 -0.5 9.5t-0.5 7.5t-0.5 5.5t-0.5 4.5v1l6 38l-4 2v5q-3 1 -19 3.5t-29 5.5q-38 8 -71 7q-18 -1 -30 -1q-1 0 -5.5 -0.5t-15.5 -1t-21 -1.5l-9 -2l-11 -5q-2 -16 -4 -48q-2 -26 -19 -30q17 -23 17 -24q2 -2 9 -29
q-4 -15 -10 -19q-6 -3 -3 -8v-1q1 -1 1.5 -2.5t1.5 -4t2 -4.5q5 -11 2 -23q-1 -4 -1.5 -8t-1 -6.5t-1 -5.5t-0.5 -4.5t-1 -3.5v-1q-1 -2 1 -7q0 -6 1 -16q2 -15 -6 -20q-14 -10 -15 -12q-2 -2 -12 -19q-17 1 -26 1l-4 2q-4 1 -14 6t-19 9q0 7 0 6l-4 7q0 38 4 43t1 10
q-3 6 -6 13q-6 10 -1 24q8 26 3 28q-5 1 -7 9q-1 5 -1 13q0 13 5 16q7 5 5 11q-4 12 -5 16q-3 12 1 22q9 22 6 23q-2 1 -2 21q0 21 1 25q2 7 -1 10q-9 22 -4 24q6 2 8 10q3 26 -1 31q-5 9 -4 12q7 31 8 33q2 4 -1 9q-11 19 -11 20q0 10 -2 27q7 5 16 13q6 4 7.5 6t-0.5 4
q-15 11 -20 21q-2 6 1 11q16 15 11 17q-5 3 -3 11q6 26 2 28q-3 2 0 11l6 17q0 3 4 12q25 2 29 3q1 0 38 -17z" />
    <glyph glyph-name="I" unicode="I" 
d="M299 646q39 1 41 -4q2 -4 15 0l27 4q1 -1 43 -4q8 -5 9 -5q1 -1 23 -29q-5 -11 -6 -11l-18 -13q1 -14 -3 -18q-5 -5 -9 -2q-16 10 -19 7q-6 -6 -15 -12q-11 -8 -14 -11q-2 -2 -24 9q0 -23 4 -35q3 -10 0 -16q-7 -14 -12 -25q-6 -17 -3 -20l8 -10q7 -9 1 -29
q-10 -28 -2 -30q7 -1 6 -10q-6 -23 -13 -30q-6 -6 -2 -8q11 -13 9 -15q-3 -3 -11 -14q12 -6 16.5 -9.5t1.5 -6.5q-5 -5 -7 -13q-4 -22 4 -27q7 -4 6 -11q-5 -18 -7 -31q-3 -11 0 -16q12 -34 10 -35q-2 -2 1 -17q4 -22 3 -23q1 0 16 -21q23 6 24 5t23 -9q22 -10 23 -11
l14 -12q8 -30 8 -31q0 -5 -11 -34l-9 7q-9 7 -14 4q-22 -18 -24 -20q-3 -6 -8 -6h-33q-1 0 -46 -5q3 5 2 10q0 1 -1 3l-1 2q-31 -17 -34 -20q-2 -2 -5 -2t-5 1q-31 15 -35 11q-4 -5 -17 -1q-3 1 -6.5 2t-5.5 2t-4.5 1.5t-4.5 1.5q-8 3 -16 -2q-3 -1 -8 -3q-3 -1 -4 -2
q-2 -1 -5 4q-17 35 -21 42q-1 2 -2.5 5.5t-4 9t-3.5 8.5q18 11 24 19q3 5 9 9q25 12 27 12t40 13q-2 5 3 18q4 11 1 49q-3 26 2 28q4 1 7 14q5 25 -6 28q-10 3 -7 9q2 6 4 12.5t3 10t2 4.5q3 4 2 7q-2 5 -7 29q-3 14 1 20q13 19 10 21q-3 1 -5 11q-3 25 4 35q6 10 5 15
q-6 28 -9 36q-2 5 1 10q12 19 4 21q-7 3 -11 13q-14 28 -9 33q5 4 2 4h-2q-30 -1 -30 1q-1 3 -6 6q-14 10 -14 11l-24 11q-7 16 -6 18l10 28v1.5t2 5.5q3 6 7 7q26 6 28 10q2 3 5 3h6q43 0 44 -3q1 -1 38 0z" />
    <glyph glyph-name="J" unicode="J" 
d="M489 622q20 -21 17 -24q-4 -3 -1 -10q11 -25 15 -28q3 -3 3 -5v-4q-11 -21 -10 -22l-1 -17q-3 -22 1 -24q3 0 5 -9q1 -19 -7 -21q-11 -2 -7 -7q10 -21 8 -22t-1 -17q0 -29 1 -31q2 -2 4 -15q2 -27 -4 -34q-6 -8 -3 -14q13 -52 8 -56q-5 -5 1 -27q6 -21 -4 -24
q-9 -3 7 -40q-12 -31 -19 -35q-8 -3 -5 -5q5 -3 11 -5q4 -1 4 -29q-1 -2 -2.5 -7t-3.5 -9q-4 -11 -14 -20q-12 -13 -21 -15q-8 -3 -12 -7q-3 -3 -6.5 -8t-6 -8.5t-4.5 -5.5q-8 -9 -12 -9q-31 -6 -31 -8q-1 -3 -10 -4q-17 -4 -27 -4q-3 0 -5 2q-1 2 -15 4q-4 0 -4 1
q-2 2 -87 -4q-29 -1 -30 0q-2 2 -9 2q-6 -1 -25 -1q-18 2 -22 12q-6 12 -10 18t-5 5q-3 -1 -12 9q-18 19 -26 21q-6 3 -5 8q0 6 2 13q3 11 -4 18l-14 18v1l2 16q5 25 4 26q-2 2 0 10q3 22 3 23t9 22l21 2l42 -1q1 -1 2 -3l5 -7q0 -1 13 -10q3 -53 5 -53l13 -29l16 -4t13 -3
t6 -1q6 -1 26 0q62 5 82 0q19 -4 27 4q12 17 21 20q9 1 10 7q7 23 4 29q-3 7 1 12q12 21 13 22q1 0 0 3q-1 1 -7 17q-4 16 -1 29q3 17 4 21q3 10 1 20q-6 48 2 56q7 8 1 21q-3 9 -6 16q-3 12 -2 28q5 27 3 33q-2 5 1 18q7 27 5 28q-2 0 -4 13q-2 33 1 36q2 2 2 15v20l-4 39
q18 4 21 9q1 6 10 7l16 4h4q8 0 13 -12z" />
    <glyph glyph-name="K" unicode="K" 
d="M516 638q12 -19 11 -20q0 -1 3 -22q-20 -19 -24 -28t-8 -11q-24 -13 -21 -18q3 -4 -4 -11q-18 -16 -21 -24t-7 -11q-10 -5 -19 -9q-15 -7 -19 -15q-5 -8 -7 -11t-4.5 -6.5t-3.5 -4.5t-2 -1q-3 1 -14 -8q-13 -11 -20 -18q0 -2 -10 -15q-15 -19 -22 -22q-6 -2 -9 -7
l-11 -16l-3 -4q1 -12 3 -33t10 -27q10 -7 35 -29q22 -21 33 -28t16 -11t4 -5q-2 -3 4 -15q1 -2 5 -8.5t6 -10.5q5 -10 15 -17q16 -14 17 -14l14 -17q6 -6 12 -14q9 -10 19 -17q15 -10 19 -14q0 -2 6 -23q5 -6 9 -10q2 -2 -2 -20q-4 -19 -3 -21q1 -1 7 -23q-17 -6 -18 -7
l-27 -3q-11 5 -20 12l-11 5.5t-10 4.5t-9.5 3.5t-9.5 3.5q-11 5 -17 18q-14 25 -17 23q-2 -1 -4 1.5t-4 7.5q-5 13 -7 15q-1 4 -14 20q-13 17 -31 31q-21 16 -28 31q-12 25 -15 25t-8 10q-8 15 -10 22q-2 6 -35 44q-15 -2 -25 -2q-2 0 -17 -18q-12 -26 -5 -29q8 -1 6 -12
q-3 -15 1 -23q3 -6 1 -9q-6 -22 -1 -25t4 -7q-3 -29 -4 -30l-1 -1q0 -2 -0.5 -4.5t-0.5 -5.5q-2 -22 4 -29q5 -8 2 -13l-8 -15q-7 -15 -17 -21q-19 -12 -20 -11q-2 0 -33 -12q-7 10 -7 11l-4 2q-1 2 -2 2.5t-3.5 2.5t-4.5 3q-6 27 -3 34t-1 12q-12 17 -11 18q0 8 1 23
q15 4 19 4q2 0 5 13q-11 17 -16 28q-5 10 0 19q14 24 9 27t-5 15q2 21 4 22l5 3q5 3 10 5q-6 24 -12 30q-5 5 -5 11q3 21 9 27q6 5 5 8q-4 6 -14 26q-6 11 -1 16q15 15 16 15l6 2q-9 37 -16 40q-10 3 -7 7l11 19l1 2q1 3 3 9.5t4 12.5q-7 22 -12 27t-4 10q11 27 8 29
q-5 2 -4 12q5 34 7 36q4 4 4 8v21v1q1 1 2.5 3t3.5 4.5t4.5 6.5t4.5 8q43 3 54 -17q11 -19 10 -20l-4 -15q-4 -16 -3 -25q5 -27 0 -53q-4 -24 -1 -29l8 -16q8 -15 -1 -27q-13 -17 -10 -20q4 -8 9 -21q36 16 54 29q15 11 19 17q16 16 23 19q9 4 12 9q9 21 11 32q2 9 7 13
q20 16 27 17t9 8q4 14 8 21t8 6q9 -3 12 7q3 9 5 12t4 2q4 -1 11 7q14 17 14 18l2 2l7 3.5t10 5.5l6 4t5 3.5t3.5 2.5t2.5 2l1 1q2 0 37 19l3 -5h1q1 -1 3 -1.5t4.5 -1.5t6 -2.5t7.5 -2.5z" />
    <glyph glyph-name="L" unicode="L" 
d="M159 630q3 -21 8 -30t4 -13q-5 -28 -7 -32q-3 -6 0 -10l7 -13q8 -15 1 -28q-8 -20 -7 -21l1 -2q0 -2 0.5 -5.5t1.5 -7.5q3 -22 6 -26q3 -5 2 -10q-9 -28 -5 -31t3 -7q-7 -18 -1 -20t5 -10q-7 -27 -5 -28q3 -2 2 -9q-3 -31 -1 -35q3 -1 -2 -12q-5 -15 -7 -18q-1 -3 2 -14
q6 -24 2 -31q-3 -7 -1 -9l8 -14q6 -11 1 -22t-4 -14q3 -2 15 -21q-6 -8 -4 -10l11 -11l13 3q15 2 30 -9q13 -7 15 -10q3 -2 3 -10q43 18 49 24q4 6 9 1q26 -19 31 -19h7q38 5 39 4t13 3q21 7 27 0q5 -7 9 -6q3 1 11.5 3.5t14.5 4.5q16 5 21 0q18 -15 27 -17q5 -1 9 -7
q6 -18 7 -19q0 -2 13 -22q-7 -10 -7 -12q-1 -1 1 -12q-47 -10 -49 -14t-12 -4q-36 -2 -42 -4h-5q-5 0 -8 2q-10 7 -15 9.5t-6 0.5q-3 -5 -15 -5h-36q-1 1 -21 2q-33 3 -72 3q-39 2 -41 0q-11 -2 -18.5 -3t-10.5 -1h-4q0 1 -18 1q-34 -1 -39 -5q-7 -7 -10 0q-7 14 -12 15
l-8 4q-11 22 -15 26q-3 2 -1 6q9 16 1 20q-7 4 -6 10q2 15 3 36q2 15 4 46q0 1 1 9t2 13q3 13 0 16q-14 13 -13 15v1q1 1 1.5 3t2 5t2.5 6q6 21 3 22l-2 16q-3 24 2 29q6 5 5 9q-5 17 -5 21v1q1 1 1.5 3t1.5 4.5t2.5 6t2.5 7.5q-12 8 -8 12t4 8q3 21 -3 29q-6 7 -4 13l7 28
q5 13 3 16q-7 11 -9 16.5t0 6.5q3 1 5 14q3 20 5 27q2 5 -2 10q-11 20 -7 22q2 2 8 11q10 22 4 24t-6 4q15 24 17 30q2 5 7 8l10 5t9 5q1 1 5 1q7 0 26 -8z" />
    <glyph glyph-name="M" unicode="M" 
d="M172 632q2 -2 4 -6t3 -5q3 -6 17 -12q13 -7 14 -7l7 -11q-6 -23 -9 -24q-7 0 -5 -5q1 -6 5 -16q3 -7 7 -8l16 -6q1 -1 18 -11q-6 -6 -10 -14q-3 -6 -1 -8l10 -10q10 -11 4 -18q-8 -11 1 -11q8 0 11 -4q9 -16 7 -17q-3 -4 1 -11q9 -16 15 -19q5 -3 2 -5l-11 -7l-6 -1
q2 -3 16 -13q13 -9 12 -16q-4 -13 6 -9q6 3 20 9l-2 3q-1 3 -3 5q-4 6 -1 9q11 16 10 17t2 6q9 16 8 17q-3 2 0 10q4 13 6 13l2 1q2 2 7 5.5t10 7.5q-9 1 -15 7q-4 4 -3 8q6 18 4 20q-5 4 0 6q4 2 8.5 3.5t5.5 1.5q2 1 5 12q3 16 8 18q3 1 3.5 1t-0.5 2q-10 8 -11 8
q-1 1 -4 13q16 17 25 19q8 2 9 5l11 25q12 26 27 27q24 1 26 5q3 5 7 2q3 -3 6 -6.5t5 -4.5l1 -1q1 -2 27 -15q2 -1 0 -6q-1 -5 0 -8q12 -19 12 -21q1 1 1.5 -0.5t2.5 -5.5q6 -18 4 -20q-3 -1 0 -8q2 -6 3 -11t1 -7t-2 -2q-4 -1 -5 -10q-1 -11 -1 -20q0 -8 2 -13
q2 -4 6 -11.5t6 -10.5q6 -14 -18 -19q12 -33 17 -36q4 -4 1 -8q-5 -7 -10 -12q-3 -3 -5 -6q11 -26 16 -29t4 -7q-3 -6 -5.5 -13.5t-3.5 -9.5q-4 -6 -3 -9q3 -19 7 -24q4 -6 0 -40q-3 -24 2 -27q4 -3 3 -9q-1 -28 1 -30t-1 -7q-6 -19 -3 -22q2 -2 3 -14q3 -24 -4 -26
q-5 -3 -4 -7q9 -23 10 -42v-6q0 -16 -4 -24l-8 -16l-1 -2q-1 -2 -2.5 -6.5t-3.5 -9.5q-31 0 -35 -1q-2 -1 -4 -1q-6 2 -7 3q-19 12 -25 14q-5 1 -3 4q7 10 6 11q-2 4 -6 7q-3 2 -10 9q-8 8 -3 21q6 18 1 23q-4 4 0 6q20 6 21 6h5q-23 17 -26 23q-3 7 3 8q12 2 12 7
q1 3 -4 10q-13 15 -6 18q5 3 4 4l-13 9q0 1 -3 10q16 20 17 20q3 0 6 1q-1 5 -2 11t-2 8.5t-1 3.5q-1 4 -4 5q-13 9 -11 11q0 1 2 19q5 2 9 4t6.5 3t3.5 1l7 2q-9 24 -9 26l-2 2q-2 3 -6.5 8t-9.5 11q3 2 8 7q6 4 6 8q4 24 9 25q7 0 4 4q-17 26 -15 29q1 2 1 3q3 25 5 27v7
v22l4 25l-14 2h-1q-1 0 -2.5 -0.5t-4.5 -1t-6 -0.5q-9 -22 -9 -30q-2 -6 -4 -10q-12 -12 -7 -14q5 -3 2 -8q-9 -24 -9 -25q-2 -2 -2 -8q-3 -24 -8 -24q-6 0 -3 -3q1 -2 2.5 -3.5l3 -3t1.5 -2.5q1 -3 -8 -15q-11 -14 -11 -17q2 -2 -1 -13q-3 -14 -3 -18q-4 -13 -7 -19
q-7 -18 -7 -23q0 -2 -3 -3q-12 -15 -14 -22q-1 -4 -6 -6l-15 -3l-23 -1q-2 -2 -4 -5q-3 -4 -3 -3q0 -1 -1 -2q-21 18 -22 19l-3 2q-3 2 -10.5 7.5t-14.5 10.5l-1 4l3 14q-16 9 -13 14l3 4q0 1 -3 4.5t-5 6.5q-5 8 -3 9q7 2 13 7q4 3 3 4.5t-6 0.5q-2 0 -4.5 -1t-3.5 -1
q-2 -1 -3 0t0 4q3 17 -3 19q-7 0 -8 4q-6 10 -2 13t4 4q-14 18 -12 21q3 3 -2 12l-1 1q0 1 -0.5 2.5t-2 4t-2.5 5.5q-6 13 -12 17q-12 11 -11 12l-2 1q-3 2 -9.5 5.5t-12.5 6.5q5 -10 9 -13q5 -5 4 -9q-4 -17 -11 -19q-7 -1 -4 -6q6 -12 6 -13l1 -4q1 -3 3.5 -11.5
t5.5 -18.5q-1 0 -4.5 -1t-6.5 -2q-8 -3 -5 -7q4 -9 5 -11q2 -5 4 -20q1 -20 -3 -27q-4 -5 0 -9l1 -1l2 -4t3 -4q6 -8 5 -15q0 -19 3 -23t0 -8q-8 -15 -6 -16q1 -1 4 -14q3 -16 2 -18q-2 -3 0 -6q1 -3 4 -7t4 -7q5 -8 0 -14q-10 -15 -7 -18q4 -2 0 -6q-2 -3 -5 -6t-4 -5
l-2 -2q-2 -2 1 -17q5 -26 6 -27q3 -3 -9 -45q-3 0 -5 -0.5t-3 -1.5h-2q-12 0 -31 -1l-14 1q-1 0 -15 11q-14 17 -10 23q6 6 2 30q-2 13 -2.5 18.5t0.5 6.5q2 0 5 13q2 12 2.5 17t-1.5 6q-4 2 -3 9l2 16l2 2q2 3 6 9.5t8 12.5q-5 -2 -11 1q-7 4 -6 7q-1 24 1 25t1 7
q-2 20 2 23q3 2 2 4q-7 19 -6 20q3 2 2 12v14v14q-2 6 -4 24q-1 8 -2.5 12.5t-3.5 3.5q0 1 4 16q3 17 2 22q-2 13 -5 16q-4 4 -3 8q5 17 6 18q6 6 14 15q-7 14 -8 15q-4 3 -4 7q1 5 1 10t0.5 8t0.5 5.5v4.5l1 1l-1 5q-5 20 -8 24q-3 6 -2 10q3 19 0 23q-1 2 -1 4q0 3 2 5
q15 15 9 18q-7 3 -2 11l9 16q4 4 20 15q-5 2 -5 3q-3 3 -9 8q27 9 28 6q1 -5 12 -3q5 1 9.5 2t7.5 2h2q2 0 17 7q0 -6 2 -12q1 -2 2 -3z" />
    <glyph glyph-name="N" unicode="N" 
d="M188 642q24 -2 29 1q6 4 7 0q10 -22 12 -22q1 1 2.5 -1t2.5 -6q2 -6 3 -10t2 -7t2 -4t2 -1q5 2 14 -28q5 -14 9 -20q3 -4 3 -9q-1 -15 6 -21q6 -5 5 -7l-3 -7q-3 -7 9 -16q16 -13 10 -18q-5 -5 1 -11q11 -9 11 -10q1 0 15 -21h-9q-1 0 -2 -1q-3 -1 -5 -2q23 -13 27 -17
q3 -5 1 -6l-8 -5q-8 -5 6 -11q1 0 3 -1t3 -1q4 -1 8 -32q-2 -2 -4 -7t9 -6q0 -1 -0.5 -2.5t-1 -5t-0.5 -6.5q-1 -12 6 -15q9 -5 13 -8.5t3 -5.5q-3 -2 2 -7q7 -5 9.5 -7t1.5 -2l8 -14q8 -14 0 -15q-7 -1 -5 -5q10 -16 7 -18q-2 -2 2 -7q15 -15 19 -16q6 -2 4 -5l-8 -13
q0 -5 -1 -14l12 -12q3 0 15 -4q9 38 2 50q-7 11 -4 32q3 22 3 23l2 3q1 3 3.5 8.5t5.5 11.5q-13 1 -14 3q0 1 -2 3.5t-6 7t-8 10.5q7 8 15 7h5l-2 2q-1 1 -8 5t4 14q8 8 3 11q-8 4 -9 5q-8 16 -6 18l9 9l1 2l3 3t4 5q8 10 -1 21q-9 12 -10 13l-1 2q0 3 -0.5 10t-1.5 14
q3 4 7.5 11t5.5 9q4 7 4 44q0 20 -1 22q-2 5 -1 6q7 16 6 17t-3 15q-1 11 -1 17q1 0 7 17q-4 5 -5 7.5t1 3.5l4 2q11 9 17 15l2 10q11 0 20.5 -0.5t13.5 -1.5h4q4 0 28 -10q-5 -11 -9 -14q-5 -2 -5 -7q0 -15 3 -21t2 -10q-4 -16 2 -18q6 0 6 -8q0 -25 -6 -25q-5 0 -7 -5
q-1 -3 -1.5 -6t-1.5 -4v-2q-1 -2 10 -19q-7 -6 -7 -8q5 -9 6 -11q14 -23 3 -28q-10 -6 -13 -1l9 -17q9 -16 4 -27q-8 -17 -8 -19q-3 -10 1 -18l4 -8q4 -7 1 -55q0 -4 -0.5 -7.5t-1.5 -5.5v-2l5 -15l3 -10q3 -11 -10 -16q-9 -4 0 -23q4 -7 9 -19t5 -13q-8 -10 -15 -14
q-4 -3 -1 -4q5 -2 6 -4q3 -3 -4 -10q2 -3 3 -6.5t2 -5.5l1 -2q2 -4 12 -31q-3 2 -10 -1t-7 -8q2 -20 5 -22q5 -5 5 -7q-2 -11 -2 -18l-5 -19q-4 -1 -11.5 -2.5t-11.5 -2.5q-8 -4 -8 -5q6 -9 7 -9q0 -1 3 -4q-9 -2 -28 -6t-28 -6q-27 -7 -32 -4q-14 11 -23 9t-11 4q-2 3 -4 8
l-4 6l-12 17q-4 2 -6 4t-2 3.5t1 2.5q4 4 3 7q-7 18 -10 18q-5 -2 -6 6q-3 14 -7 18t-3 8q6 11 3 14q-1 1 -4 3.5t-5 4.5q7 14 0 15q-6 3 -6 5q6 24 -7 26t-16 16q-3 15 -5.5 21t-5.5 5q-6 -3 -18 14q-5 11 -2 14q4 4 8 7q-2 1 -6 2.5t-6 2.5q-7 3 1 17q6 9 3 11l-14 10h14
q1 0 11 -8l-14 16q-4 4 -20 14q-1 14 5 17t3 6q-1 2 -4 4q-6 8 -7 7l-1 1q-2 1 -4.5 3t-5.5 4l2 19v3q1 3 2.5 10t2.5 14l-18 4q-16 3 -23 39q-6 -1 -11.5 -1.5t-8.5 -1.5h-2l-2 -1q-2 -1 -5.5 -2.5t-7.5 -3.5l7 -7t5 -4l2 -2q1 -2 15 -12q-3 -5 -9 -17q-6 -9 -4 -15
q6 -16 5 -18q-1 -3 -3 -4l-12 -8q-10 -7 4 -11q1 -1 12 -4q11 -5 -3 -17q-5 -4 -7.5 -7.5t-2.5 -6t3 -3.5q3 -2 6.5 -4t4.5 -2l-6 -9l-5 -9l5 -5q4 -4 -17 -57q3 -2 5 -3.5t2 -0.5q1 0 22 -23q-6 -3 -8 -6l-4 -4l-2 -1q-10 -9 -2 -11q9 -2 6 -9q0 -1 -4 -6q-3 -7 13 -46
q-3 -5 -11 -6q-5 -3 -6 -4l8 -8l2 -1q1 0 3 -0.5t4 -1.5q-8 -16 -10 -24q-3 -5 -1 -8q6 -13 0 -13q-6 -1 -6 -4v-12l2 -1q2 -2 5.5 -4.5t6.5 -5.5q-16 -4 -25 -1q-6 3 -10 2q-9 -4 -13 -8t-3 -7q3 -6 -1 -6q-22 -3 -23 -3h-19q-7 16 -10 21q-5 3 -2 5q10 15 9 19t-7 7
q-17 6 -20 10q-2 5 2 7l5 2q1 0 2 16q2 21 3 22t19 16l-3 3q-2 3 -16 0q-1 -1 -3.5 -1h-5.5q-2 -1 -3.5 0.5t-1.5 4.5q0 4 1 7q8 0 8 3q0 4 1 8l2 13q6 6 17 16q-4 2 -14 8q-6 4 -4 5q5 1 9 2.5t6 2.5h2l6 3q-21 18 -22 19q0 2 -9 6q13 20 13 21q3 3 13 18q-12 0 -16 4
q-5 5 -3 8q9 16 8 16q-1 1 -3 11q-1 8 0.5 12.5t4.5 3.5q5 -1 9 4l8 8q6 7 -6 19t-9 15q1 1 7 9q-11 5 -12 5q-7 2 -10 1q6 5 11.5 10t8.5 7t4 3l8 6q-17 17 -17 16q-1 0 -12 8q9 19 9 20l21 26q-18 6 -21 11q-1 5 -8 10q15 27 16 28l14 17q-16 14 -20 30q-3 15 6 26
q9 12 2 15q-6 3 -3 6q5 8 7 10q3 4 18 9q20 6 21 7h1q1 1 2.5 1.5t4 2t5.5 2.5q12 5 16 5q3 0 5 -1q4 -2 16 -4z" />
    <glyph glyph-name="O" unicode="O" 
d="M350 621q20 10 26 9l6 -2q26 -9 35 -6q8 3 14 0q22 -9 29 -15q4 -3 12 -13q14 -18 24 -24q6 -4 10 -11q11 -29 15 -37q3 -7 1 -12q0 -1 -2.5 -7t-4.5 -11q-5 -14 0 -35q6 -22 3 -25q-4 -2 -3 -61q1 -21 0 -56q0 -37 4 -42q9 -17 9 -22q0 -3 -2 -4q-8 -3 -7 -9
q0 -30 -3 -39q-4 -6 -2 -14q5 -21 5 -26l2 -48q-14 2 -16 -15q-3 -15 4 -16l-6.5 -6.5t-15 -14.5t-19.5 -19q-32 -32 -49 -34q-2 0 -60 -2l-52 -1q-34 7 -35 5q-2 -2 -17 -3q-31 -4 -40 -4h-1q0 1 -2 1q-28 8 -36 9q-9 2 -13 6q-8 8 -17 19q-13 16 -15 16q-8 6 -13 9
q-2 1 -5 3q-4 2 -3 3q-5 8 -17 23q-10 14 -2 32q12 26 6 30q-8 5 -6 11q4 30 9 38q4 7 1 13q-14 21 -13 29q2 9 5 11q13 12 8 16q-5 6 -12 12q13 1 8 8t-4 11q2 25 9 29q8 5 4 10l-14 16q-2 0 -6 3q5 15 10 29t7 20l2 6l-2 2q-12 22 -3 25t6 12q-1 4 -2 7.5t-1.5 6t-1.5 5.5
t-1.5 4t-0.5 2.5v1.5v1q2 2 -1 14q0 2 -0.5 4.5t-1 7t-0.5 7.5q-1 12 8 28l23 37q12 14 19 21q9 9 19 12q32 7 37 14q6 6 12 5q6 -2 14.5 -4.5t13 -3.5t6.5 -2q8 -2 17 0q32 6 34 9q1 0 11 2h6q16 0 22 -6q5 -8 12 -5zM268 562q-7 -1 -9 1q-1 2 -26 -4q-29 -8 -32 -11l-2 -3
q-2 -3 -6 -8.5t-9 -11.5l-9 -19q2 -4 7 -19q2 -6 0 -16q-1 -8 -17 -41q29 -18 16 -36l-14 -16q-3 -3 3 -20q5 -17 14 -31q2 -4 -5 -12q-8 -7 2 -31q6 -11 1 -26l-4 -12l-1 -3q-2 -5 3 -12q2 -4 4 -32q2 -56 3 -59q6 -6 17 -21q5 -6 14 -3q10 3 22 -15q2 -5 8 2q5 6 35 8
q8 2 8 -1q1 -3 21 -4q13 0 17 1q1 0 11.5 1t19.5 3q4 0 7 1t5.5 1t4.5 0.5t3 1t2 0.5h1l27 -2l3 16l8 22q3 10 -3 13q-5 3 8 23q6 7 2 11q-2 2 13 26q3 5 -5 8q-7 1 -14 25q-1 3 2 4.5t8 1.5q10 1 1 29q-4 15 -8 19q-3 3 14 24q6 6 4 13q0 8 -15 20q-4 4 -1 10q6 14 11 24
q2 5 -2 7q-5 3 9 14q-10 17 -10 19q1 2 4 19q3 21 4 22t-8 18q-7 10 -12 9q-4 -1 -4 3.5t2 15.5q3 10 4 11q2 1 -4 18q-33 3 -34 3q-2 0 -29 3q-6 2 -12 -3q-9 -5 -39 -8q-7 -1 -15 5q-7 6 -24 4z" />
    <glyph glyph-name="P" unicode="P" 
d="M256 635q36 -6 40 -2q3 3 17 1q24 -3 34 2q7 3 12 3q2 0 4 -1q32 -9 33 -11q0 -2 12 -7q36 -11 39 -11q6 0 11 -4q2 -2 8 -6l9 -6q11 -8 15 -25q8 -34 7 -35q-3 -3 3 -13q3 -5 5 -9.5t4 -8t2 -4.5q2 -7 1 -9q-6 -21 1 -28q7 -5 5 -11q0 -1 -1 -2q-6 -26 -12 -31
q-5 -3 -4 -5q8 -16 8 -17t5 -29q-27 -20 -24 -25q3 -4 -8 -12q-18 -15 -24 -21q-4 -6 -13 -11q-35 -15 -38 -11q-5 3 -18 -3q-1 -1 -18 -7q-13 -5 -20 -1q-16 9 -19 -1q-3 -11 -10 -5q-17 13 -22 18q-3 4 -7 1q-22 -10 -23 -8q-1 1 -19 0q-6 0 -10.5 -0.5t-6.5 -1.5h-3
l-33 -22q4 -3 4 -4v-7q-7 -46 -3 -47t6 -14q2 -23 3 -29q1 -5 -2 -15q-4 -22 0 -29q5 -8 2 -15q-11 -35 -8 -38q5 -3 3 -17l-4 -30q-1 -1 -7 -13l-35 4q-26 3 -32 13q-17 29 -22 32q-6 5 -4 9l1 6q2 6 4 11q4 12 0 31q-7 26 -2 28q6 1 4 9q0 27 -6 34q-4 5 -4 8t1 5
q5 10 10 18q7 13 4 20q0 1 -1 3t-2 6l-2 8q-5 17 1 29q9 24 3 25t-6 10q-1 20 6 29q6 8 6 14q-2 25 -6 27q-7 2 -6 7q5 23 9 29q5 6 2 11q-10 22 -4 28q7 6 6 9q-14 29 -11 30q2 2 8 48q5 23 4 24l3 60q5 -1 6 -3q1 0 2 3q57 6 58 8t16 4q11 1 20 3q3 1 33 -3zM266 555
q-6 -3 -13 1q-10 6 -65 3q3 -3 1 -4h-5l5 -43q0 -5 -4 -30q-2 -8 -4 -12t0 -5.5t9 -1.5q-3 -30 -4 -32t2 -4t10 -7q5 -2 2 -13q-3 -20 -4 -25q24 -11 31 -13l11 -5q6 -1 14 5q9 7 33 6l11 -2q0 -2 34 -11q-4 -10 3 0t9 12q25 2 26 2t6 1.5t18 5t26 7.5l-4 4l-8 12l4 6t3.5 5
t2.5 3.5t2 2.5l1 1q1 1 -4 16q-1 4 0 7q2 3 0 47l-1 1q-3 2 -12 40q-1 4 -10 13l-15 15h-40q-1 -1 -21 -5q-8 -3 -14 5q-8 8 -36 -8z" />
    <glyph glyph-name="Q" unicode="Q" 
d="M372 631q30 -8 49 -18q20 -11 36 -5q12 -48 13 -48q3 -3 9 -16q12 -28 9 -31q-2 -1 -1 -23q3 -45 4 -46q3 -3 1 -9q-5 -31 -6 -32q-3 -6 0 -10q3 -5 6 -17q5 -11 1 -18q-12 -22 -5 -26q6 -6 5 -15q-5 -23 -10 -36q-4 -7 -1 -14q4 -12 7 -24q2 -4 -1 -30q-3 -21 6 -31
q7 -9 4 -12l-7 -12q-8 -11 -3 -25q7 -22 7 -26l2 -15q-25 -35 -29 -42q-3 -7 -9 -10q-23 -12 -27 -15q-2 -1 -22 -13q12 -6 13 -6h1q1 -1 3 -1t4.5 -0.5t6 -0.5t7.5 -1q6 -11 10 -19q1 -2 28 -5q22 -4 34 0q9 3 12 -5q7 -17 12 -22t5 -9q-1 -13 -1 -20q0 -6 1 -15
q-28 -16 -31 -15q-1 0 -2.5 1.5t-4.5 3t-6 2.5q-12 -16 -16 -12q-9 6 -11 8q-7 -14 -11 -18v-1q-1 0 -1 1q-43 23 -57 26q-16 3 -47 36q-24 24 -27 23q-5 -2 -11 9q-16 22 -18 22q-2 -1 -19 -1q-1 1 -12 8q-11 8 -18 4q-26 -12 -27 -11h-3q-2 1 -8 1.5t-12 1.5q-34 4 -35 4
q-10 2 -16 8q-27 21 -30 21q-9 4 -13 8l-19 14l-22 39q11 25 11 28q-1 3 -1 7q-5 45 -1 49t-2 45q-5 31 -1 33q3 3 1 16q-6 41 0 42t4 15q-3 27 -5 29q-2 0 -1 8q6 32 4 36q-3 3 -1 17q1 16 6 30q4 13 0 52l-3 16v4q1 4 2 12.5t2 19.5q-2 14 7 11q7 -3 7 5q2 26 7 34
q4 9 12 7l10 -3q11 -3 27 13q18 17 22 10q5 -8 10 -4q20 11 26 14q7 3 16 0q34 -6 37 -2q1 3 7 3t10 -1q31 -9 32 -6t11 4q7 1 20 1q8 1 27 -5zM252 572q-6 -1 -8 -5q0 -3 -24 3q-19 5 -27 -3q-10 -10 -14 -15q-5 -5 -12 -4q-5 1 -29 -6q13 -22 11 -26l-9 -21q-2 -7 -1 -8
q0 -1 1 -3.5t2 -7t2 -9.5q2 -6 0 -8q-2 -3 9 -9q-10 -16 -14 -20q-2 -2 4 -25l1 -9q-1 -1 0 -29q2 -20 3 -22l4 -12q4 -11 -7 -13q-10 -3 -2 -18q3 -4 1 -12t6 -34l2 -6l-9 -35q-2 -6 3 -12q5 -7 11 -34q3 -13 -2 -16q-5 -4 2 -36l19 -12l19 -20q5 1 9.5 1.5t7 0.5t5 0.5
t3.5 0.5h27q-5 6 -12 15q-5 7 -6 8q-1 0 -17 13q5 24 5 31q1 1 0 16h34q1 0 29 11l4.5 -4.5l4 -4l2.5 -2.5t2 -1l1 -1q2 -2 6 -25q1 -6 7 -10q7 -4 29 -24q10 -10 7 -14q-1 -2 5 -5.5t20 -8.5q10 15 14 19l18 14q3 2 5 7q0 2 13 25q5 9 3 21q-1 8 -1 15l-2 14q-2 2 7 22
q3 10 -2 24q-4 10 -7 22q-4 13 -8 17q-3 3 10 21q5 7 1 14q-3 10 1 35q3 20 1 24q0 6 -4 29v9h1q2 1 6 36q1 6 -3 12t-1 28q3 17 -2 36q-3 12 -8 27q-15 12 -16 12l-30 5q-48 9 -64 0q-18 -10 -19 -11q-6 -3 -12 6q-4 10 -16 7z" />
    <glyph glyph-name="R" unicode="R" 
d="M262 630l18 4q9 0 26 1q31 1 33 -1l18 -3q31 -3 32 -4l28 -14q20 -6 21 -5l6 -2l20 -34l10 -39q15 -6 10 -11q-2 -3 -2 -8q3 -19 1 -28q-2 -8 0 -11q17 -26 10 -29q-7 -4 -6 -14q2 -31 4 -37q3 -8 -1 -13q-26 -42 -30 -45q-4 -2 -21 -34l-9 -15l-11 -11q15 -26 25 -34
q6 -6 6 -12q6 -36 6 -37q0 -5 1 -10q8 -27 7 -28q-2 -2 0 -8q10 -29 11 -33q4 -13 5 -14q7 -8 22 -20q12 -11 11 -15v-1q-8 -18 -7 -19l2 -32h-12h-2q-2 -1 -5.5 -2t-7.5 -2t-10.5 -3t-13.5 -4q-4 1 -9 2t-7 2t-3 1t-4 1t-7 1.5t-8 1.5q-4 31 -7 31q-2 1 -7 15q-7 22 -15 27
q-7 4 -8 8q-8 33 -4 35q3 1 0 10q-5 18 -2 22q2 6 -1 9q-14 20 -10 25q3 6 -1 15q-11 28 -11 36q0 9 -6 14q-18 18 -23 22q-10 7 -14 7q-38 0 -46 3q-7 3 -15 1q-25 -4 -26 -5q-1 0 -34 -11q11 -17 7 -20q-5 -3 -2 -9q10 -27 7 -32q-3 -6 -1 -11q4 -13 4 -16q0 -2 -9 -20
q14 -11 6 -17q-10 -5 -4 -9q17 -15 18 -23q3 -9 0 -14q-10 -27 -4 -30t5 -12q0 -3 -2 -11q-1 -7 -67 -64l-8 4l-23 9q9 28 3 29q-7 2 -8 15q-5 27 -5 28t3 24l2 13q3 13 -1 23q-9 22 -5 23t8 16q6 23 -3 28q-7 6 -4 12q4 7 7.5 14.5t5.5 11.5t3 5q4 4 1 9q-17 27 -19 29
q-3 3 1 9q15 15 17 22q1 3 -1 7q-6 10 -9 18q-3 4 9 16q-7 45 -15 62q-4 8 -4 15q0 4 2 5q16 10 10 15t-5 8l4 24q3 21 2 23l-3 28q-2 8 -1 11q1 1 4 15q3 12 3 23l1 15l6 21q34 3 36 6q3 5 14 5q26 3 34 -2q7 -4 12 2q11 12 18 12q4 0 7 -3q9 -9 16 -8zM205 567
q-11 -20 -10 -23q4 -4 6 -8q4 -8 1 -23q-1 -3 -2.5 -11.5t-2.5 -12.5q-1 -9 -5 -11q-3 -2 10 -23q5 -6 -1 -12q-4 -6 -9 -29q-1 -3 2 -6q4 -3 12 -45q1 3 2 2l2 -2q16 0 31.5 0.5t22.5 1t8 0.5h19q20 0 22 -2q1 -1 29 5q12 3 14 1t37 7q5 2 2 6q-1 4 20 24q3 2 2 3t-7 3
q-11 3 1 32q5 8 3 21l-1 15q-1 14 -8 42q-6 22 -16 34h-39q-1 1 -25 7q-8 2 -12 -4q-7 -7 -30 -4q-16 3 -33 1q-4 0 -7.5 -0.5t-4.5 -0.5h-1q-6 0 -11 4q-7 5 -21 8z" />
    <glyph glyph-name="S" unicode="S" 
d="M302 623q1 1 15 4t25 2q23 -1 33 2h8h8q4 -3 7 -2q2 0 53 -40q14 -11 25 -18q10 -8 11 -9l-6 -22q0 -3 -11 -22q-16 -10 -17 -10q0 -1 -17 -2q-22 32 -27 34q-6 2 -7 2q-14 2 -42 9q-25 8 -48 8q-13 0 -13 -1l-68 -2l-19 -1q-20 -2 -21 -9q-3 -24 -9 -26q-9 -2 -7 -8
q3 -19 0 -23q-3 -5 -3 -13v-9.5v-9.5v-7q2 -10 5 -13l10 -10q2 -2 1 -18q27 -8 35 -4q10 5 13 0q2 -2 4.5 -5.5t3.5 -5.5q5 -5 19 -7q29 -4 33 -5q7 -2 16 0q17 4 19 4q6 0 39 -4q10 1 13 -3q1 -5 0 -3q7 2 25 4q13 2 17 -1q9 -3 17 -6q13 -6 21 -16q19 -19 33 -39
q14 -19 13 -30q-3 -34 -1 -36l2 -2q9 -15 8 -18q-2 -2 -7 -19q-8 -23 -2 -24q4 -1 6 -13q3 -31 1 -33q-3 -3 -3 -15q0 -7 -1 -17q-2 -18 -8 -28q-18 -27 -19 -28q0 -3 -5 -9q-2 -2 -7 -7.5t-7 -8.5q-9 -9 -19 -12q-24 -3 -30 -7q-8 -5 -11 -4q-1 0 -3 0.5t-5.5 1t-7.5 0.5
q-15 2 -29 -4q-25 -9 -30 -3t-14 3q-16 -6 -19 -4q-1 2 -14 5q-22 6 -26 -1q-3 -6 -7 -6h-2q-21 3 -25 10q-5 8 -8 8q-11 1 -21 1q-8 2 -24 10q-28 13 -33 12q-8 0 -10 7q-7 22 -8 22l-1 2q-1 2 -3 5.5t-4 7.5q-10 19 -10 21l-5 26q3 6 11 14q9 10 17 4q16 -9 23 -4q5 4 8 1
q19 -13 29 -13q11 0 14 -5q9 -14 12 -17l29 -5l15 -10q1 -2 21 0q4 0 27 3q21 3 25 1q20 -4 25 -4q1 1 23 7q-2 7 0 18q1 10 6 13l17 11l2 3l6 6l9 9q0 1 -0.5 3.5t-1 7t-0.5 7.5q-1 13 2 28q7 28 3 29q-1 0 -3 11q-2 19 -1 20l3 15q-10 3 -16.5 5t-11.5 4t-6 3l-2 1
q0 1 -10 4q-28 6 -30 5q-3 -1 -14 0q-20 3 -28 -2q-8 -6 -13 -3q-23 9 -24 8q-2 -2 -14 -3q-28 -3 -29 1q0 3 -14 6q-38 8 -41 10l-5 5q-20 22 -23 20q-1 -1 -10 8l-12 12q-8 10 -8 23q0 22 -4 30q-3 9 -3 14q0 22 4 26t4 9q-1 25 0 26q2 1 1 8q0 24 5 27q4 3 4 8
q-3 16 2 24q5 9 7 10q13 6 18 9t4 5q-3 6 4 15l14 14q4 4 20 3q27 -2 30 0q1 0 14 2q29 2 29 5q0 2 6 4q17 3 23 -3q5 -5 13 -4z" />
    <glyph glyph-name="T" unicode="T" 
d="M374 639q2 0 47 3q39 3 68 -5q19 -6 20 -6l3 -1q2 -2 7 -5.5t11 -6.5q0 -6 0.5 -10.5t1.5 -7.5v-2q0 -9 -2 -26q-8 -11 -8 -12q-1 -1 4 -11q-49 4 -53 -1t-15 -4t-20.5 2t-13.5 2h-5l-6 -4q-12 -5 -14 -7q-4 -3 -35 18q0 -5 -0.5 -9t-0.5 -5v-1q0 -11 1 -31
q-19 -16 -15 -21q1 -1 5 -12q12 -24 8 -26q-5 -2 -5 -13q-1 -29 9 -33q10 -3 6 -9l-14 -16l-6 -12q11 -33 15 -37q4 -5 1 -11l-4 -14l-10 -30q-3 -1 0 -2h1q5 0 6 -4q4 -20 -2 -30q-6 -9 -3 -14q3 -3 11 -15q10 -14 5 -27q-10 -27 -4 -30q7 -3 5 -16q-2 -24 -11 -29
q-8 -4 -5 -8q5 -5 10 -11l4 -4l15 -26q-16 -15 -15 -15l-1 -2q-1 -2 -4 -7t-5 -9l-4 -6t-3 -5t-2 -3.5t-2 -2.5v-1q-4 -4 -33 -21q-7 -1 -12 -1q-2 0 -34 13q-6 18 -2 19q3 3 -1 10q-1 2 -9 17t-7 28q-2 32 -4 32q-3 1 -4 11q-2 18 5 26q8 8 6 13q-3 19 -4 24q-2 11 7 67
q6 32 4 33q-2 2 1 16q7 31 4 33t-6 18q-4 31 3 35q8 5 6 9q-7 15 -7 18l-18 21q9 6 18 15q11 10 8 13q-13 22 -11 23q2 2 4 15v24q0 4 -7 29h-2q-2 1 -7 1.5t-9 1.5q-20 4 -31 1q-26 -6 -32 0q-4 6 -10 4l-26 -4l-24 1q-3 3 -6.5 5.5t-6 4.5t-4.5 3.5t-3 2.5t-2 1l-1 1
q0 1 -11 18q7 18 7 19q1 2 0 3t-3 0l28 11q17 6 28 6q22 0 40 5q17 5 77 0q5 -1 16.5 -1.5t17.5 -0.5q19 -1 26 3q12 10 15 9q2 0 3 -1q4 -3 37 -3z" />
    <glyph glyph-name="U" unicode="U" 
d="M503 620q-2 -15 -2.5 -21t1.5 -7q3 -2 6 -13q4 -17 0 -27q-3 -6 -1 -11q5 -15 8 -27q4 -11 1 -16q-3 -7 -6.5 -14t-5 -10.5t-1.5 -4.5q-2 -2 1 -7q16 -19 13 -23q0 -1 -1.5 -4t-3.5 -8.5t-4 -10.5q7 -11 3 -15q-6 -6 -3 -10q13 -22 12 -33q0 -8 -5 -13q-13 -13 -5 -23
q3 -3 9 -13q5 -8 -9 -24q-10 -11 -8 -13q1 -1 3 -4.5t3 -5.5l4 -8l3 -3q1 -3 0 -17l-1 -18q-1 -13 1 -26v-13q3 -11 0 -34q-3 -27 0 -35q1 -8 -3 -12q-21 -24 -21 -29q1 -4 -8 -12q-14 -11 -19.5 -16.5t-4.5 -6.5q1 -2 -7 -10q-16 -16 -18 -13q-2 2 -13 -1q-32 -10 -36 -8
q-4 3 -22 1q-33 -4 -36 -1q-3 5 -18 2q-29 -4 -33 -3q-7 2 -18 1q-16 -2 -27 -2l-3 1q-4 1 -11 3t-15 5q-10 2 -17 4.5t-10 4t-2 2.5q1 4 -10 10q-22 10 -31 14q-7 2 -10 4.5t-2 5.5q6 19 0 22q-8 2 -10 7l-14 38l1 7q2 6 6 22q4 15 1 25q-9 25 -3 31t3 16q-11 45 -9 48
q1 1 2 2.5t1 2.5q14 30 7 32q-6 1 -6 14q-1 23 5 29q6 8 5 12q-1 3 -3 10.5t-3 11.5q-3 13 -2 29q3 31 -3 34q-5 3 -4 6v2q9 15 10 17q6 11 5 18q-2 16 -6 20q-3 6 -2 10q4 25 8 30q5 5 2 11l-10 22l-1 1q0 2 -0.5 4.5t-0.5 5.5l28 28q1 1 19 22q19 -9 21 -11t6 -14
q20 -13 22 -18q1 -6 -1 -11q-11 -18 -3 -21q9 -3 8 -9q-5 -12 -9 -20q-1 -2 8 -16q-17 -20 -11 -23q5 -3 5 -11q1 -16 3 -19q1 -2 -13 -13q18 -16 12 -21t-6 -14q1 -25 3 -25q1 -1 0 -8q-4 -19 4 -19q4 1 6 -1t0 -7l-2 -6t-1.5 -5t-1 -3.5t-0.5 -2.5l-1 -1q-2 -2 0 -29
q-10 -4 -4 -7l6 -5q-2 -30 -3 -33q-3 -5 0 -11q6 -13 8 -15q4 -6 -4 -33q-7 -25 -12 -31q-4 -6 0 -7q9 -2 12.5 -4t1.5 -6q-6 -8 -5 -13q3 -18 4 -19l2 -3q2 -3 6.5 -10t10.5 -14q10 1 12 0l38 -13q8 -2 11 7q1 3 2 4.5t2.5 2t2.5 0.5q36 -5 64 -11q22 -3 30 5q17 17 22 18
q6 1 8 6q2 26 4 27t3 11q3 19 0 23q-4 6 -2 11l6 22v1q0 1 -0.5 3t-1 4.5t-1.5 6t-2 7.5q16 17 9 21q-8 5 -8 10q0 4 0.5 7t0.5 5t0.5 3.5t0.5 2.5v1q0 6 -2 15q9 4 5 8q-3 3 -4 8q-3 20 2 27q3 4 5 11q3 19 -5 25q-8 7 -5 10q10 26 18 32t4 9q-10 8 -16 17q-8 11 -4 17
l11 9q6 6 -8 15q9 20 3 26q-6 5 -5 7q8 13 11 15q4 3 3 5q-7 22 -3 28t3 14q-3 20 -3 21q-1 0 -8 6q36 18 36 19l3 1q3 1 9.5 3t13.5 4l2 -2z" />
    <glyph glyph-name="V" unicode="V" 
d="M522 623q-2 -2 -13 -5q-6 -1 -1 -3q6 -2 11 -6h1l14 -14q-1 -2 -4 -6.5t-4 -6.5q-3 -5 -5 -15q-3 -16 -1 -17q3 0 3 -6q-3 -19 -1 -26q1 -3 -3 -7q-11 -11 -6 -14t3 -4l-12 -6l-11 -6q14 -13 17 -13q2 -2 5 -21q-16 -11 -23 -11q-6 -1 -5 -5q4 -13 1 -18q-3 -4 -2 -6
q7 -19 1 -23q-8 -3 -5 -22q1 -16 0 -16q1 0 1 -24l-11 -2l-25 -13l15 -9q15 -10 -3 -29q-11 -12 -10 -14q1 -1 0 -3q-11 -8 -11 -12q-2 -6 2 -12q9 -17 4 -17q-5 -2 -7 -8q-3 -11 -3 -17q1 -5 -1 -10q-12 -20 -12 -24q-1 -5 -4 -7q-11 -12 -11 -15q-1 -3 0 -4q9 -11 7 -13
q0 -1 -1 -2.5t-2 -4.5t-3 -6q-9 -17 -11 -38q-2 -19 -9 -25q-8 -7 -11 -11t-1 -5q3 -3 -2 -8q-11 -12 -12 -11h-12q-21 0 -29 -4q-6 -3 -8 -3h-2q-24 6 -27 7q-15 5 -34 -4q-22 74 -26 76l-2 2q-3 3 -6 6.5t-4 3.5l-1 1l-10 13l2 19l14 28h-4q-2 2 -13 9q-3 2 -7 4l-6 5
l-1 1q-1 1 -2 3t-3 4l14 17q1 0 6 8q-5 3 -9 5.5t-6 4t-3 1.5q-2 1 -2 18q-12 16 -11 17q2 2 5 11q4 17 -2 19q-6 0 -7 7q0 6 -0.5 11t-1 7.5t-0.5 3.5t-8 14q-9 16 -16 18q-6 3 -2 4q14 8 15 8h4l-10 35l-10 10q-12 15 -6 18t5 7q-1 10 -5 10q-1 0 -3 -0.5t-5 -1t-6 -0.5
l7 12l12 6q-15 15 -20 17t-5 5q3 21 -2 23q-4 1 -4 5q0 13 2 17q3 4 1 7q-9 24 -6 27q2 2 -1 12q-8 23 -15 23q-5 0 -5 2l2 1q2 2 4 3.5t4 2.5l1 1l2 18q1 16 2 16q2 0 15 19l6 -1q3 0 9 1q22 -19 28 -22q2 -1 4 -6q7 -18 12 -21t3 -6q-3 -4 -7 -8q-1 -2 -1 -3q2 -8 3.5 -13
t2.5 -9t2 -5.5t2 -1.5q2 1 5 -5l1 -2q10 -20 11 -24q2 -4 1 -11q-2 -25 -2 -26q-1 -4 1 -6t3.5 -4t3 -3.5l2.5 -2.5l2 -2v-1q0 -1 14 -27q-2 -9 -7 -13t-2 -7q13 -12 12 -12q-1 -1 3 -15q3 -6 5 -12q1 -3 2.5 -6t2.5 -6.5t2 -5.5l7 -16l3 -26q10 -4 7 -8q-3 -5 -4 -5
q-1 -5 -1 -8.5t0.5 -6t1.5 -3t3 -0.5q9 2 10 -2q6 -13 0 -16q-5 -2 -2 -5q12 -9 9 -12q-3 -1 -1 -8q4 -16 7 -16t4 -5q1 -3 1.5 -5t0.5 -3t-1 -1q0 -2 -7 -20h1q1 -1 2.5 -1.5t4 -2t4.5 -2.5q11 -5 55 6q-2 2 -12 14q-6 7 -4 10q9 14 8 20q-3 8 0 9q20 17 14 21q-5 4 -11 12
q30 14 30 12h8l-18 18q-10 10 26 46q-5 20 -9 23q-4 4 -1 5q16 6 18 10q3 3 2 4q-10 10 -8 13q3 3 6 9q8 14 2 15t-8 5q-7 13 -6 14l1 2q1 1 2.5 4t3.5 5q16 -6 17 -7q4 0 11 1q-5 5 -8.5 9.5t-5.5 7.5l-2 2l-1 1q-1 1 -2.5 2t-4 3t-4.5 4h17l17 5q-3 4 -5.5 8t-3.5 6l-2 2
l-21 9q4 1 7.5 2t5.5 2h2q0 1 24 10q4 1 1 3q-2 1 -6 3.5t-6 3.5l6 6q2 2 -1 17l14 5q1 0 15 13q-5 1 -10 1q-1 0 -19 2q16 21 28 19q5 -2 5.5 -1.5t-3.5 2.5q-9 6 -10 6t-4 7q33 3 34 3h2q3 1 9 2.5t12 2.5q4 0 1 2l-7 3l-3 5q-1 2 2 4.5t12 5.5l1 -1l3 -2q3 -2 9 -6.5
t13 -10.5z" />
    <glyph glyph-name="W" unicode="W" 
d="M111 635q15 -50 14 -54q-2 -3 3 -14q10 -26 5 -31q-6 -3 -1 -16q5 -15 5 -21q0 -1 1.5 -4.5t4 -11.5t5.5 -16q12 -35 8 -39q-5 -5 -2 -10q5 -13 7 -15q2 -4 -4 -23q-11 -29 -8 -30q1 -1 4 -24q3 -38 9 -45q4 -5 6 -13q5 -36 2 -43q-3 -9 0 -12q12 -18 12 -20v-1v-4v-5v-7
v-8q2 3 15 18q13 16 13 27q0 36 2 34q1 0 3 11q5 42 4 43t4 13q3 6 7 18q3 8 6 26q3 27 2 36q-1 10 2 18l12 21q0 1 12 36q20 4 25 4q1 0 4.5 0.5t11.5 1t16 1.5q19 -24 18 -31q-3 -6 5 -19l14 -29q15 -28 16 -65q0 -8 1 -19q2 -18 8 -26q14 -17 11 -21q-4 -4 -3 -12
q3 -21 3 -23q-1 -1 5 -5.5t18 -12.5q0 4 0.5 7t0.5 5t0.5 3.5t0.5 2.5v1l1 1q1 1 2 2.5t3.5 4t4.5 5.5l-2 3q-1 2 1.5 3t8.5 1q-15 22 -10 25q6 3 6 12q3 49 3 51q1 1 4 7q14 34 16 37q3 5 0 11l-4 14q-3 9 0 19q10 40 10 41q1 2 1 10q-3 29 0 32q4 4 5 19q3 23 -3 28
q-7 5 -4 11q3 7 9 25q4 16 8 17q19 6 21 6l32 12l16 -13q1 -1 17 -7q-18 -14 -22 -20q-2 -5 -1 -9q6 -16 4 -17q-3 -1 -4 -14q-10 -60 -13 -63q-2 -2 -5 -19q-1 -9 -2 -20t-1 -14q-1 -9 0 -21q3 -32 -1 -35q-4 -5 -3 -9q5 -33 3 -38l-3 -7q-10 -27 -8 -28q2 -2 0 -13
q-8 -29 -5 -32q2 -4 -1 -15q-4 -18 -8 -32q-6 -24 -6 -27l1 -32v-1q-1 -1 -1 -3t-0.5 -4.5t-0.5 -6.5t-1 -8q-6 -41 -4 -44q3 -5 -1 -16q-3 -7 -5.5 -13.5t-3.5 -9.5l-1 -3q0 -1 -3 -26q-6 -3 -11.5 -5.5t-8.5 -3.5l-3 -2q-1 0 -22 3q-28 -5 -31 -5h-2q-4 4 -15 10
q-27 15 -29 15l-2 4q-2 4 -7.5 14t-10.5 19q12 18 12 19q1 2 1 8q2 25 -1 28t-2 10q3 29 -2 32q-7 3 -5 13q2 15 2 23l-4 22v17l-2 3q-2 3 -6 8.5t-8 11.5q0 24 -3 27q-5 2 -14 9q-6 -38 -5 -40q1 -1 -1 -21q-5 -42 -6 -43q-3 0 -3 -13q-1 -27 3 -28q3 -1 -10 -64
q-6 -27 -8 -29q-2 0 -14 -14q-14 -15 -11 -18q3 -6 6 -13q-37 -11 -38 -8q-1 1 -20 0q-18 -1 -29 -1q-2 0 -35 13q8 14 9 15t-4 10q-7 16 -6 23q2 10 -1 14q-15 25 -8 28q8 2 5 15q-3 28 -9 35q-7 7 -4 14q10 32 -2 50q-13 16 -9 25l8 18q3 4 -8 20q-16 23 -12 26q5 3 5 16
q-2 23 -7 30q-5 6 -5 13q2 39 2 40q1 3 -1 10q-9 34 -6 38q3 5 1 8q-2 5 -6 18q-6 15 -2 28q6 26 2 27q-5 2 -8 16q-4 19 -4 22q0 6 -4 46q2 1 6 1h2l3 2q3 3 10 9t15 12q-2 -2 -2 -2.5t4 0.5q3 0 23 -2z" />
    <glyph glyph-name="X" unicode="X" 
d="M481 634l5 -12l14 -28q-9 -1 -13 -4t-3 -9q1 -8 1 -15q-9 -13 -18 -22q-2 -2 -5 -7q-3 -15 -11 -12q-4 1 -5.5 -0.5t0.5 -5.5q4 -12 0 -12q-3 0 -7 -7q-11 -19 -10 -20t-4 -8q-10 -15 -16 -20q-5 -4 -19 -33l-5 -10q-10 -16 -11 -18q-7 -8 -9.5 -11.5t-1.5 -4.5
q4 -4 1 -9q-8 -17 -14 -20q-6 -4 -3 -7q17 -23 19 -35q0 -12 13 -24q18 -19 18 -20l3 -6l5 -13q4 -4 12 -11q6 -5 12 -9l9 -6l3 -2l2 -5q7 -19 6 -25q0 -5 4 -6q14 -9 11 -14t-2 -5q18 -12 26 -16q18 -11 19 -27q0 -4 0.5 -6.5t1 -4.5t1 -2.5t1.5 -0.5q3 0 11 -6
q15 -11 19 -17q1 -5 0 -8q-2 -18 5 -20q3 -1 3.5 -1t-0.5 -1q0 -2 -2 -3q-12 -10 -13 -13q-2 -2 0 -33q-14 -2 -20 3q-5 4 -10 2q-16 -6 -17 -6l-16 1q-29 19 -28 29q3 10 -12 22q-14 13 -18 14q-7 2 -4 5q9 14 -10 21q-19 9 -19 18q-1 10 -3.5 14.5t-6.5 3.5q-6 -2 -7 -1
q0 1 1 2q9 11 1 16q-10 8 -19 25q-9 15 -8 19q2 5 -1 7q-3 3 -7 6.5t-5 4.5l-3.5 3.5t-7.5 8.5t-10 11q-3 3 -2 4q0 1 5 11q-20 0 -21 -2q0 -1 -1 -4t-2 -5q-9 -6 -13 -10q-3 -2 -5 -9q-3 -18 -5 -19q-3 2 -11 -8q-15 -15 -12 -17q1 -2 -3 -9q-12 -17 -17 -20q-3 -3 -3 -7
q-2 -29 -9 -36q-9 -6 -18 -25q-4 -9 -7 -14.5t-5.5 -10t-4 -6t-2.5 -1.5q-1 1 -3.5 -1t-6.5 -7t-9 -12q-2 -3 -4.5 -6.5t-3.5 -5.5l-1 -1l-9 -9q-24 -3 -26 -1q-1 0 -27 6q6 8 4 9t-5 5q-2 4 -3.5 8t-2.5 6l-1 2l-5 25l16 12q1 0 4 5q12 17 11 18t23 41q11 16 24 42
q2 3 3.5 6l2.5 5t2 3.5t1 2.5l1 1q16 16 15 18q-1 3 4 8q10 11 15 27q5 11 21 27l9 10q7 7 10 15q5 20 7 23q2 4 1 8q-4 10 -8 34q-5 26 -9 30q-16 16 -14 18q1 2 -6 9l-16 16q-5 3 -6 6q-4 10 -6.5 14.5t-4.5 3.5q-4 -2 -10 6q-16 20 -17 21q-2 2 1 4q10 9 10 10l3 1
q-7 7 -13 12t-9 7l-3 3l-2 3q-2 2 -5.5 7t-8.5 11v17q1 17 -18 15q3 15 1 19q0 2 17 10q7 19 8 19l12 4l14 -8q13 -8 15 -15q8 -24 10 -24q2 1 4 -4l1.5 -1.5t0.5 -1.5q1 -2 3.5 -6t3.5 -7q6 -9 12 -15q18 -13 14 -15q-2 -2 2 -11q9 -17 12 -20q1 -2 6 -9t3 -9q-1 -3 34 -41
l12 -12l2 -3q1 -3 4 -9l6 -12l6 2h2l1 -1q1 0 2 -1q13 24 18 30q7 9 26 42q1 2 7 13.5t11 21.5q13 26 13 28q9 8 16 15q2 3 4 7q2 10 4.5 14.5t5.5 3.5q5 -3 8 5q6 20 13 27q7 6 9 17l19 5q9 0 26 -2z" />
    <glyph glyph-name="Y" unicode="Y" 
d="M161 615q9 2 11 1q4 -1 0 -5q25 -11 19 -17q-5 -7 -3 -9q8 -9 18 -19q9 -12 10 -14q18 -25 24 -27q9 -3 8 -9q-3 -18 -3 -19q1 -1 3 -6q23 -27 26 -30q1 -1 39 -16q1 13 8 16q6 3 6 7q1 12 3 17t7 3q8 -4 14 8l13 24q2 0 12 13q16 20 19 30t7 13q12 9 17.5 14t4.5 7
q-2 7 5 12q11 12 13 12q1 1 36 8l2 5q0 3 10 3q26 -24 27 -27q0 -4 4 -20q-8 -16 -10 -18l-13 -17q4 -7 2 -8l-8 -5l-9 -9q-6 -6 -9 -19q-6 -25 -16 -29q-10 -5 -11 -9q0 -8 -1 -16q-1 -11 -14 -22q-18 -16 -16 -18q1 -3 -4 -8q-21 -24 -22 -25q-5 -3 -8 -8q-11 -26 -14 -26
q-5 0 -11 -10q-12 -22 -6 -25t0 -9q-11 -14 -10 -17q0 -1 1 -4t2 -8t3 -11q-6 -13 0 -15q6 -1 4 -5q-8 -16 -10 -23.5t2 -8.5q7 -2 5 -16v-3q-1 -2 -1.5 -6.5t-0.5 -10.5q-2 -19 1 -27q6 -34 2 -35q-3 -1 -3 -12q2 -24 6 -28q6 -6 4 -11q-1 -5 -2.5 -9.5t-2 -7t-1.5 -5
t-1 -3.5q-2 -6 -5 -12q-2 -4 -3.5 -8t-2.5 -6.5t-2 -4.5l-1 -3v-1l-16 -26q-19 3 -22 3q-1 0 -5.5 1t-14 3t-19.5 4q-1 3 -2 6.5t-2 5.5l-1 2q-1 1 -7 33q-11 13 -7 39q5 27 3 45q-2 32 2 39q5 9 2 16q-9 27 -5 28q3 1 4 63q1 27 1 42l-1 1q-6 28 -5 33q0 6 -5 10
q-28 20 -25 24q4 5 -7 13q-31 26 -31 28v3v17q0 9 -14 23q-10 10 -10 18v9q-24 16 -27 23q-3 8 -2 13q3 18 -6 21q-7 1 -8 7q-3 6 -6 11.5t-5 8.5l-1 3q0 2 6 37l6 10l9 13q14 -2 26 -2q5 -3 21 -21z" />
    <glyph glyph-name="Z" unicode="Z" 
d="M183 628q12 -1 38 2q23 3 41 1q28 -3 29 -5t9 -3q18 -3 19 4q-1 4 4 6q1 0 2 -1q26 -7 27 -8q6 -2 9 -1q24 6 26 4q1 -2 13 -2q31 1 32 3q2 2 10 -1q15 -4 18 -4l4 -1q3 0 11 -0.5t18 -0.5l1 -5l4 -3q6 -51 1 -54q-7 -4 -20 -22q-1 -1 -5 -8q-2 -2 -10 -19q-6 -15 -7 -15
l-1 -2q0 -2 -0.5 -5.5t-0.5 -8.5q-3 -1 -8.5 -2t-6.5 -2q-4 -1 -1 -6q2 -2 3.5 -4t2.5 -3l1 -2q2 -2 -1 -7q-19 -12 -30 -15q-11 -5 -8 -8q9 -10 9 -12q0 -3 1 -6q-24 -19 -29 -21q-4 -1 -6 -6q-5 -17 -7 -17q-2 1 -3 -0.5t-3 -5.5q-8 -17 -12 -17q-3 1 -4 0t0 -3l3 -9
q4 -5 6 -14q-7 -3 -26 -8q-11 -5 -11 -9q1 -16 0 -17l-1 -8q-11 -17 -24 -29q-15 -13 -25 -28q-14 -19 -10 -34q2 -8 0 -11t-7 -1l-2 -2q-4 -1 0 -4q-5 -6 -16 -23q-6 -9 -9 -30q-17 -6 -35 -12q-4 -1 -9 -3l-5 -2q10 -8 11 -7l18 2q27 3 27 0q0 -2 9 -5q19 -4 20 -3
q2 0 18 4q7 2 17 4q11 2 17 -2q16 -9 17 -3q4 7 8 7q19 -3 26 -7q4 -4 8 0q19 19 32 8q16 -11 30 -6q19 6 20 4q2 -3 12 -6q18 -3 19 -3q1 -1 41 -2v-1q-1 -1 0 -1q2 -27 1 -28q0 -3 12 -25l-3 -6v-1q-44 -12 -45 -13t-10 -3q-26 -6 -30 -4q-1 1 -14 -1q-22 -3 -23 -2
q-7 0 -19 1q-22 2 -27 -2q-6 -5 -11 -3q-33 9 -38 5t-28 -2q-20 1 -27 -2q-3 -2 -7 -2h-2l-16 4l-3 1q-2 2 -8.5 4.5t-12.5 5.5q6 -7 5 -8v-6q-32 -3 -34 1q-1 4 -10 3h-16q-10 0 -18 3q-23 7 -25 5q-2 -3 -12 -2q-14 3 -17 8t-2 7q3 15 1 17q-6 3 -12 7q-9 5 -3 8l6 5
q-1 12 -3 14l-12 10q22 12 27 7q6 -5 6 3v13q0 3 8 24q10 12 14 10q4 -1 8 6q11 14 11 19q0 6 3 9l9.5 9.5t2.5 1.5l27 16l-1 2q-1 1 -2.5 4t-3.5 6q-6 11 17 31q19 14 17 17q-2 4 2 11q6 8 24 26q19 19 20 24q4 15 12 37q9 23 10 23q7 2 12 4.5t6.5 4t0.5 3.5q-3 4 6 11
l12 10l1 1q1 1 3 2.5t4.5 3.5t6.5 5t8 7q0 3 -4 8q-4 6 -2 8q4 4 20 28q3 5 6 9.5l5 7.5t3.5 5t2.5 3l1 2q9 16 16 16q5 0 26 30q-26 -5 -29 -7q-5 -3 -9 0q-2 2 -17 13q-6 4 -8 3q-22 -6 -25 -2q-1 3 -9 5q-16 0 -22 -3q-4 -4 -8 -2q-6 3 -13 6q-9 5 -21 3q-24 -2 -26 -5
t-4 -2q-17 11 -25 11t-11 -2t-7 -5t-6 -4l-2 -1l-12 -1q-6 3 -11.5 6t-8.5 5l-3 1q-1 1 -31 10q0 2 -0.5 3.5t-0.5 3.5v1q0 3 -7 21l3 3l2 5q43 8 43 9h1q17 9 18 8t18 -3z" />
    <glyph glyph-name="bracketleft" unicode="[" 
d="M229 708q-12 -1 -28 -1q-9 0 -11 2h-3q-1 0 -3 -1.5t-5.5 -4t-7.5 -4.5q-4 -8 -5 -13q-3 -8 -3 -15q0 -8 2 -20l2 -9l1 -11q2 -16 1 -28l2 -7v-2q0 -12 7 -26q2 -4 5 -8q1 -4 6 -4q5 -2 4 -7q-1 -2 -8 -15q-2 -4 -2 -6q-1 -3 0 -4q1 -3 3 -12q0 -1 7 -26q1 -3 0 -7
q-1 -1 -6 -7q-2 -4 -4 -14q-1 -4 -1 -35t1 -37l2 -8q1 -3 3 -3q2 -2 0 -7q0 -1 -1.5 -22t-3.5 -41.5t-4 -23.5q-2 -2 -2 -8q-1 -3 1 -12l3 -15l4 -15v-4l-2 -4q-3 -3 -4 -8q-1 -4 -6 -18q-2 -3 1 -6q1 -2 7 -4t7 -9q1 -4 -1 -19q-2 -8 -3 -11l-4 -4q-2 -2 -3 -8q-1 -4 1 -21
q1 -12 1 -31q0 -13 -3 -19q0 -1 -0.5 -3t-1 -3.5l-1 -3t-0.5 -2.5v-6q-1 -6 -4 -30q0 -13 4 -22q0 -21 2 -31q4 -9 5 -29q4 -5 13 -7q8 -2 23 -9l1 -1h2q1 0 3 2q1 1 10 4q10 3 19 1q1 0 2 -1q1 0 3 -1q4 -1 1 -5q21 2 33 3q8 1 14 1q1 1 10 1h23q12 0 28 -1q24 -1 26 1
q2 3 8 5q2 1 18 11q3 3 5 4q4 2 8 -2q2 -1 8 -7q7 17 11 24q3 9 3 10q0 2 -3 9q0 2 -1.5 5.5t-3 8.5t-2.5 9q-4 3 -14 11q0 1 -6 4q-15 8 -19 9q-7 4 -27 2q-23 -2 -32 -1q-8 2 -17 0l-20 -5q-7 10 -10 22l-2 11v6q0 1 -1.5 7t-2.5 11t-1 12v6q2 2 -1 9l-9 27q-1 1 -1 6
q0 6 1 9q0 1 3 14l1 7q2 7 3 12q1 3 0 6q-2 4 -6 5t-6 10q0 10 1 18q0 1 2 3t2 3q2 4 4 6q4 4 -1 8q-4 4 -17 9q6 8 7 9l3 6q2 2 -1 4q0 1 -7 10q-2 2 -2 5l2 37q1 38 2 39q2 1 6 11q5 13 7 20q1 2 0.5 28.5t-1.5 28.5q-2 2 -6 2q-4 1 -3 9q2 9 6 23q4 8 4 17q-2 9 -4 12
q-6 6 -7 8l-2 3q-2 2 -2 7l2 5q1 5 2 8q2 3 4.5 8l3.5 7q4 8 5 11q2 4 2 5t-2 7q0 1 -0.5 3t-1 5t-0.5 5q-1 6 -1 23q8 2 16 12q4 4 11.5 3.5t8.5 -6.5q0 1 3 1t9.5 -1t14.5 -2q27 -3 32 1q6 4 17 3h4q-1 2 -8 4q4 -4 8 -1q5 2 13 -3q1 -1 4 -1q2 2 4 3q1 1 3 7q1 3 1 12
q1 1 6.5 5.5t10.5 7.5q1 0 3 2q0 1 0.5 2.5t1.5 3.5t1 3q-5 6 -10.5 12.5t-6.5 8.5q-5 8 -6 8l-2 1l-6 4q-21 1 -34 3q-11 1 -11 2l-30 -1q-27 -1 -53 -4q-10 -2 -11 -2l-4 4q-2 2 -11 3q-11 2 -32 0z" />
    <glyph glyph-name="backslash" unicode="\" 
d="M77 706l-4 -8l-1 -2q-2 -3 -5 -8l-6 -10q7 -20 7 -28q0 -9 5 -12q11 -11 6 -15q-6 -5 -5 -9t14 -29q10 -16 22 -31q4 -6 9 -11q7 -9 10 -26t12 -18q10 -3 10 -6q-3 -25 8 -30t21 -15q7 -18 3 -22t17 -32l16 -27q2 -4 4.5 -8.5t4 -7t3 -4.5t1.5 -3v-1q4 -4 15 -29
q5 -11 9 -16t6 -3q-3 -41 -8 -48q-2 -5 0 -5q25 0 33 -5q8 -4 5 -9q-9 -25 3 -25q6 0 8.5 -1t1.5 -3q-7 -22 5 -29q12 -8 -1 -12q21 -17 17 -21t0 -11l2 -7q3 -7 36 -39q5 -5 13 -26q7 -21 8 -33q2 -12 17 -32q17 -21 18 -25q5 -13 6 -14q0 -1 2 -4t5.5 -10t7.5 -14l15 -3
q3 -1 13 -1q31 0 76 5q13 31 12 40q0 5 -3 6q-8 3 -11 21q-8 44 -18 48t-13 17t-19 23q-15 11 -21 31q-4 16 -11 21q-6 6 -6 9q-6 43 -25 50q-18 8 -9 16q10 6 12 8q5 5 -5 11q-13 6 -18 10t-4 6q3 4 -2 11q-11 17 -15 15q-2 -1 -3.5 1t-3.5 6q-22 49 -29 53q-6 3 -3 7
q11 28 -12 34q-11 3 -16 7.5t-4 10.5q3 20 -13 42q-17 24 -18 25q-3 15 -17 39q-15 21 -17 30q-12 26 -8 30q5 3 2 7q-5 9 -7 11l-3 3q-2 2 -6.5 7t-9.5 11q19 5 1 11q-16 6 -19 19q-2 0 -15 12q-17 11 11 25q-12 6 -25.5 12t-14.5 7q-9 6 -13 13q-9 17 -18 19q-1 2 -6 0
q-10 1 -42 -2z" />
    <glyph glyph-name="bracketright" unicode="]" 
d="M379 -81q20 2 29 0q9 0 10 -1v-1q2 0 3 1q1 0 3.5 1t6.5 3l8 4q1 4 5 14q2 10 2 15q1 7 -1 19l-2 10l-1 11q-1 12 0 29q-3 -1 -2 6v2q0 12 -7 26l-4 9q-2 2 -8 4q-5 1 -3 6q0 1 1 16.5t3 31t4 18.5l3 7q2 2 0 4q-3 3 -4 11q-1 6 -6 26q-1 3 1 7q1 4 4 8q4 4 6 14
q2 8 0 22q0 1 -0.5 4t-1.5 4t-4 3q-2 2 0 7q3 4 11 14q1 1 1.5 4t0.5 4q0 8 -1 13l-3 15l-4 15v4l2 4q3 3 4 8q1 2 3 43t4 45q1 2 -1 6q-1 1 -7 3q-6 3 -8 11q0 1 2 18q1 7 3 10q1 4 4 4q3 1 4 8q0 12 -1 22q-1 13 -1 32q0 13 4 18q0 2 0.5 5.5t1.5 5.5q1 3 1 8q2 9 4 29v3
q0 12 -3 19q0 21 -2 31q-4 11 -5 29q-6 5 -13 7q-2 0 -23 10q-1 1 0 1h-3l-2 -2q-2 -2 -11 -5q-10 -3 -19 0q0 -1 -5 1t0 7q-21 -2 -33 -3q-8 -1 -14 -1q-1 -1 -10 -1q-14 0 -24 1q-11 0 -28 1q-24 1 -26 -1q-5 -5 -8 -6t-18 -10q-2 -2 -5 -3q-4 -2 -8 2q-4 2 -8 6
q-6 -14 -11 -23q-3 -9 -3 -10l2 -10l3.5 -10.5t3.5 -11.5q8 -8 14 -13l6 -3q7 -3 19 -8q9 -4 27 -3q23 2 32 1q10 -2 17 -1l20 5q8 -12 9 -22q1 -12 3 -12q-2 -2 0 -6q2 -7 3 -17q1 -5 1 -12v-7q-2 -2 1 -9q1 -4 8 -26q1 -1 1 -7t-1 -9q-2 -8 -3 -13l-2 -7q-1 -7 -2 -12
q-2 -3 0 -7t6 -5q2 -2 4 -9q1 -3 0.5 -43t-1.5 -46l-2 -6q-1 -2 -5 -6q-4 -3 1 -8q3 -3 17 -10l-8 -8q-3 -5 -3 -6q-1 -1 0 -5l9 -9q3 -3 1 -5q0 -2 -4 -6q-4 -2 -7 -9t-6 -20q-2 -6 0 -8t6 -2q4 -1 3 -9q-1 -6 -6 -22q-5 -9 -3 -18q0 -8 3 -12q5 -5 6 -7l3 -3q2 -2 1 -7
q0 -3 -4 -13q-1 -3 -3.5 -33.5t-4.5 -32.5q-3 -6 -5 -12q-2 -4 -2 -5t2 -7l2 -13q2 -9 0 -24q-7 -1 -16 -10q-8 -7 -9 3q-1 -1 -9 -1t-19.5 1t-19.5 2q-27 4 -31 0q-8 -4 -18 -3q-12 1 3 -3q-4 4 -8 1q-4 -2 -11 2q-2 3 -4 1q-2 0 -4 -3q-2 -1 -4 -6q-1 -3 -1 -12
q-1 -1 -7 -6t-11 -8q-1 0 -3 -2l-4 -8q15 -19 17 -22q6 -8 8 -8l2 -2l6 -3q21 -2 33 -3q11 -1 12 -2h29q7 0 21.5 1t26 1.5t15.5 0.5q5 1 10 1q4 0 4 -2q2 -3 12 -3q7 -1 31 -1z" />
    <glyph glyph-name="asciicircum" unicode="^" 
d="M357 683q38 -35 47 -37q10 -2 15 -4q53 -27 55 -49q2 -21 4 -26q2 -6 2 -19q0 -7 -2 -19q-5 -23 -34 -31q-43 9 -47 2q-6 -8 -30 7q-8 5 -13 5q-8 0 -42 30l-5 6q-6 6 -17 6q5 -8 0.5 -11.5t-19.5 -2.5q-29 2 -43 -40q-23 -9 -36 -9q-12 0 -14 10q-5 17 -27 23
q-6 1 -14 8q-3 2 -2 7q2 16 11 38q12 27 45 49q29 18 31 20q27 24 71 42q18 7 34 7q18 0 30 -12z" />
    <glyph glyph-name="underscore" unicode="_" 
d="M92 113q12 5 18 6q1 1 6 1q9 0 21 -4q51 -14 54 -2q3 10 34 1q42 -12 46 -3q5 10 40 5q10 -1 19 0t82 0q32 -2 65 0t38 0q18 -2 40 -10q26 -11 34 -12v-24q0 -47 -5 -52q-6 -5 -9 -6l-30 -15q-4 -2 -11 -2q-14 0 -45 6q-55 10 -65 1q-9 -9 -33 -3q-49 12 -58 6
q-12 -7 -35 -4q-38 5 -73 5q-36 -1 -75 2q-67 6 -68 0q-1 -5 -17 4q-17 10 -18 10q-5 0 -21 5v7.5v6.5v3v1l1 2q1 2 4 7.5t6 10.5q-5 8 4 25t18 27q18 2 23 -3t10 -2z" />
    <glyph glyph-name="grave" unicode="`" 
d="M268 725q23 -1 33.5 -5t9.5 -12q0 -16 29 -22q30 -7 44 -15q14 -11 25 -24q2 -2 4 -5q4 -8 25 -33q1 0 20 -23q18 -23 11 -42q-6 -12 1 -22q3 -3 2 -5q0 -7 -12 -12q-9 -4 0 -26q5 -11 3 -14t-12 0q-29 3 -46 -4q-2 -1 -7 -1q-16 0 -47 23q1 -4 0 -4t-4 4q-6 7 -54 12
q-4 4 -28 31q-14 15 -40 18q1 3 -5 8t-19 14q-23 17 -23 16q-12 5 -14 8q-1 1 -3 5t-7 12t-9 16q-1 1 -3 23v6q0 15 9 21t33 24q25 19 27 23q2 5 5 6q0 1 5 1q1 0 47 -2z" />
    <glyph glyph-name="a" unicode="a" 
d="M286 428q49 0 50 4q2 3 6 3q5 0 9 -1q36 -6 42 -3q8 3 13 -1q24 -15 37 -17q10 -2 14 -7q10 -15 19 -30q3 -5 7 -11q17 -26 14 -28q-2 -1 1 -15q6 -28 4 -30q-2 -5 -1 -15q3 -27 -2 -37q-5 -8 -2 -13q19 -43 16 -46q-2 -2 -8 -49q-4 -29 -1 -31q4 -2 11 -17
q12 -24 11 -25v-4q1 -4 1.5 -14t1.5 -20q-1 -1 -3 -1l-2 -1l-33 -10q-30 -7 -32 2q-2 11 -14 6q-8 -2 -14.5 -4t-9.5 -3l-3 -1l-21 -2q-22 -2 -39 -2q-4 1 -18 1q-40 -1 -45 -4h-6h-8q-9 2 -31 3q-23 2 -32 4q-35 8 -44 5q-10 -3 -17 2q-16 10 -23 15.5t-6 7.5q1 3 -9 12
q-13 12 -20 19l-1 1q0 1 -1.5 3t-3 4.5t-4 6.5t-4.5 8q0 1 1.5 10.5t2.5 15.5q3 19 2 22q-2 23 -1 24q0 2 10 22q14 29 18 29t10 10q13 22 24 30q5 4 15 6q42 3 42 7t17 9q32 9 33 6q1 -2 27 -4l28 -2q24 -3 42 1q4 1 28 5l24 4l-9 34l-6 25q-2 0 -11.5 1t-15.5 2
q-15 3 -45 -2q-39 -5 -37 -3h-25q-9 0 -17 -0.5t-12 -0.5h-3q-3 -3 -21 -12q-12 -7 -20 -11q-3 -1 -27 -21q-8 1 -15.5 1.5t-11 1t-4.5 0.5l-27 27q13 10 13 11l1 4q1 4 3 13l4 18q20 11 22 9q3 -1 12 6q24 19 27 23t10 6q37 6 38 9q1 1 9 3q22 4 26 1q5 -5 20 -5zM408 197
q-17 -3 -32 -5.5t-22 -3.5l-6 -1q-1 0 -28 6q-14 2 -33 -1q-7 -1 -15.5 -2t-10.5 -1q-7 -1 -28 -1q-13 -1 -43 -1q4 -4 0 -4h-4q-8 -28 -8 -31q0 -4 4 -27q18 -21 19 -21q6 0 26 -8q9 -4 22 -1q10 2 44 -1q1 0 4.5 0.5t10.5 1t14 0.5h25.5t25.5 1q12 9 12 10t30 40l-4 5
q0 15 1 45l-4 -2q-1 -1 0 2z" />
    <glyph glyph-name="b" unicode="b" 
d="M184 594q-4 -10 -8 -16q-6 -9 19 -29q-18 -64 -11 -72q6 -10 4 -13q-7 -18 1 -25.5t31 -5.5q45 4 52 3q134 -11 143 -9q16 2 23 -4q32 -26 60 -54q21 -21 8 -28q-11 -6 1 -31q11 -26 -4 -45q13 2 25 -16q4 -6 4 -9q0 -15 -29 -35q9 -5 23 -29q15 -24 -28 -33
q7 -14 10 -22q6 -15 16 -28q-18 -10 -42 -42q-21 -29 -59 -37q-8 -2 -11 -7q-2 -3 -57 -5h-9q-1 1 -89 1q-89 0 -105 -9q-7 -4 -17 -4t-19 6q-2 2 -15 25q-14 26 -15 34q2 2 13 19q10 15 -10 49q14 16 10 33q-5 20 -5 27q0 17 5 33q6 18 1 23l-5 10q-4 11 8 47q-2 4 -11 15
q-9 9 19 29l-12 13q-10 13 -13 33q6 6 14 15q13 14 2 40q-12 28 -4 35q8 6 -9 28q-6 16 12 23q18 9 -3 32q-4 5 -9 3q-1 0 -2 1.5t-2 5.5t-1.5 8.5t-0.5 12.5v1q0 9 1 16q1 12 49 16h2q7 -2 11 -6q8 -8 38 -23zM282 340q-65 4 -67 -10q-1 -13 -7 -17q-9 -7 -9 -21t7 -14
q-7 -10 -9 -10l-27 -40q32 2 26 -12q-7 -15 -1 -23q1 -1 -6 -27q-7 -24 12 -37q33 -22 36 -23q6 -2 102 -2q38 0 50 10l11 9q9 27 21 39q11 12 3 15q-17 8 -6 28q10 18 5 25q-12 13 1 49q12 35 -46 57q-50 20 -61 10q-10 -7 -35 -6z" />
    <glyph glyph-name="c" unicode="c" 
d="M418 424q6 -6 34 -15t39 -31q46 -81 3 -84q-6 -1 -11 -1.5t-9 -1t-7.5 -1t-6 -0.5t-4 -0.5t-2.5 -0.5l-8 14q-5 12 -58 30q-9 3 -19 8q-5 3 -67 5q-82 3 -91 -23q-11 -25 -14 -50q-16 -39 -8 -44q7 -4 8 -20q-14 -16 -8 -22q4 -4 20 -41q-10 -7 -7 -24q3 -16 75 -27
q36 -6 62 -2q21 2 92 22q-6 22 39 20q29 -1 45 -1q4 -39 5 -50v-2q0 -22 -49 -31q-8 -42 -54 -41h-47q0 -1 -17 -8q-12 -5 -29 -5q-16 0 -26 1q-45 5 -68 4q-29 -1 -53 19q-20 17 -32 12q-5 -2 -11 4t-12 19q-25 55 -27 85v4q1 7 1.5 14.5t1 11t0.5 4.5v5q1 2 7 54
q0 1 -4 31q0 4 -5 61q0 8 18 45t41 43q47 13 55 21q3 4 17 4q17 0 52 -6h65q65 0 74 -9z" />
    <glyph glyph-name="d" unicode="d" 
d="M462 627q37 -31 37 -34q1 -3 0 -3l-1 -24l5 -22q6 -33 5 -34t0 -19q1 -31 -1 -33q-1 -1 -1 -12q1 -34 -4 -35q-6 -1 2 -11q17 -20 7 -23q-9 -3 -9 -16q0 -23 8 -30q9 -6 7 -10q-1 -1 -3.5 -6l-4.5 -9q-6 -11 -1 -24l6 -13l-5 -20q0 -1 -1 -6t-2 -8q-3 -11 0 -21
q10 -28 6 -34q-5 -10 -3 -14l10 -27q5 -14 -2 -24q-13 -19 -7 -22t9 -13q6 -28 6 -33q2 -3 3 -13q-13 -12 -30 -25q-14 -11 -30 -7q-38 9 -39 6t-22 -4q-33 -2 -48 0q-14 2 -20 0q-31 -5 -36 -4h-3q-2 2 -24 2q-9 -1 -36 -1q-24 0 -28 1q-9 3 -15.5 5.5t-10.5 4.5l-6 3t-2 2
q1 1 -2.5 4.5t-12.5 8.5q-21 13 -37 21q-6 3 -8 11q-7 22 -9 24l-6 12q-12 27 -5 36q6 9 3 14q-15 20 -14 23v1q3 5 5 15q2 11 3 18.5t0.5 11t-2.5 3.5q-5 2 -2 12q4 37 8 37q3 0 1 11q-1 2 -4 22q-2 14 3 27q3 5 5.5 10.5t5.5 11.5l4 8q6 14 8 16q4 6 7 10t5.5 7t3.5 4l1 1
q1 0 13 6q42 23 45 21h4q40 -4 40 2t10 7q45 6 46 3q2 -2 20 -1q20 2 31 2q24 0 67 -1v3v1q6 47 0 56q-5 10 -2 14q4 7 8 15q3 6 -2 19q-2 4 -3 8t-2 6l-1 2q-1 1 -16 52q18 8 22 10q9 5 35 5h8zM258 354q-3 -2 -2 -4q0 -3 -59 -20q0 -1 1 -2q0 -2 12 -24q-10 -4 -14 -5
q-11 -5 5 -17q-3 -2 -6 -5l-5 -5l-2 -1q-3 -3 2 -15q8 -14 6 -23q-1 -8 -3 -13q-2 -10 -4 -12q-3 -4 15 -22q4 -4 -5 -9q-8 -4 -13 -27q-2 -5 7 -11q10 -8 11 -37q2 -8 24 -8h38q26 -2 27 -2q4 -1 44 3q30 3 32 3l3 2q2 1 8.5 4.5t12.5 6.5q4 2 5 9q2 10 22 27q4 5 3 30
q0 30 4 57q0 7 -2 12q-3 6 -3 38q0 12 -3 14q-5 2 -3 26q-27 13 -29 13q0 1 -32 4q-18 2 -19 2q-3 2 -37 2q-13 0 -15 6q-3 6 -26 3z" />
    <glyph glyph-name="e" unicode="e" 
d="M376 432q36 -17 40 -13q3 2 16 -3q14 -4 20 -6q11 -6 16 -14l4 -6t3.5 -5t2.5 -3.5t2 -2.5l1 -1q1 0 6 -5q16 -20 16 -22t10 -23l-7 -36q-2 -5 -1 -11q1 -4 1 -7q1 -1 10 -23q-3 -4 -6.5 -7.5t-5 -5.5t-2.5 -3l-25 -24q-36 -9 -39 -5q-3 5 -18 2q-37 -4 -38 -1
q-2 5 -15 2q-37 -7 -38 -6t-26 3q-25 1 -47 1q-1 0 -59 -2l6 -4l12 -10q-17 -31 -18 -35q-1 -5 2 -8q20 -23 13 -31q-7 -6 0 -6q32 -6 41 -16q8 -10 12 -7q31 10 32 8q1 -4 19 -3q28 1 30 5q1 4 13 4q47 -2 51 -3q8 -1 12 6q14 19 12 21q2 0 28 22l-8 11l-3 5q43 -12 46 -12
t24 -27q-12 -18 -10 -23q3 -5 -1 -12q-15 -22 -12 -30q3 -6 0 -9q-23 -13 -25 -20q-4 -9 -6 -10q-1 0 -21 -6q-18 -5 -35 -7q-5 -1 -17 -2.5t-17 -2.5q-17 -3 -22 -3h-3q-34 9 -36 6q-1 -2 -25 -2q-47 0 -49 2q-1 1 -17 1h-28q-1 1 -34 4q-18 32 -19 32h-3q-15 10 -25 20
q-6 5 -9 13q0 2 -1 6t-2 11l-2 14q-4 21 -4 27q-2 41 1 41q1 1 0 77v30v26q2 2 1 2.5t-4 1.5l-3 2l2 4q19 25 12 31q-8 6 2 14q2 2 9 7t11 8q11 11 19 17q18 14 19 15q7 5 33 8q5 1 35 6q26 6 28 6q39 1 71 5q7 1 18 1q15 0 24 -4zM316 349q-12 -3 -28 -1h-23q-12 1 -15 -2
q-4 -4 -53 -11q1 -11 1 -17q0 -2 -10 -25q5 -2 9.5 -4t7.5 -3t5.5 -2t3.5 -2h2q1 -1 30 -7q16 -4 16 0q1 4 56 3q18 -2 19 -2q3 -2 74 0l4.5 4.5t1.5 0.5q1 0 3 2t3.5 3t3.5 2q-2 16 -2 26q-1 1 1 2t7 5q-36 23 -36 24q-1 2 -34 1q-15 0 -20 3q-5 5 -27 0z" />
    <glyph glyph-name="f" unicode="f" 
d="M400 615q3 0 13 -2t17 -3q18 -4 31 -9l25 -12l20 -20q17 -26 17 -33v-13q-2 -18 -1 -19l1 -2q1 -2 3 -6.5t4 -9.5l-30 -11q-8 0 -53 4l4 8q3 6 -9 12q-24 10 -24 11q0 4 -3 15q-38 -1 -41 0q-1 0 -25 -8l-26 -26q-11 -11 -7 -16q21 -25 14 -31q-7 -5 -2 -9q8 -6 17 -12
q8 -6 31 -10q30 -6 32 -4l5 -1q5 0 15.5 -1t22.5 -2l-3 -17l-2 -4q-1 -3 -3.5 -10t-5.5 -14q-11 -12 -12 -11q-6 0 -16 -1q-47 -6 -58 0t-14 -2q-9 -26 -12 -26q-3 2 -9 -9q-7 -12 -13 -27q-4 -10 -1 -15l10 -14q5 -8 7 -27q2 -20 2 -23q1 -6 -6 -25q-7 -21 -6 -24l1 -2
q2 -3 4.5 -9.5t5.5 -12.5q-13 -21 -3 -22q11 -3 6 -14l-6 -18q-2 -9 -1 -24v-19l-11 -30q-23 -3 -26 -3h-1l-6 2q-5 1 -18 4t-27 6l-2 7q-1 1 -13 26q2 27 4 29q3 2 2 13q-3 31 -8 37q-7 8 -3 13q16 25 11 28q-6 3 -6 14q0 31 1 35q1 6 -2 13q-8 25 0 28q6 3 8 11q0 5 0.5 9
t0.5 6l1 2q0 1 -14 26l8 13l1 10q-56 -3 -58 2q0 4 -12 8q-6 2 -14 3t-9 1t-38 12q6 22 6 23l1 3q0 2 0.5 6.5t0.5 9.5q38 24 41 20q3 -5 23 2q5 2 9.5 3.5l7.5 2.5t5.5 2t4.5 2h1h2q2 1 7.5 1.5t10.5 1.5q10 39 8 40q-3 2 -2 19q3 33 11 31q4 -1 6 2t4 9q4 16 7 23
q5 9 9 12q12 6 33 17q33 17 64 23q19 4 31 4h1q14 0 23 -2z" />
    <glyph glyph-name="g" unicode="g" 
d="M376 431q32 -6 39 -11q9 -6 16 -6h39q2 0 8 -0.5t17.5 -1t23.5 -0.5q-10 -16 -2 -18q8 -3 5 -8q-10 -25 -7 -35q2 -10 0 -13q-10 -21 -17 -24q-4 -2 -4.5 -2t1.5 -2q16 -13 17 -14q8 -5 -1 -38q-9 -30 6 -32q5 -1 7.5 -2.5t1.5 -3.5l-4 -6q-16 -18 -14 -21q1 -1 2.5 -3
t3 -4.5t2.5 -4.5q-9 -23 -1 -31t6 -10q-14 -22 -14 -23q-2 -3 8 -16q-6 -5 -9 -9.5t-3.5 -7t1.5 -3.5q6 -5 5 -11q-3 -23 -4 -27q-4 -16 -3 -19q6 -19 2 -23q-3 -3 -2 -13q2 -17 5 -35q3 -9 0 -15l-10 -23q-9 -23 -8 -24q-1 -5 -2.5 -10t-2.5 -8t-1.5 -5.5t-0.5 -3.5l-1 -2
v-27q-37 -16 -49 -20q-6 0 -10 -5q-1 -1 -6.5 -6t-10.5 -9q-13 -10 -37 -12q-30 -4 -38 -6l-30 -5l-12 2t-11 2t-7 1q-9 1 -29 14q-1 1 -5.5 3.5t-9.5 5.5l-10 6q-18 12 -24 15q-5 2 -9.5 5t-7.5 4.5t-5 3t-4 2.5h-1l-1 1l-2.5 2.5t-4 3.5t-5.5 5q16 26 16 28q0 7 1 20
q19 8 37 12q17 4 31 -7q20 -16 26 -19q1 0 35 -9q27 -1 31 0q1 0 5.5 1t15 3t20.5 4q2 3 5 8l5 6l1 1q1 1 2.5 1.5t4 2t4.5 3.5q2 6 4 14.5t3 12.5q1 3 2.5 9t4.5 16.5t5 18.5l-8 6t-6.5 4.5t-4 3t-2.5 1.5q-4 4 -37 2t-38 0h-30q-14 0 -28 1q-26 2 -38 5q-37 10 -49 12
q-8 1 -13 7q-11 11 -19 17q-6 6 -14 21q-2 2 -13 23q-10 16 -10 27q-1 31 -8 41q-4 5 -4 11q0 3 1 5l14 28q4 9 1 14q-8 14 -10 16q-5 8 17 26q-16 16 -15 19l2 17q3 29 8 33q4 4 6 12q1 8 2 18q1 8 1 9l1 5q1 4 4 15t6 23q19 10 32 12q12 2 17 5q22 19 25 18q3 -3 28 0
q37 3 52 2q19 0 24 1l25 2h4q17 0 42 -5zM193 333q-1 -2 -1 -4q-2 -2 10 -15q-2 -4 -3.5 -8.5t-2.5 -7l-2 -5t-1.5 -4l-1 -3t-0.5 -2.5q0 -2 -3 -30q-1 -12 3 -16t-4 -31q-1 -9 0 -21v-27q0 -11 8 -13q7 -3 -4 -21q-5 -6 4 -9q10 -5 26 -27q7 -10 27 -10q13 -1 40 -1
q11 0 27 2q21 2 84 5q1 -1 3 0h11q-6 29 -10 37q-1 2 12 31q3 6 -2 14q-4 6 -2 29q0 14 3 16q3 1 -3 28q-1 0 -1 1.5v2.5q-2 2 12 36q3 6 -6 14q-9 9 -10 32q0 3 -11 8q-17 5 -34 8q-12 3 -40 3h-38h-40q-2 0 -50 -12z" />
    <glyph glyph-name="h" unicode="h" 
d="M154 634q9 -10 17.5 -19.5t13 -14.5t6.5 -7q5 -5 7 -12q4 -14 5 -18q4 -14 1 -27q-4 -35 2 -37t2 -15l-5 -18l-5 -8q37 -26 38 -26q1 -1 37 -1h38q31 0 38 -1q46 0 53 1q12 1 21 -3q11 -5 23 -11q10 -6 20 -21q1 -1 2.5 -3.5t5 -7t7.5 -9.5q14 -17 14 -18q17 -23 13 -29
q-4 -5 0 -11q12 -20 8 -22q-3 -1 -1 -12l2 -12q1 -14 0 -24q-2 -11 -2.5 -19t-0.5 -12t2 -4q4 -1 3 -13q-3 -26 -6 -33q-3 -8 0 -14q4 -10 7 -17q2 -6 2 -9q0 -5 -3 -10q-13 -20 -7 -26q8 -6 6 -13q-3 -22 -4 -23l-4 -45q-8 -1 -14 -1q-3 0 -28 -7l-37 1q-4 0 -9 -1l-8 28
q-2 8 -4 26v36q1 15 0 21q-5 33 -2 38q4 6 2 12q-7 22 -4 24t2 10q-1 25 4 34q4 7 1 14q-13 21 -9 24q4 1 3 15q-2 27 -2 28q0 5 -4 25q-51 -3 -54 0t-17 0q-29 -5 -39 -4q-16 2 -21 0q-29 -8 -30 -9l-36 -21l2 -2l3 -6t5 -7q10 -11 7 -16q-13 -24 -12 -27q0 -1 1.5 -4.5
t4 -11t5.5 -15.5q-3 -4 -9 -9q-5 -5 13 -20q-16 -26 -11 -28q4 -3 5 -5q2 -24 -12 -24q-12 -2 -5 -10q5 -5 13 -17q6 -10 -1 -23q-8 -14 -2 -23l7 -8q-13 -7 -19 -7q-4 -1 -8 -19q-5 -15 -7 -15q-1 0 -7.5 -1t-22 -3t-29.5 -4v4l5 13q-28 20 -23 25q4 4 0 11q-9 17 -12 30
q-3 14 2 19q14 16 5 22t-6 12q6 27 9 30q5 5 4 10q-5 25 -9 29q-6 6 -3 10l12 22q0 6 -2 14q-9 26 -10 28q-5 5 -3 7q16 28 12 30q-5 2 -3 22q2 29 2 30q2 6 2 12q-2 27 -5 34q-4 8 -1 15q7 20 5 22q-3 3 -3 15q-2 30 1 31q1 1 3 14q1 20 -7 20q-9 0 -6 11q5 26 1 32
q-2 3 -2 7q0 3 1 5q14 20 14 27q2 8 5 10q4 3 12 7q6 3 29 6z" />
    <glyph glyph-name="i" unicode="i" 
d="M331 610q24 -9 26 -9l1 -1q1 0 2 -0.5t2.5 -1.5t4 -2.5t5.5 -2.5l5.5 -16.5l3.5 -10.5l1 -4l2 -35q-28 -11 -29 -15t-12 -9q-9 -4 -19 -10q-2 -1 -3 -1l-1 -1l-2 -1q-2 0 -7.5 -1t-10.5 -2q-6 5 -12 10.5t-9 8.5l-5 5l-30 26q2 4 3 9l1 3l8 25q-8 14 -5 15l10 10
q31 16 32 15h1q8 0 37 -4zM288 416h15.5h12.5h9h6h2h9q7 -12 14.5 -26t8.5 -16q7 -12 6 -17q-8 -38 -2 -39q6 -3 5 -16q-3 -29 -6 -38t1 -16q14 -26 5 -29q-11 -4 -9 -10q4 -33 3 -34t-2 -21q0 -7 -0.5 -12.5t-1.5 -8.5v-3l-3 -8q2 -1 6.5 -2.5t12.5 -4t16 -5.5
q31 -11 47 -10q28 1 31 4l1 1q1 1 2.5 2t4 3t4.5 4q22 -18 24 -21q3 -1 12 -30l1 -23l1 -2q0 -2 0.5 -5.5t1.5 -6.5q-8 -5 -24 -17q-11 -8 -32 -5q-6 2 -12 2q-2 1 -60 10l-5 -7q-4 -7 -7 -7q-36 2 -39 0h-23q-44 -2 -44 3q-2 5 -16 2q-3 -1 -12 -2.5t-12 -2.5q-6 -1 -22 -1
q-13 0 -19 1l-37 2q-3 0 -37 7q-2 2 -11 10q-1 0 -25 28l8 8t1 2l12 18q4 3 9.5 6t8 4.5l5 3t3.5 1.5l1 1q6 6 15 17q45 -6 50 -10q7 -4 12 -3q25 7 28 7l38 24q-6 4 -9 11q-4 5 -4 18q-1 29 3 33q4 3 4 7q1 16 -7 21q-7 4 -5 7q1 2 2.5 4t4 5.5t3.5 5.5q5 10 2 14
q0 1 -11 18q-7 14 -1 25q16 25 -9 27t-50 6q-21 5 -22 4t-31 -10q-2 11 -2 17l-13 41l7 8q2 2 9 17q47 11 51 12q5 3 11 2q22 -2 35 1t40 -6z" />
    <glyph glyph-name="j" unicode="j" 
d="M432 627q22 -26 23 -26l1 -1q2 -2 4 -4.5t5.5 -6t8 -8.5t9.5 -10l6 -1q1 -1 6 0q-2 -4 -5.5 -12t-5.5 -12q-8 -16 -16 -24q-12 -12 -13 -12q-1 -1 -1 -8q-13 -2 -25 -4t-17 -3l-5 -1q-1 -1 -32 -1q-9 25 -9 27l-21 33l-1 8q0 9 -1 25q17 6 22 14q4 6 10 8q32 5 32 7
q2 4 4 9l20 3h1zM442 424q13 -14 15 -16q5 -5 4 -11q-1 -26 7 -33t7 -10q-4 -22 0 -32q3 -7 -3 -11q-17 -15 -8 -18q10 -5 10 -15q1 -32 -6 -35q-6 -3 -4 -6q4 -7 12 -23q4 -11 0 -26q-1 -5 -4 -18q-2 -8 0 -19q5 -23 0 -32q-4 -8 -2 -14q12 -41 9 -42q-1 -1 -2 -3
q-11 -27 -8 -28q3 -2 6 -19q3 -20 -6 -26q-5 -3 -7 -4.5t-1 -2.5q1 -2 6 -10.5t8 -13.5q7 -14 -1 -22q-21 -20 -20 -22q4 -4 -1 -17q-3 -11 -8 -25q-5 -15 -15 -19q-28 -12 -32 -18t-10 -7q-93 -8 -94 -8h-3q-8 0 -14 1q-32 6 -42 5q-12 -2 -18 2q-3 1 -10 4.5l-11 5.5
q-14 6 -20 15q-22 26 -28 29q-5 4 -7 9q-11 31 -18 35q-4 3 -4 7q0 2 3 5l11 18q1 0 13 24q8 15 12 17q13 0 34 1q10 -13 15.5 -19t7.5 -5q4 1 15 -10q24 -22 21 -28q-3 -5 2 -7q4 0 9.5 -0.5t8 -0.5t5.5 -0.5t5 -0.5q8 0 62 -3q2 1 2 2q0 6 -1 15q20 18 15 21t-3 6
q1 10 4.5 15t9.5 4q4 -1 6 -0.5t2 2.5t-1 6q-2 3 -3.5 6t-2.5 6t-2 4q-3 5 0 24l1 14q0 3 -4 23q16 11 11 16l-18 18q7 5 10 8t1 4q-4 4 -3 10q8 21 10 23q2 3 -1 6q-12 19 -7 22q5 2 2 11q-7 25 -8 30q-1 9 0 15l7 21l-2 25q-1 21 -1 32q-1 1 -4 26q-39 2 -46 4
q-33 5 -45 8q-5 7 -5 11q-3 3 -14 32l7 7l2 2q1 2 4 5l6 6q53 9 56 6t19 -2q2 0 21 4q28 4 74 4z" />
    <glyph glyph-name="k" unicode="k" 
d="M202 613v-6q0 -4 8 -23q12 -24 12 -25l9 -54q0 -6 -8 -14q-7 -7 -7 -15q3 -23 7 -28q6 -6 4 -10q-10 -21 -6 -22q4 -2 5 -12v-10t1 -8q2 -8 -1 -19l-5 -23q-1 -1 2 -60q-2 -2 0 -3l20 -10q6 29 14 26q7 -3 20 7q17 12 20 22q1 9 5 11q8 5 25 15q19 14 21 15q1 1 9.5 4.5
t13.5 6.5q14 7 24 17l17 19l21 17q34 3 35 2l2 -1q3 -2 9.5 -4.5t12.5 -5.5q11 -26 10 -26q0 -9 1 -24q-2 -3 -9 -11.5t-11 -13.5q-12 -13 -23 -18q-6 -3 -10.5 -5t-8.5 -4l-7 -3.5l-5 -2.5t-2.5 -2t-0.5 -2q1 -3 -10 -13q-16 -12 -23 -18q-8 -8 -20 -14q-5 -3 -10 -5.5
t-7.5 -4t-3.5 -1.5t-3.5 -2t-7.5 -5l-10 -6q2 -2 15 -20q9 -11 24 -24q1 -1 3.5 -3t8 -6.5t10.5 -8.5q14 -13 20 -16q4 -2 10 -6l16 -11q-1 -2 11 -17q11 -14 16.5 -20t7.5 -5q4 1 12 -11q13 -20 13 -23q0 -6 4 -61l-4 -2h-2l-5 -6q-34 2 -57 2q-4 0 -14 19q-7 1 -12 3
t-6.5 4t-0.5 4q3 7 -3 10l-24 13q0 3 -13 17q-10 11 -16 17q-1 2 -18 15q-15 12 -22 18.5t-6 8.5q2 5 -8 12q-25 17 -26 16q-2 -2 -35 3q7 -23 -2 -25q-7 -1 -6 -12q1 -4 1.5 -8.5t1 -7t1 -5.5t0.5 -4.5v-2.5l1 -2q1 -3 -2 -8q-7 -12 1 -15q7 -4 6 -11q-3 -11 -6.5 -16.5
t-7.5 -3.5q-10 2 -14 -10l-5 -12q-1 -1 7 -15q-30 -9 -43 -9q-6 0 -8 1q-9 4 -12 11q-10 22 -21 28q-6 2 -7.5 4t-0.5 3q12 16 8 17q-3 2 -7 4q8 39 4 46q-3 8 -2 12q6 26 1 36q-4 8 -1 14q5 10 7 13q2 6 1 7q-1 2 -9 15q-8 14 2 24q8 9 10 12.5t1 4.5q-3 2 -6 13
q-9 24 2 29q11 3 8 9q-9 29 -10 31q-3 7 -1 12q7 22 8 29q2 7 -1 11q-19 18 -14 23q5 4 8 15q5 23 -1 31q-6 9 -5 14q11 31 15 36q5 4 0 9q-15 19 -9 25t5 13q-1 23 -10 30q-7 5 -7 9v2q12 22 13 22q0 1 8 12q11 2 23 2q6 0 8 -1q11 -4 39 -11z" />
    <glyph glyph-name="l" unicode="l" 
d="M308 603l22 -2q2 -2 26 -19q-9 -19 -5 -20q3 -1 4 -17q3 -25 6 -29q3 -5 2 -9q0 -1 -4 -21q-3 -16 0 -25q10 -34 4 -37q-9 -3 -7 -8q17 -34 14 -37q-1 -2 -2 -3q-10 -22 -11 -25q-3 -10 1 -18q9 -22 4 -30q-4 -9 -3 -15q10 -28 8 -29t-3 -14q-2 -24 3 -32q6 -7 4 -13
q-1 -3 -1.5 -7t-1.5 -6.5t-1 -3.5t-1 -5t-3 -11.5t-4 -15.5q3 -6 6 -11t5 -8l1 -2v-15q52 -5 52 -8t15 -4q37 -1 38 -4q2 -5 12 -3q21 3 24 3l2 -1q2 -1 6.5 -4t8.5 -6q-2 -7 -4 -14.5t-3 -11t-1 -4.5l3 -36q-1 -2 0 -3q3 0 4 -1q-71 -7 -76 -9q-5 -3 -14 -1q-34 7 -36 5
q-1 -2 -14 -3q-46 -2 -48 -3q-1 -1 -18 -3q-47 -3 -50 -2t-20 0q-19 -2 -40 -2q-7 0 -8 1t-18 2q-36 0 -37 1l-31 8q-10 10 -14 12q-2 4 -19 17q6 32 6 35q1 3 15 9q16 7 30 15q13 7 35 10q33 4 42 0q9 -5 12 1l13 16q8 8 23 22q-1 12 -1 19l-1 2q-1 3 -3.5 8l-5.5 11
q16 4 7 10q-7 7 -6 10q2 6 5 18q5 12 3 22q0 7 -0.5 13t-0.5 9l-1 3l1 25q1 28 -5 38q-6 9 -3 14q0 1 1.5 3.5t3 6t3.5 7.5q8 13 3 21q-10 23 -2 31t5 15q-6 14 -11 33q-3 10 -5 15q-9 19 -10 20q0 1 -24 20q-15 -5 -20 -5q-1 -1 -25 -7q-13 25 -12 26q0 1 -3 36q2 3 4 5
t4 3l1 1l15 15q48 12 49 8q1 -3 16 2q26 9 37 8q8 0 9 -3q4 -7 19 -9z" />
    <glyph glyph-name="m" unicode="m" 
d="M213 430q45 -2 54 3q6 2 7 2q4 0 10 -4q15 -12 16 -13t27 5q8 2 15.5 4t11.5 3l3 1q14 0 38 -1q49 -2 50 -2q8 -1 20 -8q37 -22 39 -20q2 1 10 -8q1 -1 9 -13q8 -9 11 -26q8 -38 5 -39q-2 -2 1 -15q1 -4 2.5 -8.5t2 -7t1.5 -5t1.5 -3.5t0.5 -2q0 -2 -3 -26l-4 -16
q0 -2 6 -20q7 -24 -3 -25q-10 -2 -6 -9q7 -17 15 -28q3 -3 3 -5l-2 -4q-16 -22 -9 -27q6 -3 2 -12q-12 -25 -6 -28q5 -4 2 -15l-9 -30l-23 -37q-16 1 -17 4v9q-10 5 -13 7l-6 3t-12.5 5.5t-15.5 6.5q-3 39 0 42t2 10q-2 4 -6 22q-2 7 0 10q6 15 5 16q-6 12 -15 29q6 16 7 17
q2 2 14 8q-9 8 -14 14q-4 6 -3 12q5 25 -1 34q-7 9 -4 14q13 24 10 27q-3 2 -10 11q8 12 11 15q1 1 -3 10q-10 5 -19.5 9t-13.5 6t-5 2q-4 2 -34 -2q-9 -26 -7 -34q3 -6 0 -10q-13 -17 -11 -18q1 -1 3 -8q4 -28 1 -35q-3 -8 1 -13q15 -28 9 -31q-6 -2 -3 -13q9 -40 5 -41
q-6 -2 -4 -16q2 -23 0 -30q-2 -6 1 -10l1 -1l2 -4t3 -4q5 -5 -15 -16q-2 -1 -5 -2q8 -26 8 -27q0 -4 -8 -21q-27 1 -42 1q-4 0 -31 -4q-14 26 -11 35t-2 12q-5 2 -13 7q-10 7 5 24l2 4q0 3 -1 5q-1 9 -2 16t-0.5 10t1.5 3q1 1 0 8q-5 29 -3 30l2 4q1 4 3.5 13t5.5 18
q-12 7 -6 10t5 7q-3 15 -10 19q-9 4 -4 9q7 7 13 14t9 10l4 4q2 2 0 6q-21 23 -13 28q9 4 2 14l-8 13q-1 0 -41 22q-3 -2 -9 -5q-1 0 -6 -3t-12.5 -6.5t-15.5 -7.5l4 -11l-1 -5q-2 -5 -5.5 -16t-6.5 -23q9 -4 16 -12q9 -9 6 -16q-9 -32 -4 -34q4 -1 1 -11q-2 -10 -4 -16
q-2 -11 0 -24q3 -16 2 -17q-2 -2 -12 -19q17 -20 5 -26q-7 -2 -9 -4t0 -4q15 -14 13 -22q0 -6 -7 -13q-16 -16 -13 -21q1 -1 2.5 -4t2.5 -4q-35 -16 -37 -14q-1 0 -5.5 1.5t-16.5 4t-23 5.5q1 12 -4 23q-5 9 -3 15q7 36 3 37q-5 2 -2 14q6 35 11 44q6 7 3 13q-2 6 -3.5 12
t-3 9.5t-1.5 5.5q-1 3 6 34q8 29 -3 31q-8 3 -4 16l12 32q2 4 1 6q-7 21 -7 32q0 9 -6 14q-21 18 -19 23q0 1 0.5 3.5t1 8.5t1.5 12q4 4 10 9q10 8 20 8l26 1q24 3 36 8q29 13 30 10q1 -2 29 -4z" />
    <glyph glyph-name="n" unicode="n" 
d="M162 424q37 -4 39 -1q1 2 20 4q53 3 54 5q0 1 16 0q44 -5 45 -2q2 2 20 2q18 -1 34 0t67 -34q16 -11 20 -15l14 -20q21 -19 18 -22q-5 -3 0 -23q7 -28 8 -30q3 -5 1 -10q-8 -29 -10 -33q-3 -4 1 -11q14 -29 8 -31q-4 -1 -4 -17q2 -35 3 -35q2 -1 1 -11q-4 -27 1 -38
q3 -8 3 -13v-4q-9 -25 -7 -33q3 -7 1 -10q-3 -6 -8 -14q-3 -5 -3 -6l-25 -24l-22 4q-1 0 -7.5 1t-18 3t-23.5 5l7 10l1 1q1 0 2.5 0.5t4.5 2t6 2.5q-25 24 -20 29q5 6 9 9q-18 32 -15 35q4 1 2 19q-3 32 -5 36q-4 6 0 10q10 13 3 16q-6 3 -8 9q-1 23 7 24q9 0 6 11
q-6 24 -4 29q4 4 1 6q-21 11 -17 18q3 4 7 12q3 5 6 8q2 2 -5 20q-20 8 -35 13q-26 10 -32 10q-45 -3 -46 1q-2 5 -17 2q-25 -4 -30 -4q0 -2 -15 -11l-14 -21q-10 -13 -5 -25q6 -16 10 -33q3 -9 -1 -15q-12 -22 -2 -25t7 -9q-4 -9 -8 -17q-1 -2 6 -25q9 -30 -2 -33
q-12 -3 -6 -7q4 -3 14 -8q9 -4 -6 -19q2 -2 10 -14q8 -9 -6 -20q-16 -13 -9 -17l9 -5q-6 -7 -10 -11v-11l-43 -14l-36 6l-12 13h-4q-12 43 -10 46q1 1 1 20q-2 26 5 34q6 7 2 13q-8 11 -8 14q-1 1 0 32q-7 25 -1 31q5 5 7 12q1 21 -9 26q-8 4 -6 9q3 9 6 17q5 13 2 28
q-6 29 0 30q5 1 1 10q-9 16 -8 17l-1 3q0 3 -0.5 10t-0.5 15l6 26l11 19q16 3 25 3t10 -3q1 -5 17 -7z" />
    <glyph glyph-name="o" unicode="o" 
d="M352 426q45 -1 50 1q4 1 13 -2q26 -12 29 -15q2 -3 7 -5l25 -4l8 -4q32 -66 32 -67q-1 -1 -1 -2q2 -12 4 -32q3 -16 2 -19q-1 -36 0 -37l3 -18q1 -7 2 -13l1.5 -9t0.5 -4t-8 -22q-11 -26 -2 -29q10 -3 6 -15l-5 -16q-4 -16 -12 -29q-2 -2 -6 -9t-7 -11q-10 -15 -20 -22
q-5 -4 -9.5 -7.5t-7 -5.5t-3.5 -3q-2 -2 -28 -11q-22 -8 -26 -10q-15 -5 -34 -5h-1q-19 1 -44 1h-31q-42 3 -46 1q-4 -1 -21 0q-31 1 -32 2q-1 0 -20 14q-2 1 -4 3.5t-6 5.5t-7 6q-16 14 -22 21q-11 15 -8 18l2 2t3 3.5t3 4.5q-35 15 -29 24q6 8 2 12q-14 24 -13 25
q0 4 -5 20v11q0 15 4 19q4 6 3 9q-6 24 -2 25q3 0 6 14q7 28 -3 31q-12 3 -4 15q14 23 12 25q-1 1 0 16q3 17 7 25q5 8 13 15q5 5 17 13q14 10 27 18l24 12q14 6 31 8q44 5 45 4q4 -2 15 2q21 6 33 6q7 0 9 -1q13 -5 28 -5zM236 354l-5 -13q0 -1 -15 -22q-5 -9 -8.5 -12.5
t-4.5 -2.5q-2 2 -14 -25q-2 -5 4 -15q8 -9 -1 -30q-3 -4 -1 -12q1 -5 1 -30q0 -9 -1 -11q-2 -4 -2 -33q-1 -11 7 -13t4 -27q-1 -3 4.5 -5.5t17.5 -4.5q22 -4 35 -6q13 -3 16 2q1 4 41 -2q17 -3 36 0q7 1 16 2t11 1q7 1 15 8q13 9 38 31l-3 11q-7 7 -16 21q-4 6 0 9
q2 2 13 38q3 5 -2 15q-6 9 0 32q4 15 -3 19q-7 3 13 35l-14 14q-2 2 -15 12q-31 8 -39 8q-7 2 -30 -1l-17 -3q-1 -1 -43 -3q-8 -2 -9 1q-7 3 -29 12z" />
    <glyph glyph-name="p" unicode="p" 
d="M161 414q42 5 44 8t16 6q18 3 26 3t8 -3q1 -4 14 -6q32 -2 36 -3q15 -1 24 0t21 3q11 3 26 1l30 -5l24 -9q8 -3 32 -14q15 -6 17 -13q3 -15 4 -17q0 -1 15 -24q12 -18 21 -30q10 -13 3 -15l-15 -7h-5q17 -52 20 -54q3 -3 3 -6v-3q-8 -27 -6 -28l2 -15q1 -33 -4 -34
q-5 -2 -4 -12q1 -20 0 -32q0 -13 -3 -17q-11 -15 -23 -32q-15 -20 -51 -39q-26 -14 -29 -11q-1 3 -27 0q-85 -7 -95 -4q-10 2 -39 -3l-25 -4l-24 2q0 -27 9 -25q5 1 7.5 0t1.5 -4q-8 -27 -16 -32q-9 -6 -5 -12t10 -14q4 -5 4 -6q0 -4 4 -21q-19 -35 -19 -38l-1 -1
q0 -1 -1.5 -3.5t-3.5 -4.5l-14 -20l-17 -17q-27 10 -30 10l-30 -1q6 36 -1 37q-8 2 -3 14q1 3 3 12.5t4 15.5q6 17 5 27q-2 26 0 38q2 16 2 18q-4 39 -7 40q-2 2 0 7q6 45 4 48q-1 2 -1 3q-2 6 -3.5 12t-2.5 9l-1 3q-1 1 15 46q-2 8 -13 7q-8 -1 -8 1q0 1 1 2l10 12q0 1 1 0
q3 41 -2 49q-4 6 0 9q12 9 10 12q0 1 -0.5 3.5t-1 8.5t-1.5 12q-3 24 3 28q6 5 5 7q-13 33 -11 36q4 6 1 25q-4 29 -4 33q0 1 14 43q33 9 38 -2q2 -5 4.5 -8t4.5 -2zM273 348q-14 -8 -16 -2q-3 4 -47 -19l-9 -14v-28l-6 -10t-4.5 -7t-1.5 -3q-2 -4 7 -26q4 -10 1 -25
q-3 -17 -4 -19q-3 -7 2 -18q3 -10 12 -82q4 4 4 -1v-4q57 -6 58 -7l29 -1q70 -3 90 17l35 35h4h4q0 44 1 45l-1 2q-1 2 -3 6.5t-4 10.5q-3 6 0 13q1 3 3 36q2 14 -3 17q-4 3 -1 29q1 7 -7 14q-8 6 -24 43q-28 1 -31 0q-11 0 -30 -1q-1 0 -24 3q-20 3 -34 -4z" />
    <glyph glyph-name="q" unicode="q" 
d="M509 416q-1 -6 0 -6l4 -6q-3 -8 -5.5 -15.5t-4 -11.5t-2.5 -7.5t-1 -4.5q-2 -7 -1 -24q0 -35 -3 -42q-5 -8 0 -14q9 -17 12 -20q1 -1 -5 -26q-7 -29 3 -32t6 -8q-16 -20 -12 -23q4 -2 5 -12q0 -5 0.5 -9.5t0.5 -6.5v-3v-21q0 -38 -9 -39q-6 -1 -7.5 -2t0.5 -4q1 -2 3 -5
t3.5 -4.5t1.5 -2.5t2 -4t5.5 -10t7.5 -14q-11 -30 -20 -30q-9 1 -3 -3q17 -9 20 -12q2 -2 10 -18q-1 -15 -1 -25q0 -1 -6 -15q-2 -6 -4 -11q-3 -7 9 -30l10 -21q1 -2 -2 -20q-6 -28 -6 -31l-36 -36q-5 5 -6 4q0 -1 -1 -2l-2 -2l-26 26q-6 4 -18 29q-2 3 -7 13q-5 9 -7 30
q-5 32 -7 33q-1 0 -3 11v25q0 2 12 23q-3 6 -6 11t-5 8l-1 2q-6 6 -17 18q-16 -3 -36 -8q-14 -3 -24 -3q-33 2 -37 1q-6 -1 -12 -1q-36 1 -39 3l-16 2q-6 0 -12.5 1t-10 1t-6.5 0.5t-4 0.5h-1l-4 -1q-3 0 -13.5 -0.5t-19.5 -1.5l-13 43q-1 3 -7 7q-13 12 -20 19l-1 3
q-2 2 -5.5 8.5t-6.5 12.5q-6 19 -4 21t2 15q-1 36 -8 41q-5 4 -5 6v2q1 2 5 7.5t6 9.5q8 12 4 30q-5 27 -3 29q4 4 2 16q-1 30 -6 36t0 11q20 20 22 26q-1 4 8 15q1 2 6.5 8t8.5 10q9 10 19 15q6 4 24 11q19 8 33 8h38q9 0 25 2q40 5 42 3q1 -1 25 -3q45 -2 46 -2
q20 -4 45 -8q8 10 4 13t1 4l10 2q7 0 57 -15zM244 340q-29 -3 -27 -10q1 -2 1 -5l1 -2q-7 -6 -13.5 -11.5t-9.5 -7.5l-3 -3l-1 -1q0 -1 -1 -3t-2.5 -4.5t-4 -6.5t-4.5 -8v-29q-1 -2 15 -21q3 -4 -3 -9q-7 -5 -13 -24q-1 -6 1 -8q1 -1 9 -30q2 -6 -2 -12q-4 -7 -1 -26l33 -22
l24 -11q7 -3 16 0q10 3 38 2q21 -1 22 -4t26 8q12 6 12 8q0 3 55 7l-5 8l-17 19q-3 4 4 7q19 9 25 13l-6 8q-5 7 8 8q4 0 -2 3q-7 3 -20 33q-2 5 7 9q9 6 9 31q1 4 -1.5 5.5t-7.5 2.5q-9 3 5 28q3 6 -1 15q-3 10 -28 24q1 6 1 14q0 3 -18 8q-44 6 -45 5q-2 1 -15 -9
q-1 -1 -8 3q-9 4 -53 -2z" />
    <glyph glyph-name="r" unicode="r" 
d="M453 422q41 -17 41 -21q0 -5 38 -38q2 -19 2 -30l-3 -23q-22 -8 -34 -11q-17 -6 -30 6q-29 24 -33 20q-5 -5 -15 6l-7 7t-4 5l-2 2q-2 2 -19 3q-7 -3 -12 -5t-9.5 -4t-7 -4t-4.5 -3t-2.5 -2t-0.5 -2q3 -4 -3 -8q-19 -15 -20 -14h-2q-2 -1 -6 -1.5t-8 -0.5q-7 -40 -1 -45
q7 -5 4 -9q-13 -27 -4 -30q8 -3 7 -8l-4 -19q-4 -14 -9 -21q-7 -11 -4 -14q1 -1 9 -7q5 -21 5 -28q0 -1 -6 -13q20 -4 20 -6l59 -8q6 -1 13 -2t9 -1t9 -1t21.5 -2t29.5 -3l2 -11q0 -3 10 -30q-6 -4 -6 -6t-3 -23l-16 -4h-30q-21 -7 -31 -9.5t-10 -1.5q-2 4 -25 4
q-46 0 -51 -4q-8 -4 -15 -3q-18 5 -26.5 6t-8.5 0q-1 -2 -24 -5q-18 -2 -38 -2h-5q-2 2 -22 1h-31l-27 6q-5 7 -12 16q-5 6 -5 7q0 2 -16 19q16 22 16 23q1 0 34 34q16 -5 21 -7q10 -5 15 -4q24 4 29 4l2 1q2 1 5.5 3.5t7.5 5t11 7t14 9.5q-10 6 -16 8q-7 1 -8 7
q-3 13 -3 24q0 8 4 14q18 20 7 24q-9 3 -9 10q-2 42 9 44q9 1 5 7q-16 18 -15 20q3 3 4 19l1 14q0 1 -14 21q-30 3 -32 4q-3 1 -54 -3q-2 3 -4 5t-5 0q4 48 4 56l5 30q28 -6 29 -5t24 1q13 0 28 1q19 0 35 -7l25 -12q5 0 25 -5q31 16 38 24q6 7 13 7q27 3 28 3l5 -1
q6 -1 19.5 -4t28.5 -6l2 8q1 4 3 4q16 -1 20 -4q5 -5 16 -9z" />
    <glyph glyph-name="s" unicode="s" 
d="M424 427q27 -13 29 -15q0 -2 12 -19q15 -19 26 -23q11 -3 7 -10q-10 -25 -2 -27q8 -3 4 -11l-14 -22q0 -1 -17 -12q-11 2 -19.5 4t-14 3.5t-7.5 3t-2 2.5q1 2 -14 14q-11 7 -22.5 15.5t-16 11.5t-5.5 3h-3q-37 0 -49 -1q-5 0 -10 -0.5t-8 -1t-4 -0.5q-43 4 -53 4
q-8 2 -15 -4q-5 -3 -9.5 -6.5t-6.5 -5.5t-3 -2l-3 -2q-2 -2 -6.5 -5.5t-9.5 -7.5q14 -17 13 -17l7 -21l38 -6q7 0 21 -2q45 -6 46 -7q3 -1 10 0q2 0 10.5 2.5t14.5 4.5q20 4 41 1q37 -4 44 -6q12 -3 17 -9q9 -13 14 -19.5t7 -5.5q5 2 13 -8l16 -19q1 -1 13 -31q8 -16 8 -19
q1 -1 0 -2q-2 -1 -7 -18q-7 -25 -2 -35q4 -8 1 -13q-20 -23 -16 -27q6 -4 -3 -9q-1 -1 -21 -16q-18 -15 -20 -15q-7 -3 -24 -10q-10 -4 -32 -4q-49 1 -50 -1q-1 -4 -18 -4h-31q-36 -2 -39 -3q-11 -2 -28 -3q-3 -1 -6 -1q-14 0 -23 4q-26 13 -39 15q-11 1 -17 6l-2 1
q-2 2 -5.5 4t-6.5 5q-11 9 -17 22q-11 21 -15 27q-4 5 -4 11q0 4 0.5 13t1.5 12q2 8 4 9q12 8 15 11q5 4 -7 19q47 -3 52 -6q8 -5 11 -11q6 -15 7 -17q5 -9 13 -12q27 -10 31 -16q3 -6 6 -5q33 7 34 6q2 -2 28 -2q12 0 24.5 -0.5t18.5 -0.5h8q9 -2 15 2q26 11 26 12
q1 0 37 9q-6 13 -3 14l6 3q-22 29 -33 38q-7 6 -17 8q-46 4 -48 8q-1 2 -16 4q-15 1 -38 3q-20 1 -35 0q-3 -1 -13 -1.5t-15 -0.5q-19 -1 -34 9q-27 17 -35 20q-9 2 -12 7q-18 28 -15 30q4 1 -2 14q-9 22 -17 38q-1 1 -1 4q0 4 3 7q18 17 13 20q-4 4 -1 13q2 5 7 23
q5 11 13 15q22 14 27 21q4 6 9 8q25 10 29 13q9 5 14 4q42 -4 45 -1q3 4 18 4h32h11q26 0 32 -1q20 -1 35 0q14 3 44 -5z" />
    <glyph glyph-name="t" unicode="t" 
d="M303 609q-3 -28 9 -28q6 1 7.5 -2t-0.5 -8q-12 -26 -16 -32q-5 -7 0 -13q15 -22 12 -25q-3 -1 -3 -19v-2v-3v-5.5v-7.5q1 -12 1 -22q3 0 34 -3q34 -3 44 -2l33 2q6 0 51 -4l5 -6l12 -18q-10 -29 -11 -33q-1 -2 -3.5 -8.5t-3.5 -9.5q-29 -4 -34 -4q-1 0 -34 -2
q-42 -2 -43 -2q-13 -4 -39 -10q-6 -20 4 -25q10 -3 3 -12q-16 -21 -19 -29q-4 -8 1 -15q15 -21 9 -24t-7 -11q-1 -5 -2 -13q0 -5 -1 -6t10 -24t4 -24q-7 -4 -6 -11q-1 -6 -1 -10l6 -25q21 -10 24 -10l3 -1q3 0 11 -0.5t16 -1.5q6 12 11 19.5t8 10.5t5 2q4 -3 11 9l9 15l7 18
q21 12 22 11q7 0 58 4q-2 -14 5 -18q8 -5 7 -11q-5 -24 1 -31q4 -5 4 -10q0 -2 -1 -3q-16 -26 -22 -46q-6 -19 -13 -23q-10 -5 -19.5 -9t-13.5 -6l-3 -1q-1 -1 -15 -7q-32 -14 -34 -12q-3 1 -16 -3l-22 -6q-4 -1 -11 -1q-13 0 -26 6q-1 0 -10 4.5l-17 8.5q-6 3 -11.5 5.5
t-8.5 3.5l-3 2q-5 1 -24 4q-11 3 -19 21q-8 25 -17 32q-7 4 -4 11l7 19q0 1 -3 17q0 7 -1 19q0 3 -0.5 6t-0.5 5t-0.5 3.5t-0.5 2.5v1q-5 18 -4 22q1 6 0 10q-1 2 -2 6t-2 6q-3 9 4 13q16 8 10 14q-4 4 -10 7q2 3 7 20q7 15 4 25q-7 30 -7 32q0 6 -6 7q-21 3 -28 10
q-8 8 -13 7l-30 2q-5 0 -54 7q5 8 4 9q0 3 -4 12q16 34 13 38q-1 5 2 5q49 -1 54 2q4 3 4 4q26 13 27 12q1 0 42 -8q-6 7 -4 7q-4 4 -20 14q17 10 11 16q-2 2 -11 8q23 18 15 25q-7 6 -7 12q2 21 6 27q6 8 5 13q-5 28 -2 29l18 27q5 0 9.5 0.5t6.5 1t3 0.5z" />
    <glyph glyph-name="u" unicode="u" 
d="M501 406l-9 -6q-4 -3 6 -21q12 -22 9 -23q-4 -1 -4 -15q0 -25 7 -33t4 -14q-4 -13 -8 -21q-8 -17 -2 -25q14 -20 11 -22q-4 -8 -8 -17q-9 -23 3 -26q10 -1 10 -5q0 -2 -1 -3q-12 -21 -12 -22l-1 -3q-2 -4 -5.5 -12t-7.5 -16q7 3 13 -6q6 -8 5 -13q0 -1 -1.5 -10t-3.5 -16
q-3 -18 -12 -30q-6 -9 -13 -19q-12 -16 -26 -18l-36 -8q-6 -3 -102 -1q-16 0 -37 -1h-31q-42 3 -54 0q-2 -1 -5 -1q-10 2 -14 5q-1 1 -18 13q-16 11 -21 21q-15 31 -13 34q1 3 -7 13q-16 22 -16 29q0 4 3 12q11 21 2 27q-10 7 -7 14q6 24 10 28q3 4 1 10q-9 18 0 19q7 3 5 9
q-5 12 -9 14q-5 3 -5 6q2 22 4 26q3 5 0 9q-11 16 -10 20q0 3 2 4q8 3 8 15q2 27 -2 29q-3 2 -3 9l-1 16q1 1 7 23q11 4 20 7q6 2 46 12l10 -9h3q12 -57 14 -58q4 -2 2 -13q-1 -26 -6 -34t-1 -13q16 -21 9 -24q-9 -4 -6 -14q5 -27 4 -28q-2 -3 1 -10q6 -13 8 -19.5t-1 -7.5
q-5 -1 -5 -14q0 -21 4 -22q2 -1 5 -8q6 -26 5 -27l-8 -16q16 -4 30 -9q13 -4 25 -1q33 9 35 4t15 -4q12 0 34 -2q16 -1 19 3q2 1 12 15q20 25 26 33q9 20 5 21q-6 1 -4 11q3 27 1 29q-3 3 -2 12q5 36 -1 38q-5 1 -2 15q6 26 2 30q-3 1 -4 17q-3 36 -4 38q-2 3 0 10q1 2 9 20
q6 15 17 21q4 2 8 4.5t6.5 3.5t4.5 2.5t3 1.5h1l26 17q2 -8 3 -9l3 -3q3 -2 9.5 -7t13.5 -11z" />
    <glyph glyph-name="v" unicode="v" 
d="M491 435l19 -11q1 -1 19 -7q1 -11 4 -39q1 -4 1 -9q0 -9 -3 -12q-15 -15 -15 -16q-2 -1 0 -18q3 -22 -3 -20q-5 0 -9 -8q-9 -19 -5 -26q3 -8 -1 -12q-2 -2 -7 -7.5t-7 -8.5q-9 -11 -8 -20q3 -24 -10 -21q-6 1 -8.5 -1.5t-1.5 -7.5q3 -18 5 -26q3 -18 -2 -20
q-13 -7 -19.5 -11.5t-5.5 -5.5q1 -2 -4 -20q-6 -20 -6 -26q0 -7 -4 -10q-21 -22 -16 -25q5 -4 -1 -13l-12 -19q0 -1 -6 -7q-33 -5 -58 -7q-5 -1 -13 -1q-7 0 -21 2q-29 4 -33 4q-2 0 -30 12l-10 22l-9 21q-2 0 -9 19q-6 15 -10 30q-7 36 -12 34t-11 9q-11 21 -17 33
q-1 1 -1 3l-1 4q-3 23 -4 24q0 1 -9 22q0 1 -1 3.5l-3 7.5t-4 11q-7 18 -7 21q-4 7 -10 16q-4 6 -4 7l-2 3q-3 4 -9 11.5t-13 15.5q6 26 7 27q2 2 0 5q-4 21 -4 25l-1 1q0 1 -0.5 3t-1.5 4.5t-2 6.5l-2 8q21 3 29.5 4.5t8.5 0.5l5 -1q5 -1 16.5 -2.5t24.5 -3.5q5 0 21 -20
q17 -22 16 -25q1 -21 9 -22q9 0 9 -1q-3 -27 0 -28q3 0 5 -10q5 -19 13 -27q7 -5 5 -10v-19q1 -1 8 -19q7 -21 7 -26q0 -4 4 -5q27 -13 29 -18q2 -7 1 -9q-2 -4 -4 -12q-2 -4 4 -6q25 -22 30 -19l3 3l2 1q-10 6 -9 10q2 6 8 12q17 17 11 23q-7 4 -4 6q8 5 19 13q12 9 15 20
q2 5 3 9.5t2 7.5t1 4q1 3 1 6q-1 3 -3 14q-3 10 7 23q17 21 12 24q-4 4 2 13q10 14 18 16q8 3 8 7q0 22 -3 28t0 9q2 3 3 5.5t2 4.5l1 1l18 38h15h38z" />
    <glyph glyph-name="w" unicode="w" 
d="M555 433q0 -9 5 -17q4 -6 2 -12q-6 -19 2 -30l7 -11q-6 -6 -16 -22q-8 -13 -5 -19q15 -32 5 -34q-9 -2 -12 -12q-9 -32 3 -35q10 -3 5 -8q-21 -20 -23 -31q-1 -10 0 -16q9 -32 0 -34q-7 0 -7 -12q-1 -25 -8 -33q-8 -8 -7 -14q4 -19 4 -22l13 -32l-12 -7l-3 -2
q-2 -2 -7 -5.5t-10 -7.5q-10 -4 -21.5 -9t-14.5 -6l-10.5 -3.5t-12.5 -4.5q-30 8 -47 15q-14 5 -18 12q-18 33 -21 36q-3 2 -5 10q-1 11 -1 21q0 4 -20 12q-5 26 -7 27q-7 3 -25 10q-14 -19 -11 -22t-1 -15q-12 -36 -15 -38q-4 -2 -8 -13q-3 -8 -4.5 -13.5t-1.5 -8t1 -2.5
q3 0 -13 -16q-2 -5 -12 -8q-8 -4 -26 -4h2h-4q-10 3 -11 3q-43 -2 -44 -1q-1 0 -3 1.5t-6 3.5l-8 4q-1 2 -2.5 6t-4 9.5t-4.5 11.5q-6 17 -10 38q-3 18 -3 19q0 2 -7 20q-11 28 -8 29q3 3 0 22q-3 23 -12 31q-10 8 -5 14q2 5 5 9.5t4.5 7t1.5 3.5q1 4 -12 28q-16 32 -7 38
q10 5 6 12q-1 1 -2.5 4.5t-4 7.5t-4.5 9q-10 18 -7 29l3 24q0 3 -7 32q11 14 11 15l16 12q24 -5 36 -5q6 0 10 -22q7 -3 12.5 -5.5t8.5 -4t4 -1.5q3 0 11 -18l-8 -12q-6 -9 0 -16q16 -26 11 -28q-3 -1 0 -17q4 -31 6 -31l2 -8q4 -30 2 -32q-2 -3 0 -14q2 -7 3 -13.5t2 -10.5
t1 -5q3 -9 5 -17l15 15q13 12 15 23q3 34 2 41q-2 8 3 14q23 30 20 33q-2 2 7 8q20 14 30 20q17 9 87 -7q19 -33 26 -38q6 -8 5 -14l3 -34q-1 -2 0 -9q7 -29 9 -30q2 -2 18 -34l18 3q1 0 10 -3q9 77 5 79q-1 1 0 17q0 25 6 33t4 13q-10 27 -6 28t7 17q4 25 4 31q0 13 1 35
q3 4 16 11q11 6 74 2z" />
    <glyph glyph-name="x" unicode="x" 
d="M497 423q-13 -19 -19 -18l-4 1l2 -2l21 -14l8 -8q-8 -8 -18 -17q-15 -15 -28 -31q-23 -27 -25 -27q0 1 -11 -10l-5 -5q-5 -4 -9 -8q-9 -10 -13 -20l-7 -24q-1 -1 -17 -27q24 -16 30 -19q1 -1 6 -7q17 -22 22 -20q6 1 15 -8q29 -29 31 -27q1 1 3 -3q4 -6 4 -7
q11 -23 15 -23q2 0 9 -9q12 -16 14 -18v-6v-7v-23q0 -2 -17 -25q-25 5 -28 6q-2 1 -29 7q-22 14 -24 19q0 4 -11 10q-4 3 -9 7t-8 5.5t-5.5 3.5t-3 3t-0.5 2q2 4 -8 12q-7 6 -21 20l-16 16q-4 5 -7.5 9t-5.5 7l-1 2q-2 3 -29 12q-5 -4 -18 -17q-9 -8 -19 -20
q-17 -23 -19 -27q-6 -9 -14 -14q-18 -13 -21 -20q-3 -6 -7 -7q-31 -13 -28 -20q4 -5 -5 -13q-18 -15 -23 -15h-1q-30 10 -43 14q-1 7 0 7q5 5 13 16q-4 7 -10 16q-4 6 -4 7l-1 2q0 2 -0.5 6.5t-1.5 9.5q3 3 13.5 11.5t17.5 13.5q5 3 10 7t7 6l3 2q18 22 20 25l14 14
q27 24 24 28q-3 5 8 14q19 16 20 16l13 21q-7 4 -19 12q-14 11 -24 22q-25 25 -23 29q1 2 -8 10q-26 21 -24 24q1 3 -10 11q-23 17 -24 17l-2 2q-3 2 -8 6.5t-11 10.5q13 17 12 18l9 19q9 0 26.5 -0.5t24.5 -1.5q19 -2 24 -5q20 -22 23 -22q4 0 14 -8l18 -17q0 -2 12 -21
q9 -17 9 -18l3 -2q3 -2 8.5 -6t11.5 -8q12 -1 19 -1q1 0 5 -3q25 32 30 37q1 1 20 19q16 15 19 22q4 10 6 11q1 1 8.5 6.5t14.5 10.5q3 2 6 5t5 4.5t3.5 2.5t2.5 1l1 1q14 9 24 11h1q8 0 44 -11z" />
    <glyph glyph-name="y" unicode="y" 
d="M181 419q23 -27 31 -22q6 4 6 -2v-3q-3 -25 8 -23q5 1 7.5 -1.5t1.5 -8.5t-2.5 -13t-1.5 -9q-1 -6 9 -26q15 -30 13 -31q-3 -1 2 -11q11 -25 10 -31q0 -10 3 -13q26 -29 20 -34q-7 -6 2 -16q17 -21 15 -30q-2 -8 2 -10l20 -14l35 -10q-2 21 6 24q6 3 6 4q-13 14 -4 17
q3 1 7 3q3 1 4 1q0 1 -0.5 5t-1 11t-1.5 14q-3 25 7 37q19 20 16 23q-1 3 -6 15q21 17 15 21q-6 6 -4 10q15 26 24 33q8 6 8 13q0 32 4 32q3 0 12 15q12 19 12 21l6 22q13 -1 24 -2.5t16 -1.5l5 -1l5 -1q4 -2 15 -5.5t23 -7.5q-11 -17 -5 -23t3 -12q-5 -15 -13 -31
q-6 -7 -6 -13q-1 -32 -11 -32q-7 -1 -7 -8q2 -17 2 -18q1 -3 -17 -21q3 -28 -6 -30q-7 -1 -6 -8q3 -36 -3 -34q-5 0 -7 -12q0 -1 -0.5 -3t-1 -6.5t-1.5 -8.5q-3 -17 -11 -24q-18 -18 -11 -23q9 -4 3 -10q-3 -3 -12 -15t-13 -25q-7 -32 -10 -33q-3 -2 -6 -11q-5 -23 -5 -26
q-2 -6 -4 -11q-9 -19 -15 -24q-5 -4 -4 -9q3 -8 5 -15q3 -5 -10 -26q-14 -23 -12 -26q2 -2 -4 -13q-15 -24 -17 -24l-15 -13q-6 -5 -21 -20t-17 -16q-21 -10 -23 -10h-32q-35 -2 -43 -5q-2 -1 -6 -2t-5 -1q-4 0 -5 1q-37 12 -42 11q-9 -1 -16 4l-17 15q-14 13 -22 25l-8 17
q-1 2 -5 9t-10.5 20t-13.5 26q7 3 7 4q0 3 16 45l14 -3l48 6q14 -11 12 -13q-3 -3 -2 -9q3 -17 4 -18t-5 -9l45 -24q1 0 25 -3q22 7 42 15q19 7 19 14q-3 20 6 29q7 9 4 12q-8 12 -11 16q-9 13 -6 24q5 16 0 20q-3 2 -13 7q-7 16 -13 31q-7 13 -15 23q-16 22 -12 25
q6 3 3 13q-4 22 -10 22q-6 2 -12 15q-3 8 -6.5 14.5t-5.5 9.5l-1 3q0 3 -4 22q-1 6 -2 10l-2 8t-2 6.5t-2 4t-2 2t-2 0.5q-5 0 -10 13q-9 24 -7 31q1 8 -2 13q-6 10 -10 18q-29 43 -33 49q-6 4 -2 6l16 16l-13 18l-5 4q12 10 32 30q24 21 44 0z" />
    <glyph glyph-name="z" unicode="z" 
d="M354 426q36 0 42 5q6 4 9 4q4 0 7 -3q6 -5 11.5 -9t8.5 -6l3 -2q2 2 43 0l1 -3l-6 -18q21 -15 18 -19q-6 -8 -10 -13q1 -12 -1 -25q-2 -12 -13 -19q-13 -9 -18 -13t-4 -5q2 -2 -7 -12q-17 -20 -28 -22q-12 -3 -13 -8q-10 -31 -16 -28t-15 -8q-16 -18 -15 -22q-2 -6 -4 -7
l-27 -14q-10 -7 -18 -16q-13 -17 -17 -26l-2 -3q-2 -4 -7.5 -13t-10.5 -18l-4 -3l-1 -2q-1 -2 -3 -4q24 0 46 1q23 1 35 1q1 0 11 -1.5t19 -3.5q20 -4 25 -4q44 5 44 0q1 -4 14 -1q24 6 26 4l3 -2q4 -1 11.5 -3.5t14.5 -5.5q-1 -8 -2.5 -18t-1.5 -12t-1 -8.5t-2 -13.5
l-2 -14q-3 0 -4 1v-1q-64 -5 -72 -7q-16 -4 -18 -4q-40 0 -41 4q-2 5 -13 2q-36 -7 -38 -4q-3 3 -17 2q-49 -3 -52 -4q-4 -2 -7 -2q-4 0 -8 2q-37 12 -39 7q-3 -5 -14 -1q-15 5 -25 9q-2 1 -6 2.5t-13.5 5t-17.5 6.5v18l-4 6q24 37 27 39q3 1 9 11q6 9 11.5 17.5t8.5 12
t3 4.5q2 3 7 6q29 20 27 23q-1 2 8 8l21 14q13 9 16 23q6 24 5 30q-1 9 5 9q32 7 32 11q-1 4 5 13q2 2 4 5l3 4.5t2 2.5l1 2v1l38 31v4l5 5q-61 3 -65 4q-6 2 -16 2q-41 3 -41 6q1 2 -2.5 3.5t-10.5 2.5q-8 1 -21.5 3.5t-17.5 3.5q-6 1 -17.5 3t-17.5 3v15l-4 5q24 30 26 31
q2 2 37 14q24 1 30 0q6 -2 21 -2q6 -1 27 -1q18 0 30 3q27 6 30 3q3 -4 20 -4z" />
    <glyph glyph-name="bar" unicode="|" 
d="M261 230q-3 25 -1 27q0 2 10 39q-3 12 -8 19q-6 8 -1 66q1 29 -6 39v28q2 12 3 54.5t1 73.5v37q-1 1 -7 38q-1 1 -1 2q0 7 5 32q7 29 4 55t-3 27l1 5q1 4 4 14.5t6 21.5q7 -4 30 -1l25 5q5 9 -21 16l-2 1q4 -2 6 -4q6 -11 18 -15q27 -14 27 -44q0 -34 2 -40q12 -42 6 -43
q-8 -3 -4 -55q2 -30 2 -110.5t-3 -89.5q-2 -7 -3 -3v8q5 -28 1 -34q-4 -9 -2 -14q0 -4 5 -15q7 -18 1 -29q-1 -2 -10 -35q-4 -12 -6 -16q13 -13 13 -35q-1 -31 2 -41q8 -27 8 -36q0 -6 -2 -6q-8 -2 -4 -54q5 -61 -1 -78t-4 -26q5 -27 1 -34q-2 -3 -2 2t1 5q0 -1 6 -16
q6 -16 1 -27q-3 -5 -11 -36q-9 -31 -26 -33q-11 -1 -30 -1h-2q15 0 12 1q-24 1 -26 7q-4 23 -12 35q-6 10 -2 66q1 11 -4 19q-7 10 -1 58q6 40 4 42q-1 1 -7 38q-1 6 5 33q5 29 2 57z" />
    <glyph glyph-name="exclamdown" unicode="&#xa1;" 
d="M227 47q2 20 3 26q2 8 4 11q9 16 0 16q-10 2 -7 10q17 51 9 54q-9 3 -3 13q4 7 5.5 10t0.5 3q1 1 4 29q3 17 -1 18q-5 2 -4 10q0 9 9 28q8 18 10 25q3 17 -4 22q-5 4 -7 11q-1 30 7 33t4 7q-12 14 -11 15v4q-1 4 -1.5 11.5t-0.5 16.5q9 3 10 3l11 7q40 -3 41 -3l4 -1
q3 -2 10 -6t15 -8q25 -5 19 -25t-5 -25q10 -44 7 -74q-3 -31 -1 -35q0 -1 1 -5.5t3 -15.5t4 -21q6 -33 8 -64q3 -21 7 -45l5 -33q0 -1 -18 -30q-19 -30 -21 -30q-10 -1 -14 -1.5t-9 -1t-6 -1t-1 -1.5q0 -2 -7 -2q-6 2 -11 0q-8 0 -69 45zM279 490q-25 4 -39 27t-12 27
q2 18 -2 23q-3 5 -3 7q0 3 1 4q9 18 11 18q0 10 2 29q20 3 25 2q6 -1 19 0l26 3l5 -1q4 -1 15.5 -4t23.5 -6l4 -3q0 -1 3 -16q37 -13 28 -29q-8 -16 5 -29q-16 -6 -23 -24q-7 -19 -14 -22q-10 -5 -22 -9q-5 0 -53 3z" />
    <glyph glyph-name="cent" unicode="&#xa2;" 
d="M484 473q-17 -32 -24 -43q-6 -8 10 -26q21 -24 27 -24t12 -35q5 -24 -11 -27q-19 -2 -39 5q-27 7 -32 6q-8 -1 -17 -18q-4 -8 -4 -14q-1 -8 -30 -50q-12 -18 -12 -19l-17 -33l-6 -12q-5 -10 -9 -18.5t-7.5 -15.5l-6.5 -13l-5 -10l-3.5 -7t-2.5 -4l-1 -1l-5 -9
q0 -3 -5 -16q-6 -13 27 -24q1 -1 3 -1q2 -1 3.5 -1t3.5 -1q8 -3 42 2l20 2.5t15 1.5q11 2 37 22q13 10 30 21q17 9 32 -9q11 -13 10 -23q0 -10 -5 -16q-11 -14 -21 -21q-4 -2 -31 -21q-23 -16 -63 -22q-7 -1 -18.5 -2t-13.5 -1q-29 0 -61 2q-24 2 -41 -4q-19 -6 -30 -20
q-25 -33 -36 -56q-12 -25 -38 -27q-25 0 -24 24q3 25 4 26q1 2 2.5 5.5t4.5 10t6 12.5q10 22 -12 52q-49 62 -47 85q0 1 1 2q1 8 2 19.5t1 14.5q3 45 1 63q-3 25 1 85q2 21 -4 35q-6 15 29 56q7 9 15 16q11 9 45 21q38 13 54 10q18 -3 48 -3q9 2 41 0q31 -1 63 33
q16 16 19 26q5 9 26 26q14 10 24 9q10 0 17 -7q19 -14 6 -39zM259 371q-9 -2 -16 -2q-1 0 -59 -38l-12 -8q-10 -9 -9 -69v-90q-1 -26 1 -33q4 -22 20 -24q15 -1 34 16q22 20 33 41q16 30 42 100q6 14 9 16q4 1 17 16q1 1 7 17q6 17 -11 39q-18 26 -37 23z" />
    <glyph glyph-name="sterling" unicode="&#xa3;" 
d="M360 616q14 -3 30 -7t23.5 -6t10.5 -3q9 -3 17 -17q5 -9 14.5 -25t12.5 -22q11 -18 9 -19q-4 -4 -7 -23l-5 -19q11 -14 3 -27q-6 -13 -27 -4q-14 5 -14 4q-11 0 -29 2q-1 5 -1.5 9t-1.5 6.5t-2 3.5t-2 1q-2 -1 -10 3q6 12 10 19q6 11 -1 18q-5 7 -1 16q5 11 -15 17
q-39 15 -47 1t-50 3l-8 4q-10 3 -48 -4q-11 -21 -11 -58q2 -39 2 -40q24 -6 32 -1t26 -6q20 -15 28 -7q8 6 25 -1q6 -38 -8 -44q-15 -8 -41 -12q-12 -2 -19 -2q-2 -2 -21 -10q7 -8 14 -10q2 0 10.5 -1.5t26 -5t36.5 -6.5q-2 -4 -2 -7l1 -2q1 -2 3 -6.5t5 -9.5q3 -4 3 -5
q-1 0 -5 -20q-3 -1 -19 0t-29 -5q9 -59 17 -61q7 -1 10 -7q36 -53 37 -59q3 -6 4 -6q31 -17 33 -26l1 -7q6 -2 10 -5q13 -6 50 -20q25 6 19 17q-8 12 -10 17q4 8 21 21q17 15 35 21q1 0 10 9t41 -32q-9 -22 -6 -26q3 -3 4 -3q5 -17 5 -25q0 -12 -8 -15q-15 -8 -12 -13
q12 -19 -4 -26q-15 -7 -35 -30q-13 -15 -29 -17q-6 0 -12 3q-18 7 -41 9q-36 1 -52 5q-15 5 -34 28q-22 1 -25 -7t-46 -28q-2 -1 -4 -3h-100q-29 0 -52 12q-22 12 -31 19q-14 16 -11 28q4 12 -2 23q13 10 -1 16q-4 3 -4 10q0 12 12 36q8 14 4 17q-3 4 21 22q32 22 54 28
q23 5 25 5q17 9 25 15t7 10q0 7 -1 7q-15 8 -16 20q-1 11 -53 14q-15 2 -21 -4t-41 18q6 12 -1 27q-3 8 3.5 11.5t22.5 4.5q48 2 51 7q2 2 3 5l2 2q-27 33 -33 27q-8 -6 -59 15q6 3 14 6q11 4 7 13q-7 18 4 24q10 4 64 10q-29 21 -25 27q5 6 6 15q2 8 -3 10q-3 1 12 25
q14 23 15 21q3 -2 17 23q29 47 61 43q31 -3 37 -1q3 1 7 3l6 3l15 4q17 -21 27 -11q10 11 35 4zM146 127q1 -2 -3 -5q-5 -2 7 -34q30 -16 43 -8q4 3 15 8q31 17 33 24q0 9 -1 15q-6 4 -10 13q-3 7 -84 -13z" />
    <glyph glyph-name="yen" unicode="&#xa5;" 
d="M161 615q9 2 11 1q4 -1 0 -5q25 -11 19 -17q-5 -7 -3 -9q8 -9 18 -19q9 -12 10 -14q18 -25 24 -27q9 -3 8 -9q-3 -18 -3 -19q1 -1 3 -6q23 -27 26 -30q1 -1 39 -16q1 13 8 16q6 3 6 7q1 12 3 17t7 3q8 -4 14 8l13 24q2 0 12 13q16 20 19 30t7 13q12 9 17.5 14t4.5 7
q-2 7 5 12q11 12 13 12q1 1 36 8l2 5q0 3 10 3q26 -24 27 -27q0 -4 4 -20q-8 -16 -10 -18l-13 -17q4 -7 2 -8l-8 -5l-9 -9q-6 -6 -9 -19q-6 -25 -16 -29q-10 -5 -11 -9q0 -8 -1 -16q-1 -11 -14 -22q-18 -16 -16 -18q1 -3 -4 -8q-21 -24 -22 -25q-5 -3 -8 -8q-11 -26 -14 -26
q-4 0 -10 -9q109 0 116 -1q11 -2 18 -7q5 -4 9.5 -7.5t6.5 -5.5l3 -2q2 -2 22 -15q-4 -24 -29 -36q-24 -12 -26 -12q-74 11 -80 3q-6 -9 -11 -8q-23 2 -43 6q0 -3 3 -5q6 -1 4 -5q-8 -16 -10 -24t2 -9q5 -1 5 -13q2 0 6 1t5 1t47 -3q42 -3 120 -12q-3 -10 6 -20q3 -4 3 -8
q0 -7 -12 -13q17 -24 -15 -27q-35 -2 -41 -4q-1 0 -24 -5t-56 0q-29 3 -30 0q-1 -4 -11 -3v-3q2 -24 6 -28q6 -6 4 -11q-1 -5 -2.5 -9.5t-2 -7t-1.5 -5t-1 -3.5q-2 -6 -5 -12l-9 -23l-16 -26q-19 3 -22 3q-1 0 -5.5 1t-14 3t-19.5 4q-1 3 -2 6.5t-2 5.5l-1 2q-1 1 -7 33
q-11 13 -7 39q3 18 3 31q-17 1 -55 -1q-7 0 -14.5 -0.5t-11.5 -1t-7 -0.5h-4q-22 6 -23 6l-3 1q-3 2 -8.5 5.5t-10.5 6.5q-12 12 -12 15q0 10 -3 27l1 2q1 1 2 4t2 5q5 8 65 20q36 8 61 5q14 -2 19 -3q0 6 1 6q2 0 4 49q-27 2 -27 -2q-1 -6 -35 0q-30 6 -33 3q-2 -2 -16 1
l-23 5l-31 20q-1 4 -1 7q0 10 1 28q9 17 70 19q55 0 63 2q19 3 27 2v5q0 6 -5 10q-28 20 -25 24q4 5 -7 13q-31 26 -31 28v3v17q0 9 -14 23q-10 10 -10 18v9q-24 16 -27 23q-3 8 -2 13q3 18 -6 21q-7 1 -8 7q-3 6 -6 11.5t-5 8.5l-1 3q0 2 6 37l6 10l9 13q14 -2 26 -2
q5 -3 21 -21z" />
    <glyph glyph-name="section" unicode="&#xa7;" 
d="M219 392q-4 -4 -9 -4q-1 -1 -3.5 -1.5t-3.5 -0.5v-2q1 -4 1 -14l-1 -13l2 -10l2 -1q7 -3 10 -7.5t4 -8.5l1 -4h1q2 -2 43 -54t45 -58q3 -4 6 -8.5t8 -11.5q16 2 26 -5q12 5 14 7q1 5 9 11t16.5 11t9.5 6q11 11 12 15v0q1 3 5 21q-1 0 -4.5 0.5t-6 1t-6 3.5t-6.5 9
q-1 2 -21.5 30t-39.5 55t-21 32q0 1 -1 1h-1q-7 3 -14 17l-1 3q-5 1 -7.5 4t-3 5t-0.5 7l-1 4h-4h-10q-7 -3 -13 -5q-4 -2 -9 -7l-5 -5q-15 -17 -23 -23zM432 559q-4 -8 -11 -15q-13 -13 -27 1l-11 11q-8 1 -12 12q-5 17 -21 38q-19 26 -27.5 28.5t-28.5 -10.5h-1h-1
q-6 -2 -15 -6q-1 -6 -9 -14l-2 -2h-3h-5q-3 -8 -11 -21l-2 -6l-6 2q-3 0 -5 -2q0 -7 13 -29.5t20 -28.5q12 -15 35 -27q6 1 12 -2t10 -7.5t8 -10t5 -6.5l18 -21q3 -2 8 -7q3 -3 25 -30.5t42 -53.5l21 -26q3 -3 5 -12t3 -10q11 1 17 -14t6 -30.5t-1 -22.5q-7 -35 -35 -57
q-8 -6 -19 -14.5t-14 -10.5q-4 -3 -7.5 -5.5t-5.5 -3.5t-3 -2q5 -7 15 -21.5t14 -19.5q12 -16 11 -33l2 -11q4 -19 0 -27q-20 -42 -45 -53q-1 -1 -26 -15q-4 -4 -36 -34v0q-3 -2 -28 -9q-24 -6 -38 5t-24 14q-5 2 -11 9q-8 10 -15 24l-21 27q-5 6 -13 11.5t-8 10.5
q0 8 -4 18q-6 17 0 32q10 24 19 32q13 14 27 0l16 -16l2 -2v-4q0 -2 -4 -10q0 -10 7 -29q2 -6 2 -7q9 -4 18 -16q19 -26 27.5 -28.5t28.5 10.5h1v1q8 2 16 6q1 5 9 13l2 2h3h5q6 16 10 22l3 5l6 -2q2 0 5 3q0 7 -13 29t-20 28q-7 7 -13 11t-9.5 5t-5.5 3t-3 6q-15 -2 -19 6
q-3 2 -7 6q-7 3 -9 5q-8 5 -13 12q-6 7 -6 14q-11 10 -49 58.5t-39 56.5q-1 1 -2 3l-4 8q-14 -3 -14 12l-2 9q-9 9 -12 24q-2 16 10 43l6 13q4 8 15 19.5t17 13.5l2 4q11 15 21 18q4 1 18 12q-11 9 -25.5 30t-15.5 22q-13 16 -11 34l-2 11q-4 19 0 27q20 41 45 52q1 1 26 15
q7 8 35 34h1q3 3 27 9q26 7 39 -4q16 -12 24 -15q6 -2 11 -8q7 -8 15 -25l21 -27q22 -27 22 -37q-2 -29 -2 -30z" />
    <glyph glyph-name="guillemotleft" unicode="&#xab;" horiz-adv-x="1024" 
d="M923 36q-11 -16 -12 -18q0 -2 -7 -19q-7 0 -20.5 -0.5t-19.5 -1.5q-16 -1 -20 3l-16 16q-1 1 -17 0q-20 -1 -20 4q1 4 -8 9q-19 9 -26 6q-8 -3 -12 1q-8 8 -15 14q-12 10 -19 10q-12 -1 -17.5 1.5t-4.5 8.5q1 4 0.5 6.5t-2.5 3.5t-6 0q-2 0 -11 -1.5l-15 -2.5
q-18 -3 -22 3q-3 7 -5.5 12t-4.5 8l-3 4.5t-2 1.5q-2 -1 -19 5q-20 6 -27 5q-7 2 -9 4q-22 21 -26 18q-2 -3 -11 3q-19 12 -20 11l-5 6q-5 42 -6 58q-1 15 2 34q6 33 5 34l2 3q1 3 4.5 10.5t7.5 15.5q4 2 11 5t10 4q7 3 23 9l17 8q18 7 32 9q6 1 11 2t9 2t6.5 1.5t4.5 1.5
t2.5 2t0.5 2q-1 5 10 11q31 13 33 15t7 2q7 1 16 2h6l2 1l3 1q2 1 7 3t11 4q5 3 24 8q20 6 21 6l23 13l31 23l26 -6q2 -2 6 -1q24 3 25 3l3 1q3 0 9 1.5t12 2.5q1 -7 1.5 -13.5t1 -10.5t1 -7.5t0.5 -4.5v-1q-2 -2 -9 -47q0 -6 -21 -19q-22 -16 -26 -16q-21 0 -22 -8
q-1 -9 -2 -9q-27 3 -27 0t-10 -4q-24 -6 -28 -12q-4 -5 -10 -5q-17 3 -19 1l-20 -6q-21 -7 -26 -7q-2 0 -4 -3q-15 -26 -20 -30q-4 -2 -10 0l-11 4q-6 3 -6 -4q-23 -23 -20 -30l4 -4q6 9 10 8q5 -2 13 -8q16 -18 21 -12q5 7 7 5l12 -20q8 -11 21 -16q5 -2 9.5 -3t6.5 -2
t3 -1q5 -2 7 -1q1 0 3 0.5t5 1t6 0.5q10 1 23 -8q20 -16 24 -12q2 2 11 -4q14 -10 16 -18t7 -8q22 -1 27 2q6 3 10 0l10 -6q2 0 39 -19q0 -4 -0.5 -7.5t-1.5 -5.5v-2q0 -15 -1 -40zM527 36l-4 -6t-3 -5t-2 -3.5t-2 -2.5v-1l-8 -19q-7 0 -20.5 -0.5t-19.5 -1.5q-3 -1 -6 -1
q-11 0 -14 3q-4 5 -7.5 9t-5.5 6l-2 2q-2 2 -19 0q-20 -1 -19 3q0 5 -9 9q-19 9 -25 7q-9 -3 -12 0l-15 15q-11 11 -20 9q-24 -2 -21 11t-8 10q-2 0 -10.5 -1.5t-15.5 -2.5q-19 -3 -22 3q-12 26 -15 26q-2 -1 -19 5q-20 6 -26 5q-7 0 -10 4q-22 21 -26 18q-3 -4 -12 2
q-18 12 -19 12l-5 6q-4 36 -6 58q-1 3 -1 9q0 13 3 25q5 27 5 33l14 30l21 9l22 9l18 7q18 8 31 9q7 1 13 2.5l10 2.5t7 2t4 2t1 2q-1 5 10 11q32 15 33 16t3 1q3 1 4 1l23 3l2 1l9 3l12 4q2 1 23 7q18 7 22 7l22 13l31 23q24 -7 27 -7q2 -2 5 0q23 3 25 3l2 1q3 0 9 1.5
t12 2.5l4 -38l-8 -46q0 -5 -22 -20q-21 -15 -25 -15q-22 -2 -22 -9q-1 -8 -2 -8q-27 3 -27 0q-2 -4 -11 -5q-23 -6 -27 -11q-6 -6 -11 -5q-12 1 -18 1q0 -1 -20 -7q-22 -7 -26 -6q-3 0 -4 -4q-16 -27 -20 -29q-3 -2 -10 0q-8 2 -11 4q-5 1 -5 -4q-24 -24 -21 -31q2 -3 3 -3
q6 10 11 7q7 -3 12 -7q16 -18 22 -12q5 6 7 4q5 -8 13 -19q9 -12 19 -16q18 -7 19 -7q4 -1 7 0q1 0 3.5 0.5t5.5 1t6 0.5q11 2 22 -9q21 -16 24 -11q3 2 13 -4q15 -10 15 -19q1 -4 2.5 -6t4.5 -1q18 -1 27 1q6 4 10 1q9 -7 10 -6l2 -1l5 -2.5t7.5 -4t11 -5.5t13.5 -7l-2 -12
v-2q0 -15 -1 -40z" />
    <glyph glyph-name="macron" unicode="&#xaf;" 
d="M405 626q25 3 27 3l4 -1q5 -1 15.5 -4t21.5 -6q-4 -7 -1 -30l2 -8q1 0 1 2l1 2q17 -12 17 -19q-1 3 -3 5q-10 -6 -16 -18q-12 -27 -43 -27q-35 0 -41 -2q-12 -4 9 -7l5 -1q-6 0 -6 2q-3 8 -54 4q-8 -1 -18 -1q-12 -1 -14.5 0t-5.5 2q-18 6 -25 3q-27 -5 -34 -1
q-8 5 -13 2q-1 0 -16 -6t-27 0q-1 0 -36 10q-31 9 -33 27q-1 11 -1 19q0 1 1 10q2 26 6 27q26 4 36 11q10 6 66 2q30 -2 39 5q3 2 18 0q40 -6 42 -4q1 1 37 7q1 1 3 1q6 0 31 -5q11 -2 -1 -5q1 0 6 1z" />
    <glyph glyph-name="degree" unicode="&#xb0;" 
d="M334 754h31q2 1 7 -1q16 -7 18 -9q2 -3 4 -3l15 -2l5 -2q19 -38 19 -41v-1q0 -3 0.5 -10t1.5 -10q1 -6 1 -12q-2 -22 0 -22q1 0 3 -11q0 -4 0.5 -7.5t0.5 -5.5l1 -2q0 -1 -5 -14q-6 -16 -1 -17q6 -2 3 -9l-3 -10q-3 -12 -7 -18q-1 -1 -2 -3t-2.5 -4.5t-3.5 -4.5
q-5 -8 -12 -13t-12 -10l-2 -1q-2 -1 -6.5 -2t-8.5 -3q-2 -1 -7.5 -3.5t-8.5 -3.5q-6 -2 -20 -2h-1h-27q-4 0 -9.5 0.5t-8.5 0.5q-26 2 -28 0h-12h-10h-7l-3 1q-1 0 -12 9q-1 1 -11 9l-13 13q-6 9 -5 10q3 3 5 6q-10 4 -14.5 8t-2.5 7q3 5 1 7l-8 15l-3 12v7q0 9 2 11
q3 3 2 6q-2 9 -2 11.5t1 3.5q3 0 4 8q5 18 -2 20t-2 8q7 14 6 15q-2 0 0 10q1 7 5 15q4 6 8 9q5 5 10 9q2 2 5 3.5t6.5 3.5t5.5 3l14 7q5 3 19 5q26 3 27 2t9 2q11 4 20 4q4 0 5 -1q7 -3 17 -3zM264 710l-3 -8q-3 -5 -9 -13q-6 -9 -8 -9q-1 0 -8 -15q-1 -3 2 -9q5 -6 -1 -18
q-2 -3 0 -8v-18v-6q-1 -1 -1 -20q0 -8 4 -8q5 0 2 -16q0 -4 14 -7q5 -1 12 -2t9 -1q9 -2 10 1q1 2 24 -1q10 -1 22 0q2 0 5 0.5t5 1t3.5 0.5h2.5q7 2 9 4t23 19l-2 7q-3 5 -9 13q-2 4 0 5q2 2 8 23q2 3 -1 9t0 19q3 10 -2 12q-2 1 0 6t8 15l-9 9l-9 7q-18 5 -23 5
q-1 1 -19 -1l-10 -2q0 -2 -26 -2q-4 0 -5 1l-2 1q-2 1 -6.5 2.5t-9.5 3.5z" />
    <glyph glyph-name="plusminus" unicode="&#xb1;" 
d="M519 82q-3 -10 6 -21q3 -5 3 -8q0 -7 -12 -13q17 -24 -16 -27q-34 -2 -40 -4q-1 0 -24 -5t-56 0q-28 3 -30 0q-2 -4 -12 -3q-87 5 -90 2l-4 -3q-29 3 -64 0q-17 -1 -34 -1h-3q-19 5 -24 5q-3 3 -21 14q-12 12 -12 14q0 5 -4 28q2 2 6 10q6 9 65 21q33 7 60 4q23 -4 34 -4
q17 0 42 1q44 2 63 4q3 1 47 -2q42 -3 120 -12zM334 499q2 -27 3 -27q2 0 13 -38q-2 -2 -6 -7.5t-6 -7.5q-7 -9 -5 -11q12 -14 11 -23q-2 -12 49 -13q47 -2 71 -4q33 -3 35 -5q33 -32 33 -40v-1q-1 -2 -3 -18q-11 -6 -51 -17q-38 -10 -50 -7q-10 2 -22 -3q-11 -3 -49 8
q-9 -49 -4 -59q6 -12 4 -15q-3 -9 -7 -17q-1 -1 4 -63l-9 -5q-2 0 -14 -4q-18 -19 -18 -20q-2 -2 -20 -9l-30 25q-17 14 -15 32q1 25 -4 36q-5 9 4 48l3 14l-1 3q-1 3 -2.5 10t-3.5 14q-46 -1 -54 8q-8 10 -19 8q-16 -1 -24 -1q-6 0 -49 4q0 2 -5 6q-3 3 -3 18q0 6 2 28
q82 32 83 29q1 -2 13 -4q24 -3 25 -3t35 3q-19 16 -5 29q15 13 9 19l-9 9q-3 4 5 12q13 14 4 17q-8 4 -4 11q14 23 11 34q-3 10 8 22q15 3 26 3q18 0 28 -10q13 -16 13 -18z" />
    <glyph glyph-name="acute" unicode="&#xb4;" 
d="M399 740q3 -2 10 1t55 -27q-6 -21 9 -42q8 -13 7 -19q0 -7 -6 -11t-10 -6q-8 -3 4 -24q-24 -29 -31 -31q-9 -5 -60 -33q-27 -17 -33 -14q-7 3 -19 -9q-41 -38 -59 -41q-19 -3 -37 -12q-13 -8 -21 -8q-5 0 -8 1q-2 1 -57 26q-8 20 1 27q11 9 -10 26q6 8 26 38l22 31
q22 50 32 53q10 2 33 32q4 6 6 13q2 8 24 17q23 10 26 13q4 5 16 8q-1 -9 2.5 -13t10.5 -3q12 1 9 7q-4 7 -3 11t6 3q7 1 19 -3q9 -3 18.5 -6t13.5 -4z" />
    <glyph glyph-name="paragraph" unicode="&#xb6;" 
d="M340 374q2 10 4 18q6 25 -2 33q-8 9 2 64q5 26 5 46q0 9 -1 11t0 4.5t-2 7.5q12 2 23 -3q2 -1 -1 -1l-7 1l1 1q10 6 64 3q-3 -3 0 -4h4l-5 -43q0 -5 4 -30q1 -4 5 -12q2 -4 -0.5 -5.5t-9.5 -1.5q3 -30 4 -32t-2 -4t-10 -7q-4 -1 -1 -13q4 -14 4 -25l-7 -137q7 -46 3 -47
t-6 -14l-2 -29q-2 -7 1 -15q4 -22 0 -29q-5 -8 -2 -15q11 -35 8 -38q-5 -3 -3 -17l4 -30q3 -3 8 -13l34 4q27 3 33 13q17 29 22 32q6 5 4 9q-3 9 -6 17q-4 12 0 31q7 27 3 28q-6 2 -5 9q0 27 6 34q4 5 4 8t-1 5q-5 10 -10 18q-7 13 -4 20q0 1 1 3t2 6l2 8q5 17 -1 29
q-9 24 -3 25t6 10q1 21 -5 29q-7 9 -7 14q2 24 7 27q6 2 5 7q-5 25 -8 29q-5 7 -3 11q10 22 4 28q-7 5 -5 9q14 29 11 30q-3 3 -9 48q-4 23 -3 24l-4 60q-5 -1 -6 -3q-1 0 -2 3q-57 6 -58 8t-16 4q-11 1 -20 3q-3 1 -32 -3q-37 -6 -41 -2q-2 3 -16 1q-25 -3 -35 2
q-7 3 -12 3q-2 0 -4 -1q-32 -9 -33 -11q0 -2 -11 -7q-36 -11 -40 -11q-6 0 -11 -4q-2 -2 -8 -6l-9 -6q-11 -8 -15 -25q-7 -32 -6 -35q2 -2 -4 -13q-3 -5 -5 -9.5t-4 -8t-2 -4.5q-1 -6 0 -9q6 -21 -1 -28q-7 -6 -6 -11q0 -1 1 -2q6 -26 12 -31q6 -3 5 -5q-8 -16 -8 -17
q-2 -4 -6 -29q28 -20 25 -25q-3 -4 8 -12q12 -10 23 -21q0 -3 15.5 -1.5t18.5 0.5q35 -15 38 -11q4 3 18 -3q0 -17 7 -20q9 -5 -3 -47q-5 -15 -4 -44t6 -30q10 -3 -3 -54q-4 -13 -4 -22q0 -5 1 -6q2 -5 7 -17q2 -6 -3 -11t-3 -23q11 -9 27 -18l5 -1l-1 1q-2 5 0 6
q6 -3 11 -6t7 -4l3 -1h1q8 0 17 1q5 16 5 20l11 18q9 15 3 17q-4 2 0 69q4 51 2 116q0 33 3 62z" />
    <glyph glyph-name="periodcentered" unicode="&#xb7;" 
d="M351 317q18 -9 18 -11q-1 -1 5 -9q11 -12 15 -11q5 2 8 -1q8 -5 11 -5q1 0 2 -16q4 -2 8 -3.5t5 -1.5q2 -1 4 -24q-6 -25 -19 -25q-15 1 -23 -5q6 0 11 0.5t7.5 1t3.5 0.5l7 -5q-3 -12 -3 -17q0 -4 -26 -6q-13 -10 -15 -10q-2 1 -10 -4q-8 -6 -14 -8q-9 -3 -6 -10
q3 -12 -8 -12q-6 0 -10 1q-21 4 -28 3q-6 0 -33 4q-26 5 -26 10l3 8q3 7 -7 11q-13 6 -12 9q1 2 -2 7l-7 11l-1 1q-1 0 -3 1t-4.5 2.5t-6.5 3.5l-8 4q24 9 18 18q-6 11 -7 11q18 22 15 25t1 9q6 10 13 11q8 3 -4 16q33 6 31 12q-1 6 7 7q5 1 13 2t10 1q12 2 17 4q13 5 18 5
q3 0 4 -1q5 -3 28 -14z" />
    <glyph glyph-name="guillemotright" unicode="&#xbb;" horiz-adv-x="1024" 
d="M101 400q10 16 12 16l6 20q22 1 40 3q17 1 21 -3q10 -11 16 -17q1 -1 17 0q20 1 20 -3q-1 -6 8 -9q19 -9 26 -6q7 4 12 -1l15 -15q10 -10 19 -9q12 1 17.5 -1.5t4.5 -8.5q-1 -4 -0.5 -6.5t2.5 -3.5t6 0q3 0 11.5 1.5t14.5 2.5q17 3 21 -3q12 -28 16 -26q5 0 19 -5
q23 -7 26 -7q6 0 10 -4q12 -11 18 -15t7 -2q3 4 12 -2l19 -12l6 -5q5 -46 6 -59q1 -14 -2 -34q-2 -9 -3.5 -17.5t-1.5 -12.5l-1 -3l-1 -3q-2 -4 -5.5 -11.5t-6.5 -15.5l-10.5 -3.5t-11.5 -4.5l-22 -10l-17 -7q-15 -6 -32 -10q-6 -1 -11 -2t-9 -2t-6.5 -1.5t-4.5 -1.5
t-2.5 -1.5t-0.5 -1.5q1 -5 -10 -11q-32 -15 -33 -16q-4 -2 -7 -2q-15 -2 -24 -2q-1 0 -22 -9q-1 0 -3.5 -1t-8.5 -2.5t-11 -3.5t-10.5 -4t-7.5 -3l-3 -1q-4 -2 -8 -4.5t-6.5 -3.5t-4.5 -2.5t-3 -1.5h-1l-32 -24l-26 8q-1 1 -6 1q-21 -4 -24 -4h-3q-3 -1 -9 -2.5t-12 -2.5
q-4 33 -4 38q2 0 9 46q0 7 21 20q22 15 25 15q22 2 23 9q1 8 2 8q16 -2 20.5 -2t6.5 1q0 3 9 6q23 6 29 12q5 6 9 5q5 0 10 -0.5t8 -0.5l2 -1l2 1q2 1 7.5 2t10.5 3q21 7 25 7t5 4q15 26 20 29q5 1 9 0q8 -2 12 -4q6 -3 6 4q23 23 20 30q-4 5 -5 5q-6 -10 -9 -9q-6 2 -13 9
q-16 18 -21 11q-5 -5 -7 -4l-13 19q-8 11 -20 16q-5 2 -9 3.5t-6.5 2.5t-3.5 1q-3 1 -7 1l-14 -2q-10 -1 -23 8q-20 16 -24 12q-3 -4 -11 3q-16 11 -17 18q-2 8 -6 8q-21 1 -28 -2q-6 -3 -9 0l-10 7l-5 2q-4 2 -13.5 6.5t-20.5 10.5q0 4 0.5 7.5t1.5 5.5v2q0 15 1 40z
M497 400l11 17q3 3 8 20q7 0 20 0.5t19 1.5h7q11 0 14 -3q4 -4 7.5 -8t5.5 -6l2 -2q2 -2 19 0q11 1 15.5 0t3.5 -4q0 -4 9 -9q18 -9 25 -6q8 3 12 -1q6 -4 15 -15q12 -10 20 -9q24 1 21 -10q-1 -4 -0.5 -6.5t2.5 -3.5t6 0q2 0 10.5 1.5t15.5 2.5q18 3 21 -3q12 -28 16 -26
q2 1 19 -5q9 -3 26 -7q7 0 10 -3q12 -11 18 -15t7 -2q3 4 13 -3l18 -12q1 0 6 -5q5 -46 6 -59q1 -3 1 -8q0 -14 -3 -26q-2 -9 -3 -17.5t-2 -12.5l-1 -3l-1 -3q-2 -4 -5.5 -11.5t-6.5 -15.5q-4 -1 -11 -4t-11 -4l-21 -9l-18 -8q-15 -6 -32 -10q-34 -6 -34 -10q1 -5 -10 -11
q-32 -14 -33 -16q-2 -2 -7 -2q-15 -2 -23 -2q-1 0 -23 -8q-5 -2 -23 -8l-22 -7l-23 -12l-31 -24q-25 6 -26 7q-2 2 -6 1q-22 -3 -24 -3t-23 -6l-4 38l1 5q1 5 3 17t4 25q0 6 22 19q19 13 24 16q22 0 23 8q0 2 1 4l1 4q27 -3 27 0q1 2 10 5q22 6 28 12q5 5 10 5q17 -3 19 -1
l20 5q21 7 25 7t5 4q15 28 20 29q6 2 9 1q2 -1 6 -2.5t6 -2.5q5 -3 5 4q24 24 21 30q-3 5 -4 5q-7 -10 -10 -9q-5 1 -12 9q-16 18 -22 12q-5 -7 -7 -5q-8 13 -13 19q-10 13 -19 17q-5 2 -9 3t-7 2t-4 1q-5 2 -6 1q-1 0 -3.5 -0.5t-5.5 -1t-6 -0.5q-11 -2 -22 8
q-21 16 -25 12q-4 -3 -12 4q-13 9 -15 17t-7 9q-19 1 -28 -3q-4 -3 -9 0q-9 6 -10 7q-2 0 -39 19q0 4 0.5 7.5t1.5 5.5v2q0 15 1 40z" />
    <glyph glyph-name="onequarter" unicode="&#xbc;" 
d="M556 283l-14 -3l-55 1l-3 -1q-3 0 -9.5 -1t-13.5 -2q-25 -5 -31 -3q-68 9 -74 3q-8 -8 -14 -9q-34 -3 -58 7q-22 11 -27 9q-11 0 -12 -1q-3 -1 -42 0q-57 1 -57 5q0 5 -7 4l-16 -4h-3q-4 1 -11.5 2t-16.5 2q-2 -2 -1 -4q1 -4 0 -6q-7 -6 -7 -5q2 2 -26 0q-7 8 -7 11
q-1 0 -14 23q12 8 18 14q-1 1 5 16q15 -3 63 -1q12 0 24.5 0.5t17.5 0.5h6q34 3 37 4q6 1 33 -3q9 -1 28 4q17 6 36 0q18 -4 20 -6q0 -2 45 3l4 2q2 1 62 -4q48 -3 50 -1q1 1 14 1h2h2h2h2h2h3h2h2h2h2h2h2h9v-1l2 2q17 11 35 -20q6 -10 6 -19q-1 -14 -21 -20zM328 725
q3 -15 6 -29t4 -20l1 -6l1 -2q-1 0 -8 -19q-8 -20 -5 -27q14 -33 6 -38q-7 -4 -5 -6l6 -19l6 -19q-8 -44 0 -44q6 -1 3 -9q-18 -51 -7 -60q12 -8 7 -13q-13 -18 -11 -21q3 -5 -7 -12q-29 11 -38 9q-3 0 -6 4.5t-5.5 14.5t-4.5 26q-8 55 -3 64q2 4 4 35q2 36 2 47q0 19 -6 42
l-4 14q0 1 3 28q-31 -12 -32 -11q-3 4 -12 -5q-21 -21 -31 -12l-5 5l-5 4q-1 12 3 26q4 13 24 25q30 20 37 29q9 11 30 19l3 1q3 0 9 1.5t12 2.5q2 1 6 1q17 0 22 -26zM376 243q-1 -1 5 -34q6 -34 0 -40q-13 -16 -7 -24q7 -11 8 -13q-3 -49 2 -65q5 -14 3 -17l1 -1
q1 -1 -14 -60q7 -7 16 -13q10 -6 35 -4q11 1 17 1l28 -7q1 -6 -6 -15q-4 -5 -11 -26q1 -7 1 -11.5t-2 -5.5t-6 0q-11 4 -12 4q-5 -1 -9 -2t-7 -2h-2h-34q-13 -6 -8 -19q6 -12 0 -27q-3 -9 -9 -12q-5 -4 5 -25h-9q-19 0 -23 6q-4 7 -32 -2q2 18 12 15l6 -2t4 -2h1l-23 15
q-22 16 -9 19q18 3 4 15q-13 12 -22 12q-20 -1 -38 -2.5t-25 -2.5h-8q-1 1 -2 1q-40 6 -42 20q-2 15 -7 27l-7 13q-7 12 17 30l11 12q13 13 -11 14q0 1 2 3t5.5 7t6.5 10q11 19 33 31v2q0 1 -1 4t-2 7q-4 12 31 34q-17 24 -10 29q5 6 19 16q7 7 10 14q4 7 -3 13q4 9 7 12.5
t7 2.5q7 -1 31 17q-1 1 -5 8q-3 6 5 12q35 25 60 25t13 -17zM302 81q-19 -43 -32 -61q-4 -5 -17 -25l32 -8l10 -4q21 17 21 33v19q3 43 -6 45z" />
    <glyph glyph-name="onehalf" unicode="&#xbd;" 
d="M330 757q-5 -5 -5 -7q7 -14 20 -36q-23 -7 -23 -13q0 -8 2 -10q24 -24 16 -30q-10 -7 -10 -15q1 -17 -2 -19q-2 -1 10 -27q-2 -23 -6 -30q-6 -10 -1 -25q8 -25 4 -31q-4 -7 -1 -26q8 -45 0 -48q-8 -5 -7 -7q19 -25 18 -30l-2 -17q-34 -9 -40 -9q-5 -2 -5 -10
q42 -10 51 -14q14 -6 24 -1q6 3 11 6t8 4l2 1h45q79 0 80 -3t16 0l19 3q8 2 15 -5.5t12 -23.5q6 -21 5 -32q0 -13 -5 -17q-13 -9 -28 -7q-46 4 -49 4q-4 1 -9 2h-3q-55 -7 -58 -4l-2 4q-16 2 -21 -3q-4 -3 -8 -1q-39 14 -42 12q-6 -2 -11 -2q-28 0 -40 -6q-13 -7 -20 -1
q-14 7 -24 0q-12 -9 -29 -6q-69 5 -81 3q-12 -3 -14 -1q-14 18 -30 12q-14 -6 -26 -4q-37 4 -40 5q-16 5 -17 15q-1 6 -1 15q0 18 12 23q15 4 27 4q24 2 33 2.5t10 -0.5q-2 -2 0 -2q23 -1 25 1q1 1 10 0q7 0 10 -1q16 0 39 -1q-14 15 1 14l15 -1q-6 -14 9 -7q12 6 26 8
q7 1 9.5 2t1.5 4q-3 5 5 16q6 8 2 21t-1 41q15 7 10 15q-8 9 -6 12q6 46 9 56q3 11 0 37q-9 52 -12 52q-4 0 -9 5q2 2 11 15q13 14 8 42l-14 1l-2 -2q-2 -2 -9.5 -7t-14.5 -11q-22 -18 -29 -19q-6 0 -10 7q-11 15 -7 29q5 15 15 30q21 30 45 52q19 21 26 23h9q13 0 18 -4
q19 -13 30 -22zM343 261q17 -1 18 -7q1 -4 30 -18q21 -10 18 -15q-4 -4 12 -28q-5 -11 4 -14q5 -2 7 -1t1 5l-4.5 -16.5t-0.5 -5.5q3 0 -12 -9q11 -10 15 -26l4 -16q-2 -5 -9 -14q-6 -10 -18 -33q-4 -6 -2 -10q0 -1 -2 -3t-8 -5.5t-13 -7l-19 -9.5q4 -8 4 -21q0 -7 -3 -10.5
t-8 -2.5q-17 2 -18 0l-2 -2q-2 -1 -6 -4t-9 -6q-1 -3 1 -4q4 -1 7 -20h-2q-1 0 -4 -0.5t-5 -0.5q-10 -1 -30 -20q31 -4 35 -4q11 0 31 2l1 1l8 20q11 -5 12 -11q2 -8 15 -17h27t22 -1q4 0 6.5 -1t4 -1.5t1.5 -2t-2 -3.5q-13 -14 -4 -21q6 -6 12 -8q-27 -15 -20 -22
q7 -6 9 -10q-48 -6 -65 -12q-17 -8 -41 -5q-21 1 -26 6t-40 -10q-4 0 -9 5q-4 4 7 9q-65 -4 -83 2q-15 6 -25 12q-5 3 -8 12q-4 8 7 11q-31 22 -22 30l10 7q-1 4 -1 9q1 2 47 26q-12 12 -6 19q5 8 34 28q16 11 22 10q7 0 3 20q22 10 43 26q27 19 24 28q-4 8 -2.5 11.5
t7.5 1.5q13 -4 24 16q-1 1 -13 10q-11 9 13 29q19 7 -5 24q-27 19 -31 21q-22 -6 -33 -11q-14 -6 -83 -44q0 2 -20 15q-5 3 -9.5 6t-7 4.5l-5 3t-3.5 2.5q2 15 0 18q0 4 27 20q29 17 32 29q4 10 23 14q18 6 32 4q17 -2 25 0q5 2 10 0q4 -1 44 -4z" />
    <glyph glyph-name="questiondown" unicode="&#xbf;" 
d="M219 2q-52 12 -56 27q-5 17 -7 18q-6 6 -11.5 11t-8.5 7.5t-4 3.5q-3 2 -2 6l7 15l-1 3q0 3 -1.5 9t-2.5 12q3 16 -2 18q-5 1 -5 9q0 17 4 22q5 9 4 12q-1 2 -1 6q-1 3 -1 5q-2 9 10 22q14 16 19 27q6 14 24 31q25 22 36 35q8 12 7 17q-3 16 4 18q6 0 8 5l1 13l1 4
q1 4 3 12.5t4 18.5q7 4 -2 8q-10 3 -6 7q13 14 10 24q-3 12 41 26q25 -6 26 -7l1 -1q1 0 3 -0.5t4.5 -1.5t6.5 -2.5t8 -2.5q8 -40 1 -49q-7 -12 -2 -23q5 -14 -6 -31q-5 -8 -3.5 -11t10.5 0q-68 -81 -71 -87q-3 -8 -19 -29q-15 -20 -19 -24q-7 -5 -8 -9q-2 -5 -4 -11
q-3 -6 -11 -34q-15 -3 -3 -13q13 -10 9 -34q79 -13 98 -6q18 7 48 10h2q2 1 6 2l8 2q16 3 19 16q5 20 20 32q9 7 22 16l31 -11l22 -17q-3 -16 -4 -17l-14 -23q18 -10 -2 -30q-17 -20 -21 -22q-16 -11 -30 -20.5t-20 -14t-7 -4.5q-2 -3 -21 -3h-39l-11 -1q-34 -3 -36 -4h-1
q-10 0 -65 13zM235 510q-11 15 -13 17l-12 28q1 0 1 4q0 6 35 51q16 21 30 23q6 0 11 -3q15 -12 34 -14q5 0 18 -3q8 -1 12 -3.5t3 -6.5q2 -12 4 -12q3 0 6 -46v-1q1 -1 1.5 -3t0.5 -5q1 -10 -15 -26q-11 -10 -7 -14q2 -4 0 -5q-21 -11 -30 -9q-7 1 -12 -2q-6 -6 -17 -11
q-12 -8 -50 41z" />
    <glyph glyph-name="Agrave" unicode="&#xc0;" 
d="M239 952q22 -1 33.5 -5t10.5 -12q0 -16 28 -22q30 -7 44 -15q17 -13 26 -24l1 -2l2 -4q3 -5 25 -32q1 -2 21 -24q18 -23 11 -41q-6 -13 0 -22q3 -3 2 -5q0 -8 -12 -12q-9 -4 0 -26q5 -11 3 -14.5t-12 -0.5q-29 3 -46 -4h-7q-16 0 -47 23q1 -4 0 -4t-4 4q-6 8 -54 12
q-4 4 -28 31q-13 14 -40 17q1 3 -5.5 8.5t-18.5 14.5q-7 5 -12.5 9t-8 5.5t-2.5 0.5q-10 4 -13 9q-7 10 -20 33q-2 2 -3 22v7q0 15 9 21t33 24q25 19 27 23q2 5 5 6q0 1 5 1q1 0 47 -2zM295 623q12 1 20 1q1 1 18 11q10 -30 12 -32q3 -3 5 -6q33 -27 24 -45q-9 -17 3 -29
q6 -8 10 -12q7 -7 6 -23q0 -20 1 -21q1 0 11 -16q12 -20 8 -26t-1 -15q1 -1 4 -13q1 -4 15 -28q12 -21 11 -22q-2 -1 0 -21v-13q1 -6 8 -18q12 -17 9 -26t0 -14l8 -8q7 -8 10 -23q6 -29 7 -30q3 -3 0 -6q-12 -12 -5 -15l9 -5q4 -7 8 -17q3 -5 3 -6v-27q6 -3 9.5 -5.5
t2.5 -4.5q-1 -1 -3 -10q-3 -16 0 -16q2 -1 10 -15q10 -15 11 -16v-7v-24q-17 -11 -17 -13q-2 -4 -74 -17q-4 13 4 17q7 4 0 7q-28 12 -30 23q-1 7 -13 45q-9 26 -11 29q-4 7 -3 11q1 21 0 22q-1 0 -18 51q-26 5 -30 7q-6 4 -10 3q-37 -4 -40 -3q-1 1 -17 -1q-18 -2 -27 -2
q-3 0 -14 -4q-5 -9 -10 -19t-7 -14.5t-3 -5.5q-4 -6 -3 -8q2 -6 3 -18q2 -14 -5 -23q-16 -26 -13 -29t-2 -17q-2 -5 -4 -11.5t-3 -8.5v-2l-3 -29q-4 -2 -7 -4t-5 -3t-3.5 -2t-2.5 -1l-1 -1l-4 -6q-10 3 -22.5 6t-15.5 4q-5 1 -33 7q5 21 1 22q-2 2 -1 5q0 3 1 6q5 28 1 34
q-3 7 -1 12l2 7q1 8 3 15q2 13 8 26q11 28 16 30q6 3 4 9q0 7 -1 18q-3 16 5 26q17 22 14 27q-3 3 0 15q9 34 9 37q-1 1 4 10q11 23 10 23q0 1 4 16q4 16 15 51q12 35 11 36q-2 6 -3 18q-1 13 7 26q13 23 11 27q-2 1 2 16q6 25 11 28t8 11q8 23 11 26q4 4 3 10l-2 12
q-2 3 28 30q0 -1 12 -8q13 -8 17 -8zM290 521q-3 -5 -6 -11.5t-4 -8.5v-2q0 -4 -5 -20q-3 -10 -6 -12q-5 -3 -9 -33q-3 -13 1 -17q2 -2 -4 -35q-10 -55 -10 -64q-1 -11 -1 -19q78 -1 85 7l6 7q1 37 3 43v6t1 6q0 6 -4 13q-5 9 -8 32q-1 7 4 11q5 3 -8 28q-9 20 -15 40
q-6 21 -20 29z" />
    <glyph glyph-name="Aacute" unicode="&#xc1;" 
d="M412 962q2 -1 10 2q6 2 55 -28q-6 -20 9 -41q8 -13 7 -20q0 -7 -6 -11q-2 -1 -5.5 -2.5t-5.5 -2.5q-8 -3 5 -25q-23 -27 -31 -30q-2 -1 -9.5 -5.5t-22 -12.5t-28.5 -16q-27 -17 -34 -13q-5 3 -18 -10q-40 -37 -59 -40t-37 -12q-13 -8 -22 -8q-4 0 -7 1q-2 1 -57 26
q-8 20 1 27q10 9 -10 25q6 8 26 38l22 32q22 50 32 53q10 2 33 32q4 5 6 13t24 17q23 10 26 13q4 5 16 8q-1 -9 2 -13t10 -3q13 2 10 7q-4 7 -3 11t6 3q5 1 19 -4q9 -3 18.5 -6t13.5 -4zM295 623q12 1 20 1q1 1 18 11q10 -30 12 -32q3 -3 5 -6q33 -27 24 -45q-9 -17 3 -29
q6 -8 10 -12q7 -7 6 -23q0 -20 1 -21q1 0 11 -16q12 -20 8 -26t-1 -15q1 -1 4 -13q1 -4 15 -28q12 -21 11 -22q-2 -1 0 -21v-13q1 -6 8 -18q12 -17 9 -26t0 -14l8 -8q7 -8 10 -23q6 -29 7 -30q3 -3 0 -6q-12 -12 -5 -15l9 -5q4 -7 8 -17q3 -5 3 -6v-27q6 -3 9.5 -5.5
t2.5 -4.5q-1 -1 -3 -10q-3 -16 0 -16q2 -1 10 -15q10 -15 11 -16v-7v-24q-17 -11 -17 -13q-2 -4 -74 -17q-4 13 4 17q7 4 0 7q-28 12 -30 23q-1 7 -13 45q-9 26 -11 29q-4 7 -3 11q1 21 0 22q-1 0 -18 51q-26 5 -30 7q-6 4 -10 3q-37 -4 -40 -3q-1 1 -17 -1q-18 -2 -27 -2
q-3 0 -14 -4q-5 -9 -10 -19t-7 -14.5t-3 -5.5q-4 -6 -3 -8q2 -6 3 -18q2 -14 -5 -23q-16 -26 -13 -29t-2 -17q-2 -5 -4 -11.5t-3 -8.5v-2l-3 -29q-4 -2 -7 -4t-5 -3t-3.5 -2t-2.5 -1l-1 -1l-4 -6q-10 3 -22.5 6t-15.5 4q-5 1 -33 7q5 21 1 22q-2 2 -1 5q0 3 1 6q5 28 1 34
q-3 7 -1 12l2 7q1 8 3 15q2 13 8 26q11 28 16 30q6 3 4 9q0 7 -1 18q-3 16 5 26q17 22 14 27q-3 3 0 15q9 34 9 37q-1 1 4 10q11 23 10 23q0 1 4 16q4 16 15 51q12 35 11 36q-2 6 -3 18q-1 13 7 26q13 23 11 27q-2 1 2 16q6 25 11 28t8 11q8 23 11 26q4 4 3 10l-2 12
q-2 3 28 30q0 -1 12 -8q13 -8 17 -8zM290 521q-3 -5 -6 -11.5t-4 -8.5v-2q0 -4 -5 -20q-3 -10 -6 -12q-5 -3 -9 -33q-3 -13 1 -17q2 -2 -4 -35q-10 -55 -10 -64q-1 -11 -1 -19q78 -1 85 7l6 7q1 37 3 43v6t1 6q0 6 -4 13q-5 9 -8 32q-1 7 4 11q5 3 -8 28q-9 20 -15 40
q-6 21 -20 29z" />
    <glyph glyph-name="Acircumflex" unicode="&#xc2;" 
d="M347 879q38 -35 47 -37q5 -1 15 -5q53 -27 55 -48q2 -23 3 -26q3 -9 3 -20q0 -6 -2 -18q-5 -23 -35 -32q-42 9 -46 2q-6 -8 -30 7q-8 5 -13 5q-8 0 -42 30l-5 6q-6 6 -17 6q5 -8 0.5 -11.5t-19.5 -2.5q-29 2 -43 -40q-20 -8 -36 -8q-12 0 -14 9q-5 17 -27 23q-6 1 -14 8
q-4 2 -3 7q2 13 12 38q12 28 44 49q29 18 32 21q25 23 70 41q21 8 34 8q19 0 31 -12zM295 623q12 1 20 1q1 1 18 11q10 -30 12 -32q3 -3 5 -6q33 -27 24 -45q-9 -17 3 -29q6 -8 10 -12q7 -7 6 -23q0 -20 1 -21q1 0 11 -16q12 -20 8 -26t-1 -15q1 -1 4 -13q1 -4 15 -28
q12 -21 11 -22q-2 -1 0 -21v-13q1 -6 8 -18q12 -17 9 -26t0 -14l8 -8q7 -8 10 -23q6 -29 7 -30q3 -3 0 -6q-12 -12 -5 -15l9 -5q4 -7 8 -17q3 -5 3 -6v-27q6 -3 9.5 -5.5t2.5 -4.5q-1 -1 -3 -10q-3 -16 0 -16q2 -1 10 -15q10 -15 11 -16v-7v-24q-17 -11 -17 -13
q-2 -4 -74 -17q-4 13 4 17q7 4 0 7q-28 12 -30 23q-1 7 -13 45q-9 26 -11 29q-4 7 -3 11q1 21 0 22q-1 0 -18 51q-26 5 -30 7q-6 4 -10 3q-37 -4 -40 -3q-1 1 -17 -1q-18 -2 -27 -2q-3 0 -14 -4q-5 -9 -10 -19t-7 -14.5t-3 -5.5q-4 -6 -3 -8q2 -6 3 -18q2 -14 -5 -23
q-16 -26 -13 -29t-2 -17q-2 -5 -4 -11.5t-3 -8.5v-2l-3 -29q-4 -2 -7 -4t-5 -3t-3.5 -2t-2.5 -1l-1 -1l-4 -6q-10 3 -22.5 6t-15.5 4q-5 1 -33 7q5 21 1 22q-2 2 -1 5q0 3 1 6q5 28 1 34q-3 7 -1 12l2 7q1 8 3 15q2 13 8 26q11 28 16 30q6 3 4 9q0 7 -1 18q-3 16 5 26
q17 22 14 27q-3 3 0 15q9 34 9 37q-1 1 4 10q11 23 10 23q0 1 4 16q4 16 15 51q12 35 11 36q-2 6 -3 18q-1 13 7 26q13 23 11 27q-2 1 2 16q6 25 11 28t8 11q8 23 11 26q4 4 3 10l-2 12q-2 3 28 30q0 -1 12 -8q13 -8 17 -8zM290 521q-3 -5 -6 -11.5t-4 -8.5v-2q0 -4 -5 -20
q-3 -10 -6 -12q-5 -3 -9 -33q-3 -13 1 -17q2 -2 -4 -35q-10 -55 -10 -64q-1 -11 -1 -19q78 -1 85 7l6 7q1 37 3 43v6t1 6q0 6 -4 13q-5 9 -8 32q-1 7 4 11q5 3 -8 28q-9 20 -15 40q-6 21 -20 29z" />
    <glyph glyph-name="Atilde" unicode="&#xc3;" 
d="M385 716q-1 -5 -5.5 -3t-9.5 2q-13 0 -15 -1h-2q-21 -5 -31 -4q-16 1 -26 13l-5 5q-6 4 -9 4q-7 0 -36 31l-2 3q-1 1 -6 4.5t-8 4.5l-6 2q-6 2 -7 2l-12 -8q-2 0 -6 -3q-32 -19 -52 -62q-22 -6 -33 -5q-12 1 -12 9q-2 15 -22 23q-5 1 -12 8q-4 2 -2 7q1 9 14 33t43 40
q8 4 15.5 8.5t11.5 6.5l3 1q13 10 31 19q9 11 28 15q1 -1 3 -1t3 -1h1q21 5 31 4q17 -2 27 -13l5 -5q6 -4 9 -4q7 0 35 -30l3 -3q10 -6 14 -9q5 -5 13 -4q2 1 2 3q14 -4 25 7q9 9 11.5 12t4.5 10t6 15q22 6 33 5q12 -1 12 -10q2 -15 22 -23q5 -1 12 -8q3 -2 2 -6
q-1 -9 -14 -33q-14 -25 -43 -41q-8 -4 -15.5 -8.5t-11.5 -5.5l-3 -2q-4 -3 -5.5 -2t-8.5 -2zM295 623q12 1 20 1q1 1 18 11q10 -30 12 -32q3 -3 5 -6q33 -27 24 -45q-9 -17 3 -29q6 -8 10 -12q7 -7 6 -23q0 -20 1 -21q1 0 11 -16q12 -20 8 -26t-1 -15q1 -1 4 -13
q1 -4 15 -28q12 -21 11 -22q-2 -1 0 -21v-13q1 -6 8 -18q12 -17 9 -26t0 -14l8 -8q7 -8 10 -23q6 -29 7 -30q3 -3 0 -6q-12 -12 -5 -15l9 -5q4 -7 8 -17q3 -5 3 -6v-27q6 -3 9.5 -5.5t2.5 -4.5q-1 -1 -3 -10q-3 -16 0 -16q2 -1 10 -15q10 -15 11 -16v-7v-24q-17 -11 -17 -13
q-2 -4 -74 -17q-4 13 4 17q7 4 0 7q-28 12 -30 23q-1 7 -13 45q-9 26 -11 29q-4 7 -3 11q1 21 0 22q-1 0 -18 51q-26 5 -30 7q-6 4 -10 3q-37 -4 -40 -3q-1 1 -17 -1q-18 -2 -27 -2q-3 0 -14 -4q-5 -9 -10 -19t-7 -14.5t-3 -5.5q-4 -6 -3 -8q2 -6 3 -18q2 -14 -5 -23
q-16 -26 -13 -29t-2 -17q-2 -5 -4 -11.5t-3 -8.5v-2l-3 -29q-4 -2 -7 -4t-5 -3t-3.5 -2t-2.5 -1l-1 -1l-4 -6q-10 3 -22.5 6t-15.5 4q-5 1 -33 7q5 21 1 22q-2 2 -1 5q0 3 1 6q5 28 1 34q-3 7 -1 12l2 7q1 8 3 15q2 13 8 26q11 28 16 30q6 3 4 9q0 7 -1 18q-3 16 5 26
q17 22 14 27q-3 3 0 15q9 34 9 37q-1 1 4 10q11 23 10 23q0 1 4 16q4 16 15 51q12 35 11 36q-2 6 -3 18q-1 13 7 26q13 23 11 27q-2 1 2 16q6 25 11 28t8 11q8 23 11 26q4 4 3 10l-2 12q-2 3 28 30q0 -1 12 -8q13 -8 17 -8zM290 521q-3 -5 -6 -11.5t-4 -8.5v-2q0 -4 -5 -20
q-3 -10 -6 -12q-5 -3 -9 -33q-3 -13 1 -17q2 -2 -4 -35q-10 -55 -10 -64q-1 -11 -1 -19q78 -1 85 7l6 7q1 37 3 43v6t1 6q0 6 -4 13q-5 9 -8 32q-1 7 4 11q5 3 -8 28q-9 20 -15 40q-6 21 -20 29z" />
    <glyph glyph-name="Adieresis" unicode="&#xc4;" 
d="M483 813q3 -9 7 -10q1 -1 1 -3q0 -13 -19 -71l1 -10q0 -9 -77 -32q-14 5 -36 17q-28 18 -43 40q4 31 1 45q-3 13 28 31q43 26 55 33q4 2 5 2q18 1 77 -42zM249 823l14 -21q12 -18 3 -54q-3 -10 -15 -32q-13 -24 -42 -21q-63 4 -70 15q-5 8 -17 18q-4 8 -3 12t-9 44
q0 1 9 19t39 36q35 20 63 3q27 -16 28 -19zM295 623q12 1 20 1q1 1 18 11q10 -30 12 -32q3 -3 5 -6q33 -27 24 -45q-9 -17 3 -29q6 -8 10 -12q7 -7 6 -23q0 -20 1 -21q1 0 11 -16q12 -20 8 -26t-1 -15q1 -1 4 -13q1 -4 15 -28q12 -21 11 -22q-2 -1 0 -21v-13q1 -6 8 -18
q12 -17 9 -26t0 -14l8 -8q7 -8 10 -23q6 -29 7 -30q3 -3 0 -6q-12 -12 -5 -15l9 -5q4 -7 8 -17q3 -5 3 -6v-27q6 -3 9.5 -5.5t2.5 -4.5q-1 -1 -3 -10q-3 -16 0 -16q2 -1 10 -15q10 -15 11 -16v-7v-24q-17 -11 -17 -13q-2 -4 -74 -17q-4 13 4 17q7 4 0 7q-28 12 -30 23
q-1 7 -13 45q-9 26 -11 29q-4 7 -3 11q1 21 0 22q-1 0 -18 51q-26 5 -30 7q-6 4 -10 3q-37 -4 -40 -3q-1 1 -17 -1q-18 -2 -27 -2q-3 0 -14 -4q-5 -9 -10 -19t-7 -14.5t-3 -5.5q-4 -6 -3 -8q2 -6 3 -18q2 -14 -5 -23q-16 -26 -13 -29t-2 -17q-2 -5 -4 -11.5t-3 -8.5v-2
l-3 -29q-4 -2 -7 -4t-5 -3t-3.5 -2t-2.5 -1l-1 -1l-4 -6q-10 3 -22.5 6t-15.5 4q-5 1 -33 7q5 21 1 22q-2 2 -1 5q0 3 1 6q5 28 1 34q-3 7 -1 12l2 7q1 8 3 15q2 13 8 26q11 28 16 30q6 3 4 9q0 7 -1 18q-3 16 5 26q17 22 14 27q-3 3 0 15q9 34 9 37q-1 1 4 10q11 23 10 23
q0 1 4 16q4 16 15 51q12 35 11 36q-2 6 -3 18q-1 13 7 26q13 23 11 27q-2 1 2 16q6 25 11 28t8 11q8 23 11 26q4 4 3 10l-2 12q-2 3 28 30q0 -1 12 -8q13 -8 17 -8zM290 521q-3 -5 -6 -11.5t-4 -8.5v-2q0 -4 -5 -20q-3 -10 -6 -12q-5 -3 -9 -33q-3 -13 1 -17q2 -2 -4 -35
q-10 -55 -10 -64q-1 -11 -1 -19q78 -1 85 7l6 7q1 37 3 43v6t1 6q0 6 -4 13q-5 9 -8 32q-1 7 4 11q5 3 -8 28q-9 20 -15 40q-6 21 -20 29z" />
    <glyph glyph-name="Aring" unicode="&#xc5;" 
d="M332 918q29 0 30 1q2 1 8 -1q15 -7 17 -9q1 -3 5 -3l14 -2l6 -3q19 -38 19 -40l-1 -2q1 -7 3 -19q1 -6 1 -12q-2 -22 0 -22l2 -11q0 -4 0.5 -8t1.5 -6v-2l-5 -13q-6 -16 -1 -17q7 -2 4 -9l-3 -10q-3 -12 -7 -18l-9 -12q-5 -8 -12 -13t-12 -10l-17 -7q-10 -4 -16 -6
q-9 -3 -20 -3h-1q-6 0 -15 0.5t-11 0.5h-19q-27 2 -28 1h-12q-5 0 -10 0.5t-8 0.5h-2q-3 0 -12 8q-5 5 -10 9t-14 13q-6 9 -4 11l4 6q-11 5 -14.5 8t-2.5 6q4 5 1 8l-7 15q-2 4 -4 12v6q0 9 3 12t1 6q-3 14 0 14q1 0 3 9q4 17 -2 19q-7 2 -2 9q8 14 7 15q-2 0 0 10
q1 10 4 15q4 6 8 9q1 1 5 3.5t6 4.5q7 6 16 11l14 7q6 3 19 5q26 3 27 2q2 -2 9 1q11 4 20 4q5 0 6 -1q7 -3 17 -3zM262 875l-3 -8q-3 -5 -9 -13q-6 -9 -9 -9q-1 0 -8 -15q-1 -2 3 -10q5 -6 -1 -18q-2 -4 -1 -7q0 -1 0.5 -7t0.5 -11q0 -2 -1 -5v-2q-1 -1 -1 -20q0 -7 4 -7
q6 0 3 -17q0 -3 13 -6q5 -1 12 -2t9 -1q9 -2 10 1q1 2 24 -1q14 -2 22 -1q16 2 17 2q6 2 9 5q2 2 23 19l-2 6q-3 5 -9 13q-3 5 -1 6q2 2 8 22q2 3 -1 9t0 20q3 10 -2 12q-2 1 0 6t8 15l-9 8l-9 7q-21 6 -23 6q-1 1 -18 -1l-11 -2q0 -2 -26 -2q-4 0 -5 1l-2 1q-2 1 -6 2.5
t-9 3.5zM295 623q12 1 20 1q1 1 18 11q10 -30 12 -32q3 -3 5 -6q33 -27 24 -45q-9 -17 3 -29q6 -8 10 -12q7 -7 6 -23q0 -20 1 -21q1 0 11 -16q12 -20 8 -26t-1 -15q1 -1 4 -13q1 -4 15 -28q12 -21 11 -22q-2 -1 0 -21v-13q1 -6 8 -18q12 -17 9 -26t0 -14l8 -8q7 -8 10 -23
q6 -29 7 -30q3 -3 0 -6q-12 -12 -5 -15l9 -5q4 -7 8 -17q3 -5 3 -6v-27q6 -3 9.5 -5.5t2.5 -4.5q-1 -1 -3 -10q-3 -16 0 -16q2 -1 10 -15q10 -15 11 -16v-7v-24q-17 -11 -17 -13q-2 -4 -74 -17q-4 13 4 17q7 4 0 7q-28 12 -30 23q-1 7 -13 45q-9 26 -11 29q-4 7 -3 11
q1 21 0 22q-1 0 -18 51q-26 5 -30 7q-6 4 -10 3q-37 -4 -40 -3q-1 1 -17 -1q-18 -2 -27 -2q-3 0 -14 -4q-5 -9 -10 -19t-7 -14.5t-3 -5.5q-4 -6 -3 -8q2 -6 3 -18q2 -14 -5 -23q-16 -26 -13 -29t-2 -17q-2 -5 -4 -11.5t-3 -8.5v-2l-3 -29q-4 -2 -7 -4t-5 -3t-3.5 -2t-2.5 -1
l-1 -1l-4 -6q-10 3 -22.5 6t-15.5 4q-5 1 -33 7q5 21 1 22q-2 2 -1 5q0 3 1 6q5 28 1 34q-3 7 -1 12l2 7q1 8 3 15q2 13 8 26q11 28 16 30q6 3 4 9q0 7 -1 18q-3 16 5 26q17 22 14 27q-3 3 0 15q9 34 9 37q-1 1 4 10q11 23 10 23q0 1 4 16q4 16 15 51q12 35 11 36
q-2 6 -3 18q-1 13 7 26q13 23 11 27q-2 1 2 16q6 25 11 28t8 11q8 23 11 26q4 4 3 10l-2 12q-2 3 28 30q0 -1 12 -8q13 -8 17 -8zM290 521q-3 -5 -6 -11.5t-4 -8.5v-2q0 -4 -5 -20q-3 -10 -6 -12q-5 -3 -9 -33q-3 -13 1 -17q2 -2 -4 -35q-10 -55 -10 -64q-1 -11 -1 -19
q78 -1 85 7l6 7q1 37 3 43v6t1 6q0 6 -4 13q-5 9 -8 32q-1 7 4 11q5 3 -8 28q-9 20 -15 40q-6 21 -20 29z" />
    <glyph glyph-name="AE" unicode="&#xc6;" horiz-adv-x="819" 
d="M282 527l-9 -22q-7 -29 -12 -32t-9 -33q-3 -13 1 -17q2 -2 -4 -34q-10 -55 -10 -65v-7.5v-5.5v-3v-2q78 -1 84 6l7 7q3 46 4 55q0 6 -4 13v1q-1 1 -2 3.5t-2 5.5t-2 6.5t-1.5 6.5t-1 6.5t-0.5 6t1 4.5t3 3q5 3 -8 28q-9 20 -15 40q-6 21 -20 29zM258 645q0 -3 13 -9
t17 -6h19l2 2l7 3.5t10 5.5q6 -17 9 -24q0 1 -0.5 3t-0.5 3q19 -2 22 -6q5 -7 8 -2q15 19 15 21l13 10q14 -5 20 -11q6 -5 12 -3q38 6 41 2t11 0q28 10 30 6q1 -2 43 -6q6 0 22.5 2t29.5 3.5t14 0.5q4 -2 13 -2t19 2l10 1q4 0 44 -13l4 -2h1q2 -1 4.5 -1.5t5.5 -0.5
q-5 -9 -9.5 -18l-6.5 -13l-2 -4l-4 -2q-3 -2 -10 -6.5t-15 -9.5q-30 16 -41 13q-38 -6 -41 -2q-3 3 -17 0q-38 -7 -39 -5q-1 5 -15 0q-27 -9 -32 -4q-4 4 -7 2l-23 -9l-4 -1q-4 -1 -13.5 -3.5t-19.5 -4.5l-4 -3l-3 -1q2 -23 2 -30t-1 -10q-1 0 0.5 -2t3.5 -6.5t1 -9.5
q-4 -31 5 -37q7 -6 6 -9l-5 -26l-7 -7q0 -1 2 -7l24 -14l9 -3q29 6 36 11t11 1q10 -6 17 -11q13 -7 36 -6t24 2l4 -1q4 0 12 -0.5t17 -0.5l1 -16q0 -4 -1 -11l-23 -26l-39 -23l-7 8q-4 4 -6 5.5t-4.5 2t-4 -0.5t-6 -3t-8.5 -4q-7 -3 -12 -3.5t-7.5 0.5t-7 4.5t-5.5 4.5
q-3 3 -19 -9q-6 1 -13 2.5t-10 1.5q1 -5 9.5 -22t6.5 -23q-3 -9 0 -14l8 -8q7 -8 10 -23q2 -9 1 -15t-2.5 -10t-1.5 -5q3 -3 0 -6q-12 -12 -5 -15l9 -5q4 -8 8 -17q3 -5 3 -6v-27q11 -5 12 -7t-2 -9q4 0 4 -2q0 -3 10 -4q35 -6 37 -1q2 4 11 2q35 -5 36 -3q3 3 13 2
q44 -2 48 1q7 3 15 1t15 -6l7 -3q1 -2 13 -7q22 -8 25 -11q1 0 17 -17l-10 -22q-8 -17 -11 -18q-28 0 -34 -8q-6 -7 -13 -7q-29 2 -33 4q-7 3 -18 2q-24 -3 -35 -4t-16 -1t-19 1.5t-30 2.5q-1 0 -6.5 0.5t-9.5 1t-8 -0.5q-15 -5 -72 -5q-1 4 -12 11q-3 2 -1 3q4 2 4 7t-4 7
q-5 2 -9 4l-2 1q1 1 1 4q-1 7 -10.5 36.5t-13.5 37.5q-4 7 -3 11q1 21 0 22q-1 0 -17 51q-26 5 -30 7q-7 5 -11 4q-23 -3 -34.5 -3t-22.5 -1l-27 -3q-3 0 -14 -4q-19 -37 -20 -38q-3 -3 -3 -6.5t2 -10.5t2 -10q2 -12 -6 -23q-16 -26 -13 -29q1 -2 -1 -12t-4 -18l-3 -9
l-3 -29q-6 -3 -14 -8q-5 -3 -6 -3l-4 -6q-30 8 -70 17q5 20 0 22q-1 1 0 5v7q5 27 1 33q-3 9 4 35q3 15 11.5 33.5t13.5 21.5q5 2 3 9v2v3v5.5v7.5q-3 17 4 26q18 22 15 27q-4 4 -1 15q9 34 9 37q-1 1 4 10q11 23 10 23q0 2 4 17q2 7 15 50q2 5 4 10.5t3 8.5l2 6t1 4.5
t0.5 3t0 4t-0.5 4t-1 6t-1 7.5q-1 13 7 26q14 24 12 27q-3 2 1 16q6 25 11 28t8 11q8 23 11 26q7 7 1 22q-2 3 28 30zM348 229l-5 -5z" />
    <glyph glyph-name="Ccedilla" unicode="&#xc7;" 
d="M236 -148l5 -5q3 -2 13 -6q1 0 7 -2.5t10 -4.5q3 -2 7 -4t5 -3t3 -1h2q1 1 5 0q7 0 12 -1h2q3 0 5 1q3 1 8 6q11 3 27 22q6 18 6 23v9v1q2 4 2 10q1 6 -3 16q0 5 -1 6l-2 2l-4 2q-1 1 -3 5l-6 6q-5 4 -6 5q-2 1 -4.5 2t-3.5 1q-3 1 -9 5l-1 1q-2 0 -2 1q-1 1 -3 1l-4 2
h-5h-3q22 31 31 34q4 4 24 11v1q6 -1 13 -1h5q11 0 21 1q5 1 12 1q4 0 4 -1l5 2q6 2 14 6q6 2 8 4l2 2q0 2 6 3q14 3 18 4q5 1 10 6q5 3 6 7v7v4l2 2q2 2 5 0q2 -1 9 1q10 2 16 5l3 3q1 3 0 6q-1 4 5 8q4 4 14 7q3 0 3 2q1 1 1 4v2q0 2 -2 8l-4 8q-2 4 -4 5q-2 2 -5 2t-3 4
q-2 3 3 9q1 1 3 4l3 3q2 0 2 1q1 1 0 6q-2 2 -6 4.5t-9.5 6.5t-9.5 7l-4 2q-6 2 -11 5l-4 -2q-1 -1 -3.5 -1.5t-3.5 -0.5q-3 -2 -6 1q-1 2 -1 10q0 1 -3 2q-2 2 -8 0q-2 0 -5 -0.5t-5 -1.5q-3 -1 -7 -1v-21q0 -1 -1 -2q0 -2 -1 -3q0 -1 -2 -6t-3 -8q-12 2 -21 0
q-10 0 -15 -4q-8 -4 -11 -7q-1 -1 -5 -3.5t-5 -3.5l-6 -2h-8q-3 1 -10 0q-9 -2 -15 -6q-4 -2 -12 -5q-5 -2 -10 0q-6 3 -11 5q-1 1 -5 1h-2l-12 -3q-4 -2 -15 -5.5t-17 -5.5q12 11 9 15q-1 4 -18 4h-24q-6 -1 -11 -1q5 6 3 13q-1 4 -10 13t-12 11q-4 4 -6 4v8l2 6q2 2 2 10
q0 2 -1.5 11l-2.5 15q0 1 -2 3q-2 1 -8 1h-12q0 1 1 3l2 4t2.5 5.5t2.5 6.5l3 2q1 1 3 3.5t4 4.5l1 1q0 2 1 2v4q0 6 -1 10l-7 14q-1 2 -2.5 4t-1.5 3q-1 3 -3 3l1 5l5 10l2 4q2 1 0 3l1 9q3 21 5 27q-9 5 -15 11q-3 5 2 13q6 8 8 11l5 10q0 8 -1 10q0 4 -1 4l-2.5 2.5
l-3.5 3.5l-4 4t-1 3q1 2 6 3q4 2 2 7q-1 3 -8 12q-2 2 -1 5q1 4 6 10q3 7 2 18q0 1 -7 24q-1 1 -1 3v2l4 6q1 2 4.5 8t5.5 10q2 3 4 9q1 3 -1 9q0 6 -1 8q0 1 -1 4l-1 3v4q1 1 2 1l3 2q3 1 5 3q6 5 15 12q6 3 9 4q1 0 5 1.5t6 2.5q4 1 10 3l5 2q3 0 7.5 2t6.5 2q8 2 14 0
q4 -1 10 -1l4 -2q4 -1 13 -1h15h19q18 0 38 -2q14 -3 19 -8q3 -4 7 -8l2 -3q2 -2 3 -1q2 0 2 3q1 2 6 4q6 2 13 2q2 -3 5 -7t4 -5q3 -5 3 -6q0 -4 -1 -8q0 -5 1 -6l2 -4q2 -2 4 -3q19 -1 28 -3l10 -1q4 0 40 2v2v3q0 4 0.5 12.5t1.5 11.5q1 7 0 9q-1 0 -3 2q-2 4 -6 8
q-1 1 -3 5l-3 9q-1 3 -3 7q-1 2 -1 6q-1 2 -4 5q-1 1 -4 1q-2 -2 -6 2l-13 13q-1 1 -3 4t-3 4q-1 2 -1 4q1 1 -3 3q-1 1 -2 1q-4 1 -17 3q-8 3 -12 3h-6q-1 -1 -4 2q-3 2 -8 8q-6 4 -9 5q-2 1 -5.5 1.5t-5.5 0.5h-17q-32 0 -42 -1q-15 0 -16 -1q-2 -2 -8 0q-4 0 -16 2h-1
q0 1 -1 1l-9 -1q-10 -1 -29 -3q-5 -2 -6 0q-1 1 -1 3q0 1 -1 1t-2 1h-6h-6h-8l-1 -1q-2 0 -2 -1l-4 -2q-2 -1 -9 -3q-1 0 -4 -1l-6 -2t-6 -1q-5 -1 -12 -1q-4 0 -5 1t-7 -1q-5 -2 -13 -8q-3 -2 -6 -5q-1 -1 1 -5q1 -1 -4 -5q-7 -7 -15 -10l-11 -6q-4 -1 -6 -5q-4 -4 -5 -6
q-2 -2 -2 -4q-2 -2 -1 -3q0 -2 3 -3q1 -1 0 -4q-3 -6 -8 -9q-6 -4 -8 -7q-4 -5 -2 -10q1 -3 1 -13v-8q0 -3 1 -4q2 0 0 -5q-2 -7 -6 -13q-2 -4 -2 -5l3 -6q1 -1 1 -3q1 -3 1 -4q1 -2 1.5 -7.5t0.5 -8.5t-1 -4l-1 -1q-1 -1 -2 -1q-3 -3 -3 -6q0 -2 4 -16q3 -12 3 -19
q1 -5 -1 -7t0 -11q0 -12 4 -28q2 -10 2 -12q2 -5 0 -6l-1 -5q-2 -6 -4 -9v-4l1 -1q0 -2 1 -2q2 -2 1 -8q0 -1 -1.5 -6t-2.5 -8q-1 -2 -1 -7l3 -3q3 -2 2 -7q0 -7 -4 -18q-2 -8 -3 -11t-1 -10v-11q0 -2 -2 -4q0 -2 -1 -2t-1 -2v-2q0 -8 1 -14l3 -21l2 -6l2 -2q1 0 2 -4t3 -14
q0 -2 -1 -3q0 -1 -3 -2l-2 -7q-1 -3 -1 -15v-6v-3q1 0 1 -9v-22q0 -14 3 -23q3 -10 9 -14q7 -6 10 -10q3 -2 5 -7l1 -2q1 0 -2 -4q0 -1 -1 -3t-3 -5.5t-3 -5.5q16 -8 29 -14l3 -3q1 -1 4.5 -4t6.5 -5q2 -1 8 -3q1 0 5.5 -1.5l7.5 -2.5q5 -1 11 -3l4 -1q5 -1 13 -1q7 0 8 1
q4 4 19 2q4 0 10 -1.5t15 -3t16 -2.5l1 -1h2q3 -8 -4 -19l-5 -11l-3 -3q-6 -3 -9 -6q-2 -2 -2 -3l-2 -4q0 -1 -2 -7q-1 -4 -7 -14l4 -4l2 -1q2 0 4 -1q2 0 10 -2q1 0 2.5 0.5t2.5 0.5h1q1 0 1 0.5t1 0.5t3.5 0.5t3.5 1.5q2 0 5.5 -1t4.5 -1q2 0 5 -0.5t5 -1.5l9 -3
q1 0 2.5 -1t2.5 -2t2 -1q3 -3 6 -5q2 -2 1 -3q0 -3 -1 -4t-3 -1v-9q1 -2 1 -4t-1 -3l-4 -2v-4v-2q1 -1 -1 -4l-2 -2q-1 -2 -3 -4l-5 -6q-7 -10 -13 -9q-6 0 -10 4q-7 3 -10 3q-1 1 -3 1l-2 1q0 1 -1 2l-3 2q-6 5 -9 9q-3 3 -3 5v3q0 1 -1 1l-2 1q-1 1 -4 1.5t-4 0.5
q-5 2 -7 -3q-2 -9 -1 -18q0 -4 2 -6l4 -6q2 -1 5 -4q2 -2 2 -3z" />
    <glyph glyph-name="Egrave" unicode="&#xc8;" 
d="M224 952q23 -1 33.5 -5t9.5 -12q0 -16 29 -22q30 -7 44 -15q14 -11 25 -24l1 -2l2 -4t26 -32l2 -3q3 -3 7.5 -8.5t10.5 -12.5q18 -23 11 -41q-6 -12 1 -22q3 -3 2 -5q0 -8 -12 -12q-9 -4 0 -26q9 -21 -10 -15q-28 3 -45 -4h-8q-15 0 -46 23q1 -4 0 -4t-4 4q-6 8 -54 12
q-4 4 -28 31q-12 14 -41 17q2 6 -23 23q-7 5 -12.5 9t-8 5.5t-2.5 0.5q-11 5 -14 9q-1 1 -3 5t-7 12t-9 16q-2 2 -3 22v7q0 15 9 21t33 24q25 19 27 23q2 5 5 6q0 1 5 1q1 0 47 -2zM199 626q37 6 40 1t12 0q28 10 29 7q1 -2 18 -4q4 -1 12.5 -1.5t12.5 -0.5q17 0 30 3
q33 6 36 3q4 -4 16 -2q25 3 27 3q3 0 43 -13l4 -3q4 0 11 -1q-5 -9 -9.5 -18l-6.5 -13l-2 -4l-3 -2q-3 -2 -10 -6.5t-15 -9.5q-14 8 -25 11q-13 3 -17 2q-38 -6 -41 -2q-3 3 -16 0q-39 -7 -40 -5q-1 5 -15 0q-27 -9 -32 -4q-3 3 -6 2q-22 -9 -24 -9l-4 -1q-4 -1 -13.5 -3.5
t-19.5 -4.5l-4 -3l-3 -1q2 -23 2 -30t-1 -10q-2 -1 -5 -18q-4 -31 5 -37q7 -6 6 -10l-5 -25q0 -1 -10 -11l29 -17q1 0 20 -3q28 6 35 11q6 5 11 0q16 -10 18 -11q11 -6 35 -5q7 0 13 0.5t9 0.5h3q11 0 32 -1q0 -3 0.5 -6t0.5 -5v-3.5v-1.5q0 -4 -1 -11l-23 -26q0 -1 -39 -23
l-7 8q-7 9 -11 7q-1 0 -3 -1t-6.5 -2.5t-8.5 -3.5q-16 -7 -20 -2q-5 4 -11 8q-3 3 -19 -9q-28 6 -30 4q-1 0 -1 1v2q-6 -38 -16 -43q-9 -4 -6 -9l9 -9l8 -11q-11 -33 -14 -35q-4 -4 -2 -8q10 -12 15 -19q8 -11 5 -15q-4 -12 -6 -20q-5 -12 2 -22q11 -17 8 -22l-4 -4
q39 5 41 0t11 -2q25 6 26 2q0 -3 10 -4q26 -5 27 -1q2 4 11 2q35 -5 36 -3q3 3 13 2q44 -2 48 1t12 1q25 -6 26 -10q1 -2 12 -7l26 -10l16 -17l-9 -22q-8 -17 -11 -18q-29 0 -35 -8q-6 -7 -13 -7q-29 2 -33 4q-7 3 -17 2q-44 -6 -55 -4q-9 1 -46 3q-11 0 -19 1q-12 2 -29 -3
q-2 0 -9.5 -1.5t-13.5 -2.5q-18 -3 -35 1q-8 2 -14.5 3.5t-9.5 2.5l-3 1l-4 -1q-4 -1 -13.5 -2.5t-19.5 -3.5l-6 -3l-2 -5q-12 32 -15 41q-1 3 8 29q-10 10 -10 13q0 2 3 4q7 3 7 8q5 21 -1 21q-3 0 -5 1t-1 3q7 23 3 29q-5 7 -3 9q14 26 8 30q-5 3 -4 12q1 22 8 27q6 4 5 6
l-8 6q-7 5 6 11l-1 3q-1 2 -3 7t-5 10q-11 18 -2 27q13 13 8 17q-2 1 -6 11q-9 24 -3 29q5 4 4 10l2 17q0 2 4 10q-12 20 -6 23q7 1 5 6q-5 15 -7 27q-2 5 -2 17q0 24 4 27q5 3 4 8q-3 23 -8 27q-7 4 -4 11q2 3 4 9t2 7q3 8 -2 73q20 -2 23 -6q4 -6 7 -2l16 21q0 1 12 10
q16 -6 21 -11q6 -5 12 -3z" />
    <glyph glyph-name="Eacute" unicode="&#xc9;" 
d="M387 963q2 -1 10 2q7 3 56 -28q-6 -21 8 -41q8 -13 7 -20q0 -6 -6 -11l-6 -3q-1 -1 -2 -1.5t-2 -0.5q-8 -3 5 -25q-23 -28 -32 -31q-9 -4 -60 -33q-27 -16 -33 -13q-5 3 -18 -10q-40 -37 -60 -40q-16 -2 -37 -13q-13 -8 -21 -8q-2 0 -8 2q-2 1 -57 26q-7 19 2 27
q10 9 -11 25q6 8 26 38l23 32q22 50 31 53q10 2 33 32q6 8 7 13q1 7 23 16q21 9 26 14q4 5 16 8q-1 -9 2.5 -13t10.5 -3q12 1 9 7q-4 7 -3 10.5t6 2.5q7 1 19 -3q9 -3 18.5 -6t13.5 -4zM197 626q37 6 40 1t12 0q28 10 29 7q1 -2 18 -4q4 -1 12.5 -1.5t12.5 -0.5q17 0 30 3
q33 6 36 3q4 -4 16 -2q25 3 27 3q3 0 43 -13l4 -3q4 0 11 -1q-5 -9 -9.5 -18l-6.5 -13l-2 -4l-3 -2q-3 -2 -10 -6.5t-15 -9.5q-14 8 -25 11q-13 3 -17 2q-38 -6 -41 -2q-3 3 -16 0q-39 -7 -40 -5q-1 5 -15 0q-27 -9 -32 -4q-3 3 -6 2q-22 -9 -24 -9l-4 -1q-4 -1 -13.5 -3.5
t-19.5 -4.5l-3 -3l-4 -1q2 -23 2 -30t-1 -10q-2 -1 -5 -18q-4 -31 5 -37q7 -6 6 -10l-5 -25q0 -1 -10 -11q28 -17 29 -17l20 -3q28 6 35 11q6 5 11 0q16 -10 18 -11q11 -6 35 -5q7 0 13 0.5t9 0.5h3q11 0 32 -1q0 -3 0.5 -6t0.5 -5v-3.5v-1.5q0 -4 -1 -11l-23 -26
q0 -1 -39 -23l-7 8q-7 9 -11 7q-1 0 -3 -1t-6.5 -2.5t-8.5 -3.5q-16 -7 -20 -2q-5 4 -11 8q-3 3 -19 -9q-28 6 -30 4q-1 0 -1 1v2q-6 -38 -16 -43q-9 -4 -6 -9l9 -9l8 -11q-11 -33 -14 -35q-4 -4 -2 -8q10 -12 15 -19q8 -11 5 -15q-4 -12 -6 -20q-5 -12 2 -22q11 -17 8 -22
l-4 -4q39 5 41 0t11 -2q25 6 26 2q0 -3 10 -4q26 -5 27 -1q2 4 11 2q35 -5 36 -3q3 3 13 2q44 -2 48 1t12 1q25 -6 26 -10q1 -2 12 -7l26 -10l16 -17l-9 -22q-8 -17 -11 -18q-29 0 -35 -8q-6 -7 -13 -7q-29 2 -33 4q-7 3 -17 2q-44 -6 -55 -4q-9 1 -46 3q-11 0 -19 1
q-12 2 -29 -3q-2 0 -10 -1.5t-13 -2.5q-18 -3 -35 1q-8 2 -14.5 3.5t-9.5 2.5l-3 1l-4 -1q-4 -1 -13.5 -2.5t-19.5 -3.5l-6 -3l-2 -5q-12 32 -15 41q-1 3 8 29q-10 10 -10 13q0 2 3 4q7 3 7 8q4 21 -1 21q-3 0 -5 1t-1 3q7 23 3 29q-5 7 -3 9q14 26 8 30q-5 3 -4 12
q1 22 8 27q6 4 5 6l-8 6q-7 5 6 11l-1 3q-1 2 -3 7t-5 10q-11 18 -2 27q13 13 8 17q-2 1 -6 11q-9 24 -3 29q5 4 4 10l2 17q0 2 4 10q-12 20 -6 23q7 1 5 6q-5 15 -7 27q-2 5 -2 17q0 24 4 27q5 3 4 8q-3 23 -8 27q-7 4 -4 11q2 3 4 9t2 7q3 8 -2 73q20 -2 23 -6q5 -7 8 -2
q15 19 15 21q0 1 12 10q16 -6 21 -11q6 -5 12 -3z" />
    <glyph glyph-name="Ecircumflex" unicode="&#xca;" 
d="M340 879q38 -35 46 -37q10 -2 15 -4q54 -27 56 -49q2 -23 3 -26q2 -6 2 -19t-1 -19q-4 -22 -35 -31q-43 9 -47 2q-6 -8 -30 7q-8 5 -12 5q-7 0 -42 30l-6 6q-6 6 -16 6q5 -8 0.5 -11.5t-19.5 -2.5q-30 2 -44 -40q-22 -9 -35 -9t-15 10q-5 17 -26 23q-7 2 -15 8q-3 2 -2 7
q2 13 12 38q12 28 44 49q32 19 32 20q27 24 70 42q18 7 34 7q19 0 31 -12zM197 626q37 6 40 1t12 0q28 10 29 7q1 -2 18 -4q4 -1 12.5 -1.5t12.5 -0.5q17 0 30 3q33 6 36 3q4 -4 16 -2q25 3 27 3q3 0 43 -13l4 -3q4 0 11 -1q-5 -9 -9.5 -18l-6.5 -13l-2 -4l-3 -2
q-3 -2 -10 -6.5t-15 -9.5q-14 8 -25 11q-13 3 -17 2q-38 -6 -41 -2q-3 3 -16 0q-39 -7 -40 -5q-1 5 -15 0q-27 -9 -32 -4q-3 3 -6 2q-22 -9 -24 -9l-4 -1q-4 -1 -13.5 -3.5t-19.5 -4.5l-3 -3l-4 -1q2 -23 2 -30t-1 -10q-2 -1 -5 -18q-4 -31 5 -37q7 -6 6 -10l-5 -25
q0 -1 -10 -11q28 -17 29 -17l20 -3q28 6 35 11q6 5 11 0q16 -10 18 -11q11 -6 35 -5q7 0 13 0.5t9 0.5h3q11 0 32 -1q0 -3 0.5 -6t0.5 -5v-3.5v-1.5q0 -4 -1 -11l-23 -26q0 -1 -39 -23l-7 8q-7 9 -11 7q-1 0 -3 -1t-6.5 -2.5t-8.5 -3.5q-16 -7 -20 -2q-5 4 -11 8
q-3 3 -19 -9q-28 6 -30 4q-1 0 -1 1v2q-6 -38 -16 -43q-9 -4 -6 -9l9 -9l8 -11q-11 -33 -14 -35q-4 -4 -2 -8q10 -12 15 -19q8 -11 5 -15q-4 -12 -6 -20q-5 -12 2 -22q11 -17 8 -22l-4 -4q39 5 41 0t11 -2q25 6 26 2q0 -3 10 -4q26 -5 27 -1q2 4 11 2q35 -5 36 -3q3 3 13 2
q44 -2 48 1t12 1q25 -6 26 -10q1 -2 12 -7l26 -10l16 -17l-9 -22q-8 -17 -11 -18q-29 0 -35 -8q-6 -7 -13 -7q-29 2 -33 4q-7 3 -17 2q-44 -6 -55 -4q-9 1 -46 3q-11 0 -19 1q-12 2 -29 -3q-2 0 -10 -1.5t-13 -2.5q-18 -3 -35 1q-8 2 -14.5 3.5t-9.5 2.5l-3 1l-4 -1
q-4 -1 -13.5 -2.5t-19.5 -3.5l-6 -3l-2 -5q-12 32 -15 41q-1 3 8 29q-10 10 -10 13q0 2 3 4q7 3 7 8q4 21 -1 21q-3 0 -5 1t-1 3q7 23 3 29q-5 7 -3 9q14 26 8 30q-5 3 -4 12q1 22 8 27q6 4 5 6l-8 6q-7 5 6 11l-1 3q-1 2 -3 7t-5 10q-11 18 -2 27q13 13 8 17q-2 1 -6 11
q-9 24 -3 29q5 4 4 10l2 17q0 2 4 10q-12 20 -6 23q7 1 5 6q-5 15 -7 27q-2 5 -2 17q0 24 4 27q5 3 4 8q-3 23 -8 27q-7 4 -4 11q2 3 4 9t2 7q3 8 -2 73q20 -2 23 -6q5 -7 8 -2q15 19 15 21q0 1 12 10q16 -6 21 -11q6 -5 12 -3z" />
    <glyph glyph-name="Edieresis" unicode="&#xcb;" 
d="M476 814q3 -9 7 -10q1 -1 1 -4q0 -13 -19 -71l1 -9q0 -10 -77 -33q-9 3 -36 18q-28 18 -43 40q4 31 1 44q-3 15 27 32q35 22 56 33q4 2 5 2q18 1 77 -42zM242 824q3 -6 13 -21q13 -19 4 -54q-3 -10 -15 -32q-13 -24 -42 -21q-65 5 -71 14q-8 12 -16 19q-4 7 -3 11
q2 4 -9 45q0 1 9 19t39 36q35 20 63 3q27 -16 28 -19zM197 626q37 6 40 1t12 0q28 10 29 7q1 -2 18 -4q4 -1 12.5 -1.5t12.5 -0.5q17 0 30 3q33 6 36 3q4 -4 16 -2q25 3 27 3q3 0 43 -13l4 -3q4 0 11 -1q-5 -9 -9.5 -18l-6.5 -13l-2 -4l-3 -2q-3 -2 -10 -6.5t-15 -9.5
q-14 8 -25 11q-13 3 -17 2q-38 -6 -41 -2q-3 3 -16 0q-39 -7 -40 -5q-1 5 -15 0q-27 -9 -32 -4q-3 3 -6 2q-22 -9 -24 -9l-4 -1q-4 -1 -13.5 -3.5t-19.5 -4.5l-3 -3l-4 -1q2 -23 2 -30t-1 -10q-2 -1 -5 -18q-4 -31 5 -37q7 -6 6 -10l-5 -25q0 -1 -10 -11q28 -17 29 -17
l20 -3q28 6 35 11q6 5 11 0q16 -10 18 -11q11 -6 35 -5q7 0 13 0.5t9 0.5h3q11 0 32 -1q0 -3 0.5 -6t0.5 -5v-3.5v-1.5q0 -4 -1 -11l-23 -26q0 -1 -39 -23l-7 8q-7 9 -11 7q-1 0 -3 -1t-6.5 -2.5t-8.5 -3.5q-16 -7 -20 -2q-5 4 -11 8q-3 3 -19 -9q-28 6 -30 4q-1 0 -1 1v2
q-6 -38 -16 -43q-9 -4 -6 -9l9 -9l8 -11q-11 -33 -14 -35q-4 -4 -2 -8q10 -12 15 -19q8 -11 5 -15q-4 -12 -6 -20q-5 -12 2 -22q11 -17 8 -22l-4 -4q39 5 41 0t11 -2q25 6 26 2q0 -3 10 -4q26 -5 27 -1q2 4 11 2q35 -5 36 -3q3 3 13 2q44 -2 48 1t12 1q25 -6 26 -10
q1 -2 12 -7l26 -10l16 -17l-9 -22q-8 -17 -11 -18q-29 0 -35 -8q-6 -7 -13 -7q-29 2 -33 4q-7 3 -17 2q-44 -6 -55 -4q-9 1 -46 3q-11 0 -19 1q-12 2 -29 -3q-2 0 -10 -1.5t-13 -2.5q-18 -3 -35 1q-8 2 -14.5 3.5t-9.5 2.5l-3 1l-4 -1q-4 -1 -13.5 -2.5t-19.5 -3.5l-6 -3
l-2 -5q-12 32 -15 41q-1 3 8 29q-10 10 -10 13q0 2 3 4q7 3 7 8q4 21 -1 21q-3 0 -5 1t-1 3q7 23 3 29q-5 7 -3 9q14 26 8 30q-5 3 -4 12q1 22 8 27q6 4 5 6l-8 6q-7 5 6 11l-1 3q-1 2 -3 7t-5 10q-11 18 -2 27q13 13 8 17q-2 1 -6 11q-9 24 -3 29q5 4 4 10l2 17q0 2 4 10
q-12 20 -6 23q7 1 5 6q-5 15 -7 27q-2 5 -2 17q0 24 4 27q5 3 4 8q-3 23 -8 27q-7 4 -4 11q2 3 4 9t2 7q3 8 -2 73q20 -2 23 -6q5 -7 8 -2q15 19 15 21q0 1 12 10q16 -6 21 -11q6 -5 12 -3z" />
    <glyph glyph-name="Igrave" unicode="&#xcc;" 
d="M256 962q45 -1 43 -18q0 -16 29 -22q30 -7 44 -15q14 -11 25 -24q1 -1 1 -2q1 -2 2 -3q2 -4 26 -33l20 -23q18 -23 11 -41q-6 -12 1 -22q3 -3 2 -6q0 -7 -12 -12q-9 -4 0 -26q4 -10 2 -13.5t-12 -0.5q-28 3 -45 -4q-2 -1 -8 -1q-15 0 -46 23q1 -4 0 -4t-4 4q-7 9 -54 13
q-4 4 -28 31q-12 14 -41 17q1 3 -5 8t-18 14q-23 17 -23 16q-11 5 -14 9q-1 1 -3 5t-7 12t-9 16q-2 2 -3 22v6q0 15 9 21t33 24q25 19 27 23q2 5 5 6q0 1 5 1q24 0 47 -1zM313 646q39 1 41 -4q2 -4 15 0l27 4q1 -1 43 -4q8 -5 9 -5q1 -1 23 -29q-5 -11 -6 -11l-18 -13
q1 -14 -3 -18q-5 -5 -9 -2q-16 10 -19 7q-4 -4 -16 -12q-7 -5 -13 -11q-2 -2 -24 9q0 -26 3 -35q3 -10 0 -16q-2 -3 -5.5 -11.5t-5.5 -13.5q-6 -17 -3 -20l8 -10q7 -9 1 -29q-10 -28 -2 -30q7 -1 6 -10q-6 -23 -13 -30q-6 -6 -2 -8q11 -13 9 -15q-3 -3 -11 -14
q12 -6 16.5 -9.5t1.5 -6.5q-5 -5 -7 -13q-5 -22 3 -27t7 -11q-5 -18 -7 -31q-3 -11 0 -16q12 -34 10 -35q-2 -2 1 -17q4 -22 3 -23q1 0 16 -21q23 6 24 5q2 -2 22 -9q7 -3 16 -7l6 -3l2 -1l14 -12q8 -30 8 -31q0 -3 -12 -34l-8 7q-9 7 -14 4q-22 -18 -24 -20q-3 -6 -8 -6
h-15.5h-12.5h-5t-46 -5q3 5 2 10q0 1 -1 3l-1 2q-31 -17 -34 -20q-2 -2 -5 -2t-5 1q-31 15 -35 11q-4 -6 -18 -1q-15 5 -20 7q-8 3 -16 -2q-3 -1 -8 -3q-3 -1 -4 -2q-2 -1 -5 4q-17 35 -21 42q-1 2 -2.5 5.5t-4 9t-3.5 8.5q18 11 24 19q3 5 9 9q25 12 27 12q1 0 39 13
q-1 4 4 18q4 11 1 49q-3 26 2 28q4 1 7 14q5 25 -6 28t-8 9q8 24 10 27q3 4 2 7q-2 5 -7 29q-3 14 1 20q13 18 9 21q-2 1 -4 11q-3 25 4 35q6 8 4 15l-4 18t-3 13t-1 5q-2 5 1 10q12 19 4 21q-7 3 -11 13q-14 28 -9 33q5 4 2 4h-2q-30 -1 -30 1q-1 3 -6 6q-14 10 -14 11
l-25 11q-7 16 -5 18l1 4q1 3 3 10t5 14l3 7q3 6 7 7q25 6 27 10q1 3 6 3h6q43 0 44 -3q1 -1 38 0z" />
    <glyph glyph-name="Iacute" unicode="&#xcd;" 
d="M401 972q3 -2 10 1q8 3 56 -27q-6 -21 8 -41q8 -13 7 -20q0 -7 -6 -11t-10 -6q-7 -3 5 -24q-23 -28 -32 -31q-9 -5 -60 -33q-27 -17 -33 -14t-18 -9q-40 -37 -60 -40q-16 -2 -37 -13q-13 -8 -21 -8q-2 0 -8 2q-2 1 -57 26q-7 19 2 27q10 9 -11 25q6 8 26 38l22 31
q22 50 32 53q9 2 33 33q6 8 7 12q2 8 23 17q23 10 26 13q4 5 16 8q-1 -9 2.5 -12.5t10.5 -2.5q12 1 9 7q-4 7 -3 10.5t6 2.5q7 1 19 -3q9 -3 18.5 -6t13.5 -4zM287 646q39 1 41 -4q2 -4 15 0l27 4q1 -1 43 -4q8 -5 9 -5q0 -1 23 -29q-5 -11 -6 -11l-18 -13q1 -14 -3 -18
q-5 -5 -9 -2q-16 10 -19 7q-6 -6 -15 -12q-11 -8 -14 -11q-2 -2 -24 9q0 -23 4 -35q3 -10 0 -16q-7 -14 -12 -25q-6 -17 -3 -20l8 -10q7 -9 1 -29q-10 -28 -2 -30q7 -1 6 -10q-6 -23 -13 -30q-6 -6 -2 -8q11 -13 9 -15q-4 -3 -11 -14q12 -6 16.5 -9.5t1.5 -6.5q-5 -5 -7 -13
q-4 -22 4 -27q7 -4 6 -11q-5 -18 -7 -31q-3 -11 0 -16q12 -34 10 -35q-2 -2 1 -17q4 -22 3 -23q1 0 16 -21q23 6 24 5q2 -2 22 -9q7 -3 16 -7l6 -3l2 -1l14 -12q8 -30 8 -31q0 -3 -12 -34l-8 7q-9 7 -14 4q-22 -18 -24 -20q-3 -6 -8 -6h-33q-1 0 -46 -5q3 5 2 10q0 1 -1 3
l-1 2q-31 -17 -34 -20q-2 -2 -5 -2t-5 1q-31 15 -35 11q-4 -6 -18 -1q-15 5 -20 7q-8 3 -16 -2q-3 -1 -8 -3q-3 -1 -4 -2q-2 -1 -5 4q-17 35 -21 42q-1 2 -2.5 5.5t-4 9t-3.5 8.5q18 11 24 19q3 5 9 9q25 12 27 12t40 13q-2 5 3 18q4 11 1 49q-3 26 2 28q4 1 7 14
q5 25 -6 28q-10 3 -7 9q2 6 4 12.5t3 10t2 4.5q3 4 2 7q-2 5 -7 29q-3 14 1 20q13 19 10 21q-3 1 -5 11q-3 25 4 35q6 8 4 15l-4 18t-3 13t-1 5q-2 5 1 10q12 19 4 21q-7 3 -11 13q-14 28 -9 33q5 4 2 4h-2q-30 -1 -30 1q-1 3 -6 6q-14 10 -14 11l-25 11q-7 16 -5 18l1 4
q1 3 3 10t5 14l3 7q3 6 7 7q26 6 28 10q2 3 5 3h6q43 0 44 -3q1 -1 38 0z" />
    <glyph glyph-name="Icircumflex" unicode="&#xce;" 
d="M357 888q38 -35 47 -37q5 -1 15 -5q53 -27 55 -48t4 -26q2 -6 2 -20q0 -6 -2 -18q-5 -24 -34 -32q-43 9 -47 3q-6 -8 -30 7q-8 5 -13 5q-8 0 -42 30l-5 5q-7 7 -17 7q6 -8 1 -12t-20 -3q-29 2 -43 -39q-22 -9 -36 -9q-12 0 -14 10q-5 17 -27 23q-8 2 -14 7q-4 2 -2 8
q2 15 11 37q12 27 45 49q26 16 31 21q27 24 71 42q18 7 34 7q18 0 30 -12zM308 646q39 1 41 -4q1 -4 15 0l27 4q1 -1 43 -4q8 -5 9 -5q1 -1 23 -29q-5 -11 -6 -11l-18 -13q2 -14 -3 -18q-5 -5 -9 -2q-16 10 -19 7q-6 -6 -15 -12q-11 -8 -14 -11q-2 -2 -24 9q0 -23 4 -35
q3 -10 0 -16q-7 -14 -12 -25q-6 -17 -3 -20l8 -10q7 -9 1 -29q-10 -28 -2 -30q7 -1 6 -10q-6 -23 -13 -30q-6 -6 -2 -8q11 -13 9 -15q-3 -3 -11 -14q12 -6 16.5 -9.5t1.5 -6.5q-5 -5 -7 -13q-4 -22 4 -27q7 -4 6 -11q-5 -18 -7 -31q-3 -11 0 -16q12 -34 10 -35q-2 -2 1 -17
q4 -22 3 -23q1 0 16 -21q23 6 24 5q2 -2 22 -9l24 -11l14 -12q8 -30 8 -31q0 -3 -12 -34l-8 7q-9 7 -14 4q-22 -18 -24 -20q-3 -6 -8 -6h-33q-1 0 -46 -5q3 5 2 10q0 1 -1 3l-1 2q-31 -17 -34 -20q-2 -2 -5 -2t-5 1q-31 15 -35 11q-4 -6 -18 -1q-15 5 -20 7q-8 3 -16 -2
q-3 -1 -7 -3q-4 -1 -5 -2q-2 -1 -5 4q-16 35 -21 42q-1 2 -2.5 5.5t-4 9t-3.5 8.5q18 11 24 19q3 5 9 9q26 12 27 12t39 13q-1 4 4 18q4 11 1 49q-3 26 2 28q4 1 7 14q5 25 -6 28t-8 9q8 24 10 27q3 4 2 7q-2 5 -7 29q-3 14 1 20q13 19 10 21q-3 1 -5 11q-3 25 4 35
q6 8 4 15l-4 18t-3 13t-1 5q-2 5 1 10q12 19 4 21q-7 3 -11 13q-13 28 -9 33q5 4 2 4h-2q-30 -1 -30 1q-2 3 -6 6q-14 10 -14 11l-25 11q-7 16 -5 18l1 4q1 3 3 10t5 14l3 7q3 6 7 7q26 6 28 10q1 3 5 3h6q42 0 44 -3q1 -1 38 0z" />
    <glyph glyph-name="Idieresis" unicode="&#xcf;" 
d="M490 823q3 -10 7 -11q1 -1 1 -3q0 -13 -19 -71v-9q0 -11 -76 -33q-11 4 -37 18q-26 17 -42 40q4 31 1 44q-3 15 27 32q35 22 56 33q2 1 5 1q19 1 77 -41zM256 833q5 -10 13 -22q12 -18 3 -53q-4 -13 -15 -33q-12 -23 -41 -20q-65 5 -71 14q-7 10 -16 18q-5 9 -4 12
q2 6 -8 44q0 3 8 19q9 19 40 37q35 20 62 3q28 -17 29 -19zM303 646q39 1 41 -4q2 -4 15 0q6 1 15 2l8 2h3q1 -1 44 -4q8 -5 9 -5q0 -1 23 -29q-5 -11 -6 -11l-18 -13q1 -14 -3 -18q-5 -5 -9 -2q-16 10 -19 7q-4 -4 -16 -12q-7 -5 -13 -11q-2 -2 -24 9q0 -26 3 -35
q3 -10 0 -16q-7 -14 -12 -25q-6 -16 -2 -20l8 -10q7 -9 1 -29q-11 -28 -3 -30t7 -10q-6 -23 -13 -30q-6 -6 -2 -8q11 -12 8 -15q-1 -1 -2 -3t-3.5 -5t-4.5 -6q12 -5 16 -9t1 -7q-5 -5 -7 -13q-4 -22 4 -27t7 -11q-7 -25 -8 -31q-3 -11 0 -16q12 -34 11 -35q-2 -2 1 -17
q4 -22 3 -23q1 0 16 -21q23 6 24 5q2 -2 22 -9q7 -3 16 -7l6 -3l2 -1l14 -12q8 -30 8 -31q0 -3 -12 -34l-9 7q-8 7 -13 4q-24 -19 -25 -20q-3 -6 -7 -6h-34l-45 -5q3 5 2 10q0 1 -1 3l-1 2q-31 -17 -34 -20q-2 -2 -5 -2q-4 0 -6 1q-30 15 -34 11q-4 -6 -18 -1q-15 5 -20 7
q-8 3 -16 -2q-3 -1 -8 -3q-3 -1 -4 -2q-2 -1 -6 4q-4 9 -9 19.5t-7.5 15.5l-3.5 7t-2.5 5.5t-4 9t-3.5 8.5q16 10 23 19q2 4 10 9q25 12 27 12q1 0 39 13q-2 5 3 18t2 49q-3 26 2 28q4 1 7 14q5 25 -6 28t-8 9q8 24 10 27q3 4 2 7q-2 5 -7 29q-3 14 1 20q13 18 9 21
q-3 1 -5 11q-3 25 4 35q6 10 5 15q-6 28 -9 36q-1 4 2 10q12 19 4 21q-7 3 -11 13q-14 29 -10 33q5 4 2 4h-2q-30 -1 -30 1q-2 4 -5 6q-14 10 -14 11l-25 11q-7 16 -5 18l1 4q1 3 3 10t5 14v1.5t2 5.5q3 5 8 7q25 6 27 10q1 3 6 3h5q44 0 45 -3q1 -1 38 0z" />
    <glyph glyph-name="Eth" unicode="&#xd0;" 
d="M184 627q8 0 18 2q18 3 28 2q22 -2 29 1q6 2 8 2q5 0 7 -1q27 -11 28 -9q2 2 21 2q28 -2 33 1t83 -11q7 -9 8 -15q2 -8 6 -11q11 -6 16 -9q10 -6 15 -22q1 -4 2.5 -12.5t2.5 -10.5q5 -14 11 -22q16 -19 8 -24t-4 -8q9 -8 12 -12t1 -5q-5 -5 -2 -11q10 -33 9 -34t-1 -3
q-5 -29 -8 -32q-4 -6 0 -10q1 -1 9 -15q7 -10 7 -19q0 -6 -1 -8q-2 -9 -3 -15t-1 -9v-3q0 -9 1 -25q3 -28 -2 -36q-5 -9 -3 -15q6 -24 3 -25t-3 -13q0 -22 -1 -23t-13 -32q-1 -2 -6 -4q-3 0 -4 -0.5t0 -2.5l10 -18v-2q1 -2 1.5 -6t0.5 -8q-2 -2 -9 -6.5t-12 -8.5
q-14 -11 -19 -19q-14 -20 -15 -21q-9 -9 -22 -24q-12 -4 -13 0q-3 4 -11 1q-23 -7 -25 -5l-27 -2q-38 -2 -38 0q-2 2 -15 2h-36q-3 1 -13 0q-31 -3 -34 -6t-10 -3q-43 2 -46 4q-3 3 -10 1q-13 -3 -16 -3l-31 -7q-14 16 -14 17l-11 39q8 18 8 19q2 5 7 7q2 1 8 3.5t9 3.5
q10 6 19 18q6 8 16 24q6 10 8 60q1 29 -1 34q-1 3 0 15v15h-5q-30 6 -33 3q-2 -2 -16 1l-23 5l-31 20v7v28q3 6 15.5 9t36.5 5.5t34 4.5q11 2 27 4q0 12 -4 15q-5 3 -3 14q2 16 2 24q0 11 -2 23q-6 27 1 31t4 13q-5 28 -9 34q-5 6 -1 11q14 18 13 19q1 1 5 9q-17 26 -19 33
q-1 6 -7 7l-26 4q-3 0 -26 8v18q0 9 1 23q35 6 36 4q1 -3 12 -1q24 6 30 0q5 -4 15 -3zM234 578l-1 -8l-3 -22q0 -10 4 -11q5 -2 -6 -22q-3 -4 2 -12q5 -9 1 -25q-1 -8 3 -9q1 -1 1 -4t-3 -8.5t-7 -12.5q-3 -5 2 -9q4 -6 9 -32v-1v-3.5v-4.5v-6.5v-7.5q-2 -20 0 -28
q0 -6 1 -8q77 0 84 -1q11 -2 18 -7q17 -14 18 -15q2 -2 22 -15q-4 -24 -29 -36q-24 -12 -25 -12q-47 5 -49 3q-6 -8 -11 -7q-10 0 -26 2q0 -3 -0.5 -11.5t-0.5 -14.5q-15 -3 -3 -10q10 -7 -3 -46q-3 -10 1 -19q4 -13 5 -14q-3 -25 -4 -26q-1 -2 13 -22q22 5 23 6q11 0 31 -1
l26 -1q1 -1 30 2q6 2 5 7q-2 7 29 16q6 1 7 5q0 6 15 35q18 35 23 37t-1 52v2t0.5 3.5l1 5t1.5 6.5l2 8q4 19 4 23q6 33 1 53q-4 18 -1 40q1 10 6 13q4 3 -9 20q-3 4 -1 9q3 4 7 26q2 8 -2 8q-3 1 0 29q0 4 -1 6q-3 6 -8 25q-2 10 -4 12q-3 5 -1 7q-32 19 -33 20l-22 4
q-13 3 -15 1q-4 -1 -33 5q-25 6 -30 5q-5 -2 -64 -4z" />
    <glyph glyph-name="Ntilde" unicode="&#xd1;" 
d="M429 724q-1 -5 -5.5 -3t-9.5 2q-14 0 -16 -1h-1q-21 -5 -31 -4q-17 2 -27 13q-1 1 -2 2.5t-2 2.5q-6 4 -10 4q-6 0 -35 31l-2 3h-1q-1 1 -6 4.5t-8 4.5q-1 0 -7 2l-6 2q-10 -6 -12 -8t-6 -4q-13 -8 -28.5 -25.5t-23.5 -35.5q-22 -6 -32 -5q-12 1 -12 9q-1 15 -23 23
q-5 1 -12 8q-3 1 -1 7q2 12 13 33q13 23 44 40q8 4 15.5 8.5t11.5 6.5l3 1q13 10 31 19q9 11 28 15q1 -1 3 -1t3 -1h1q21 5 31 4q17 -2 27 -13l5 -5q6 -4 9 -4q7 0 35 -30l3 -3q10 -6 14 -9q4 -4 12 -4q2 1 2 3q14 -4 25 7l9 9t4.5 5.5t2 4.5t2.5 7t5 11q22 6 33 5
q12 -1 12 -10q2 -15 22 -23q5 -1 12 -8q3 -2 2 -6q-2 -11 -14 -34q-13 -24 -43 -40q-8 -4 -15.5 -8.5t-11.5 -5.5l-3 -2q-4 -3 -5.5 -2t-8.5 -2zM188 642q24 -2 29 1q6 4 7 0q10 -22 12 -22q1 1 2.5 -1t2.5 -6q2 -6 3 -10t2 -7t2 -4t2 -1q5 2 14 -28q5 -14 9 -20q3 -4 3 -9
q-1 -15 6 -21q6 -5 5 -7l-3 -7q-3 -7 9 -16q16 -13 10 -18q-5 -5 1 -11q11 -9 11 -10q1 0 15 -21h-9q-1 0 -2 -1q-3 -1 -5 -2q23 -13 27 -17q3 -5 1 -6l-8 -5q-8 -5 6 -11q1 0 3 -1t3 -1q4 -1 8 -32q-2 -2 -4 -7t9 -6q0 -1 -0.5 -2.5t-1 -5t-0.5 -6.5q-1 -12 6 -15
q9 -5 13 -8.5t3 -5.5q-3 -2 2 -7q7 -5 9.5 -7t1.5 -2l8 -14q8 -14 0 -15q-7 -1 -5 -5q10 -16 7 -18q-2 -2 2 -7q15 -15 19 -16q6 -2 4 -5l-8 -13q0 -5 -1 -14l12 -12q3 0 15 -4q9 38 2 50q-7 11 -4 32q3 22 3 23l2 3q1 3 3.5 8.5t5.5 11.5q-13 1 -14 3q0 1 -2 3.5t-6 7
t-8 10.5q7 8 15 7h5l-2 2q-1 1 -8 5t4 14q8 8 3 11q-8 4 -9 5q-8 16 -6 18l9 9l1 2l3 3t4 5q8 10 -1 21q-9 12 -10 13l-1 2q0 3 -0.5 10t-1.5 14q3 4 7.5 11t5.5 9q4 7 4 44q0 20 -1 22q-2 5 -1 6q7 16 6 17t-3 15q-1 11 -1 17q1 0 7 17q-4 5 -5 7.5t1 3.5l4 2q11 9 17 15
l2 10q11 0 20.5 -0.5t13.5 -1.5h4q4 0 28 -10q-5 -11 -9 -14q-5 -2 -5 -7q0 -15 3 -21t2 -10q-4 -16 2 -18q6 0 6 -8q0 -25 -6 -25q-5 0 -7 -5q-1 -3 -1.5 -6t-1.5 -4v-2q-1 -2 10 -19q-7 -6 -7 -8q5 -9 6 -11q14 -23 3 -28q-10 -6 -13 -1l9 -17q9 -16 4 -27q-8 -17 -8 -19
q-3 -10 1 -18l4 -8q4 -7 1 -55q0 -4 -0.5 -7.5t-1.5 -5.5v-2l5 -15l3 -10q3 -11 -10 -16q-9 -4 0 -23q4 -7 9 -19t5 -13q-8 -10 -15 -14q-4 -3 -1 -4q5 -2 6 -4q3 -3 -4 -10q2 -3 3 -6.5t2 -5.5l1 -2q2 -4 12 -31q-3 2 -10 -1t-7 -8q2 -20 5 -22q5 -5 5 -7q-2 -11 -2 -18
l-5 -19q-4 -1 -11.5 -2.5t-11.5 -2.5q-8 -4 -8 -5q6 -9 7 -9q0 -1 3 -4q-9 -2 -28 -6t-28 -6q-27 -7 -32 -4q-14 11 -23 9t-11 4q-2 3 -4 8l-4 6l-12 17q-4 2 -6 4t-2 3.5t1 2.5q4 4 3 7q-7 18 -10 18q-5 -2 -6 6q-3 14 -7 18t-3 8q6 11 3 14q-1 1 -4 3.5t-5 4.5q7 14 0 15
q-6 3 -6 5q6 24 -7 26t-16 16q-3 15 -5.5 21t-5.5 5q-6 -3 -18 14q-5 11 -2 14q4 4 8 7q-2 1 -6 2.5t-6 2.5q-7 3 1 17q6 9 3 11l-14 10h14q1 0 11 -8l-14 16q-4 4 -20 14q-1 14 5 17t3 6q-1 2 -4 4q-6 8 -7 7l-1 1q-2 1 -4.5 3t-5.5 4l2 19v3q1 3 2.5 10t2.5 14l-18 4
q-16 3 -23 39q-6 -1 -11.5 -1.5t-8.5 -1.5h-2l-2 -1q-2 -1 -5.5 -2.5t-7.5 -3.5l7 -7t5 -4l2 -2q1 -2 15 -12q-3 -5 -9 -17q-6 -9 -4 -15q6 -16 5 -18q-1 -3 -3 -4l-12 -8q-10 -7 4 -11q1 -1 12 -4q11 -5 -3 -17q-5 -4 -7.5 -7.5t-2.5 -6t3 -3.5q3 -2 6.5 -4t4.5 -2l-6 -9
l-5 -9l5 -5q4 -4 -17 -57q3 -2 5 -3.5t2 -0.5q1 0 22 -23q-6 -3 -8 -6l-4 -4l-2 -1q-10 -9 -2 -11q9 -2 6 -9q0 -1 -4 -6q-3 -7 13 -46q-3 -5 -11 -6q-5 -3 -6 -4l8 -8l2 -1q1 0 3 -0.5t4 -1.5q-8 -16 -10 -24q-3 -5 -1 -8q6 -13 0 -13q-6 -1 -6 -4v-12l2 -1q2 -2 5.5 -4.5
t6.5 -5.5q-16 -4 -25 -1q-6 3 -10 2q-9 -4 -13 -8t-3 -7q3 -6 -1 -6q-22 -3 -23 -3h-19q-7 16 -10 21q-5 3 -2 5q10 15 9 19t-7 7q-17 6 -20 10q-2 5 2 7l5 2q1 0 2 16q2 21 3 22t19 16l-3 3q-2 3 -16 0q-1 -1 -3.5 -1h-5.5q-2 -1 -3.5 0.5t-1.5 4.5q0 4 1 7q8 0 8 3
q0 4 1 8l2 13q6 6 17 16q-4 2 -14 8q-6 4 -4 5q5 1 9 2.5t6 2.5h2l6 3q-21 18 -22 19q0 2 -9 6q13 20 13 21q3 3 13 18q-12 0 -16 4q-5 5 -3 8q9 16 8 16q-1 1 -3 11q-1 8 0.5 12.5t4.5 3.5q5 -1 9 4l8 8q6 7 -6 19t-9 15q1 1 7 9q-11 5 -12 5q-7 2 -10 1q6 5 11.5 10t8.5 7
t4 3l8 6q-17 17 -17 16q-1 0 -12 8q9 19 9 20l21 26q-18 6 -21 11q-1 5 -8 10q15 27 16 28l14 17q-16 14 -20 30q-3 15 6 26q9 12 2 15q-6 3 -3 6q5 8 7 10q3 4 18 9q20 6 21 7h1q1 1 2.5 1.5t4 2t5.5 2.5q12 5 16 5q3 0 5 -1q4 -2 16 -4z" />
    <glyph glyph-name="Ograve" unicode="&#xd2;" 
d="M246 945q23 -1 34 -5t10 -12q0 -16 28 -22q32 -8 45 -15q15 -11 25 -24l1 -2l2 -4q3 -5 25 -32q2 -1 21 -24q18 -23 11 -41q-6 -12 1 -22q3 -3 1 -6q0 -6 -12 -11q-9 -5 0 -27q5 -11 3 -14t-12 0q-29 3 -46 -4h-7q-18 0 -47 22q1 -4 0 -4t-4 4q-7 9 -53 13q-13 13 -29 31
q-13 14 -40 17q1 3 -5 8t-19 14q-23 17 -23 16q-10 4 -13 9q-7 10 -20 33l-2 22v7q0 15 9 21t33 24q26 19 27 22q3 7 4 7q0 1 6 1q4 0 9.5 -0.5t16.5 -1t20 -0.5zM350 621q20 10 26 9l6 -2q26 -9 35 -6q8 3 14 0q22 -9 29 -15q4 -3 12 -13q14 -18 24 -24q6 -4 10 -11
q11 -29 15 -37q3 -7 1 -12q0 -1 -2.5 -7t-4.5 -11q-5 -14 0 -35q6 -22 3 -25q-4 -2 -3 -61q1 -21 0 -56q0 -37 4 -42q9 -17 9 -22q0 -3 -2 -4q-8 -3 -7 -9q0 -30 -3 -39q-4 -6 -2 -14q5 -21 5 -26l2 -48q-14 2 -16 -15q-3 -15 4 -16l-6.5 -6.5t-15 -14.5t-19.5 -19
q-32 -32 -49 -34q-2 0 -60 -2l-52 -1q-34 7 -35 5q-2 -2 -17 -3q-31 -4 -40 -4h-1q0 1 -2 1q-28 8 -36 9q-9 2 -13 6q-8 8 -17 19q-13 16 -15 16q-8 6 -13 9q-2 1 -5 3q-4 2 -3 3q-5 8 -17 23q-10 14 -2 32q12 26 6 30q-8 5 -6 11q4 30 9 38q4 7 1 13q-14 21 -13 29
q2 9 5 11q13 12 8 16q-5 6 -12 12q13 1 8 8t-4 11q2 25 9 29q8 5 4 10l-14 16q-2 0 -6 3q5 15 10 29t7 20l2 6l-2 2q-12 22 -3 25t6 12q-1 4 -2 7.5t-1.5 6t-1.5 5.5t-1.5 4t-0.5 2.5v1.5v1q2 2 -1 14q0 2 -0.5 4.5t-1 7t-0.5 7.5q-1 12 8 28l23 37q12 14 19 21q9 9 19 12
q32 7 37 14q6 6 12 5q6 -2 14.5 -4.5t13 -3.5t6.5 -2q8 -2 17 0q32 6 34 9q1 0 11 2h6q16 0 22 -6q5 -8 12 -5zM268 562q-7 -1 -9 1q-1 2 -26 -4q-29 -8 -32 -11l-2 -3q-2 -3 -6 -8.5t-9 -11.5l-9 -19q2 -4 7 -19q2 -6 0 -16q-1 -8 -17 -41q29 -18 16 -36l-14 -16
q-3 -3 3 -20q5 -17 14 -31q2 -4 -5 -12q-8 -7 2 -31q6 -11 1 -26l-4 -12l-1 -3q-2 -5 3 -12q2 -4 4 -32q2 -56 3 -59q6 -6 17 -21q5 -6 14 -3q10 3 22 -15q2 -5 8 2q5 6 35 8q8 2 8 -1q1 -3 21 -4q13 0 17 1q1 0 11.5 1t19.5 3q4 0 7 1t5.5 1t4.5 0.5t3 1t2 0.5h1l27 -2
l3 16l8 22q3 10 -3 13q-5 3 8 23q6 7 2 11q-2 2 13 26q3 5 -5 8q-7 1 -14 25q-1 3 2 4.5t8 1.5q10 1 1 29q-4 15 -8 19q-3 3 14 24q6 6 4 13q0 8 -15 20q-4 4 -1 10q6 14 11 24q2 5 -2 7q-5 3 9 14q-10 17 -10 19q1 2 4 19q3 21 4 22t-8 18q-7 10 -12 9q-4 -1 -4 3.5t2 15.5
q3 10 4 11q2 1 -4 18q-33 3 -34 3q-2 0 -29 3q-6 2 -12 -3q-9 -5 -39 -8q-7 -1 -15 5q-7 6 -24 4z" />
    <glyph glyph-name="Oacute" unicode="&#xd3;" 
d="M417 955q3 -1 11 2q6 2 55 -28q-6 -20 9 -41q8 -13 7 -20q0 -6 -7 -11l-6 -3q-1 -1 -2 -1.5t-2 -0.5q-8 -3 5 -25q-23 -28 -32 -31q-9 -4 -60 -33q-27 -16 -33 -13q-5 3 -18 -10q-40 -37 -59 -40q-16 -2 -37 -13q-11 -7 -22 -7q-5 0 -8 1q-2 1 -57 26q-7 19 2 27
q10 9 -10 25q6 8 26 38l22 32q22 50 32 53q10 2 33 32q4 6 6 13q1 7 24 16q21 9 26 14q4 5 16 8q-1 -9 2 -13t10 -3q13 2 10 7q-4 7 -3 11t6 3q5 1 19 -4q5 -1 9.5 -2.5l7.5 -2.5l6 -2t5 -2t3.5 -1.5t2.5 -0.5h1zM350 621q20 10 26 9l6 -2q26 -9 35 -6q8 3 14 0
q22 -9 29 -15q4 -3 12 -13q14 -18 24 -24q6 -4 10 -11q11 -29 15 -37q3 -7 1 -12q0 -1 -2.5 -7t-4.5 -11q-5 -14 0 -35q6 -22 3 -25q-4 -2 -3 -61q1 -21 0 -56q0 -37 4 -42q9 -17 9 -22q0 -3 -2 -4q-8 -3 -7 -9q0 -30 -3 -39q-4 -6 -2 -14q5 -21 5 -26l2 -48q-14 2 -16 -15
q-3 -15 4 -16l-6.5 -6.5t-15 -14.5t-19.5 -19q-32 -32 -49 -34q-2 0 -60 -2l-52 -1q-34 7 -35 5q-2 -2 -17 -3q-31 -4 -40 -4h-1q0 1 -2 1q-28 8 -36 9q-9 2 -13 6q-8 8 -17 19q-13 16 -15 16q-8 6 -13 9q-2 1 -5 3q-4 2 -3 3q-5 8 -17 23q-10 14 -2 32q12 26 6 30
q-8 5 -6 11q4 30 9 38q4 7 1 13q-14 21 -13 29q2 9 5 11q13 12 8 16q-5 6 -12 12q13 1 8 8t-4 11q2 25 9 29q8 5 4 10l-14 16q-2 0 -6 3q5 15 10 29t7 20l2 6l-2 2q-12 22 -3 25t6 12q-1 4 -2 7.5t-1.5 6t-1.5 5.5t-1.5 4t-0.5 2.5v1.5v1q2 2 -1 14q0 2 -0.5 4.5t-1 7
t-0.5 7.5q-1 12 8 28l23 37q12 14 19 21q9 9 19 12q32 7 37 14q6 6 12 5q6 -2 14.5 -4.5t13 -3.5t6.5 -2q8 -2 17 0q32 6 34 9q1 0 11 2h6q16 0 22 -6q5 -8 12 -5zM268 562q-7 -1 -9 1q-1 2 -26 -4q-29 -8 -32 -11l-2 -3q-2 -3 -6 -8.5t-9 -11.5l-9 -19q2 -4 7 -19
q2 -6 0 -16q-1 -8 -17 -41q29 -18 16 -36l-14 -16q-3 -3 3 -20q5 -17 14 -31q2 -4 -5 -12q-8 -7 2 -31q6 -11 1 -26l-4 -12l-1 -3q-2 -5 3 -12q2 -4 4 -32q2 -56 3 -59q6 -6 17 -21q5 -6 14 -3q10 3 22 -15q2 -5 8 2q5 6 35 8q8 2 8 -1q1 -3 21 -4q13 0 17 1q1 0 11.5 1
t19.5 3q4 0 7 1t5.5 1t4.5 0.5t3 1t2 0.5h1l27 -2l3 16l8 22q3 10 -3 13q-5 3 8 23q6 7 2 11q-2 2 13 26q3 5 -5 8q-7 1 -14 25q-1 3 2 4.5t8 1.5q10 1 1 29q-4 15 -8 19q-3 3 14 24q6 6 4 13q0 8 -15 20q-4 4 -1 10q6 14 11 24q2 5 -2 7q-5 3 9 14q-10 17 -10 19q1 2 4 19
q3 21 4 22t-8 18q-7 10 -12 9q-4 -1 -4 3.5t2 15.5q3 10 4 11q2 1 -4 18q-33 3 -34 3q-2 0 -29 3q-6 2 -12 -3q-9 -5 -39 -8q-7 -1 -15 5q-7 6 -24 4z" />
    <glyph glyph-name="Ocircumflex" unicode="&#xd4;" 
d="M354 872q40 -37 47 -38q10 -2 15 -4q53 -27 55 -49q1 -21 4 -26q2 -6 2 -19q0 -7 -2 -19q-5 -23 -34 -31q-43 9 -47 2q-6 -8 -30 7q-8 5 -13 5q-7 0 -42 30l-5 6q-6 6 -17 6q5 -8 0.5 -11.5t-19.5 -2.5q-29 2 -43 -40q-20 -8 -36 -8q-13 0 -14 9q-5 17 -27 23q-6 1 -14 8
q-3 2 -2 7q2 13 12 38q12 28 44 49q29 18 31 20q27 24 71 42q18 7 34 7q19 0 30 -11zM350 621q20 10 26 9l6 -2q26 -9 35 -6q8 3 14 0q22 -9 29 -15q4 -3 12 -13q14 -18 24 -24q6 -4 10 -11q11 -29 15 -37q3 -7 1 -12q0 -1 -2.5 -7t-4.5 -11q-5 -14 0 -35q6 -22 3 -25
q-4 -2 -3 -61q1 -21 0 -56q0 -37 4 -42q9 -17 9 -22q0 -3 -2 -4q-8 -3 -7 -9q0 -30 -3 -39q-4 -6 -2 -14q5 -21 5 -26l2 -48q-14 2 -16 -15q-3 -15 4 -16l-6.5 -6.5t-15 -14.5t-19.5 -19q-32 -32 -49 -34q-2 0 -60 -2l-52 -1q-34 7 -35 5q-2 -2 -17 -3q-31 -4 -40 -4h-1
q0 1 -2 1q-28 8 -36 9q-9 2 -13 6q-8 8 -17 19q-13 16 -15 16q-8 6 -13 9q-2 1 -5 3q-4 2 -3 3q-5 8 -17 23q-10 14 -2 32q12 26 6 30q-8 5 -6 11q4 30 9 38q4 7 1 13q-14 21 -13 29q2 9 5 11q13 12 8 16q-5 6 -12 12q13 1 8 8t-4 11q2 25 9 29q8 5 4 10l-14 16q-2 0 -6 3
q5 15 10 29t7 20l2 6l-2 2q-12 22 -3 25t6 12q-1 4 -2 7.5t-1.5 6t-1.5 5.5t-1.5 4t-0.5 2.5v1.5v1q2 2 -1 14q0 2 -0.5 4.5t-1 7t-0.5 7.5q-1 12 8 28l23 37q12 14 19 21q9 9 19 12q32 7 37 14q6 6 12 5q6 -2 14.5 -4.5t13 -3.5t6.5 -2q8 -2 17 0q32 6 34 9q1 0 11 2h6
q16 0 22 -6q5 -8 12 -5zM268 562q-7 -1 -9 1q-1 2 -26 -4q-29 -8 -32 -11l-2 -3q-2 -3 -6 -8.5t-9 -11.5l-9 -19q2 -4 7 -19q2 -6 0 -16q-1 -8 -17 -41q29 -18 16 -36l-14 -16q-3 -3 3 -20q5 -17 14 -31q2 -4 -5 -12q-8 -7 2 -31q6 -11 1 -26l-4 -12l-1 -3q-2 -5 3 -12
q2 -4 4 -32q2 -56 3 -59q6 -6 17 -21q5 -6 14 -3q10 3 22 -15q2 -5 8 2q5 6 35 8q8 2 8 -1q1 -3 21 -4q13 0 17 1q1 0 11.5 1t19.5 3q4 0 7 1t5.5 1t4.5 0.5t3 1t2 0.5h1l27 -2l3 16l8 22q3 10 -3 13q-5 3 8 23q6 7 2 11q-2 2 13 26q3 5 -5 8q-7 1 -14 25q-1 3 2 4.5t8 1.5
q10 1 1 29q-4 15 -8 19q-3 3 14 24q6 6 4 13q0 8 -15 20q-4 4 -1 10q6 14 11 24q2 5 -2 7q-5 3 9 14q-10 17 -10 19q1 2 4 19q3 21 4 22t-8 18q-7 10 -12 9q-4 -1 -4 3.5t2 15.5q3 10 4 11q2 1 -4 18q-33 3 -34 3q-2 0 -29 3q-6 2 -12 -3q-9 -5 -39 -8q-7 -1 -15 5
q-7 6 -24 4z" />
    <glyph glyph-name="Otilde" unicode="&#xd5;" 
d="M409 709q-1 -5 -5.5 -3t-9.5 2q-14 0 -16 -1h-1q-21 -5 -31 -4q-17 2 -27 13l-5 5q-6 4 -9 4q-6 0 -35 31l-3 3q-1 1 -6 4.5t-8 4.5q-1 0 -7 2l-6 2q-10 -6 -12 -8t-6 -4q-13 -8 -28.5 -25.5t-23.5 -35.5q-22 -6 -33 -5q-12 2 -12 9q-2 15 -22 23q-5 1 -12 8q-4 2 -2 7
q1 9 14 33t43 40q8 4 15.5 8.5t10.5 5.5l4 2q13 10 31 19q9 10 29 15q1 0 2.5 -1t2.5 -1h2q21 5 31 4q16 -1 26 -13l5 -5q6 -4 10 -4q7 0 35 -30l2 -3q10 -6 14 -9q5 -5 13 -4q2 1 2 3q14 -4 25 7l9 9t4.5 5.5t2 4.5t2.5 7t5 11q22 6 32 5q12 -2 12 -10q1 -15 23 -23
q5 -1 12 -8q3 -1 1 -6q-2 -13 -13 -34q-13 -23 -44 -40q-8 -4 -15.5 -8.5t-10.5 -6.5l-4 -1q-4 -3 -5 -2q-2 1 -8 -2zM350 621q20 10 26 9l6 -2q26 -9 35 -6q8 3 14 0q22 -9 29 -15q4 -3 12 -13q14 -18 24 -24q6 -4 10 -11q11 -29 15 -37q3 -7 1 -12q0 -1 -2.5 -7t-4.5 -11
q-5 -14 0 -35q6 -22 3 -25q-4 -2 -3 -61q1 -21 0 -56q0 -37 4 -42q9 -17 9 -22q0 -3 -2 -4q-8 -3 -7 -9q0 -30 -3 -39q-4 -6 -2 -14q5 -21 5 -26l2 -48q-14 2 -16 -15q-3 -15 4 -16l-6.5 -6.5t-15 -14.5t-19.5 -19q-32 -32 -49 -34q-2 0 -60 -2l-52 -1q-34 7 -35 5
q-2 -2 -17 -3q-31 -4 -40 -4h-1q0 1 -2 1q-28 8 -36 9q-9 2 -13 6q-8 8 -17 19q-13 16 -15 16q-8 6 -13 9q-2 1 -5 3q-4 2 -3 3q-5 8 -17 23q-10 14 -2 32q12 26 6 30q-8 5 -6 11q4 30 9 38q4 7 1 13q-14 21 -13 29q2 9 5 11q13 12 8 16q-5 6 -12 12q13 1 8 8t-4 11
q2 25 9 29q8 5 4 10l-14 16q-2 0 -6 3q5 15 10 29t7 20l2 6l-2 2q-12 22 -3 25t6 12q-1 4 -2 7.5t-1.5 6t-1.5 5.5t-1.5 4t-0.5 2.5v1.5v1q2 2 -1 14q0 2 -0.5 4.5t-1 7t-0.5 7.5q-1 12 8 28l23 37q12 14 19 21q9 9 19 12q32 7 37 14q6 6 12 5q6 -2 14.5 -4.5t13 -3.5
t6.5 -2q8 -2 17 0q32 6 34 9q1 0 11 2h6q16 0 22 -6q5 -8 12 -5zM268 562q-7 -1 -9 1q-1 2 -26 -4q-29 -8 -32 -11l-2 -3q-2 -3 -6 -8.5t-9 -11.5l-9 -19q2 -4 7 -19q2 -6 0 -16q-1 -8 -17 -41q29 -18 16 -36l-14 -16q-3 -3 3 -20q5 -17 14 -31q2 -4 -5 -12q-8 -7 2 -31
q6 -11 1 -26l-4 -12l-1 -3q-2 -5 3 -12q2 -4 4 -32q2 -56 3 -59q6 -6 17 -21q5 -6 14 -3q10 3 22 -15q2 -5 8 2q5 6 35 8q8 2 8 -1q1 -3 21 -4q13 0 17 1q1 0 11.5 1t19.5 3q4 0 7 1t5.5 1t4.5 0.5t3 1t2 0.5h1l27 -2l3 16l8 22q3 10 -3 13q-5 3 8 23q6 7 2 11q-2 2 13 26
q3 5 -5 8q-7 1 -14 25q-1 3 2 4.5t8 1.5q10 1 1 29q-4 15 -8 19q-3 3 14 24q6 6 4 13q0 8 -15 20q-4 4 -1 10q6 14 11 24q2 5 -2 7q-5 3 9 14q-10 17 -10 19q1 2 4 19q3 21 4 22t-8 18q-7 10 -12 9q-4 -1 -4 3.5t2 15.5q3 10 4 11q2 1 -4 18q-33 3 -34 3q-2 0 -29 3
q-6 2 -12 -3q-9 -5 -39 -8q-7 -1 -15 5q-7 6 -24 4z" />
    <glyph glyph-name="Odieresis" unicode="&#xd6;" 
d="M490 806q3 -8 8 -10v-3q0 -14 -19 -72l1 -9q0 -10 -76 -32q-16 5 -37 17q-26 17 -42 40q4 28 0 44q-3 14 28 32q43 26 55 33q4 2 6 2q17 1 76 -42zM257 816q3 -6 13 -21q12 -18 3 -54q-3 -10 -15 -32q-13 -24 -42 -21q-64 4 -70 14q-7 10 -17 19q-4 7 -3 11q2 6 -8 45
q0 3 8 19q9 17 40 36q35 20 62 3q28 -17 29 -19zM350 621q20 10 26 9l6 -2q26 -9 35 -6q8 3 14 0q22 -9 29 -15q4 -3 12 -13q14 -18 24 -24q6 -4 10 -11q11 -29 15 -37q3 -7 1 -12q0 -1 -2.5 -7t-4.5 -11q-5 -14 0 -35q6 -22 3 -25q-4 -2 -3 -61q1 -21 0 -56q0 -37 4 -42
q9 -17 9 -22q0 -3 -2 -4q-8 -3 -7 -9q0 -30 -3 -39q-4 -6 -2 -14q5 -21 5 -26l2 -48q-14 2 -16 -15q-3 -15 4 -16l-6.5 -6.5t-15 -14.5t-19.5 -19q-32 -32 -49 -34q-2 0 -60 -2l-52 -1q-34 7 -35 5q-2 -2 -17 -3q-31 -4 -40 -4h-1q0 1 -2 1q-28 8 -36 9q-9 2 -13 6
q-8 8 -17 19q-13 16 -15 16q-8 6 -13 9q-2 1 -5 3q-4 2 -3 3q-5 8 -17 23q-10 14 -2 32q12 26 6 30q-8 5 -6 11q4 30 9 38q4 7 1 13q-14 21 -13 29q2 9 5 11q13 12 8 16q-5 6 -12 12q13 1 8 8t-4 11q2 25 9 29q8 5 4 10l-14 16q-2 0 -6 3q5 15 10 29t7 20l2 6l-2 2
q-12 22 -3 25t6 12q-1 4 -2 7.5t-1.5 6t-1.5 5.5t-1.5 4t-0.5 2.5v1.5v1q2 2 -1 14q0 2 -0.5 4.5t-1 7t-0.5 7.5q-1 12 8 28l23 37q12 14 19 21q9 9 19 12q32 7 37 14q6 6 12 5q6 -2 14.5 -4.5t13 -3.5t6.5 -2q8 -2 17 0q32 6 34 9q1 0 11 2h6q16 0 22 -6q5 -8 12 -5z
M268 562q-7 -1 -9 1q-1 2 -26 -4q-29 -8 -32 -11l-2 -3q-2 -3 -6 -8.5t-9 -11.5l-9 -19q2 -4 7 -19q2 -6 0 -16q-1 -8 -17 -41q29 -18 16 -36l-14 -16q-3 -3 3 -20q5 -17 14 -31q2 -4 -5 -12q-8 -7 2 -31q6 -11 1 -26l-4 -12l-1 -3q-2 -5 3 -12q2 -4 4 -32q2 -56 3 -59
q6 -6 17 -21q5 -6 14 -3q10 3 22 -15q2 -5 8 2q5 6 35 8q8 2 8 -1q1 -3 21 -4q13 0 17 1q1 0 11.5 1t19.5 3q4 0 7 1t5.5 1t4.5 0.5t3 1t2 0.5h1l27 -2l3 16l8 22q3 10 -3 13q-5 3 8 23q6 7 2 11q-2 2 13 26q3 5 -5 8q-7 1 -14 25q-1 3 2 4.5t8 1.5q10 1 1 29q-4 15 -8 19
q-3 3 14 24q6 6 4 13q0 8 -15 20q-4 4 -1 10q6 14 11 24q2 5 -2 7q-5 3 9 14q-10 17 -10 19q1 2 4 19q3 21 4 22t-8 18q-7 10 -12 9q-4 -1 -4 3.5t2 15.5q3 10 4 11q2 1 -4 18q-33 3 -34 3q-2 0 -29 3q-6 2 -12 -3q-9 -5 -39 -8q-7 -1 -15 5q-7 6 -24 4z" />
    <glyph glyph-name="multiply" unicode="&#xd7;" 
d="M497 423q-13 -19 -19 -18l-4 1l2 -2l21 -14l8 -8q-8 -8 -18 -17q-15 -15 -28 -31q-23 -27 -25 -27q0 1 -11 -10l-5 -5q-5 -4 -9 -8q-9 -10 -13 -20l-7 -24q-1 -1 -17 -27q24 -16 30 -19q1 -1 6 -7q17 -22 22 -20q6 1 15 -8q29 -29 31 -27q1 1 3 -3q4 -6 4 -7
q11 -23 15 -23q2 0 9 -9q12 -16 14 -18v-6v-7v-23q0 -2 -17 -25q-25 5 -28 6q-2 1 -29 7q-22 14 -24 19q0 4 -11 10q-4 3 -9 7t-8 5.5t-5.5 3.5t-3 3t-0.5 2q2 4 -8 12q-7 6 -21 20l-16 16q-4 5 -7.5 9t-5.5 7l-1 2q-2 3 -29 12q-5 -4 -18 -17q-9 -8 -19 -20
q-17 -23 -19 -27q-6 -9 -14 -14q-18 -13 -21 -20q-3 -6 -7 -7q-31 -13 -28 -20q4 -5 -5 -13q-18 -15 -23 -15h-1q-30 10 -43 14q-1 7 0 7q5 5 13 16q-4 7 -10 16q-4 6 -4 7l-1 2q0 2 -0.5 6.5t-1.5 9.5q3 3 13.5 11.5t17.5 13.5q5 3 10 7t7 6l3 2q18 22 20 25l14 14
q27 24 24 28q-3 5 8 14q19 16 20 16l13 21q-7 4 -19 12q-14 11 -24 22q-25 25 -23 29q1 2 -8 10q-26 21 -24 24q1 3 -10 11q-23 17 -24 17l-2 2q-3 2 -8 6.5t-11 10.5q13 17 12 18l9 19q9 0 26.5 -0.5t24.5 -1.5q19 -2 24 -5q20 -22 23 -22q4 0 14 -8l18 -17q0 -2 12 -21
q9 -17 9 -18l3 -2q3 -2 8.5 -6t11.5 -8q12 -1 19 -1q1 0 5 -3q25 32 30 37q1 1 20 19q16 15 19 22q4 10 6 11q1 1 8.5 6.5t14.5 10.5q3 2 6 5t5 4.5t3.5 2.5t2.5 1l1 1q14 9 24 11h1q8 0 44 -11z" />
    <glyph glyph-name="Oslash" unicode="&#xd8;" 
d="M268 562q-7 -1 -9 1q-1 2 -26 -4q-29 -8 -32 -11l-2 -3q-2 -3 -6 -8.5t-9 -11.5l-9 -19q2 -4 7 -19q2 -6 0 -16q-1 -8 -17 -41q29 -18 16 -36l-14 -16q-3 -3 3 -20q5 -17 14 -31q2 -4 -5 -12q-8 -7 2 -31q6 -11 1 -26l-4 -12l-1 -3q-2 -5 3 -12q2 -4 4 -32q0 -2 0.5 -5.5
t0.5 -5.5q1 0 1 0.5t1 0.5q19 9 10 16q-10 6 -12 8q-5 5 4 11q26 12 23 16q-3 5 1 11q11 17 15 15q2 -1 3.5 1t3.5 6q22 49 30 53q6 3 3 7q-11 28 12 34q10 3 15 7.5t4 10.5q-3 19 14 42q14 19 17 25q2 13 18 39q15 21 17 30q12 26 8 30q-5 4 -3 7q1 2 3 4q-3 0 -15 2
q-6 2 -12 -3q-9 -5 -39 -8q-7 -1 -15 5q-7 6 -24 4zM350 621q20 10 26 9l6 -2q26 -9 35 -6q1 1 5.5 4t7.5 6q17 11 -11 25q12 6 25 12t14 7q10 7 14 13q9 17 18 19q1 1 5 0q10 1 42 -2l4 -8l1 -2q2 -3 5.5 -8t6.5 -10q-7 -20 -7 -28q0 -9 -5 -12q-11 -11 -6 -15q6 -4 4 -9
q-1 -4 -14 -29q-12 -20 -19 -28q3 -8 6.5 -16t5 -12.5t2.5 -6.5q3 -7 1 -12q0 -1 -2.5 -7t-4.5 -11q-5 -14 0 -35q6 -22 3 -25q-4 -2 -3 -61q1 -21 0 -56q0 -37 4 -42q9 -17 9 -22q0 -3 -2 -4q-8 -3 -7 -9q0 -30 -3 -39q-4 -6 -2 -14q5 -21 5 -26l2 -48q-14 2 -16 -15
q-3 -15 4 -16l-6.5 -6.5t-15 -14.5t-19.5 -19q-32 -32 -49 -34q-2 0 -60 -2l-52 -1q-34 7 -35 5q-2 -2 -17 -3q-8 -1 -18 -2.5t-13 -1.5q-2 -4 -8 -12q-19 -24 -19 -25q-1 -3 -2 -6.5t-2 -5.5l-1 -2q0 -1 -2 -4t-5.5 -10t-7.5 -14l-16 -3q-3 -1 -13 -1q-30 0 -75 5
q-13 31 -12 40q0 5 2 6q8 3 11 21q8 44 18 48q11 5 14 17q2 7 5 11l-1 1q-5 8 -17 23q-10 14 -2 32q12 26 6 30q-8 5 -6 11q4 30 9 38q4 7 1 13q-14 21 -13 29q2 9 5 11q13 12 8 16q-5 6 -12 12q13 1 8 8t-4 11q2 25 9 29q8 5 4 10l-14 16q-2 0 -6 3q5 15 10 29t7 20l2 6
l-2 2q-12 22 -3 25t6 12q-1 4 -2 7.5t-1.5 6t-1.5 5.5t-1.5 4t-0.5 2.5v1.5v1q2 2 -1 14q0 2 -0.5 4.5t-1 7t-0.5 7.5q-1 12 8 28l23 37q12 14 19 21q9 9 19 12q32 7 37 14q6 6 12 5q6 -2 14.5 -4.5t13 -3.5t6.5 -2q8 -2 17 0q32 6 34 9q1 0 11 2h6q16 0 22 -6q5 -8 12 -5z
M284 112q7 0 7 -2q1 -3 21 -4q13 0 17 1q1 0 11.5 1t19.5 3q4 0 7 1t5.5 1t4.5 0.5t3 1t2 0.5h1l27 -2l3 16l8 22q3 10 -3 13q-5 3 8 23q6 7 2 11q-2 2 13 26q3 5 -5 8q-7 1 -14 25q-1 3 2 4.5t8 1.5q10 1 1 29q-4 15 -8 19q-3 3 14 24q6 6 4 13q0 8 -15 20q-4 4 -1 10
q6 14 11 24q2 5 -2 7q-5 3 9 14q-10 17 -10 19l2 8q-1 0 -1 -1l-2 -1q-7 -18 -3 -22q5 -5 -16 -32l-17 -27l-13 -24q-4 -4 -15 -29q-5 -11 -9 -16t-6 -3q3 -41 8 -48q2 -5 0 -5q-24 0 -32 -5q-9 -5 -6 -9q9 -25 -3 -25q-5 0 -7.5 -1t-1.5 -3q7 -22 -6 -29q-12 -7 2 -12
q-22 -17 -18 -21t0 -11l-2 -7q-2 -4 -5 -7z" />
    <glyph glyph-name="Ugrave" unicode="&#xd9;" 
d="M254 955q22 -1 33 -5.5t10 -12.5q0 -16 29 -22q30 -7 44 -15q14 -11 25 -24q1 0 1.5 -2t1.5 -3q4 -7 25 -33q8 -8 21 -23q18 -23 11 -41q-6 -12 1 -23q2 -2 1 -5q0 -8 -11 -12q-9 -4 0 -26q4 -10 2 -13.5t-12 -0.5q-29 3 -46 -4q-2 -1 -7 -1q-15 0 -46 23q1 -4 0 -4t-4 4
q-7 9 -54 13q-21 21 -29 30q-14 15 -40 18q1 3 -5 8t-19 14q-6 4 -12 9t-8 6l-2 1q-12 5 -14 8q-2 4 -20 34l-2 22v6q0 15 9 21t33 24q25 19 27 23q3 5 4 6q0 1 6 1q24 0 47 -1zM503 620q-2 -15 -2.5 -21t1.5 -7q3 -2 6 -13q4 -17 0 -27q-3 -6 -1 -11q5 -15 8 -27
q4 -11 1 -16q-3 -7 -6.5 -14t-5 -10.5t-1.5 -4.5q-2 -2 1 -7q16 -19 13 -23q0 -1 -1.5 -4t-3.5 -8.5t-4 -10.5q7 -11 3 -15q-6 -6 -3 -10q13 -22 12 -33q0 -8 -5 -13q-13 -13 -5 -23q3 -3 9 -13q5 -8 -9 -24q-10 -11 -8 -13q1 -1 3 -4.5t3 -5.5l4 -8l3 -3q1 -3 0 -17l-1 -18
q-1 -13 1 -26v-13q3 -11 0 -34q-3 -27 0 -35q1 -8 -3 -12q-21 -24 -21 -29q1 -4 -8 -12q-14 -11 -19.5 -16.5t-4.5 -6.5q1 -2 -7 -10q-16 -16 -18 -13q-2 2 -13 -1q-32 -10 -36 -8q-4 3 -22 1q-33 -4 -36 -1q-3 5 -18 2q-29 -4 -33 -3q-7 2 -18 1q-16 -2 -27 -2l-3 1
q-4 1 -11 3t-15 5q-10 2 -17 4.5t-10 4t-2 2.5q1 4 -10 10q-22 10 -31 14q-7 2 -10 4.5t-2 5.5q6 19 0 22q-8 2 -10 7l-14 38l1 7q2 6 6 22q4 15 1 25q-9 25 -3 31t3 16q-11 45 -9 48q1 1 2 2.5t1 2.5q14 30 7 32q-6 1 -6 14q-1 23 5 29q6 8 5 12q-1 3 -3 10.5t-3 11.5
q-3 13 -2 29q3 31 -3 34q-5 3 -4 6v2q9 15 10 17q6 11 5 18q-2 16 -6 20q-3 6 -2 10q4 25 8 30q5 5 2 11l-10 22l-1 1q0 2 -0.5 4.5t-0.5 5.5l28 28q1 1 19 22q19 -9 21 -11t6 -14q20 -13 22 -18q1 -6 -1 -11q-11 -18 -3 -21q9 -3 8 -9q-5 -12 -9 -20q-1 -2 8 -16
q-17 -20 -11 -23q5 -3 5 -11q1 -16 3 -19q1 -2 -13 -13q18 -16 12 -21t-6 -14q1 -25 3 -25q1 -1 0 -8q-4 -19 4 -19q4 1 6 -1t0 -7l-2 -6t-1.5 -5t-1 -3.5t-0.5 -2.5l-1 -1q-2 -2 0 -29q-10 -4 -4 -7l6 -5q-2 -30 -3 -33q-3 -5 0 -11q6 -13 8 -15q4 -6 -4 -33
q-7 -25 -12 -31q-4 -6 0 -7q9 -2 12.5 -4t1.5 -6q-6 -8 -5 -13q3 -18 4 -19l2 -3q2 -3 6.5 -10t10.5 -14q10 1 12 0l38 -13q8 -2 11 7q1 3 2 4.5t2.5 2t2.5 0.5q36 -5 64 -11q22 -3 30 5q17 17 22 18q6 1 8 6q2 26 4 27t3 11q3 19 0 23q-4 6 -2 11l6 22v1q0 1 -0.5 3t-1 4.5
t-1.5 6t-2 7.5q16 17 9 21q-8 5 -8 10q0 4 0.5 7t0.5 5t0.5 3.5t0.5 2.5v1q0 6 -2 15q9 4 5 8q-3 3 -4 8q-3 20 2 27q3 4 5 11q3 19 -5 25q-8 7 -5 10q10 26 18 32t4 9q-10 8 -16 17q-8 11 -4 17l11 9q6 6 -8 15q9 20 3 26q-6 5 -5 7q8 13 11 15q4 3 3 5q-7 22 -3 28t3 14
q-3 20 -3 21q-1 0 -8 6q36 18 36 19l3 1q3 1 9.5 3t13.5 4l2 -2z" />
    </font>
</defs>
</svg>
